  0
SECTION
  2
HEADER
  9
$ACADVER
  1
AC1014
  9
$HANDSEED
  5
FFFF
  9
$INSUNITS
 70
     4
  9
$MEASUREMENT
 70
     1
  0
ENDSEC
  0
SECTION
  2
TABLES
  0
TABLE
  2
VPORT
  5
8
330
0
100
AcDbSymbolTable
 70
     4
  0
VPORT
  5
2E
330
8
100
AcDbSymbolTableRecord
100
AcDbViewportTableRecord
  2
*ACTIVE
 70
     0
 10
0.0
 20
0.0
 11
1.0
 21
1.0
 12
210.0
 22
148.5
 13
0.0
 23
0.0
 14
10.0
 24
10.0
 15
10.0
 25
10.0
 16
0.0
 26
0.0
 36
1.0
 17
0.0
 27
0.0
 37
0.0
 40
341.0
 41
1.24
 42
50.0
 43
0.0
 44
0.0
 50
0.0
 51
0.0
 71
     0
 72
   100
 73
     1
 74
     3
 75
     0
 76
     0
 77
     0
 78
     0
  0
ENDTAB
  0
TABLE
  2
LTYPE
  5
5
330
0
100
AcDbSymbolTable
 70
     1
  0
LTYPE
  5
14
330
5
100
AcDbSymbolTableRecord
100
AcDbLinetypeTableRecord
  2
BYBLOCK
 70
     0
  3

 72
    65
 73
     0
 40
0.0
  0
LTYPE
  5
15
330
5
100
AcDbSymbolTableRecord
100
AcDbLinetypeTableRecord
  2
BYLAYER
 70
     0
  3

 72
    65
 73
     0
 40
0.0
  0
LTYPE
  5
16
330
5
100
AcDbSymbolTableRecord
100
AcDbLinetypeTableRecord
  2
CONTINUOUS
 70
     0
  3
Solid line
 72
    65
 73
     0
 40
0.0
  0
ENDTAB
  0
TABLE
  2
LAYER
  5
2
100
AcDbSymbolTable
 70
2
  0
LAYER
  5
50
100
AcDbSymbolTableRecord
100
AcDbLayerTableRecord
  2
0
 70
0
  6
CONTINUOUS
  0
LAYER
  5
51
100
AcDbSymbolTableRecord
100
AcDbLayerTableRecord
  2
Layer_1
 70
0
  6
CONTINUOUS
  0
ENDTAB
  0
TABLE
  2
STYLE
  5
3
330
0
100
AcDbSymbolTable
 70
     1
  0
STYLE
  5
11
330
3
100
AcDbSymbolTableRecord
100
AcDbTextStyleTableRecord
  2
STANDARD
 70
     0
 40
0.0
 41
1.0
 50
0.0
 71
     0
 42
2.5
  3
txt
  4

  0
ENDTAB
  0
TABLE
  2
VIEW
  5
6
330
0
100
AcDbSymbolTable
 70
     0
  0
ENDTAB
  0
TABLE
  2
UCS
  5
7
330
0
100
AcDbSymbolTable
 70
     0
  0
ENDTAB
  0
TABLE
  2
APPID
  5
9
330
0
100
AcDbSymbolTable
 70
     2
  0
APPID
  5
12
330
9
100
AcDbSymbolTableRecord
100
AcDbRegAppTableRecord
  2
ACAD
 70
     0
  0
ENDTAB
  0
TABLE
  2
DIMSTYLE
  5
A
330
0
100
AcDbSymbolTable
 70
     1
  0
DIMSTYLE
105
27
330
A
100
AcDbSymbolTableRecord
100
AcDbDimStyleTableRecord
  2
ISO-25
 70
     0
  3

  4

  5

  6

  7

 40
1.0
 41
2.5
 42
0.625
 43
3.75
 44
1.25
 45
0.0
 46
0.0
 47
0.0
 48
0.0
140
2.5
141
2.5
142
0.0
143
0.03937007874016
144
1.0
145
0.0
146
1.0
147
0.625
 71
     0
 72
     0
 73
     0
 74
     0
 75
     0
 76
     0
 77
     1
 78
     8
170
     0
171
     3
172
     1
173
     0
174
     0
175
     0
176
     0
177
     0
178
     0
270
     2
271
     2
272
     2
273
     2
274
     3
340
11
275
     0
280
     0
281
     0
282
     0
283
     0
284
     8
285
     0
286
     0
287
     3
288
     0
  0
ENDTAB
  0
TABLE
  2
BLOCK_RECORD
  5
1
330
0
100
AcDbSymbolTable
 70
     1
  0
BLOCK_RECORD
  5
1F
330
1
100
AcDbSymbolTableRecord
100
AcDbBlockTableRecord
  2
*MODEL_SPACE
  0
BLOCK_RECORD
  5
1B
330
1
100
AcDbSymbolTableRecord
100
AcDbBlockTableRecord
  2
*PAPER_SPACE
  0
ENDTAB
  0
ENDSEC
  0
SECTION
  2
BLOCKS
  0
BLOCK
  5
20
330
1F
100
AcDbEntity
  8
0
100
AcDbBlockBegin
  2
*MODEL_SPACE
 70
     0
 10
0.0
 20
0.0
 30
0.0
  3
*MODEL_SPACE
  1

  0
ENDBLK
  5
21
330
1F
100
AcDbEntity
  8
0
100
AcDbBlockEnd
  0
BLOCK
  5
1C
330
1B
100
AcDbEntity
 67
     1
  8
0
100
AcDbBlockBegin
  2
*PAPER_SPACE
  1

  0
ENDBLK
  5
1D
330
1B
100
AcDbEntity
 67
     1
  8
0
100
AcDbBlockEnd
  0
ENDSEC
  0
SECTION
  2
ENTITIES
  0
LWPOLYLINE
  5
100
100
AcDbEntity
  8
Layer_1
 62
7
100
AcDbPolyline
 90
4
 70
1
 10
0.211742
 20
209.787484
 30
0.0
 10
296.788200
 20
209.787484
 30
0.0
 10
296.788200
 20
0.212677
 30
0.0
 10
0.211742
 20
0.212677
 30
0.0
  0
LWPOLYLINE
  5
101
100
AcDbEntity
  8
Layer_1
 62
7
100
AcDbPolyline
 90
4
 70
1
 10
5.213982
 20
204.785240
 30
0.0
 10
291.785951
 20
204.785240
 30
0.0
 10
291.785951
 20
5.214919
 30
0.0
 10
5.213982
 20
5.214919
 30
0.0
  0
LWPOLYLINE
  5
102
100
AcDbEntity
  8
Layer_1
 62
7
100
AcDbPolyline
 90
2
 70
0
 10
8.309170
 20
104.971699
 30
0.0
 10
288.742499
 20
104.971699
 30
0.0
  0
LWPOLYLINE
  5
103
100
AcDbEntity
  8
Layer_1
 62
7
100
AcDbPolyline
 90
2
 70
0
 10
148.499958
 20
201.743392
 30
0.0
 10
148.499958
 20
8.258257
 30
0.0
  0
LWPOLYLINE
  5
104
100
AcDbEntity
  8
Layer_1
 62
7
100
AcDbPolyline
 90
3
 70
1
 10
153.499961
 20
201.583188
 30
0.0
 10
143.499969
 20
201.583188
 30
0.0
 10
148.499972
 20
204.860423
 30
0.0
  0
LWPOLYLINE
  5
105
100
AcDbEntity
  8
Layer_1
 62
7
100
AcDbPolyline
 90
3
 70
1
 10
153.499976
 20
8.434218
 30
0.0
 10
143.499969
 20
8.434218
 30
0.0
 10
148.499972
 20
5.156983
 30
0.0
  0
LWPOLYLINE
  5
106
100
AcDbEntity
  8
Layer_1
 62
7
100
AcDbPolyline
 90
3
 70
1
 10
288.568338
 20
110.000079
 30
0.0
 10
288.568338
 20
100.000085
 30
0.0
 10
291.845566
 20
105.000081
 30
0.0
  0
LWPOLYLINE
  5
107
100
AcDbEntity
  8
Layer_1
 62
7
100
AcDbPolyline
 90
4
 70
1
 10
18.286200
 20
19.847471
 30
0.0
 10
278.713972
 20
19.847471
 30
0.0
 10
278.713972
 20
190.152500
 30
0.0
 10
18.286200
 20
190.152500
 30
0.0
  0
LWPOLYLINE
  5
108
100
AcDbEntity
  8
Layer_1
 62
7
100
AcDbPolyline
 90
4
 70
1
 10
20.826202
 20
22.387472
 30
0.0
 10
276.173970
 20
22.387472
 30
0.0
 10
276.173970
 20
187.612498
 30
0.0
 10
20.826202
 20
187.612498
 30
0.0
  0
LWPOLYLINE
  5
109
100
AcDbEntity
  8
Layer_1
 62
1
100
AcDbPolyline
 90
2
 70
0
 10
20.826202
 20
22.387472
 30
0.0
 10
20.826202
 20
187.612498
 30
0.0
  0
LWPOLYLINE
  5
10a
100
AcDbEntity
  8
Layer_1
 62
1
100
AcDbPolyline
 90
2
 70
0
 10
28.336430
 20
22.387472
 30
0.0
 10
28.336430
 20
187.612498
 30
0.0
  0
LWPOLYLINE
  5
10b
100
AcDbEntity
  8
Layer_1
 62
1
100
AcDbPolyline
 90
2
 70
0
 10
35.846659
 20
22.387472
 30
0.0
 10
35.846659
 20
187.612498
 30
0.0
  0
LWPOLYLINE
  5
10c
100
AcDbEntity
  8
Layer_1
 62
1
100
AcDbPolyline
 90
2
 70
0
 10
43.356887
 20
22.387472
 30
0.0
 10
43.356887
 20
187.612498
 30
0.0
  0
LWPOLYLINE
  5
10d
100
AcDbEntity
  8
Layer_1
 62
1
100
AcDbPolyline
 90
2
 70
0
 10
50.867116
 20
22.387472
 30
0.0
 10
50.867116
 20
187.612498
 30
0.0
  0
LWPOLYLINE
  5
10e
100
AcDbEntity
  8
Layer_1
 62
1
100
AcDbPolyline
 90
2
 70
0
 10
58.377345
 20
22.387472
 30
0.0
 10
58.377345
 20
187.612498
 30
0.0
  0
LWPOLYLINE
  5
10f
100
AcDbEntity
  8
Layer_1
 62
1
100
AcDbPolyline
 90
2
 70
0
 10
65.887573
 20
22.387472
 30
0.0
 10
65.887573
 20
187.612498
 30
0.0
  0
LWPOLYLINE
  5
110
100
AcDbEntity
  8
Layer_1
 62
1
100
AcDbPolyline
 90
2
 70
0
 10
73.397800
 20
22.387472
 30
0.0
 10
73.397800
 20
187.612498
 30
0.0
  0
LWPOLYLINE
  5
111
100
AcDbEntity
  8
Layer_1
 62
1
100
AcDbPolyline
 90
2
 70
0
 10
80.908031
 20
22.387472
 30
0.0
 10
80.908031
 20
187.612498
 30
0.0
  0
LWPOLYLINE
  5
112
100
AcDbEntity
  8
Layer_1
 62
1
100
AcDbPolyline
 90
2
 70
0
 10
88.418258
 20
22.387472
 30
0.0
 10
88.418258
 20
187.612498
 30
0.0
  0
LWPOLYLINE
  5
113
100
AcDbEntity
  8
Layer_1
 62
1
100
AcDbPolyline
 90
2
 70
0
 10
95.928486
 20
22.387472
 30
0.0
 10
95.928486
 20
187.612498
 30
0.0
  0
LWPOLYLINE
  5
114
100
AcDbEntity
  8
Layer_1
 62
1
100
AcDbPolyline
 90
2
 70
0
 10
103.438716
 20
22.387472
 30
0.0
 10
103.438716
 20
187.612498
 30
0.0
  0
LWPOLYLINE
  5
115
100
AcDbEntity
  8
Layer_1
 62
1
100
AcDbPolyline
 90
2
 70
0
 10
110.948944
 20
22.387472
 30
0.0
 10
110.948944
 20
187.612498
 30
0.0
  0
LWPOLYLINE
  5
116
100
AcDbEntity
  8
Layer_1
 62
1
100
AcDbPolyline
 90
2
 70
0
 10
118.459171
 20
22.387472
 30
0.0
 10
118.459171
 20
187.612498
 30
0.0
  0
LWPOLYLINE
  5
117
100
AcDbEntity
  8
Layer_1
 62
1
100
AcDbPolyline
 90
2
 70
0
 10
125.969402
 20
22.387472
 30
0.0
 10
125.969402
 20
187.612498
 30
0.0
  0
LWPOLYLINE
  5
118
100
AcDbEntity
  8
Layer_1
 62
1
100
AcDbPolyline
 90
2
 70
0
 10
133.479629
 20
22.387472
 30
0.0
 10
133.479629
 20
187.612498
 30
0.0
  0
LWPOLYLINE
  5
119
100
AcDbEntity
  8
Layer_1
 62
1
100
AcDbPolyline
 90
2
 70
0
 10
140.989857
 20
22.387472
 30
0.0
 10
140.989857
 20
187.612498
 30
0.0
  0
LWPOLYLINE
  5
11a
100
AcDbEntity
  8
Layer_1
 62
1
100
AcDbPolyline
 90
2
 70
0
 10
148.500088
 20
22.387472
 30
0.0
 10
148.500088
 20
187.612498
 30
0.0
  0
LWPOLYLINE
  5
11b
100
AcDbEntity
  8
Layer_1
 62
1
100
AcDbPolyline
 90
2
 70
0
 10
156.010315
 20
22.387472
 30
0.0
 10
156.010315
 20
187.612498
 30
0.0
  0
LWPOLYLINE
  5
11c
100
AcDbEntity
  8
Layer_1
 62
1
100
AcDbPolyline
 90
2
 70
0
 10
163.520542
 20
22.387472
 30
0.0
 10
163.520542
 20
187.612498
 30
0.0
  0
LWPOLYLINE
  5
11d
100
AcDbEntity
  8
Layer_1
 62
1
100
AcDbPolyline
 90
2
 70
0
 10
171.030773
 20
22.387472
 30
0.0
 10
171.030773
 20
187.612498
 30
0.0
  0
LWPOLYLINE
  5
11e
100
AcDbEntity
  8
Layer_1
 62
1
100
AcDbPolyline
 90
2
 70
0
 10
178.541000
 20
22.387472
 30
0.0
 10
178.541000
 20
187.612498
 30
0.0
  0
LWPOLYLINE
  5
11f
100
AcDbEntity
  8
Layer_1
 62
1
100
AcDbPolyline
 90
2
 70
0
 10
186.051228
 20
22.387472
 30
0.0
 10
186.051228
 20
187.612498
 30
0.0
  0
LWPOLYLINE
  5
120
100
AcDbEntity
  8
Layer_1
 62
1
100
AcDbPolyline
 90
2
 70
0
 10
193.561459
 20
22.387472
 30
0.0
 10
193.561459
 20
187.612498
 30
0.0
  0
LWPOLYLINE
  5
121
100
AcDbEntity
  8
Layer_1
 62
1
100
AcDbPolyline
 90
2
 70
0
 10
201.071686
 20
22.387472
 30
0.0
 10
201.071686
 20
187.612498
 30
0.0
  0
LWPOLYLINE
  5
122
100
AcDbEntity
  8
Layer_1
 62
1
100
AcDbPolyline
 90
2
 70
0
 10
208.581913
 20
22.387472
 30
0.0
 10
208.581913
 20
187.612498
 30
0.0
  0
LWPOLYLINE
  5
123
100
AcDbEntity
  8
Layer_1
 62
1
100
AcDbPolyline
 90
2
 70
0
 10
216.092144
 20
22.387472
 30
0.0
 10
216.092144
 20
187.612498
 30
0.0
  0
LWPOLYLINE
  5
124
100
AcDbEntity
  8
Layer_1
 62
1
100
AcDbPolyline
 90
2
 70
0
 10
223.602372
 20
22.387472
 30
0.0
 10
223.602372
 20
187.612498
 30
0.0
  0
LWPOLYLINE
  5
125
100
AcDbEntity
  8
Layer_1
 62
1
100
AcDbPolyline
 90
2
 70
0
 10
231.112599
 20
22.387472
 30
0.0
 10
231.112599
 20
187.612498
 30
0.0
  0
LWPOLYLINE
  5
126
100
AcDbEntity
  8
Layer_1
 62
1
100
AcDbPolyline
 90
2
 70
0
 10
238.622830
 20
22.387472
 30
0.0
 10
238.622830
 20
187.612498
 30
0.0
  0
LWPOLYLINE
  5
127
100
AcDbEntity
  8
Layer_1
 62
1
100
AcDbPolyline
 90
2
 70
0
 10
246.133057
 20
22.387472
 30
0.0
 10
246.133057
 20
187.612498
 30
0.0
  0
LWPOLYLINE
  5
128
100
AcDbEntity
  8
Layer_1
 62
1
100
AcDbPolyline
 90
2
 70
0
 10
253.643284
 20
22.387472
 30
0.0
 10
253.643284
 20
187.612498
 30
0.0
  0
LWPOLYLINE
  5
129
100
AcDbEntity
  8
Layer_1
 62
1
100
AcDbPolyline
 90
2
 70
0
 10
261.153515
 20
22.387472
 30
0.0
 10
261.153515
 20
187.612498
 30
0.0
  0
LWPOLYLINE
  5
12a
100
AcDbEntity
  8
Layer_1
 62
1
100
AcDbPolyline
 90
2
 70
0
 10
268.663743
 20
22.387472
 30
0.0
 10
268.663743
 20
187.612498
 30
0.0
  0
LWPOLYLINE
  5
12b
100
AcDbEntity
  8
Layer_1
 62
1
100
AcDbPolyline
 90
2
 70
0
 10
276.173970
 20
22.387472
 30
0.0
 10
276.173970
 20
187.612498
 30
0.0
  0
LWPOLYLINE
  5
12c
100
AcDbEntity
  8
Layer_1
 62
1
100
AcDbPolyline
 90
2
 70
0
 10
20.826202
 20
22.387472
 30
0.0
 10
276.173970
 20
22.387472
 30
0.0
  0
LWPOLYLINE
  5
12d
100
AcDbEntity
  8
Layer_1
 62
1
100
AcDbPolyline
 90
2
 70
0
 10
20.826202
 20
29.897700
 30
0.0
 10
276.173970
 20
29.897700
 30
0.0
  0
LWPOLYLINE
  5
12e
100
AcDbEntity
  8
Layer_1
 62
1
100
AcDbPolyline
 90
2
 70
0
 10
20.826202
 20
37.407927
 30
0.0
 10
276.173970
 20
37.407927
 30
0.0
  0
LWPOLYLINE
  5
12f
100
AcDbEntity
  8
Layer_1
 62
1
100
AcDbPolyline
 90
2
 70
0
 10
20.826202
 20
44.918158
 30
0.0
 10
276.173970
 20
44.918158
 30
0.0
  0
LWPOLYLINE
  5
130
100
AcDbEntity
  8
Layer_1
 62
1
100
AcDbPolyline
 90
2
 70
0
 10
20.826202
 20
52.428385
 30
0.0
 10
276.173970
 20
52.428385
 30
0.0
  0
LWPOLYLINE
  5
131
100
AcDbEntity
  8
Layer_1
 62
1
100
AcDbPolyline
 90
2
 70
0
 10
20.826202
 20
59.938612
 30
0.0
 10
276.173970
 20
59.938612
 30
0.0
  0
LWPOLYLINE
  5
132
100
AcDbEntity
  8
Layer_1
 62
1
100
AcDbPolyline
 90
2
 70
0
 10
20.826202
 20
67.448843
 30
0.0
 10
276.173970
 20
67.448843
 30
0.0
  0
LWPOLYLINE
  5
133
100
AcDbEntity
  8
Layer_1
 62
1
100
AcDbPolyline
 90
2
 70
0
 10
20.826202
 20
74.959071
 30
0.0
 10
276.173970
 20
74.959071
 30
0.0
  0
LWPOLYLINE
  5
134
100
AcDbEntity
  8
Layer_1
 62
1
100
AcDbPolyline
 90
2
 70
0
 10
20.826202
 20
82.469298
 30
0.0
 10
276.173970
 20
82.469298
 30
0.0
  0
LWPOLYLINE
  5
135
100
AcDbEntity
  8
Layer_1
 62
1
100
AcDbPolyline
 90
2
 70
0
 10
20.826202
 20
89.979529
 30
0.0
 10
276.173970
 20
89.979529
 30
0.0
  0
LWPOLYLINE
  5
136
100
AcDbEntity
  8
Layer_1
 62
1
100
AcDbPolyline
 90
2
 70
0
 10
20.826202
 20
97.489756
 30
0.0
 10
276.173970
 20
97.489756
 30
0.0
  0
LWPOLYLINE
  5
137
100
AcDbEntity
  8
Layer_1
 62
1
100
AcDbPolyline
 90
2
 70
0
 10
20.826202
 20
104.999984
 30
0.0
 10
276.173970
 20
104.999984
 30
0.0
  0
LWPOLYLINE
  5
138
100
AcDbEntity
  8
Layer_1
 62
1
100
AcDbPolyline
 90
2
 70
0
 10
20.826202
 20
112.510214
 30
0.0
 10
276.173970
 20
112.510214
 30
0.0
  0
LWPOLYLINE
  5
139
100
AcDbEntity
  8
Layer_1
 62
1
100
AcDbPolyline
 90
2
 70
0
 10
20.826202
 20
120.020442
 30
0.0
 10
276.173970
 20
120.020442
 30
0.0
  0
LWPOLYLINE
  5
13a
100
AcDbEntity
  8
Layer_1
 62
1
100
AcDbPolyline
 90
2
 70
0
 10
20.826202
 20
127.530669
 30
0.0
 10
276.173970
 20
127.530669
 30
0.0
  0
LWPOLYLINE
  5
13b
100
AcDbEntity
  8
Layer_1
 62
1
100
AcDbPolyline
 90
2
 70
0
 10
20.826202
 20
135.040900
 30
0.0
 10
276.173970
 20
135.040900
 30
0.0
  0
LWPOLYLINE
  5
13c
100
AcDbEntity
  8
Layer_1
 62
1
100
AcDbPolyline
 90
2
 70
0
 10
20.826202
 20
142.551127
 30
0.0
 10
276.173970
 20
142.551127
 30
0.0
  0
LWPOLYLINE
  5
13d
100
AcDbEntity
  8
Layer_1
 62
1
100
AcDbPolyline
 90
2
 70
0
 10
20.826202
 20
150.061355
 30
0.0
 10
276.173970
 20
150.061355
 30
0.0
  0
LWPOLYLINE
  5
13e
100
AcDbEntity
  8
Layer_1
 62
1
100
AcDbPolyline
 90
2
 70
0
 10
20.826202
 20
157.571584
 30
0.0
 10
276.173970
 20
157.571584
 30
0.0
  0
LWPOLYLINE
  5
13f
100
AcDbEntity
  8
Layer_1
 62
1
100
AcDbPolyline
 90
2
 70
0
 10
20.826202
 20
165.081813
 30
0.0
 10
276.173970
 20
165.081813
 30
0.0
  0
LWPOLYLINE
  5
140
100
AcDbEntity
  8
Layer_1
 62
1
100
AcDbPolyline
 90
2
 70
0
 10
20.826202
 20
172.592041
 30
0.0
 10
276.173970
 20
172.592041
 30
0.0
  0
LWPOLYLINE
  5
141
100
AcDbEntity
  8
Layer_1
 62
1
100
AcDbPolyline
 90
2
 70
0
 10
20.826202
 20
180.102270
 30
0.0
 10
276.173970
 20
180.102270
 30
0.0
  0
LWPOLYLINE
  5
142
100
AcDbEntity
  8
Layer_1
 62
1
100
AcDbPolyline
 90
2
 70
0
 10
20.826202
 20
187.612498
 30
0.0
 10
276.173970
 20
187.612498
 30
0.0
  0
SPLINE
  5
143
100
AcDbEntity
  8
Layer_1
 62
1
100
AcDbSpline
 70
8
 71
3
 72
8
 73
4
 74
0
 40
0
 40
0
 40
0
 40
0
 40
1
 40
1
 40
1
 40
1
 10
65.887573
 20
20.887471
 30
0.0
 10
66.285376
 20
20.887471
 30
0.0
 10
66.666944
 20
21.045519
 30
0.0
 10
66.948235
 20
21.326810
 30
0.0
  0
SPLINE
  5
144
100
AcDbEntity
  8
Layer_1
 62
1
100
AcDbSpline
 70
8
 71
3
 72
8
 73
4
 74
0
 40
0
 40
0
 40
0
 40
0
 40
1
 40
1
 40
1
 40
1
 10
66.948235
 20
21.326810
 30
0.0
 10
67.229526
 20
21.608101
 30
0.0
 10
67.387574
 20
21.989669
 30
0.0
 10
67.387574
 20
22.387472
 30
0.0
  0
SPLINE
  5
145
100
AcDbEntity
  8
Layer_1
 62
1
100
AcDbSpline
 70
8
 71
3
 72
8
 73
4
 74
0
 40
0
 40
0
 40
0
 40
0
 40
1
 40
1
 40
1
 40
1
 10
67.387574
 20
22.387472
 30
0.0
 10
67.387574
 20
22.785279
 30
0.0
 10
67.229526
 20
23.166843
 30
0.0
 10
66.948235
 20
23.448135
 30
0.0
  0
SPLINE
  5
146
100
AcDbEntity
  8
Layer_1
 62
1
100
AcDbSpline
 70
8
 71
3
 72
8
 73
4
 74
0
 40
0
 40
0
 40
0
 40
0
 40
1
 40
1
 40
1
 40
1
 10
66.948235
 20
23.448135
 30
0.0
 10
66.666944
 20
23.729426
 30
0.0
 10
66.285376
 20
23.887477
 30
0.0
 10
65.887573
 20
23.887477
 30
0.0
  0
SPLINE
  5
147
100
AcDbEntity
  8
Layer_1
 62
1
100
AcDbSpline
 70
8
 71
3
 72
8
 73
4
 74
0
 40
0
 40
0
 40
0
 40
0
 40
1
 40
1
 40
1
 40
1
 10
65.887573
 20
23.887477
 30
0.0
 10
65.489766
 20
23.887477
 30
0.0
 10
65.108201
 20
23.729426
 30
0.0
 10
64.826910
 20
23.448135
 30
0.0
  0
SPLINE
  5
148
100
AcDbEntity
  8
Layer_1
 62
1
100
AcDbSpline
 70
8
 71
3
 72
8
 73
4
 74
0
 40
0
 40
0
 40
0
 40
0
 40
1
 40
1
 40
1
 40
1
 10
64.826910
 20
23.448135
 30
0.0
 10
64.545619
 20
23.166843
 30
0.0
 10
64.387568
 20
22.785279
 30
0.0
 10
64.387568
 20
22.387472
 30
0.0
  0
SPLINE
  5
149
100
AcDbEntity
  8
Layer_1
 62
1
100
AcDbSpline
 70
8
 71
3
 72
8
 73
4
 74
0
 40
0
 40
0
 40
0
 40
0
 40
1
 40
1
 40
1
 40
1
 10
64.387568
 20
22.387472
 30
0.0
 10
64.387568
 20
21.989669
 30
0.0
 10
64.545619
 20
21.608101
 30
0.0
 10
64.826910
 20
21.326810
 30
0.0
  0
SPLINE
  5
14a
100
AcDbEntity
  8
Layer_1
 62
1
100
AcDbSpline
 70
8
 71
3
 72
8
 73
4
 74
0
 40
0
 40
0
 40
0
 40
0
 40
1
 40
1
 40
1
 40
1
 10
64.826910
 20
21.326810
 30
0.0
 10
65.108201
 20
21.045519
 30
0.0
 10
65.489766
 20
20.887471
 30
0.0
 10
65.887573
 20
20.887471
 30
0.0
  0
LWPOLYLINE
  5
14b
100
AcDbEntity
  8
Layer_1
 62
4
100
AcDbPolyline
 90
3
 70
0
 10
62.994793
 20
19.494693
 30
0.0
 10
234.005379
 20
190.505278
 30
0.0
 10
234.005379
 20
190.505278
 30
0.0
  0
SPLINE
  5
14c
100
AcDbEntity
  8
Layer_1
 62
1
100
AcDbSpline
 70
8
 71
3
 72
8
 73
4
 74
0
 40
0
 40
0
 40
0
 40
0
 40
1
 40
1
 40
1
 40
1
 10
71.584987
 20
26.584885
 30
0.0
 10
71.982793
 20
26.584885
 30
0.0
 10
72.364362
 20
26.742936
 30
0.0
 10
72.645649
 20
27.024227
 30
0.0
  0
SPLINE
  5
14d
100
AcDbEntity
  8
Layer_1
 62
1
100
AcDbSpline
 70
8
 71
3
 72
8
 73
4
 74
0
 40
0
 40
0
 40
0
 40
0
 40
1
 40
1
 40
1
 40
1
 10
72.645649
 20
27.024227
 30
0.0
 10
72.926940
 20
27.305519
 30
0.0
 10
73.084992
 20
27.687083
 30
0.0
 10
73.084992
 20
28.084890
 30
0.0
  0
SPLINE
  5
14e
100
AcDbEntity
  8
Layer_1
 62
1
100
AcDbSpline
 70
8
 71
3
 72
8
 73
4
 74
0
 40
0
 40
0
 40
0
 40
0
 40
1
 40
1
 40
1
 40
1
 10
73.084992
 20
28.084890
 30
0.0
 10
73.084992
 20
28.482696
 30
0.0
 10
72.926940
 20
28.864261
 30
0.0
 10
72.645649
 20
29.145552
 30
0.0
  0
SPLINE
  5
14f
100
AcDbEntity
  8
Layer_1
 62
1
100
AcDbSpline
 70
8
 71
3
 72
8
 73
4
 74
0
 40
0
 40
0
 40
0
 40
0
 40
1
 40
1
 40
1
 40
1
 10
72.645649
 20
29.145552
 30
0.0
 10
72.364362
 20
29.426843
 30
0.0
 10
71.982793
 20
29.584891
 30
0.0
 10
71.584987
 20
29.584891
 30
0.0
  0
SPLINE
  5
150
100
AcDbEntity
  8
Layer_1
 62
1
100
AcDbSpline
 70
8
 71
3
 72
8
 73
4
 74
0
 40
0
 40
0
 40
0
 40
0
 40
1
 40
1
 40
1
 40
1
 10
71.584987
 20
29.584891
 30
0.0
 10
71.187184
 20
29.584891
 30
0.0
 10
70.805616
 20
29.426843
 30
0.0
 10
70.524324
 20
29.145552
 30
0.0
  0
SPLINE
  5
151
100
AcDbEntity
  8
Layer_1
 62
1
100
AcDbSpline
 70
8
 71
3
 72
8
 73
4
 74
0
 40
0
 40
0
 40
0
 40
0
 40
1
 40
1
 40
1
 40
1
 10
70.524324
 20
29.145552
 30
0.0
 10
70.243033
 20
28.864261
 30
0.0
 10
70.084985
 20
28.482696
 30
0.0
 10
70.084985
 20
28.084890
 30
0.0
  0
SPLINE
  5
152
100
AcDbEntity
  8
Layer_1
 62
1
100
AcDbSpline
 70
8
 71
3
 72
8
 73
4
 74
0
 40
0
 40
0
 40
0
 40
0
 40
1
 40
1
 40
1
 40
1
 10
70.084985
 20
28.084890
 30
0.0
 10
70.084985
 20
27.687083
 30
0.0
 10
70.243033
 20
27.305519
 30
0.0
 10
70.524324
 20
27.024227
 30
0.0
  0
SPLINE
  5
153
100
AcDbEntity
  8
Layer_1
 62
1
100
AcDbSpline
 70
8
 71
3
 72
8
 73
4
 74
0
 40
0
 40
0
 40
0
 40
0
 40
1
 40
1
 40
1
 40
1
 10
70.524324
 20
27.024227
 30
0.0
 10
70.805616
 20
26.742936
 30
0.0
 10
71.187184
 20
26.584885
 30
0.0
 10
71.584987
 20
26.584885
 30
0.0
  0
LWPOLYLINE
  5
154
100
AcDbEntity
  8
Layer_1
 62
1
100
AcDbPolyline
 90
1
 70
1
 10
65.887573
 20
20.887471
 30
0.0
  0
SPLINE
  5
155
100
AcDbEntity
  8
Layer_1
 62
1
100
AcDbSpline
 70
8
 71
3
 72
8
 73
4
 74
0
 40
0
 40
0
 40
0
 40
0
 40
1
 40
1
 40
1
 40
1
 10
77.282404
 20
32.282302
 30
0.0
 10
77.680211
 20
32.282302
 30
0.0
 10
78.061776
 20
32.440354
 30
0.0
 10
78.343067
 20
32.721645
 30
0.0
  0
SPLINE
  5
156
100
AcDbEntity
  8
Layer_1
 62
1
100
AcDbSpline
 70
8
 71
3
 72
8
 73
4
 74
0
 40
0
 40
0
 40
0
 40
0
 40
1
 40
1
 40
1
 40
1
 10
78.343067
 20
32.721645
 30
0.0
 10
78.624358
 20
33.002933
 30
0.0
 10
78.782409
 20
33.384501
 30
0.0
 10
78.782409
 20
33.782307
 30
0.0
  0
SPLINE
  5
157
100
AcDbEntity
  8
Layer_1
 62
1
100
AcDbSpline
 70
8
 71
3
 72
8
 73
4
 74
0
 40
0
 40
0
 40
0
 40
0
 40
1
 40
1
 40
1
 40
1
 10
78.782409
 20
33.782307
 30
0.0
 10
78.782409
 20
34.180110
 30
0.0
 10
78.624358
 20
34.561679
 30
0.0
 10
78.343067
 20
34.842970
 30
0.0
  0
SPLINE
  5
158
100
AcDbEntity
  8
Layer_1
 62
1
100
AcDbSpline
 70
8
 71
3
 72
8
 73
4
 74
0
 40
0
 40
0
 40
0
 40
0
 40
1
 40
1
 40
1
 40
1
 10
78.343067
 20
34.842970
 30
0.0
 10
78.061776
 20
35.124261
 30
0.0
 10
77.680211
 20
35.282309
 30
0.0
 10
77.282404
 20
35.282309
 30
0.0
  0
SPLINE
  5
159
100
AcDbEntity
  8
Layer_1
 62
1
100
AcDbSpline
 70
8
 71
3
 72
8
 73
4
 74
0
 40
0
 40
0
 40
0
 40
0
 40
1
 40
1
 40
1
 40
1
 10
77.282404
 20
35.282309
 30
0.0
 10
76.884598
 20
35.282309
 30
0.0
 10
76.503033
 20
35.124261
 30
0.0
 10
76.221742
 20
34.842970
 30
0.0
  0
SPLINE
  5
15a
100
AcDbEntity
  8
Layer_1
 62
1
100
AcDbSpline
 70
8
 71
3
 72
8
 73
4
 74
0
 40
0
 40
0
 40
0
 40
0
 40
1
 40
1
 40
1
 40
1
 10
76.221742
 20
34.842970
 30
0.0
 10
75.940451
 20
34.561679
 30
0.0
 10
75.782403
 20
34.180110
 30
0.0
 10
75.782403
 20
33.782307
 30
0.0
  0
SPLINE
  5
15b
100
AcDbEntity
  8
Layer_1
 62
1
100
AcDbSpline
 70
8
 71
3
 72
8
 73
4
 74
0
 40
0
 40
0
 40
0
 40
0
 40
1
 40
1
 40
1
 40
1
 10
75.782403
 20
33.782307
 30
0.0
 10
75.782403
 20
33.384501
 30
0.0
 10
75.940451
 20
33.002933
 30
0.0
 10
76.221742
 20
32.721645
 30
0.0
  0
SPLINE
  5
15c
100
AcDbEntity
  8
Layer_1
 62
1
100
AcDbSpline
 70
8
 71
3
 72
8
 73
4
 74
0
 40
0
 40
0
 40
0
 40
0
 40
1
 40
1
 40
1
 40
1
 10
76.221742
 20
32.721645
 30
0.0
 10
76.503033
 20
32.440354
 30
0.0
 10
76.884598
 20
32.282302
 30
0.0
 10
77.282404
 20
32.282302
 30
0.0
  0
LWPOLYLINE
  5
15d
100
AcDbEntity
  8
Layer_1
 62
1
100
AcDbPolyline
 90
1
 70
1
 10
71.584987
 20
26.584885
 30
0.0
  0
SPLINE
  5
15e
100
AcDbEntity
  8
Layer_1
 62
1
100
AcDbSpline
 70
8
 71
3
 72
8
 73
4
 74
0
 40
0
 40
0
 40
0
 40
0
 40
1
 40
1
 40
1
 40
1
 10
82.979815
 20
37.979709
 30
0.0
 10
83.377622
 20
37.979709
 30
0.0
 10
83.759186
 20
38.137758
 30
0.0
 10
84.040477
 20
38.419049
 30
0.0
  0
SPLINE
  5
15f
100
AcDbEntity
  8
Layer_1
 62
1
100
AcDbSpline
 70
8
 71
3
 72
8
 73
4
 74
0
 40
0
 40
0
 40
0
 40
0
 40
1
 40
1
 40
1
 40
1
 10
84.040477
 20
38.419049
 30
0.0
 10
84.321768
 20
38.700340
 30
0.0
 10
84.479820
 20
39.081904
 30
0.0
 10
84.479820
 20
39.479711
 30
0.0
  0
SPLINE
  5
160
100
AcDbEntity
  8
Layer_1
 62
1
100
AcDbSpline
 70
8
 71
3
 72
8
 73
4
 74
0
 40
0
 40
0
 40
0
 40
0
 40
1
 40
1
 40
1
 40
1
 10
84.479820
 20
39.479711
 30
0.0
 10
84.479820
 20
39.877518
 30
0.0
 10
84.321768
 20
40.259082
 30
0.0
 10
84.040477
 20
40.540373
 30
0.0
  0
SPLINE
  5
161
100
AcDbEntity
  8
Layer_1
 62
1
100
AcDbSpline
 70
8
 71
3
 72
8
 73
4
 74
0
 40
0
 40
0
 40
0
 40
0
 40
1
 40
1
 40
1
 40
1
 10
84.040477
 20
40.540373
 30
0.0
 10
83.759186
 20
40.821664
 30
0.0
 10
83.377622
 20
40.979716
 30
0.0
 10
82.979815
 20
40.979716
 30
0.0
  0
SPLINE
  5
162
100
AcDbEntity
  8
Layer_1
 62
1
100
AcDbSpline
 70
8
 71
3
 72
8
 73
4
 74
0
 40
0
 40
0
 40
0
 40
0
 40
1
 40
1
 40
1
 40
1
 10
82.979815
 20
40.979716
 30
0.0
 10
82.582008
 20
40.979716
 30
0.0
 10
82.200444
 20
40.821664
 30
0.0
 10
81.919153
 20
40.540373
 30
0.0
  0
SPLINE
  5
163
100
AcDbEntity
  8
Layer_1
 62
1
100
AcDbSpline
 70
8
 71
3
 72
8
 73
4
 74
0
 40
0
 40
0
 40
0
 40
0
 40
1
 40
1
 40
1
 40
1
 10
81.919153
 20
40.540373
 30
0.0
 10
81.637862
 20
40.259082
 30
0.0
 10
81.479814
 20
39.877518
 30
0.0
 10
81.479814
 20
39.479711
 30
0.0
  0
SPLINE
  5
164
100
AcDbEntity
  8
Layer_1
 62
1
100
AcDbSpline
 70
8
 71
3
 72
8
 73
4
 74
0
 40
0
 40
0
 40
0
 40
0
 40
1
 40
1
 40
1
 40
1
 10
81.479814
 20
39.479711
 30
0.0
 10
81.479814
 20
39.081904
 30
0.0
 10
81.637862
 20
38.700340
 30
0.0
 10
81.919153
 20
38.419049
 30
0.0
  0
SPLINE
  5
165
100
AcDbEntity
  8
Layer_1
 62
1
100
AcDbSpline
 70
8
 71
3
 72
8
 73
4
 74
0
 40
0
 40
0
 40
0
 40
0
 40
1
 40
1
 40
1
 40
1
 10
81.919153
 20
38.419049
 30
0.0
 10
82.200444
 20
38.137758
 30
0.0
 10
82.582008
 20
37.979709
 30
0.0
 10
82.979815
 20
37.979709
 30
0.0
  0
LWPOLYLINE
  5
166
100
AcDbEntity
  8
Layer_1
 62
1
100
AcDbPolyline
 90
1
 70
1
 10
77.282404
 20
32.282302
 30
0.0
  0
SPLINE
  5
167
100
AcDbEntity
  8
Layer_1
 62
1
100
AcDbSpline
 70
8
 71
3
 72
8
 73
4
 74
0
 40
0
 40
0
 40
0
 40
0
 40
1
 40
1
 40
1
 40
1
 10
88.677233
 20
43.677124
 30
0.0
 10
89.075039
 20
43.677124
 30
0.0
 10
89.456604
 20
43.835175
 30
0.0
 10
89.737895
 20
44.116466
 30
0.0
  0
SPLINE
  5
168
100
AcDbEntity
  8
Layer_1
 62
1
100
AcDbSpline
 70
8
 71
3
 72
8
 73
4
 74
0
 40
0
 40
0
 40
0
 40
0
 40
1
 40
1
 40
1
 40
1
 10
89.737895
 20
44.116466
 30
0.0
 10
90.019186
 20
44.397757
 30
0.0
 10
90.177234
 20
44.779322
 30
0.0
 10
90.177234
 20
45.177129
 30
0.0
  0
SPLINE
  5
169
100
AcDbEntity
  8
Layer_1
 62
1
100
AcDbSpline
 70
8
 71
3
 72
8
 73
4
 74
0
 40
0
 40
0
 40
0
 40
0
 40
1
 40
1
 40
1
 40
1
 10
90.177234
 20
45.177129
 30
0.0
 10
90.177234
 20
45.574932
 30
0.0
 10
90.019186
 20
45.956500
 30
0.0
 10
89.737895
 20
46.237791
 30
0.0
  0
SPLINE
  5
16a
100
AcDbEntity
  8
Layer_1
 62
1
100
AcDbSpline
 70
8
 71
3
 72
8
 73
4
 74
0
 40
0
 40
0
 40
0
 40
0
 40
1
 40
1
 40
1
 40
1
 10
89.737895
 20
46.237791
 30
0.0
 10
89.456604
 20
46.519082
 30
0.0
 10
89.075039
 20
46.677130
 30
0.0
 10
88.677233
 20
46.677130
 30
0.0
  0
SPLINE
  5
16b
100
AcDbEntity
  8
Layer_1
 62
1
100
AcDbSpline
 70
8
 71
3
 72
8
 73
4
 74
0
 40
0
 40
0
 40
0
 40
0
 40
1
 40
1
 40
1
 40
1
 10
88.677233
 20
46.677130
 30
0.0
 10
88.279426
 20
46.677130
 30
0.0
 10
87.897861
 20
46.519082
 30
0.0
 10
87.616570
 20
46.237791
 30
0.0
  0
SPLINE
  5
16c
100
AcDbEntity
  8
Layer_1
 62
1
100
AcDbSpline
 70
8
 71
3
 72
8
 73
4
 74
0
 40
0
 40
0
 40
0
 40
0
 40
1
 40
1
 40
1
 40
1
 10
87.616570
 20
46.237791
 30
0.0
 10
87.335279
 20
45.956500
 30
0.0
 10
87.177228
 20
45.574932
 30
0.0
 10
87.177228
 20
45.177129
 30
0.0
  0
SPLINE
  5
16d
100
AcDbEntity
  8
Layer_1
 62
1
100
AcDbSpline
 70
8
 71
3
 72
8
 73
4
 74
0
 40
0
 40
0
 40
0
 40
0
 40
1
 40
1
 40
1
 40
1
 10
87.177228
 20
45.177129
 30
0.0
 10
87.177228
 20
44.779322
 30
0.0
 10
87.335279
 20
44.397757
 30
0.0
 10
87.616570
 20
44.116466
 30
0.0
  0
SPLINE
  5
16e
100
AcDbEntity
  8
Layer_1
 62
1
100
AcDbSpline
 70
8
 71
3
 72
8
 73
4
 74
0
 40
0
 40
0
 40
0
 40
0
 40
1
 40
1
 40
1
 40
1
 10
87.616570
 20
44.116466
 30
0.0
 10
87.897861
 20
43.835175
 30
0.0
 10
88.279426
 20
43.677124
 30
0.0
 10
88.677233
 20
43.677124
 30
0.0
  0
LWPOLYLINE
  5
16f
100
AcDbEntity
  8
Layer_1
 62
1
100
AcDbPolyline
 90
1
 70
1
 10
82.979815
 20
37.979709
 30
0.0
  0
SPLINE
  5
170
100
AcDbEntity
  8
Layer_1
 62
1
100
AcDbSpline
 70
8
 71
3
 72
8
 73
4
 74
0
 40
0
 40
0
 40
0
 40
0
 40
1
 40
1
 40
1
 40
1
 10
94.374647
 20
49.374541
 30
0.0
 10
94.772453
 20
49.374541
 30
0.0
 10
95.154021
 20
49.532589
 30
0.0
 10
95.435309
 20
49.813880
 30
0.0
  0
SPLINE
  5
171
100
AcDbEntity
  8
Layer_1
 62
1
100
AcDbSpline
 70
8
 71
3
 72
8
 73
4
 74
0
 40
0
 40
0
 40
0
 40
0
 40
1
 40
1
 40
1
 40
1
 10
95.435309
 20
49.813880
 30
0.0
 10
95.716600
 20
50.095171
 30
0.0
 10
95.874652
 20
50.476740
 30
0.0
 10
95.874652
 20
50.874543
 30
0.0
  0
SPLINE
  5
172
100
AcDbEntity
  8
Layer_1
 62
1
100
AcDbSpline
 70
8
 71
3
 72
8
 73
4
 74
0
 40
0
 40
0
 40
0
 40
0
 40
1
 40
1
 40
1
 40
1
 10
95.874652
 20
50.874543
 30
0.0
 10
95.874652
 20
51.272349
 30
0.0
 10
95.716600
 20
51.653917
 30
0.0
 10
95.435309
 20
51.935205
 30
0.0
  0
SPLINE
  5
173
100
AcDbEntity
  8
Layer_1
 62
1
100
AcDbSpline
 70
8
 71
3
 72
8
 73
4
 74
0
 40
0
 40
0
 40
0
 40
0
 40
1
 40
1
 40
1
 40
1
 10
95.435309
 20
51.935205
 30
0.0
 10
95.154021
 20
52.216496
 30
0.0
 10
94.772453
 20
52.374548
 30
0.0
 10
94.374647
 20
52.374548
 30
0.0
  0
SPLINE
  5
174
100
AcDbEntity
  8
Layer_1
 62
1
100
AcDbSpline
 70
8
 71
3
 72
8
 73
4
 74
0
 40
0
 40
0
 40
0
 40
0
 40
1
 40
1
 40
1
 40
1
 10
94.374647
 20
52.374548
 30
0.0
 10
93.976844
 20
52.374548
 30
0.0
 10
93.595275
 20
52.216496
 30
0.0
 10
93.313984
 20
51.935205
 30
0.0
  0
SPLINE
  5
175
100
AcDbEntity
  8
Layer_1
 62
1
100
AcDbSpline
 70
8
 71
3
 72
8
 73
4
 74
0
 40
0
 40
0
 40
0
 40
0
 40
1
 40
1
 40
1
 40
1
 10
93.313984
 20
51.935205
 30
0.0
 10
93.032693
 20
51.653917
 30
0.0
 10
92.874645
 20
51.272349
 30
0.0
 10
92.874645
 20
50.874543
 30
0.0
  0
SPLINE
  5
176
100
AcDbEntity
  8
Layer_1
 62
1
100
AcDbSpline
 70
8
 71
3
 72
8
 73
4
 74
0
 40
0
 40
0
 40
0
 40
0
 40
1
 40
1
 40
1
 40
1
 10
92.874645
 20
50.874543
 30
0.0
 10
92.874645
 20
50.476740
 30
0.0
 10
93.032693
 20
50.095171
 30
0.0
 10
93.313984
 20
49.813880
 30
0.0
  0
SPLINE
  5
177
100
AcDbEntity
  8
Layer_1
 62
1
100
AcDbSpline
 70
8
 71
3
 72
8
 73
4
 74
0
 40
0
 40
0
 40
0
 40
0
 40
1
 40
1
 40
1
 40
1
 10
93.313984
 20
49.813880
 30
0.0
 10
93.595275
 20
49.532589
 30
0.0
 10
93.976844
 20
49.374541
 30
0.0
 10
94.374647
 20
49.374541
 30
0.0
  0
LWPOLYLINE
  5
178
100
AcDbEntity
  8
Layer_1
 62
1
100
AcDbPolyline
 90
1
 70
1
 10
88.677233
 20
43.677124
 30
0.0
  0
SPLINE
  5
179
100
AcDbEntity
  8
Layer_1
 62
1
100
AcDbSpline
 70
8
 71
3
 72
8
 73
4
 74
0
 40
0
 40
0
 40
0
 40
0
 40
1
 40
1
 40
1
 40
1
 10
100.072061
 20
55.071959
 30
0.0
 10
100.469864
 20
55.071959
 30
0.0
 10
100.851432
 20
55.230007
 30
0.0
 10
101.132723
 20
55.511298
 30
0.0
  0
SPLINE
  5
17a
100
AcDbEntity
  8
Layer_1
 62
1
100
AcDbSpline
 70
8
 71
3
 72
8
 73
4
 74
0
 40
0
 40
0
 40
0
 40
0
 40
1
 40
1
 40
1
 40
1
 10
101.132723
 20
55.511298
 30
0.0
 10
101.414014
 20
55.792589
 30
0.0
 10
101.572062
 20
56.174154
 30
0.0
 10
101.572062
 20
56.571960
 30
0.0
  0
SPLINE
  5
17b
100
AcDbEntity
  8
Layer_1
 62
1
100
AcDbSpline
 70
8
 71
3
 72
8
 73
4
 74
0
 40
0
 40
0
 40
0
 40
0
 40
1
 40
1
 40
1
 40
1
 10
101.572062
 20
56.571960
 30
0.0
 10
101.572062
 20
56.969767
 30
0.0
 10
101.414014
 20
57.351332
 30
0.0
 10
101.132723
 20
57.632623
 30
0.0
  0
SPLINE
  5
17c
100
AcDbEntity
  8
Layer_1
 62
1
100
AcDbSpline
 70
8
 71
3
 72
8
 73
4
 74
0
 40
0
 40
0
 40
0
 40
0
 40
1
 40
1
 40
1
 40
1
 10
101.132723
 20
57.632623
 30
0.0
 10
100.851432
 20
57.913914
 30
0.0
 10
100.469864
 20
58.071965
 30
0.0
 10
100.072061
 20
58.071965
 30
0.0
  0
SPLINE
  5
17d
100
AcDbEntity
  8
Layer_1
 62
1
100
AcDbSpline
 70
8
 71
3
 72
8
 73
4
 74
0
 40
0
 40
0
 40
0
 40
0
 40
1
 40
1
 40
1
 40
1
 10
100.072061
 20
58.071965
 30
0.0
 10
99.674254
 20
58.071965
 30
0.0
 10
99.292689
 20
57.913914
 30
0.0
 10
99.011398
 20
57.632623
 30
0.0
  0
SPLINE
  5
17e
100
AcDbEntity
  8
Layer_1
 62
1
100
AcDbSpline
 70
8
 71
3
 72
8
 73
4
 74
0
 40
0
 40
0
 40
0
 40
0
 40
1
 40
1
 40
1
 40
1
 10
99.011398
 20
57.632623
 30
0.0
 10
98.730107
 20
57.351332
 30
0.0
 10
98.572056
 20
56.969767
 30
0.0
 10
98.572056
 20
56.571960
 30
0.0
  0
SPLINE
  5
17f
100
AcDbEntity
  8
Layer_1
 62
1
100
AcDbSpline
 70
8
 71
3
 72
8
 73
4
 74
0
 40
0
 40
0
 40
0
 40
0
 40
1
 40
1
 40
1
 40
1
 10
98.572056
 20
56.571960
 30
0.0
 10
98.572056
 20
56.174154
 30
0.0
 10
98.730107
 20
55.792589
 30
0.0
 10
99.011398
 20
55.511298
 30
0.0
  0
SPLINE
  5
180
100
AcDbEntity
  8
Layer_1
 62
1
100
AcDbSpline
 70
8
 71
3
 72
8
 73
4
 74
0
 40
0
 40
0
 40
0
 40
0
 40
1
 40
1
 40
1
 40
1
 10
99.011398
 20
55.511298
 30
0.0
 10
99.292689
 20
55.230007
 30
0.0
 10
99.674254
 20
55.071959
 30
0.0
 10
100.072061
 20
55.071959
 30
0.0
  0
LWPOLYLINE
  5
181
100
AcDbEntity
  8
Layer_1
 62
1
100
AcDbPolyline
 90
1
 70
1
 10
94.374647
 20
49.374541
 30
0.0
  0
SPLINE
  5
182
100
AcDbEntity
  8
Layer_1
 62
1
100
AcDbSpline
 70
8
 71
3
 72
8
 73
4
 74
0
 40
0
 40
0
 40
0
 40
0
 40
1
 40
1
 40
1
 40
1
 10
105.769475
 20
60.769373
 30
0.0
 10
106.167281
 20
60.769373
 30
0.0
 10
106.548846
 20
60.927424
 30
0.0
 10
106.830137
 20
61.208716
 30
0.0
  0
SPLINE
  5
183
100
AcDbEntity
  8
Layer_1
 62
1
100
AcDbSpline
 70
8
 71
3
 72
8
 73
4
 74
0
 40
0
 40
0
 40
0
 40
0
 40
1
 40
1
 40
1
 40
1
 10
106.830137
 20
61.208716
 30
0.0
 10
107.111428
 20
61.490007
 30
0.0
 10
107.269480
 20
61.871571
 30
0.0
 10
107.269480
 20
62.269378
 30
0.0
  0
SPLINE
  5
184
100
AcDbEntity
  8
Layer_1
 62
1
100
AcDbSpline
 70
8
 71
3
 72
8
 73
4
 74
0
 40
0
 40
0
 40
0
 40
0
 40
1
 40
1
 40
1
 40
1
 10
107.269480
 20
62.269378
 30
0.0
 10
107.269480
 20
62.667181
 30
0.0
 10
107.111428
 20
63.048749
 30
0.0
 10
106.830137
 20
63.330040
 30
0.0
  0
SPLINE
  5
185
100
AcDbEntity
  8
Layer_1
 62
1
100
AcDbSpline
 70
8
 71
3
 72
8
 73
4
 74
0
 40
0
 40
0
 40
0
 40
0
 40
1
 40
1
 40
1
 40
1
 10
106.830137
 20
63.330040
 30
0.0
 10
106.548846
 20
63.611331
 30
0.0
 10
106.167281
 20
63.769379
 30
0.0
 10
105.769475
 20
63.769379
 30
0.0
  0
SPLINE
  5
186
100
AcDbEntity
  8
Layer_1
 62
1
100
AcDbSpline
 70
8
 71
3
 72
8
 73
4
 74
0
 40
0
 40
0
 40
0
 40
0
 40
1
 40
1
 40
1
 40
1
 10
105.769475
 20
63.769379
 30
0.0
 10
105.371672
 20
63.769379
 30
0.0
 10
104.990104
 20
63.611331
 30
0.0
 10
104.708813
 20
63.330040
 30
0.0
  0
SPLINE
  5
187
100
AcDbEntity
  8
Layer_1
 62
1
100
AcDbSpline
 70
8
 71
3
 72
8
 73
4
 74
0
 40
0
 40
0
 40
0
 40
0
 40
1
 40
1
 40
1
 40
1
 10
104.708813
 20
63.330040
 30
0.0
 10
104.427521
 20
63.048749
 30
0.0
 10
104.269473
 20
62.667181
 30
0.0
 10
104.269473
 20
62.269378
 30
0.0
  0
SPLINE
  5
188
100
AcDbEntity
  8
Layer_1
 62
1
100
AcDbSpline
 70
8
 71
3
 72
8
 73
4
 74
0
 40
0
 40
0
 40
0
 40
0
 40
1
 40
1
 40
1
 40
1
 10
104.269473
 20
62.269378
 30
0.0
 10
104.269473
 20
61.871571
 30
0.0
 10
104.427521
 20
61.490007
 30
0.0
 10
104.708813
 20
61.208716
 30
0.0
  0
SPLINE
  5
189
100
AcDbEntity
  8
Layer_1
 62
1
100
AcDbSpline
 70
8
 71
3
 72
8
 73
4
 74
0
 40
0
 40
0
 40
0
 40
0
 40
1
 40
1
 40
1
 40
1
 10
104.708813
 20
61.208716
 30
0.0
 10
104.990104
 20
60.927424
 30
0.0
 10
105.371672
 20
60.769373
 30
0.0
 10
105.769475
 20
60.769373
 30
0.0
  0
LWPOLYLINE
  5
18a
100
AcDbEntity
  8
Layer_1
 62
1
100
AcDbPolyline
 90
1
 70
1
 10
100.072061
 20
55.071959
 30
0.0
  0
SPLINE
  5
18b
100
AcDbEntity
  8
Layer_1
 62
1
100
AcDbSpline
 70
8
 71
3
 72
8
 73
4
 74
0
 40
0
 40
0
 40
0
 40
0
 40
1
 40
1
 40
1
 40
1
 10
111.466885
 20
66.466790
 30
0.0
 10
111.864692
 20
66.466790
 30
0.0
 10
112.246257
 20
66.624839
 30
0.0
 10
112.527548
 20
66.906130
 30
0.0
  0
SPLINE
  5
18c
100
AcDbEntity
  8
Layer_1
 62
1
100
AcDbSpline
 70
8
 71
3
 72
8
 73
4
 74
0
 40
0
 40
0
 40
0
 40
0
 40
1
 40
1
 40
1
 40
1
 10
112.527548
 20
66.906130
 30
0.0
 10
112.808839
 20
67.187421
 30
0.0
 10
112.966890
 20
67.568989
 30
0.0
 10
112.966890
 20
67.966792
 30
0.0
  0
SPLINE
  5
18d
100
AcDbEntity
  8
Layer_1
 62
1
100
AcDbSpline
 70
8
 71
3
 72
8
 73
4
 74
0
 40
0
 40
0
 40
0
 40
0
 40
1
 40
1
 40
1
 40
1
 10
112.966890
 20
67.966792
 30
0.0
 10
112.966890
 20
68.364599
 30
0.0
 10
112.808839
 20
68.746163
 30
0.0
 10
112.527548
 20
69.027454
 30
0.0
  0
SPLINE
  5
18e
100
AcDbEntity
  8
Layer_1
 62
1
100
AcDbSpline
 70
8
 71
3
 72
8
 73
4
 74
0
 40
0
 40
0
 40
0
 40
0
 40
1
 40
1
 40
1
 40
1
 10
112.527548
 20
69.027454
 30
0.0
 10
112.246257
 20
69.308745
 30
0.0
 10
111.864692
 20
69.466797
 30
0.0
 10
111.466885
 20
69.466797
 30
0.0
  0
SPLINE
  5
18f
100
AcDbEntity
  8
Layer_1
 62
1
100
AcDbSpline
 70
8
 71
3
 72
8
 73
4
 74
0
 40
0
 40
0
 40
0
 40
0
 40
1
 40
1
 40
1
 40
1
 10
111.466885
 20
69.466797
 30
0.0
 10
111.069082
 20
69.466797
 30
0.0
 10
110.687514
 20
69.308745
 30
0.0
 10
110.406223
 20
69.027454
 30
0.0
  0
SPLINE
  5
190
100
AcDbEntity
  8
Layer_1
 62
1
100
AcDbSpline
 70
8
 71
3
 72
8
 73
4
 74
0
 40
0
 40
0
 40
0
 40
0
 40
1
 40
1
 40
1
 40
1
 10
110.406223
 20
69.027454
 30
0.0
 10
110.124932
 20
68.746163
 30
0.0
 10
109.966884
 20
68.364599
 30
0.0
 10
109.966884
 20
67.966792
 30
0.0
  0
SPLINE
  5
191
100
AcDbEntity
  8
Layer_1
 62
1
100
AcDbSpline
 70
8
 71
3
 72
8
 73
4
 74
0
 40
0
 40
0
 40
0
 40
0
 40
1
 40
1
 40
1
 40
1
 10
109.966884
 20
67.966792
 30
0.0
 10
109.966884
 20
67.568989
 30
0.0
 10
110.124932
 20
67.187421
 30
0.0
 10
110.406223
 20
66.906130
 30
0.0
  0
SPLINE
  5
192
100
AcDbEntity
  8
Layer_1
 62
1
100
AcDbSpline
 70
8
 71
3
 72
8
 73
4
 74
0
 40
0
 40
0
 40
0
 40
0
 40
1
 40
1
 40
1
 40
1
 10
110.406223
 20
66.906130
 30
0.0
 10
110.687514
 20
66.624839
 30
0.0
 10
111.069082
 20
66.466790
 30
0.0
 10
111.466885
 20
66.466790
 30
0.0
  0
LWPOLYLINE
  5
193
100
AcDbEntity
  8
Layer_1
 62
1
100
AcDbPolyline
 90
1
 70
1
 10
105.769475
 20
60.769373
 30
0.0
  0
SPLINE
  5
194
100
AcDbEntity
  8
Layer_1
 62
1
100
AcDbSpline
 70
8
 71
3
 72
8
 73
4
 74
0
 40
0
 40
0
 40
0
 40
0
 40
1
 40
1
 40
1
 40
1
 10
117.164303
 20
72.164194
 30
0.0
 10
117.562110
 20
72.164194
 30
0.0
 10
117.943674
 20
72.322246
 30
0.0
 10
118.224965
 20
72.603537
 30
0.0
  0
SPLINE
  5
195
100
AcDbEntity
  8
Layer_1
 62
1
100
AcDbSpline
 70
8
 71
3
 72
8
 73
4
 74
0
 40
0
 40
0
 40
0
 40
0
 40
1
 40
1
 40
1
 40
1
 10
118.224965
 20
72.603537
 30
0.0
 10
118.506256
 20
72.884828
 30
0.0
 10
118.664308
 20
73.266392
 30
0.0
 10
118.664308
 20
73.664199
 30
0.0
  0
SPLINE
  5
196
100
AcDbEntity
  8
Layer_1
 62
1
100
AcDbSpline
 70
8
 71
3
 72
8
 73
4
 74
0
 40
0
 40
0
 40
0
 40
0
 40
1
 40
1
 40
1
 40
1
 10
118.664308
 20
73.664199
 30
0.0
 10
118.664308
 20
74.062006
 30
0.0
 10
118.506256
 20
74.443570
 30
0.0
 10
118.224965
 20
74.724861
 30
0.0
  0
SPLINE
  5
197
100
AcDbEntity
  8
Layer_1
 62
1
100
AcDbSpline
 70
8
 71
3
 72
8
 73
4
 74
0
 40
0
 40
0
 40
0
 40
0
 40
1
 40
1
 40
1
 40
1
 10
118.224965
 20
74.724861
 30
0.0
 10
117.943674
 20
75.006152
 30
0.0
 10
117.562110
 20
75.164200
 30
0.0
 10
117.164303
 20
75.164200
 30
0.0
  0
SPLINE
  5
198
100
AcDbEntity
  8
Layer_1
 62
1
100
AcDbSpline
 70
8
 71
3
 72
8
 73
4
 74
0
 40
0
 40
0
 40
0
 40
0
 40
1
 40
1
 40
1
 40
1
 10
117.164303
 20
75.164200
 30
0.0
 10
116.766496
 20
75.164200
 30
0.0
 10
116.384932
 20
75.006152
 30
0.0
 10
116.103641
 20
74.724861
 30
0.0
  0
SPLINE
  5
199
100
AcDbEntity
  8
Layer_1
 62
1
100
AcDbSpline
 70
8
 71
3
 72
8
 73
4
 74
0
 40
0
 40
0
 40
0
 40
0
 40
1
 40
1
 40
1
 40
1
 10
116.103641
 20
74.724861
 30
0.0
 10
115.822350
 20
74.443570
 30
0.0
 10
115.664302
 20
74.062006
 30
0.0
 10
115.664302
 20
73.664199
 30
0.0
  0
SPLINE
  5
19a
100
AcDbEntity
  8
Layer_1
 62
1
100
AcDbSpline
 70
8
 71
3
 72
8
 73
4
 74
0
 40
0
 40
0
 40
0
 40
0
 40
1
 40
1
 40
1
 40
1
 10
115.664302
 20
73.664199
 30
0.0
 10
115.664302
 20
73.266392
 30
0.0
 10
115.822350
 20
72.884828
 30
0.0
 10
116.103641
 20
72.603537
 30
0.0
  0
SPLINE
  5
19b
100
AcDbEntity
  8
Layer_1
 62
1
100
AcDbSpline
 70
8
 71
3
 72
8
 73
4
 74
0
 40
0
 40
0
 40
0
 40
0
 40
1
 40
1
 40
1
 40
1
 10
116.103641
 20
72.603537
 30
0.0
 10
116.384932
 20
72.322246
 30
0.0
 10
116.766496
 20
72.164194
 30
0.0
 10
117.164303
 20
72.164194
 30
0.0
  0
LWPOLYLINE
  5
19c
100
AcDbEntity
  8
Layer_1
 62
1
100
AcDbPolyline
 90
1
 70
1
 10
111.466885
 20
66.466790
 30
0.0
  0
SPLINE
  5
19d
100
AcDbEntity
  8
Layer_1
 62
1
100
AcDbSpline
 70
8
 71
3
 72
8
 73
4
 74
0
 40
0
 40
0
 40
0
 40
0
 40
1
 40
1
 40
1
 40
1
 10
122.861721
 20
77.861612
 30
0.0
 10
123.259524
 20
77.861612
 30
0.0
 10
123.641092
 20
78.019663
 30
0.0
 10
123.922383
 20
78.300954
 30
0.0
  0
SPLINE
  5
19e
100
AcDbEntity
  8
Layer_1
 62
1
100
AcDbSpline
 70
8
 71
3
 72
8
 73
4
 74
0
 40
0
 40
0
 40
0
 40
0
 40
1
 40
1
 40
1
 40
1
 10
123.922383
 20
78.300954
 30
0.0
 10
124.203674
 20
78.582245
 30
0.0
 10
124.361722
 20
78.963810
 30
0.0
 10
124.361722
 20
79.361617
 30
0.0
  0
SPLINE
  5
19f
100
AcDbEntity
  8
Layer_1
 62
1
100
AcDbSpline
 70
8
 71
3
 72
8
 73
4
 74
0
 40
0
 40
0
 40
0
 40
0
 40
1
 40
1
 40
1
 40
1
 10
124.361722
 20
79.361617
 30
0.0
 10
124.361722
 20
79.759420
 30
0.0
 10
124.203674
 20
80.140988
 30
0.0
 10
123.922383
 20
80.422279
 30
0.0
  0
SPLINE
  5
1a0
100
AcDbEntity
  8
Layer_1
 62
1
100
AcDbSpline
 70
8
 71
3
 72
8
 73
4
 74
0
 40
0
 40
0
 40
0
 40
0
 40
1
 40
1
 40
1
 40
1
 10
123.922383
 20
80.422279
 30
0.0
 10
123.641092
 20
80.703570
 30
0.0
 10
123.259524
 20
80.861618
 30
0.0
 10
122.861721
 20
80.861618
 30
0.0
  0
SPLINE
  5
1a1
100
AcDbEntity
  8
Layer_1
 62
1
100
AcDbSpline
 70
8
 71
3
 72
8
 73
4
 74
0
 40
0
 40
0
 40
0
 40
0
 40
1
 40
1
 40
1
 40
1
 10
122.861721
 20
80.861618
 30
0.0
 10
122.463914
 20
80.861618
 30
0.0
 10
122.082349
 20
80.703570
 30
0.0
 10
121.801058
 20
80.422279
 30
0.0
  0
SPLINE
  5
1a2
100
AcDbEntity
  8
Layer_1
 62
1
100
AcDbSpline
 70
8
 71
3
 72
8
 73
4
 74
0
 40
0
 40
0
 40
0
 40
0
 40
1
 40
1
 40
1
 40
1
 10
121.801058
 20
80.422279
 30
0.0
 10
121.519767
 20
80.140988
 30
0.0
 10
121.361716
 20
79.759420
 30
0.0
 10
121.361716
 20
79.361617
 30
0.0
  0
SPLINE
  5
1a3
100
AcDbEntity
  8
Layer_1
 62
1
100
AcDbSpline
 70
8
 71
3
 72
8
 73
4
 74
0
 40
0
 40
0
 40
0
 40
0
 40
1
 40
1
 40
1
 40
1
 10
121.361716
 20
79.361617
 30
0.0
 10
121.361716
 20
78.963810
 30
0.0
 10
121.519767
 20
78.582245
 30
0.0
 10
121.801058
 20
78.300954
 30
0.0
  0
SPLINE
  5
1a4
100
AcDbEntity
  8
Layer_1
 62
1
100
AcDbSpline
 70
8
 71
3
 72
8
 73
4
 74
0
 40
0
 40
0
 40
0
 40
0
 40
1
 40
1
 40
1
 40
1
 10
121.801058
 20
78.300954
 30
0.0
 10
122.082349
 20
78.019663
 30
0.0
 10
122.463914
 20
77.861612
 30
0.0
 10
122.861721
 20
77.861612
 30
0.0
  0
LWPOLYLINE
  5
1a5
100
AcDbEntity
  8
Layer_1
 62
1
100
AcDbPolyline
 90
1
 70
1
 10
117.164303
 20
72.164194
 30
0.0
  0
SPLINE
  5
1a6
100
AcDbEntity
  8
Layer_1
 62
1
100
AcDbSpline
 70
8
 71
3
 72
8
 73
4
 74
0
 40
0
 40
0
 40
0
 40
0
 40
1
 40
1
 40
1
 40
1
 10
128.559135
 20
83.559029
 30
0.0
 10
128.956941
 20
83.559029
 30
0.0
 10
129.338506
 20
83.717077
 30
0.0
 10
129.619797
 20
83.998368
 30
0.0
  0
SPLINE
  5
1a7
100
AcDbEntity
  8
Layer_1
 62
1
100
AcDbSpline
 70
8
 71
3
 72
8
 73
4
 74
0
 40
0
 40
0
 40
0
 40
0
 40
1
 40
1
 40
1
 40
1
 10
129.619797
 20
83.998368
 30
0.0
 10
129.901088
 20
84.279659
 30
0.0
 10
130.059140
 20
84.661228
 30
0.0
 10
130.059140
 20
85.059031
 30
0.0
  0
SPLINE
  5
1a8
100
AcDbEntity
  8
Layer_1
 62
1
100
AcDbSpline
 70
8
 71
3
 72
8
 73
4
 74
0
 40
0
 40
0
 40
0
 40
0
 40
1
 40
1
 40
1
 40
1
 10
130.059140
 20
85.059031
 30
0.0
 10
130.059140
 20
85.456837
 30
0.0
 10
129.901088
 20
85.838402
 30
0.0
 10
129.619797
 20
86.119693
 30
0.0
  0
SPLINE
  5
1a9
100
AcDbEntity
  8
Layer_1
 62
1
100
AcDbSpline
 70
8
 71
3
 72
8
 73
4
 74
0
 40
0
 40
0
 40
0
 40
0
 40
1
 40
1
 40
1
 40
1
 10
129.619797
 20
86.119693
 30
0.0
 10
129.338506
 20
86.400984
 30
0.0
 10
128.956941
 20
86.559036
 30
0.0
 10
128.559135
 20
86.559036
 30
0.0
  0
SPLINE
  5
1aa
100
AcDbEntity
  8
Layer_1
 62
1
100
AcDbSpline
 70
8
 71
3
 72
8
 73
4
 74
0
 40
0
 40
0
 40
0
 40
0
 40
1
 40
1
 40
1
 40
1
 10
128.559135
 20
86.559036
 30
0.0
 10
128.161332
 20
86.559036
 30
0.0
 10
127.779763
 20
86.400984
 30
0.0
 10
127.498472
 20
86.119693
 30
0.0
  0
SPLINE
  5
1ab
100
AcDbEntity
  8
Layer_1
 62
1
100
AcDbSpline
 70
8
 71
3
 72
8
 73
4
 74
0
 40
0
 40
0
 40
0
 40
0
 40
1
 40
1
 40
1
 40
1
 10
127.498472
 20
86.119693
 30
0.0
 10
127.217181
 20
85.838402
 30
0.0
 10
127.059133
 20
85.456837
 30
0.0
 10
127.059133
 20
85.059031
 30
0.0
  0
SPLINE
  5
1ac
100
AcDbEntity
  8
Layer_1
 62
1
100
AcDbSpline
 70
8
 71
3
 72
8
 73
4
 74
0
 40
0
 40
0
 40
0
 40
0
 40
1
 40
1
 40
1
 40
1
 10
127.059133
 20
85.059031
 30
0.0
 10
127.059133
 20
84.661228
 30
0.0
 10
127.217181
 20
84.279659
 30
0.0
 10
127.498472
 20
83.998368
 30
0.0
  0
SPLINE
  5
1ad
100
AcDbEntity
  8
Layer_1
 62
1
100
AcDbSpline
 70
8
 71
3
 72
8
 73
4
 74
0
 40
0
 40
0
 40
0
 40
0
 40
1
 40
1
 40
1
 40
1
 10
127.498472
 20
83.998368
 30
0.0
 10
127.779763
 20
83.717077
 30
0.0
 10
128.161332
 20
83.559029
 30
0.0
 10
128.559135
 20
83.559029
 30
0.0
  0
LWPOLYLINE
  5
1ae
100
AcDbEntity
  8
Layer_1
 62
1
100
AcDbPolyline
 90
1
 70
1
 10
122.861721
 20
77.861612
 30
0.0
  0
SPLINE
  5
1af
100
AcDbEntity
  8
Layer_1
 62
1
100
AcDbSpline
 70
8
 71
3
 72
8
 73
4
 74
0
 40
0
 40
0
 40
0
 40
0
 40
1
 40
1
 40
1
 40
1
 10
134.256552
 20
89.256443
 30
0.0
 10
134.654359
 20
89.256443
 30
0.0
 10
135.035924
 20
89.414495
 30
0.0
 10
135.317215
 20
89.695786
 30
0.0
  0
SPLINE
  5
1b0
100
AcDbEntity
  8
Layer_1
 62
1
100
AcDbSpline
 70
8
 71
3
 72
8
 73
4
 74
0
 40
0
 40
0
 40
0
 40
0
 40
1
 40
1
 40
1
 40
1
 10
135.317215
 20
89.695786
 30
0.0
 10
135.598506
 20
89.977077
 30
0.0
 10
135.756554
 20
90.358642
 30
0.0
 10
135.756554
 20
90.756448
 30
0.0
  0
SPLINE
  5
1b1
100
AcDbEntity
  8
Layer_1
 62
1
100
AcDbSpline
 70
8
 71
3
 72
8
 73
4
 74
0
 40
0
 40
0
 40
0
 40
0
 40
1
 40
1
 40
1
 40
1
 10
135.756554
 20
90.756448
 30
0.0
 10
135.756554
 20
91.154255
 30
0.0
 10
135.598506
 20
91.535820
 30
0.0
 10
135.317215
 20
91.817111
 30
0.0
  0
SPLINE
  5
1b2
100
AcDbEntity
  8
Layer_1
 62
1
100
AcDbSpline
 70
8
 71
3
 72
8
 73
4
 74
0
 40
0
 40
0
 40
0
 40
0
 40
1
 40
1
 40
1
 40
1
 10
135.317215
 20
91.817111
 30
0.0
 10
135.035924
 20
92.098402
 30
0.0
 10
134.654359
 20
92.256450
 30
0.0
 10
134.256552
 20
92.256450
 30
0.0
  0
SPLINE
  5
1b3
100
AcDbEntity
  8
Layer_1
 62
1
100
AcDbSpline
 70
8
 71
3
 72
8
 73
4
 74
0
 40
0
 40
0
 40
0
 40
0
 40
1
 40
1
 40
1
 40
1
 10
134.256552
 20
92.256450
 30
0.0
 10
133.858746
 20
92.256450
 30
0.0
 10
133.477181
 20
92.098402
 30
0.0
 10
133.195890
 20
91.817111
 30
0.0
  0
SPLINE
  5
1b4
100
AcDbEntity
  8
Layer_1
 62
1
100
AcDbSpline
 70
8
 71
3
 72
8
 73
4
 74
0
 40
0
 40
0
 40
0
 40
0
 40
1
 40
1
 40
1
 40
1
 10
133.195890
 20
91.817111
 30
0.0
 10
132.914599
 20
91.535820
 30
0.0
 10
132.756547
 20
91.154255
 30
0.0
 10
132.756547
 20
90.756448
 30
0.0
  0
SPLINE
  5
1b5
100
AcDbEntity
  8
Layer_1
 62
1
100
AcDbSpline
 70
8
 71
3
 72
8
 73
4
 74
0
 40
0
 40
0
 40
0
 40
0
 40
1
 40
1
 40
1
 40
1
 10
132.756547
 20
90.756448
 30
0.0
 10
132.756547
 20
90.358642
 30
0.0
 10
132.914599
 20
89.977077
 30
0.0
 10
133.195890
 20
89.695786
 30
0.0
  0
SPLINE
  5
1b6
100
AcDbEntity
  8
Layer_1
 62
1
100
AcDbSpline
 70
8
 71
3
 72
8
 73
4
 74
0
 40
0
 40
0
 40
0
 40
0
 40
1
 40
1
 40
1
 40
1
 10
133.195890
 20
89.695786
 30
0.0
 10
133.477181
 20
89.414495
 30
0.0
 10
133.858746
 20
89.256443
 30
0.0
 10
134.256552
 20
89.256443
 30
0.0
  0
LWPOLYLINE
  5
1b7
100
AcDbEntity
  8
Layer_1
 62
1
100
AcDbPolyline
 90
1
 70
1
 10
128.559135
 20
83.559029
 30
0.0
  0
SPLINE
  5
1b8
100
AcDbEntity
  8
Layer_1
 62
1
100
AcDbSpline
 70
8
 71
3
 72
8
 73
4
 74
0
 40
0
 40
0
 40
0
 40
0
 40
1
 40
1
 40
1
 40
1
 10
139.953970
 20
94.953861
 30
0.0
 10
140.351773
 20
94.953861
 30
0.0
 10
140.733341
 20
95.111913
 30
0.0
 10
141.014632
 20
95.393204
 30
0.0
  0
SPLINE
  5
1b9
100
AcDbEntity
  8
Layer_1
 62
1
100
AcDbSpline
 70
8
 71
3
 72
8
 73
4
 74
0
 40
0
 40
0
 40
0
 40
0
 40
1
 40
1
 40
1
 40
1
 10
141.014632
 20
95.393204
 30
0.0
 10
141.295923
 20
95.674491
 30
0.0
 10
141.453971
 20
96.056059
 30
0.0
 10
141.453971
 20
96.453866
 30
0.0
  0
SPLINE
  5
1ba
100
AcDbEntity
  8
Layer_1
 62
1
100
AcDbSpline
 70
8
 71
3
 72
8
 73
4
 74
0
 40
0
 40
0
 40
0
 40
0
 40
1
 40
1
 40
1
 40
1
 10
141.453971
 20
96.453866
 30
0.0
 10
141.453971
 20
96.851669
 30
0.0
 10
141.295923
 20
97.233237
 30
0.0
 10
141.014632
 20
97.514528
 30
0.0
  0
SPLINE
  5
1bb
100
AcDbEntity
  8
Layer_1
 62
1
100
AcDbSpline
 70
8
 71
3
 72
8
 73
4
 74
0
 40
0
 40
0
 40
0
 40
0
 40
1
 40
1
 40
1
 40
1
 10
141.014632
 20
97.514528
 30
0.0
 10
140.733341
 20
97.795819
 30
0.0
 10
140.351773
 20
97.953867
 30
0.0
 10
139.953970
 20
97.953867
 30
0.0
  0
SPLINE
  5
1bc
100
AcDbEntity
  8
Layer_1
 62
1
100
AcDbSpline
 70
8
 71
3
 72
8
 73
4
 74
0
 40
0
 40
0
 40
0
 40
0
 40
1
 40
1
 40
1
 40
1
 10
139.953970
 20
97.953867
 30
0.0
 10
139.556163
 20
97.953867
 30
0.0
 10
139.174599
 20
97.795819
 30
0.0
 10
138.893308
 20
97.514528
 30
0.0
  0
SPLINE
  5
1bd
100
AcDbEntity
  8
Layer_1
 62
1
100
AcDbSpline
 70
8
 71
3
 72
8
 73
4
 74
0
 40
0
 40
0
 40
0
 40
0
 40
1
 40
1
 40
1
 40
1
 10
138.893308
 20
97.514528
 30
0.0
 10
138.612017
 20
97.233237
 30
0.0
 10
138.453965
 20
96.851669
 30
0.0
 10
138.453965
 20
96.453866
 30
0.0
  0
SPLINE
  5
1be
100
AcDbEntity
  8
Layer_1
 62
1
100
AcDbSpline
 70
8
 71
3
 72
8
 73
4
 74
0
 40
0
 40
0
 40
0
 40
0
 40
1
 40
1
 40
1
 40
1
 10
138.453965
 20
96.453866
 30
0.0
 10
138.453965
 20
96.056059
 30
0.0
 10
138.612017
 20
95.674491
 30
0.0
 10
138.893308
 20
95.393204
 30
0.0
  0
SPLINE
  5
1bf
100
AcDbEntity
  8
Layer_1
 62
1
100
AcDbSpline
 70
8
 71
3
 72
8
 73
4
 74
0
 40
0
 40
0
 40
0
 40
0
 40
1
 40
1
 40
1
 40
1
 10
138.893308
 20
95.393204
 30
0.0
 10
139.174599
 20
95.111913
 30
0.0
 10
139.556163
 20
94.953861
 30
0.0
 10
139.953970
 20
94.953861
 30
0.0
  0
LWPOLYLINE
  5
1c0
100
AcDbEntity
  8
Layer_1
 62
1
100
AcDbPolyline
 90
1
 70
1
 10
134.256552
 20
89.256443
 30
0.0
  0
SPLINE
  5
1c1
100
AcDbEntity
  8
Layer_1
 62
1
100
AcDbSpline
 70
8
 71
3
 72
8
 73
4
 74
0
 40
0
 40
0
 40
0
 40
0
 40
1
 40
1
 40
1
 40
1
 10
145.651373
 20
100.651271
 30
0.0
 10
146.049180
 20
100.651271
 30
0.0
 10
146.430745
 20
100.809323
 30
0.0
 10
146.712036
 20
101.090614
 30
0.0
  0
SPLINE
  5
1c2
100
AcDbEntity
  8
Layer_1
 62
1
100
AcDbSpline
 70
8
 71
3
 72
8
 73
4
 74
0
 40
0
 40
0
 40
0
 40
0
 40
1
 40
1
 40
1
 40
1
 10
146.712036
 20
101.090614
 30
0.0
 10
146.993327
 20
101.371905
 30
0.0
 10
147.151378
 20
101.753470
 30
0.0
 10
147.151378
 20
102.151276
 30
0.0
  0
SPLINE
  5
1c3
100
AcDbEntity
  8
Layer_1
 62
1
100
AcDbSpline
 70
8
 71
3
 72
8
 73
4
 74
0
 40
0
 40
0
 40
0
 40
0
 40
1
 40
1
 40
1
 40
1
 10
147.151378
 20
102.151276
 30
0.0
 10
147.151378
 20
102.549080
 30
0.0
 10
146.993327
 20
102.930648
 30
0.0
 10
146.712036
 20
103.211939
 30
0.0
  0
SPLINE
  5
1c4
100
AcDbEntity
  8
Layer_1
 62
1
100
AcDbSpline
 70
8
 71
3
 72
8
 73
4
 74
0
 40
0
 40
0
 40
0
 40
0
 40
1
 40
1
 40
1
 40
1
 10
146.712036
 20
103.211939
 30
0.0
 10
146.430745
 20
103.493230
 30
0.0
 10
146.049180
 20
103.651278
 30
0.0
 10
145.651373
 20
103.651278
 30
0.0
  0
SPLINE
  5
1c5
100
AcDbEntity
  8
Layer_1
 62
1
100
AcDbSpline
 70
8
 71
3
 72
8
 73
4
 74
0
 40
0
 40
0
 40
0
 40
0
 40
1
 40
1
 40
1
 40
1
 10
145.651373
 20
103.651278
 30
0.0
 10
145.253570
 20
103.651278
 30
0.0
 10
144.872002
 20
103.493230
 30
0.0
 10
144.590711
 20
103.211939
 30
0.0
  0
SPLINE
  5
1c6
100
AcDbEntity
  8
Layer_1
 62
1
100
AcDbSpline
 70
8
 71
3
 72
8
 73
4
 74
0
 40
0
 40
0
 40
0
 40
0
 40
1
 40
1
 40
1
 40
1
 10
144.590711
 20
103.211939
 30
0.0
 10
144.309420
 20
102.930648
 30
0.0
 10
144.151372
 20
102.549080
 30
0.0
 10
144.151372
 20
102.151276
 30
0.0
  0
SPLINE
  5
1c7
100
AcDbEntity
  8
Layer_1
 62
1
100
AcDbSpline
 70
8
 71
3
 72
8
 73
4
 74
0
 40
0
 40
0
 40
0
 40
0
 40
1
 40
1
 40
1
 40
1
 10
144.151372
 20
102.151276
 30
0.0
 10
144.151372
 20
101.753470
 30
0.0
 10
144.309420
 20
101.371905
 30
0.0
 10
144.590711
 20
101.090614
 30
0.0
  0
SPLINE
  5
1c8
100
AcDbEntity
  8
Layer_1
 62
1
100
AcDbSpline
 70
8
 71
3
 72
8
 73
4
 74
0
 40
0
 40
0
 40
0
 40
0
 40
1
 40
1
 40
1
 40
1
 10
144.590711
 20
101.090614
 30
0.0
 10
144.872002
 20
100.809323
 30
0.0
 10
145.253570
 20
100.651271
 30
0.0
 10
145.651373
 20
100.651271
 30
0.0
  0
LWPOLYLINE
  5
1c9
100
AcDbEntity
  8
Layer_1
 62
1
100
AcDbPolyline
 90
1
 70
1
 10
139.953970
 20
94.953861
 30
0.0
  0
SPLINE
  5
1ca
100
AcDbEntity
  8
Layer_1
 62
1
100
AcDbSpline
 70
8
 71
3
 72
8
 73
4
 74
0
 40
0
 40
0
 40
0
 40
0
 40
1
 40
1
 40
1
 40
1
 10
151.348791
 20
106.348689
 30
0.0
 10
151.746598
 20
106.348689
 30
0.0
 10
152.128162
 20
106.506737
 30
0.0
 10
152.409453
 20
106.788028
 30
0.0
  0
SPLINE
  5
1cb
100
AcDbEntity
  8
Layer_1
 62
1
100
AcDbSpline
 70
8
 71
3
 72
8
 73
4
 74
0
 40
0
 40
0
 40
0
 40
0
 40
1
 40
1
 40
1
 40
1
 10
152.409453
 20
106.788028
 30
0.0
 10
152.690744
 20
107.069319
 30
0.0
 10
152.848793
 20
107.450888
 30
0.0
 10
152.848793
 20
107.848691
 30
0.0
  0
SPLINE
  5
1cc
100
AcDbEntity
  8
Layer_1
 62
1
100
AcDbSpline
 70
8
 71
3
 72
8
 73
4
 74
0
 40
0
 40
0
 40
0
 40
0
 40
1
 40
1
 40
1
 40
1
 10
152.848793
 20
107.848691
 30
0.0
 10
152.848793
 20
108.246497
 30
0.0
 10
152.690744
 20
108.628062
 30
0.0
 10
152.409453
 20
108.909353
 30
0.0
  0
SPLINE
  5
1cd
100
AcDbEntity
  8
Layer_1
 62
1
100
AcDbSpline
 70
8
 71
3
 72
8
 73
4
 74
0
 40
0
 40
0
 40
0
 40
0
 40
1
 40
1
 40
1
 40
1
 10
152.409453
 20
108.909353
 30
0.0
 10
152.128162
 20
109.190644
 30
0.0
 10
151.746598
 20
109.348696
 30
0.0
 10
151.348791
 20
109.348696
 30
0.0
  0
SPLINE
  5
1ce
100
AcDbEntity
  8
Layer_1
 62
1
100
AcDbSpline
 70
8
 71
3
 72
8
 73
4
 74
0
 40
0
 40
0
 40
0
 40
0
 40
1
 40
1
 40
1
 40
1
 10
151.348791
 20
109.348696
 30
0.0
 10
150.950985
 20
109.348696
 30
0.0
 10
150.569420
 20
109.190644
 30
0.0
 10
150.288129
 20
108.909353
 30
0.0
  0
SPLINE
  5
1cf
100
AcDbEntity
  8
Layer_1
 62
1
100
AcDbSpline
 70
8
 71
3
 72
8
 73
4
 74
0
 40
0
 40
0
 40
0
 40
0
 40
1
 40
1
 40
1
 40
1
 10
150.288129
 20
108.909353
 30
0.0
 10
150.006838
 20
108.628062
 30
0.0
 10
149.848786
 20
108.246497
 30
0.0
 10
149.848786
 20
107.848691
 30
0.0
  0
SPLINE
  5
1d0
100
AcDbEntity
  8
Layer_1
 62
1
100
AcDbSpline
 70
8
 71
3
 72
8
 73
4
 74
0
 40
0
 40
0
 40
0
 40
0
 40
1
 40
1
 40
1
 40
1
 10
149.848786
 20
107.848691
 30
0.0
 10
149.848786
 20
107.450888
 30
0.0
 10
150.006838
 20
107.069319
 30
0.0
 10
150.288129
 20
106.788028
 30
0.0
  0
SPLINE
  5
1d1
100
AcDbEntity
  8
Layer_1
 62
1
100
AcDbSpline
 70
8
 71
3
 72
8
 73
4
 74
0
 40
0
 40
0
 40
0
 40
0
 40
1
 40
1
 40
1
 40
1
 10
150.288129
 20
106.788028
 30
0.0
 10
150.569420
 20
106.506737
 30
0.0
 10
150.950985
 20
106.348689
 30
0.0
 10
151.348791
 20
106.348689
 30
0.0
  0
LWPOLYLINE
  5
1d2
100
AcDbEntity
  8
Layer_1
 62
1
100
AcDbPolyline
 90
1
 70
1
 10
145.651373
 20
100.651271
 30
0.0
  0
SPLINE
  5
1d3
100
AcDbEntity
  8
Layer_1
 62
1
100
AcDbSpline
 70
8
 71
3
 72
8
 73
4
 74
0
 40
0
 40
0
 40
0
 40
0
 40
1
 40
1
 40
1
 40
1
 10
157.046209
 20
112.046103
 30
0.0
 10
157.444012
 20
112.046103
 30
0.0
 10
157.825580
 20
112.204155
 30
0.0
 10
158.106871
 20
112.485446
 30
0.0
  0
SPLINE
  5
1d4
100
AcDbEntity
  8
Layer_1
 62
1
100
AcDbSpline
 70
8
 71
3
 72
8
 73
4
 74
0
 40
0
 40
0
 40
0
 40
0
 40
1
 40
1
 40
1
 40
1
 10
158.106871
 20
112.485446
 30
0.0
 10
158.388162
 20
112.766737
 30
0.0
 10
158.546210
 20
113.148302
 30
0.0
 10
158.546210
 20
113.546108
 30
0.0
  0
SPLINE
  5
1d5
100
AcDbEntity
  8
Layer_1
 62
1
100
AcDbSpline
 70
8
 71
3
 72
8
 73
4
 74
0
 40
0
 40
0
 40
0
 40
0
 40
1
 40
1
 40
1
 40
1
 10
158.546210
 20
113.546108
 30
0.0
 10
158.546210
 20
113.943915
 30
0.0
 10
158.388162
 20
114.325479
 30
0.0
 10
158.106871
 20
114.606771
 30
0.0
  0
SPLINE
  5
1d6
100
AcDbEntity
  8
Layer_1
 62
1
100
AcDbSpline
 70
8
 71
3
 72
8
 73
4
 74
0
 40
0
 40
0
 40
0
 40
0
 40
1
 40
1
 40
1
 40
1
 10
158.106871
 20
114.606771
 30
0.0
 10
157.825580
 20
114.888062
 30
0.0
 10
157.444012
 20
115.046110
 30
0.0
 10
157.046209
 20
115.046110
 30
0.0
  0
SPLINE
  5
1d7
100
AcDbEntity
  8
Layer_1
 62
1
100
AcDbSpline
 70
8
 71
3
 72
8
 73
4
 74
0
 40
0
 40
0
 40
0
 40
0
 40
1
 40
1
 40
1
 40
1
 10
157.046209
 20
115.046110
 30
0.0
 10
156.648402
 20
115.046110
 30
0.0
 10
156.266834
 20
114.888062
 30
0.0
 10
155.985546
 20
114.606771
 30
0.0
  0
SPLINE
  5
1d8
100
AcDbEntity
  8
Layer_1
 62
1
100
AcDbSpline
 70
8
 71
3
 72
8
 73
4
 74
0
 40
0
 40
0
 40
0
 40
0
 40
1
 40
1
 40
1
 40
1
 10
155.985546
 20
114.606771
 30
0.0
 10
155.704255
 20
114.325479
 30
0.0
 10
155.546204
 20
113.943915
 30
0.0
 10
155.546204
 20
113.546108
 30
0.0
  0
SPLINE
  5
1d9
100
AcDbEntity
  8
Layer_1
 62
1
100
AcDbSpline
 70
8
 71
3
 72
8
 73
4
 74
0
 40
0
 40
0
 40
0
 40
0
 40
1
 40
1
 40
1
 40
1
 10
155.546204
 20
113.546108
 30
0.0
 10
155.546204
 20
113.148302
 30
0.0
 10
155.704255
 20
112.766737
 30
0.0
 10
155.985546
 20
112.485446
 30
0.0
  0
SPLINE
  5
1da
100
AcDbEntity
  8
Layer_1
 62
1
100
AcDbSpline
 70
8
 71
3
 72
8
 73
4
 74
0
 40
0
 40
0
 40
0
 40
0
 40
1
 40
1
 40
1
 40
1
 10
155.985546
 20
112.485446
 30
0.0
 10
156.266834
 20
112.204155
 30
0.0
 10
156.648402
 20
112.046103
 30
0.0
 10
157.046209
 20
112.046103
 30
0.0
  0
LWPOLYLINE
  5
1db
100
AcDbEntity
  8
Layer_1
 62
1
100
AcDbPolyline
 90
1
 70
1
 10
151.348791
 20
106.348689
 30
0.0
  0
SPLINE
  5
1dc
100
AcDbEntity
  8
Layer_1
 62
1
100
AcDbSpline
 70
8
 71
3
 72
8
 73
4
 74
0
 40
0
 40
0
 40
0
 40
0
 40
1
 40
1
 40
1
 40
1
 10
162.743623
 20
117.743517
 30
0.0
 10
163.141429
 20
117.743517
 30
0.0
 10
163.522994
 20
117.901565
 30
0.0
 10
163.804285
 20
118.182856
 30
0.0
  0
SPLINE
  5
1dd
100
AcDbEntity
  8
Layer_1
 62
1
100
AcDbSpline
 70
8
 71
3
 72
8
 73
4
 74
0
 40
0
 40
0
 40
0
 40
0
 40
1
 40
1
 40
1
 40
1
 10
163.804285
 20
118.182856
 30
0.0
 10
164.085576
 20
118.464147
 30
0.0
 10
164.243628
 20
118.845712
 30
0.0
 10
164.243628
 20
119.243519
 30
0.0
  0
SPLINE
  5
1de
100
AcDbEntity
  8
Layer_1
 62
1
100
AcDbSpline
 70
8
 71
3
 72
8
 73
4
 74
0
 40
0
 40
0
 40
0
 40
0
 40
1
 40
1
 40
1
 40
1
 10
164.243628
 20
119.243519
 30
0.0
 10
164.243628
 20
119.641325
 30
0.0
 10
164.085576
 20
120.022890
 30
0.0
 10
163.804285
 20
120.304181
 30
0.0
  0
SPLINE
  5
1df
100
AcDbEntity
  8
Layer_1
 62
1
100
AcDbSpline
 70
8
 71
3
 72
8
 73
4
 74
0
 40
0
 40
0
 40
0
 40
0
 40
1
 40
1
 40
1
 40
1
 10
163.804285
 20
120.304181
 30
0.0
 10
163.522994
 20
120.585472
 30
0.0
 10
163.141429
 20
120.743524
 30
0.0
 10
162.743623
 20
120.743524
 30
0.0
  0
SPLINE
  5
1e0
100
AcDbEntity
  8
Layer_1
 62
1
100
AcDbSpline
 70
8
 71
3
 72
8
 73
4
 74
0
 40
0
 40
0
 40
0
 40
0
 40
1
 40
1
 40
1
 40
1
 10
162.743623
 20
120.743524
 30
0.0
 10
162.345816
 20
120.743524
 30
0.0
 10
161.964252
 20
120.585472
 30
0.0
 10
161.682960
 20
120.304181
 30
0.0
  0
SPLINE
  5
1e1
100
AcDbEntity
  8
Layer_1
 62
1
100
AcDbSpline
 70
8
 71
3
 72
8
 73
4
 74
0
 40
0
 40
0
 40
0
 40
0
 40
1
 40
1
 40
1
 40
1
 10
161.682960
 20
120.304181
 30
0.0
 10
161.401669
 20
120.022890
 30
0.0
 10
161.243621
 20
119.641325
 30
0.0
 10
161.243621
 20
119.243519
 30
0.0
  0
SPLINE
  5
1e2
100
AcDbEntity
  8
Layer_1
 62
1
100
AcDbSpline
 70
8
 71
3
 72
8
 73
4
 74
0
 40
0
 40
0
 40
0
 40
0
 40
1
 40
1
 40
1
 40
1
 10
161.243621
 20
119.243519
 30
0.0
 10
161.243621
 20
118.845712
 30
0.0
 10
161.401669
 20
118.464147
 30
0.0
 10
161.682960
 20
118.182856
 30
0.0
  0
SPLINE
  5
1e3
100
AcDbEntity
  8
Layer_1
 62
1
100
AcDbSpline
 70
8
 71
3
 72
8
 73
4
 74
0
 40
0
 40
0
 40
0
 40
0
 40
1
 40
1
 40
1
 40
1
 10
161.682960
 20
118.182856
 30
0.0
 10
161.964252
 20
117.901565
 30
0.0
 10
162.345816
 20
117.743517
 30
0.0
 10
162.743623
 20
117.743517
 30
0.0
  0
LWPOLYLINE
  5
1e4
100
AcDbEntity
  8
Layer_1
 62
1
100
AcDbPolyline
 90
1
 70
1
 10
157.046209
 20
112.046103
 30
0.0
  0
SPLINE
  5
1e5
100
AcDbEntity
  8
Layer_1
 62
1
100
AcDbSpline
 70
8
 71
3
 72
8
 73
4
 74
0
 40
0
 40
0
 40
0
 40
0
 40
1
 40
1
 40
1
 40
1
 10
168.441040
 20
123.440931
 30
0.0
 10
168.838847
 20
123.440931
 30
0.0
 10
169.220412
 20
123.598983
 30
0.0
 10
169.501703
 20
123.880274
 30
0.0
  0
SPLINE
  5
1e6
100
AcDbEntity
  8
Layer_1
 62
1
100
AcDbSpline
 70
8
 71
3
 72
8
 73
4
 74
0
 40
0
 40
0
 40
0
 40
0
 40
1
 40
1
 40
1
 40
1
 10
169.501703
 20
123.880274
 30
0.0
 10
169.782994
 20
124.161565
 30
0.0
 10
169.941042
 20
124.543130
 30
0.0
 10
169.941042
 20
124.940936
 30
0.0
  0
SPLINE
  5
1e7
100
AcDbEntity
  8
Layer_1
 62
1
100
AcDbSpline
 70
8
 71
3
 72
8
 73
4
 74
0
 40
0
 40
0
 40
0
 40
0
 40
1
 40
1
 40
1
 40
1
 10
169.941042
 20
124.940936
 30
0.0
 10
169.941042
 20
125.338739
 30
0.0
 10
169.782994
 20
125.720308
 30
0.0
 10
169.501703
 20
126.001599
 30
0.0
  0
SPLINE
  5
1e8
100
AcDbEntity
  8
Layer_1
 62
1
100
AcDbSpline
 70
8
 71
3
 72
8
 73
4
 74
0
 40
0
 40
0
 40
0
 40
0
 40
1
 40
1
 40
1
 40
1
 10
169.501703
 20
126.001599
 30
0.0
 10
169.220412
 20
126.282890
 30
0.0
 10
168.838847
 20
126.440938
 30
0.0
 10
168.441040
 20
126.440938
 30
0.0
  0
SPLINE
  5
1e9
100
AcDbEntity
  8
Layer_1
 62
1
100
AcDbSpline
 70
8
 71
3
 72
8
 73
4
 74
0
 40
0
 40
0
 40
0
 40
0
 40
1
 40
1
 40
1
 40
1
 10
168.441040
 20
126.440938
 30
0.0
 10
168.043234
 20
126.440938
 30
0.0
 10
167.661669
 20
126.282890
 30
0.0
 10
167.380378
 20
126.001599
 30
0.0
  0
SPLINE
  5
1ea
100
AcDbEntity
  8
Layer_1
 62
1
100
AcDbSpline
 70
8
 71
3
 72
8
 73
4
 74
0
 40
0
 40
0
 40
0
 40
0
 40
1
 40
1
 40
1
 40
1
 10
167.380378
 20
126.001599
 30
0.0
 10
167.099087
 20
125.720308
 30
0.0
 10
166.941035
 20
125.338739
 30
0.0
 10
166.941035
 20
124.940936
 30
0.0
  0
SPLINE
  5
1eb
100
AcDbEntity
  8
Layer_1
 62
1
100
AcDbSpline
 70
8
 71
3
 72
8
 73
4
 74
0
 40
0
 40
0
 40
0
 40
0
 40
1
 40
1
 40
1
 40
1
 10
166.941035
 20
124.940936
 30
0.0
 10
166.941035
 20
124.543130
 30
0.0
 10
167.099087
 20
124.161565
 30
0.0
 10
167.380378
 20
123.880274
 30
0.0
  0
SPLINE
  5
1ec
100
AcDbEntity
  8
Layer_1
 62
1
100
AcDbSpline
 70
8
 71
3
 72
8
 73
4
 74
0
 40
0
 40
0
 40
0
 40
0
 40
1
 40
1
 40
1
 40
1
 10
167.380378
 20
123.880274
 30
0.0
 10
167.661669
 20
123.598983
 30
0.0
 10
168.043234
 20
123.440931
 30
0.0
 10
168.441040
 20
123.440931
 30
0.0
  0
LWPOLYLINE
  5
1ed
100
AcDbEntity
  8
Layer_1
 62
1
100
AcDbPolyline
 90
1
 70
1
 10
162.743623
 20
117.743517
 30
0.0
  0
SPLINE
  5
1ee
100
AcDbEntity
  8
Layer_1
 62
1
100
AcDbSpline
 70
8
 71
3
 72
8
 73
4
 74
0
 40
0
 40
0
 40
0
 40
0
 40
1
 40
1
 40
1
 40
1
 10
174.138455
 20
129.138349
 30
0.0
 10
174.536261
 20
129.138349
 30
0.0
 10
174.917829
 20
129.296397
 30
0.0
 10
175.199117
 20
129.577688
 30
0.0
  0
SPLINE
  5
1ef
100
AcDbEntity
  8
Layer_1
 62
1
100
AcDbSpline
 70
8
 71
3
 72
8
 73
4
 74
0
 40
0
 40
0
 40
0
 40
0
 40
1
 40
1
 40
1
 40
1
 10
175.199117
 20
129.577688
 30
0.0
 10
175.480408
 20
129.858979
 30
0.0
 10
175.638460
 20
130.240547
 30
0.0
 10
175.638460
 20
130.638350
 30
0.0
  0
SPLINE
  5
1f0
100
AcDbEntity
  8
Layer_1
 62
1
100
AcDbSpline
 70
8
 71
3
 72
8
 73
4
 74
0
 40
0
 40
0
 40
0
 40
0
 40
1
 40
1
 40
1
 40
1
 10
175.638460
 20
130.638350
 30
0.0
 10
175.638460
 20
131.036157
 30
0.0
 10
175.480408
 20
131.417722
 30
0.0
 10
175.199117
 20
131.699013
 30
0.0
  0
SPLINE
  5
1f1
100
AcDbEntity
  8
Layer_1
 62
1
100
AcDbSpline
 70
8
 71
3
 72
8
 73
4
 74
0
 40
0
 40
0
 40
0
 40
0
 40
1
 40
1
 40
1
 40
1
 10
175.199117
 20
131.699013
 30
0.0
 10
174.917829
 20
131.980304
 30
0.0
 10
174.536261
 20
132.138355
 30
0.0
 10
174.138455
 20
132.138355
 30
0.0
  0
SPLINE
  5
1f2
100
AcDbEntity
  8
Layer_1
 62
1
100
AcDbSpline
 70
8
 71
3
 72
8
 73
4
 74
0
 40
0
 40
0
 40
0
 40
0
 40
1
 40
1
 40
1
 40
1
 10
174.138455
 20
132.138355
 30
0.0
 10
173.740651
 20
132.138355
 30
0.0
 10
173.359083
 20
131.980304
 30
0.0
 10
173.077792
 20
131.699013
 30
0.0
  0
SPLINE
  5
1f3
100
AcDbEntity
  8
Layer_1
 62
1
100
AcDbSpline
 70
8
 71
3
 72
8
 73
4
 74
0
 40
0
 40
0
 40
0
 40
0
 40
1
 40
1
 40
1
 40
1
 10
173.077792
 20
131.699013
 30
0.0
 10
172.796501
 20
131.417722
 30
0.0
 10
172.638453
 20
131.036157
 30
0.0
 10
172.638453
 20
130.638350
 30
0.0
  0
SPLINE
  5
1f4
100
AcDbEntity
  8
Layer_1
 62
1
100
AcDbSpline
 70
8
 71
3
 72
8
 73
4
 74
0
 40
0
 40
0
 40
0
 40
0
 40
1
 40
1
 40
1
 40
1
 10
172.638453
 20
130.638350
 30
0.0
 10
172.638453
 20
130.240547
 30
0.0
 10
172.796501
 20
129.858979
 30
0.0
 10
173.077792
 20
129.577688
 30
0.0
  0
SPLINE
  5
1f5
100
AcDbEntity
  8
Layer_1
 62
1
100
AcDbSpline
 70
8
 71
3
 72
8
 73
4
 74
0
 40
0
 40
0
 40
0
 40
0
 40
1
 40
1
 40
1
 40
1
 10
173.077792
 20
129.577688
 30
0.0
 10
173.359083
 20
129.296397
 30
0.0
 10
173.740651
 20
129.138349
 30
0.0
 10
174.138455
 20
129.138349
 30
0.0
  0
LWPOLYLINE
  5
1f6
100
AcDbEntity
  8
Layer_1
 62
1
100
AcDbPolyline
 90
1
 70
1
 10
168.441040
 20
123.440931
 30
0.0
  0
SPLINE
  5
1f7
100
AcDbEntity
  8
Layer_1
 62
1
100
AcDbSpline
 70
8
 71
3
 72
8
 73
4
 74
0
 40
0
 40
0
 40
0
 40
0
 40
1
 40
1
 40
1
 40
1
 10
179.835872
 20
134.835767
 30
0.0
 10
180.233679
 20
134.835767
 30
0.0
 10
180.615243
 20
134.993815
 30
0.0
 10
180.896534
 20
135.275106
 30
0.0
  0
SPLINE
  5
1f8
100
AcDbEntity
  8
Layer_1
 62
1
100
AcDbSpline
 70
8
 71
3
 72
8
 73
4
 74
0
 40
0
 40
0
 40
0
 40
0
 40
1
 40
1
 40
1
 40
1
 10
180.896534
 20
135.275106
 30
0.0
 10
181.177826
 20
135.556397
 30
0.0
 10
181.335877
 20
135.937961
 30
0.0
 10
181.335877
 20
136.335768
 30
0.0
  0
SPLINE
  5
1f9
100
AcDbEntity
  8
Layer_1
 62
1
100
AcDbSpline
 70
8
 71
3
 72
8
 73
4
 74
0
 40
0
 40
0
 40
0
 40
0
 40
1
 40
1
 40
1
 40
1
 10
181.335877
 20
136.335768
 30
0.0
 10
181.335877
 20
136.733575
 30
0.0
 10
181.177826
 20
137.115139
 30
0.0
 10
180.896534
 20
137.396430
 30
0.0
  0
SPLINE
  5
1fa
100
AcDbEntity
  8
Layer_1
 62
1
100
AcDbSpline
 70
8
 71
3
 72
8
 73
4
 74
0
 40
0
 40
0
 40
0
 40
0
 40
1
 40
1
 40
1
 40
1
 10
180.896534
 20
137.396430
 30
0.0
 10
180.615243
 20
137.677721
 30
0.0
 10
180.233679
 20
137.835773
 30
0.0
 10
179.835872
 20
137.835773
 30
0.0
  0
SPLINE
  5
1fb
100
AcDbEntity
  8
Layer_1
 62
1
100
AcDbSpline
 70
8
 71
3
 72
8
 73
4
 74
0
 40
0
 40
0
 40
0
 40
0
 40
1
 40
1
 40
1
 40
1
 10
179.835872
 20
137.835773
 30
0.0
 10
179.438066
 20
137.835773
 30
0.0
 10
179.056501
 20
137.677721
 30
0.0
 10
178.775210
 20
137.396430
 30
0.0
  0
SPLINE
  5
1fc
100
AcDbEntity
  8
Layer_1
 62
1
100
AcDbSpline
 70
8
 71
3
 72
8
 73
4
 74
0
 40
0
 40
0
 40
0
 40
0
 40
1
 40
1
 40
1
 40
1
 10
178.775210
 20
137.396430
 30
0.0
 10
178.493919
 20
137.115139
 30
0.0
 10
178.335871
 20
136.733575
 30
0.0
 10
178.335871
 20
136.335768
 30
0.0
  0
SPLINE
  5
1fd
100
AcDbEntity
  8
Layer_1
 62
1
100
AcDbSpline
 70
8
 71
3
 72
8
 73
4
 74
0
 40
0
 40
0
 40
0
 40
0
 40
1
 40
1
 40
1
 40
1
 10
178.335871
 20
136.335768
 30
0.0
 10
178.335871
 20
135.937961
 30
0.0
 10
178.493919
 20
135.556397
 30
0.0
 10
178.775210
 20
135.275106
 30
0.0
  0
SPLINE
  5
1fe
100
AcDbEntity
  8
Layer_1
 62
1
100
AcDbSpline
 70
8
 71
3
 72
8
 73
4
 74
0
 40
0
 40
0
 40
0
 40
0
 40
1
 40
1
 40
1
 40
1
 10
178.775210
 20
135.275106
 30
0.0
 10
179.056501
 20
134.993815
 30
0.0
 10
179.438066
 20
134.835767
 30
0.0
 10
179.835872
 20
134.835767
 30
0.0
  0
LWPOLYLINE
  5
1ff
100
AcDbEntity
  8
Layer_1
 62
1
100
AcDbPolyline
 90
1
 70
1
 10
174.138455
 20
129.138349
 30
0.0
  0
SPLINE
  5
200
100
AcDbEntity
  8
Layer_1
 62
1
100
AcDbSpline
 70
8
 71
3
 72
8
 73
4
 74
0
 40
0
 40
0
 40
0
 40
0
 40
1
 40
1
 40
1
 40
1
 10
185.533279
 20
140.533177
 30
0.0
 10
185.931082
 20
140.533177
 30
0.0
 10
186.312650
 20
140.691225
 30
0.0
 10
186.593941
 20
140.972516
 30
0.0
  0
SPLINE
  5
201
100
AcDbEntity
  8
Layer_1
 62
1
100
AcDbSpline
 70
8
 71
3
 72
8
 73
4
 74
0
 40
0
 40
0
 40
0
 40
0
 40
1
 40
1
 40
1
 40
1
 10
186.593941
 20
140.972516
 30
0.0
 10
186.875233
 20
141.253807
 30
0.0
 10
187.033281
 20
141.635372
 30
0.0
 10
187.033281
 20
142.033179
 30
0.0
  0
SPLINE
  5
202
100
AcDbEntity
  8
Layer_1
 62
1
100
AcDbSpline
 70
8
 71
3
 72
8
 73
4
 74
0
 40
0
 40
0
 40
0
 40
0
 40
1
 40
1
 40
1
 40
1
 10
187.033281
 20
142.033179
 30
0.0
 10
187.033281
 20
142.430985
 30
0.0
 10
186.875233
 20
142.812550
 30
0.0
 10
186.593941
 20
143.093841
 30
0.0
  0
SPLINE
  5
203
100
AcDbEntity
  8
Layer_1
 62
1
100
AcDbSpline
 70
8
 71
3
 72
8
 73
4
 74
0
 40
0
 40
0
 40
0
 40
0
 40
1
 40
1
 40
1
 40
1
 10
186.593941
 20
143.093841
 30
0.0
 10
186.312650
 20
143.375132
 30
0.0
 10
185.931082
 20
143.533184
 30
0.0
 10
185.533279
 20
143.533184
 30
0.0
  0
SPLINE
  5
204
100
AcDbEntity
  8
Layer_1
 62
1
100
AcDbSpline
 70
8
 71
3
 72
8
 73
4
 74
0
 40
0
 40
0
 40
0
 40
0
 40
1
 40
1
 40
1
 40
1
 10
185.533279
 20
143.533184
 30
0.0
 10
185.135473
 20
143.533184
 30
0.0
 10
184.753908
 20
143.375132
 30
0.0
 10
184.472617
 20
143.093841
 30
0.0
  0
SPLINE
  5
205
100
AcDbEntity
  8
Layer_1
 62
1
100
AcDbSpline
 70
8
 71
3
 72
8
 73
4
 74
0
 40
0
 40
0
 40
0
 40
0
 40
1
 40
1
 40
1
 40
1
 10
184.472617
 20
143.093841
 30
0.0
 10
184.191326
 20
142.812550
 30
0.0
 10
184.033274
 20
142.430985
 30
0.0
 10
184.033274
 20
142.033179
 30
0.0
  0
SPLINE
  5
206
100
AcDbEntity
  8
Layer_1
 62
1
100
AcDbSpline
 70
8
 71
3
 72
8
 73
4
 74
0
 40
0
 40
0
 40
0
 40
0
 40
1
 40
1
 40
1
 40
1
 10
184.033274
 20
142.033179
 30
0.0
 10
184.033274
 20
141.635372
 30
0.0
 10
184.191326
 20
141.253807
 30
0.0
 10
184.472617
 20
140.972516
 30
0.0
  0
SPLINE
  5
207
100
AcDbEntity
  8
Layer_1
 62
1
100
AcDbSpline
 70
8
 71
3
 72
8
 73
4
 74
0
 40
0
 40
0
 40
0
 40
0
 40
1
 40
1
 40
1
 40
1
 10
184.472617
 20
140.972516
 30
0.0
 10
184.753908
 20
140.691225
 30
0.0
 10
185.135473
 20
140.533177
 30
0.0
 10
185.533279
 20
140.533177
 30
0.0
  0
LWPOLYLINE
  5
208
100
AcDbEntity
  8
Layer_1
 62
1
100
AcDbPolyline
 90
1
 70
1
 10
179.835872
 20
134.835767
 30
0.0
  0
SPLINE
  5
209
100
AcDbEntity
  8
Layer_1
 62
1
100
AcDbSpline
 70
8
 71
3
 72
8
 73
4
 74
0
 40
0
 40
0
 40
0
 40
0
 40
1
 40
1
 40
1
 40
1
 10
191.230693
 20
146.230591
 30
0.0
 10
191.628500
 20
146.230591
 30
0.0
 10
192.010065
 20
146.388643
 30
0.0
 10
192.291356
 20
146.669934
 30
0.0
  0
SPLINE
  5
20a
100
AcDbEntity
  8
Layer_1
 62
1
100
AcDbSpline
 70
8
 71
3
 72
8
 73
4
 74
0
 40
0
 40
0
 40
0
 40
0
 40
1
 40
1
 40
1
 40
1
 10
192.291356
 20
146.669934
 30
0.0
 10
192.572647
 20
146.951225
 30
0.0
 10
192.730698
 20
147.332790
 30
0.0
 10
192.730698
 20
147.730596
 30
0.0
  0
SPLINE
  5
20b
100
AcDbEntity
  8
Layer_1
 62
1
100
AcDbSpline
 70
8
 71
3
 72
8
 73
4
 74
0
 40
0
 40
0
 40
0
 40
0
 40
1
 40
1
 40
1
 40
1
 10
192.730698
 20
147.730596
 30
0.0
 10
192.730698
 20
148.128403
 30
0.0
 10
192.572647
 20
148.509968
 30
0.0
 10
192.291356
 20
148.791259
 30
0.0
  0
SPLINE
  5
20c
100
AcDbEntity
  8
Layer_1
 62
1
100
AcDbSpline
 70
8
 71
3
 72
8
 73
4
 74
0
 40
0
 40
0
 40
0
 40
0
 40
1
 40
1
 40
1
 40
1
 10
192.291356
 20
148.791259
 30
0.0
 10
192.010065
 20
149.072550
 30
0.0
 10
191.628500
 20
149.230598
 30
0.0
 10
191.230693
 20
149.230598
 30
0.0
  0
SPLINE
  5
20d
100
AcDbEntity
  8
Layer_1
 62
1
100
AcDbSpline
 70
8
 71
3
 72
8
 73
4
 74
0
 40
0
 40
0
 40
0
 40
0
 40
1
 40
1
 40
1
 40
1
 10
191.230693
 20
149.230598
 30
0.0
 10
190.832890
 20
149.230598
 30
0.0
 10
190.451322
 20
149.072550
 30
0.0
 10
190.170031
 20
148.791259
 30
0.0
  0
SPLINE
  5
20e
100
AcDbEntity
  8
Layer_1
 62
1
100
AcDbSpline
 70
8
 71
3
 72
8
 73
4
 74
0
 40
0
 40
0
 40
0
 40
0
 40
1
 40
1
 40
1
 40
1
 10
190.170031
 20
148.791259
 30
0.0
 10
189.888740
 20
148.509968
 30
0.0
 10
189.730692
 20
148.128403
 30
0.0
 10
189.730692
 20
147.730596
 30
0.0
  0
SPLINE
  5
20f
100
AcDbEntity
  8
Layer_1
 62
1
100
AcDbSpline
 70
8
 71
3
 72
8
 73
4
 74
0
 40
0
 40
0
 40
0
 40
0
 40
1
 40
1
 40
1
 40
1
 10
189.730692
 20
147.730596
 30
0.0
 10
189.730692
 20
147.332790
 30
0.0
 10
189.888740
 20
146.951225
 30
0.0
 10
190.170031
 20
146.669934
 30
0.0
  0
SPLINE
  5
210
100
AcDbEntity
  8
Layer_1
 62
1
100
AcDbSpline
 70
8
 71
3
 72
8
 73
4
 74
0
 40
0
 40
0
 40
0
 40
0
 40
1
 40
1
 40
1
 40
1
 10
190.170031
 20
146.669934
 30
0.0
 10
190.451322
 20
146.388643
 30
0.0
 10
190.832890
 20
146.230591
 30
0.0
 10
191.230693
 20
146.230591
 30
0.0
  0
LWPOLYLINE
  5
211
100
AcDbEntity
  8
Layer_1
 62
1
100
AcDbPolyline
 90
1
 70
1
 10
185.533279
 20
140.533177
 30
0.0
  0
SPLINE
  5
212
100
AcDbEntity
  8
Layer_1
 62
1
100
AcDbSpline
 70
8
 71
3
 72
8
 73
4
 74
0
 40
0
 40
0
 40
0
 40
0
 40
1
 40
1
 40
1
 40
1
 10
196.928111
 20
151.928005
 30
0.0
 10
197.325917
 20
151.928005
 30
0.0
 10
197.707482
 20
152.086057
 30
0.0
 10
197.988773
 20
152.367348
 30
0.0
  0
SPLINE
  5
213
100
AcDbEntity
  8
Layer_1
 62
1
100
AcDbSpline
 70
8
 71
3
 72
8
 73
4
 74
0
 40
0
 40
0
 40
0
 40
0
 40
1
 40
1
 40
1
 40
1
 10
197.988773
 20
152.367348
 30
0.0
 10
198.270064
 20
152.648639
 30
0.0
 10
198.428112
 20
153.030204
 30
0.0
 10
198.428112
 20
153.428010
 30
0.0
  0
SPLINE
  5
214
100
AcDbEntity
  8
Layer_1
 62
1
100
AcDbSpline
 70
8
 71
3
 72
8
 73
4
 74
0
 40
0
 40
0
 40
0
 40
0
 40
1
 40
1
 40
1
 40
1
 10
198.428112
 20
153.428010
 30
0.0
 10
198.428112
 20
153.825813
 30
0.0
 10
198.270064
 20
154.207382
 30
0.0
 10
197.988773
 20
154.488673
 30
0.0
  0
SPLINE
  5
215
100
AcDbEntity
  8
Layer_1
 62
1
100
AcDbSpline
 70
8
 71
3
 72
8
 73
4
 74
0
 40
0
 40
0
 40
0
 40
0
 40
1
 40
1
 40
1
 40
1
 10
197.988773
 20
154.488673
 30
0.0
 10
197.707482
 20
154.769964
 30
0.0
 10
197.325917
 20
154.928013
 30
0.0
 10
196.928111
 20
154.928013
 30
0.0
  0
SPLINE
  5
216
100
AcDbEntity
  8
Layer_1
 62
1
100
AcDbSpline
 70
8
 71
3
 72
8
 73
4
 74
0
 40
0
 40
0
 40
0
 40
0
 40
1
 40
1
 40
1
 40
1
 10
196.928111
 20
154.928013
 30
0.0
 10
196.530304
 20
154.928013
 30
0.0
 10
196.148740
 20
154.769964
 30
0.0
 10
195.867449
 20
154.488673
 30
0.0
  0
SPLINE
  5
217
100
AcDbEntity
  8
Layer_1
 62
1
100
AcDbSpline
 70
8
 71
3
 72
8
 73
4
 74
0
 40
0
 40
0
 40
0
 40
0
 40
1
 40
1
 40
1
 40
1
 10
195.867449
 20
154.488673
 30
0.0
 10
195.586157
 20
154.207382
 30
0.0
 10
195.428106
 20
153.825813
 30
0.0
 10
195.428106
 20
153.428010
 30
0.0
  0
SPLINE
  5
218
100
AcDbEntity
  8
Layer_1
 62
1
100
AcDbSpline
 70
8
 71
3
 72
8
 73
4
 74
0
 40
0
 40
0
 40
0
 40
0
 40
1
 40
1
 40
1
 40
1
 10
195.428106
 20
153.428010
 30
0.0
 10
195.428106
 20
153.030204
 30
0.0
 10
195.586157
 20
152.648639
 30
0.0
 10
195.867449
 20
152.367348
 30
0.0
  0
SPLINE
  5
219
100
AcDbEntity
  8
Layer_1
 62
1
100
AcDbSpline
 70
8
 71
3
 72
8
 73
4
 74
0
 40
0
 40
0
 40
0
 40
0
 40
1
 40
1
 40
1
 40
1
 10
195.867449
 20
152.367348
 30
0.0
 10
196.148740
 20
152.086057
 30
0.0
 10
196.530304
 20
151.928005
 30
0.0
 10
196.928111
 20
151.928005
 30
0.0
  0
LWPOLYLINE
  5
21a
100
AcDbEntity
  8
Layer_1
 62
1
100
AcDbPolyline
 90
1
 70
1
 10
191.230693
 20
146.230591
 30
0.0
  0
SPLINE
  5
21b
100
AcDbEntity
  8
Layer_1
 62
1
100
AcDbSpline
 70
8
 71
3
 72
8
 73
4
 74
0
 40
0
 40
0
 40
0
 40
0
 40
1
 40
1
 40
1
 40
1
 10
202.625518
 20
157.625423
 30
0.0
 10
203.023321
 20
157.625423
 30
0.0
 10
203.404889
 20
157.783472
 30
0.0
 10
203.686180
 20
158.064764
 30
0.0
  0
SPLINE
  5
21c
100
AcDbEntity
  8
Layer_1
 62
1
100
AcDbSpline
 70
8
 71
3
 72
8
 73
4
 74
0
 40
0
 40
0
 40
0
 40
0
 40
1
 40
1
 40
1
 40
1
 10
203.686180
 20
158.064764
 30
0.0
 10
203.967471
 20
158.346054
 30
0.0
 10
204.125519
 20
158.727620
 30
0.0
 10
204.125519
 20
159.125426
 30
0.0
  0
SPLINE
  5
21d
100
AcDbEntity
  8
Layer_1
 62
1
100
AcDbSpline
 70
8
 71
3
 72
8
 73
4
 74
0
 40
0
 40
0
 40
0
 40
0
 40
1
 40
1
 40
1
 40
1
 10
204.125519
 20
159.125426
 30
0.0
 10
204.125519
 20
159.523231
 30
0.0
 10
203.967471
 20
159.904797
 30
0.0
 10
203.686180
 20
160.186088
 30
0.0
  0
SPLINE
  5
21e
100
AcDbEntity
  8
Layer_1
 62
1
100
AcDbSpline
 70
8
 71
3
 72
8
 73
4
 74
0
 40
0
 40
0
 40
0
 40
0
 40
1
 40
1
 40
1
 40
1
 10
203.686180
 20
160.186088
 30
0.0
 10
203.404889
 20
160.467379
 30
0.0
 10
203.023321
 20
160.625429
 30
0.0
 10
202.625518
 20
160.625429
 30
0.0
  0
SPLINE
  5
21f
100
AcDbEntity
  8
Layer_1
 62
1
100
AcDbSpline
 70
8
 71
3
 72
8
 73
4
 74
0
 40
0
 40
0
 40
0
 40
0
 40
1
 40
1
 40
1
 40
1
 10
202.625518
 20
160.625429
 30
0.0
 10
202.227711
 20
160.625429
 30
0.0
 10
201.846143
 20
160.467379
 30
0.0
 10
201.564856
 20
160.186088
 30
0.0
  0
SPLINE
  5
220
100
AcDbEntity
  8
Layer_1
 62
1
100
AcDbSpline
 70
8
 71
3
 72
8
 73
4
 74
0
 40
0
 40
0
 40
0
 40
0
 40
1
 40
1
 40
1
 40
1
 10
201.564856
 20
160.186088
 30
0.0
 10
201.283564
 20
159.904797
 30
0.0
 10
201.125513
 20
159.523231
 30
0.0
 10
201.125513
 20
159.125426
 30
0.0
  0
SPLINE
  5
221
100
AcDbEntity
  8
Layer_1
 62
1
100
AcDbSpline
 70
8
 71
3
 72
8
 73
4
 74
0
 40
0
 40
0
 40
0
 40
0
 40
1
 40
1
 40
1
 40
1
 10
201.125513
 20
159.125426
 30
0.0
 10
201.125513
 20
158.727620
 30
0.0
 10
201.283564
 20
158.346054
 30
0.0
 10
201.564856
 20
158.064764
 30
0.0
  0
SPLINE
  5
222
100
AcDbEntity
  8
Layer_1
 62
1
100
AcDbSpline
 70
8
 71
3
 72
8
 73
4
 74
0
 40
0
 40
0
 40
0
 40
0
 40
1
 40
1
 40
1
 40
1
 10
201.564856
 20
158.064764
 30
0.0
 10
201.846143
 20
157.783472
 30
0.0
 10
202.227711
 20
157.625423
 30
0.0
 10
202.625518
 20
157.625423
 30
0.0
  0
LWPOLYLINE
  5
223
100
AcDbEntity
  8
Layer_1
 62
1
100
AcDbPolyline
 90
1
 70
1
 10
196.928111
 20
151.928005
 30
0.0
  0
SPLINE
  5
224
100
AcDbEntity
  8
Layer_1
 62
1
100
AcDbSpline
 70
8
 71
3
 72
8
 73
4
 74
0
 40
0
 40
0
 40
0
 40
0
 40
1
 40
1
 40
1
 40
1
 10
208.322932
 20
163.322836
 30
0.0
 10
208.720739
 20
163.322836
 30
0.0
 10
209.102303
 20
163.480886
 30
0.0
 10
209.383594
 20
163.762177
 30
0.0
  0
SPLINE
  5
225
100
AcDbEntity
  8
Layer_1
 62
1
100
AcDbSpline
 70
8
 71
3
 72
8
 73
4
 74
0
 40
0
 40
0
 40
0
 40
0
 40
1
 40
1
 40
1
 40
1
 10
209.383594
 20
163.762177
 30
0.0
 10
209.664885
 20
164.043468
 30
0.0
 10
209.822937
 20
164.425034
 30
0.0
 10
209.822937
 20
164.822839
 30
0.0
  0
SPLINE
  5
226
100
AcDbEntity
  8
Layer_1
 62
1
100
AcDbSpline
 70
8
 71
3
 72
8
 73
4
 74
0
 40
0
 40
0
 40
0
 40
0
 40
1
 40
1
 40
1
 40
1
 10
209.822937
 20
164.822839
 30
0.0
 10
209.822937
 20
165.220645
 30
0.0
 10
209.664885
 20
165.602211
 30
0.0
 10
209.383594
 20
165.883502
 30
0.0
  0
SPLINE
  5
227
100
AcDbEntity
  8
Layer_1
 62
1
100
AcDbSpline
 70
8
 71
3
 72
8
 73
4
 74
0
 40
0
 40
0
 40
0
 40
0
 40
1
 40
1
 40
1
 40
1
 10
209.383594
 20
165.883502
 30
0.0
 10
209.102303
 20
166.164793
 30
0.0
 10
208.720739
 20
166.322842
 30
0.0
 10
208.322932
 20
166.322842
 30
0.0
  0
SPLINE
  5
228
100
AcDbEntity
  8
Layer_1
 62
1
100
AcDbSpline
 70
8
 71
3
 72
8
 73
4
 74
0
 40
0
 40
0
 40
0
 40
0
 40
1
 40
1
 40
1
 40
1
 10
208.322932
 20
166.322842
 30
0.0
 10
207.925129
 20
166.322842
 30
0.0
 10
207.543561
 20
166.164793
 30
0.0
 10
207.262270
 20
165.883502
 30
0.0
  0
SPLINE
  5
229
100
AcDbEntity
  8
Layer_1
 62
1
100
AcDbSpline
 70
8
 71
3
 72
8
 73
4
 74
0
 40
0
 40
0
 40
0
 40
0
 40
1
 40
1
 40
1
 40
1
 10
207.262270
 20
165.883502
 30
0.0
 10
206.980979
 20
165.602211
 30
0.0
 10
206.822931
 20
165.220645
 30
0.0
 10
206.822931
 20
164.822839
 30
0.0
  0
SPLINE
  5
22a
100
AcDbEntity
  8
Layer_1
 62
1
100
AcDbSpline
 70
8
 71
3
 72
8
 73
4
 74
0
 40
0
 40
0
 40
0
 40
0
 40
1
 40
1
 40
1
 40
1
 10
206.822931
 20
164.822839
 30
0.0
 10
206.822931
 20
164.425034
 30
0.0
 10
206.980979
 20
164.043468
 30
0.0
 10
207.262270
 20
163.762177
 30
0.0
  0
SPLINE
  5
22b
100
AcDbEntity
  8
Layer_1
 62
1
100
AcDbSpline
 70
8
 71
3
 72
8
 73
4
 74
0
 40
0
 40
0
 40
0
 40
0
 40
1
 40
1
 40
1
 40
1
 10
207.262270
 20
163.762177
 30
0.0
 10
207.543561
 20
163.480886
 30
0.0
 10
207.925129
 20
163.322836
 30
0.0
 10
208.322932
 20
163.322836
 30
0.0
  0
LWPOLYLINE
  5
22c
100
AcDbEntity
  8
Layer_1
 62
1
100
AcDbPolyline
 90
1
 70
1
 10
202.625518
 20
157.625423
 30
0.0
  0
SPLINE
  5
22d
100
AcDbEntity
  8
Layer_1
 62
1
100
AcDbSpline
 70
8
 71
3
 72
8
 73
4
 74
0
 40
0
 40
0
 40
0
 40
0
 40
1
 40
1
 40
1
 40
1
 10
214.020350
 20
169.020251
 30
0.0
 10
214.418156
 20
169.020251
 30
0.0
 10
214.799721
 20
169.178301
 30
0.0
 10
215.081012
 20
169.459592
 30
0.0
  0
SPLINE
  5
22e
100
AcDbEntity
  8
Layer_1
 62
1
100
AcDbSpline
 70
8
 71
3
 72
8
 73
4
 74
0
 40
0
 40
0
 40
0
 40
0
 40
1
 40
1
 40
1
 40
1
 10
215.081012
 20
169.459592
 30
0.0
 10
215.362303
 20
169.740883
 30
0.0
 10
215.520351
 20
170.122449
 30
0.0
 10
215.520351
 20
170.520254
 30
0.0
  0
SPLINE
  5
22f
100
AcDbEntity
  8
Layer_1
 62
1
100
AcDbSpline
 70
8
 71
3
 72
8
 73
4
 74
0
 40
0
 40
0
 40
0
 40
0
 40
1
 40
1
 40
1
 40
1
 10
215.520351
 20
170.520254
 30
0.0
 10
215.520351
 20
170.918060
 30
0.0
 10
215.362303
 20
171.299626
 30
0.0
 10
215.081012
 20
171.580917
 30
0.0
  0
SPLINE
  5
230
100
AcDbEntity
  8
Layer_1
 62
1
100
AcDbSpline
 70
8
 71
3
 72
8
 73
4
 74
0
 40
0
 40
0
 40
0
 40
0
 40
1
 40
1
 40
1
 40
1
 10
215.081012
 20
171.580917
 30
0.0
 10
214.799721
 20
171.862208
 30
0.0
 10
214.418156
 20
172.020258
 30
0.0
 10
214.020350
 20
172.020258
 30
0.0
  0
SPLINE
  5
231
100
AcDbEntity
  8
Layer_1
 62
1
100
AcDbSpline
 70
8
 71
3
 72
8
 73
4
 74
0
 40
0
 40
0
 40
0
 40
0
 40
1
 40
1
 40
1
 40
1
 10
214.020350
 20
172.020258
 30
0.0
 10
213.622543
 20
172.020258
 30
0.0
 10
213.240978
 20
171.862208
 30
0.0
 10
212.959687
 20
171.580917
 30
0.0
  0
SPLINE
  5
232
100
AcDbEntity
  8
Layer_1
 62
1
100
AcDbSpline
 70
8
 71
3
 72
8
 73
4
 74
0
 40
0
 40
0
 40
0
 40
0
 40
1
 40
1
 40
1
 40
1
 10
212.959687
 20
171.580917
 30
0.0
 10
212.678396
 20
171.299626
 30
0.0
 10
212.520345
 20
170.918060
 30
0.0
 10
212.520345
 20
170.520254
 30
0.0
  0
SPLINE
  5
233
100
AcDbEntity
  8
Layer_1
 62
1
100
AcDbSpline
 70
8
 71
3
 72
8
 73
4
 74
0
 40
0
 40
0
 40
0
 40
0
 40
1
 40
1
 40
1
 40
1
 10
212.520345
 20
170.520254
 30
0.0
 10
212.520345
 20
170.122449
 30
0.0
 10
212.678396
 20
169.740883
 30
0.0
 10
212.959687
 20
169.459592
 30
0.0
  0
SPLINE
  5
234
100
AcDbEntity
  8
Layer_1
 62
1
100
AcDbSpline
 70
8
 71
3
 72
8
 73
4
 74
0
 40
0
 40
0
 40
0
 40
0
 40
1
 40
1
 40
1
 40
1
 10
212.959687
 20
169.459592
 30
0.0
 10
213.240978
 20
169.178301
 30
0.0
 10
213.622543
 20
169.020251
 30
0.0
 10
214.020350
 20
169.020251
 30
0.0
  0
LWPOLYLINE
  5
235
100
AcDbEntity
  8
Layer_1
 62
1
100
AcDbPolyline
 90
1
 70
1
 10
208.322932
 20
163.322836
 30
0.0
  0
SPLINE
  5
236
100
AcDbEntity
  8
Layer_1
 62
1
100
AcDbSpline
 70
8
 71
3
 72
8
 73
4
 74
0
 40
0
 40
0
 40
0
 40
0
 40
1
 40
1
 40
1
 40
1
 10
219.717767
 20
174.717666
 30
0.0
 10
220.115570
 20
174.717666
 30
0.0
 10
220.497138
 20
174.875716
 30
0.0
 10
220.778430
 20
175.157007
 30
0.0
  0
SPLINE
  5
237
100
AcDbEntity
  8
Layer_1
 62
1
100
AcDbSpline
 70
8
 71
3
 72
8
 73
4
 74
0
 40
0
 40
0
 40
0
 40
0
 40
1
 40
1
 40
1
 40
1
 10
220.778430
 20
175.157007
 30
0.0
 10
221.059721
 20
175.438298
 30
0.0
 10
221.217769
 20
175.819864
 30
0.0
 10
221.217769
 20
176.217670
 30
0.0
  0
SPLINE
  5
238
100
AcDbEntity
  8
Layer_1
 62
1
100
AcDbSpline
 70
8
 71
3
 72
8
 73
4
 74
0
 40
0
 40
0
 40
0
 40
0
 40
1
 40
1
 40
1
 40
1
 10
221.217769
 20
176.217670
 30
0.0
 10
221.217769
 20
176.615475
 30
0.0
 10
221.059721
 20
176.997041
 30
0.0
 10
220.778430
 20
177.278332
 30
0.0
  0
SPLINE
  5
239
100
AcDbEntity
  8
Layer_1
 62
1
100
AcDbSpline
 70
8
 71
3
 72
8
 73
4
 74
0
 40
0
 40
0
 40
0
 40
0
 40
1
 40
1
 40
1
 40
1
 10
220.778430
 20
177.278332
 30
0.0
 10
220.497138
 20
177.559623
 30
0.0
 10
220.115570
 20
177.717673
 30
0.0
 10
219.717767
 20
177.717673
 30
0.0
  0
SPLINE
  5
23a
100
AcDbEntity
  8
Layer_1
 62
1
100
AcDbSpline
 70
8
 71
3
 72
8
 73
4
 74
0
 40
0
 40
0
 40
0
 40
0
 40
1
 40
1
 40
1
 40
1
 10
219.717767
 20
177.717673
 30
0.0
 10
219.319961
 20
177.717673
 30
0.0
 10
218.938392
 20
177.559623
 30
0.0
 10
218.657105
 20
177.278332
 30
0.0
  0
SPLINE
  5
23b
100
AcDbEntity
  8
Layer_1
 62
1
100
AcDbSpline
 70
8
 71
3
 72
8
 73
4
 74
0
 40
0
 40
0
 40
0
 40
0
 40
1
 40
1
 40
1
 40
1
 10
218.657105
 20
177.278332
 30
0.0
 10
218.375814
 20
176.997041
 30
0.0
 10
218.217762
 20
176.615475
 30
0.0
 10
218.217762
 20
176.217670
 30
0.0
  0
SPLINE
  5
23c
100
AcDbEntity
  8
Layer_1
 62
1
100
AcDbSpline
 70
8
 71
3
 72
8
 73
4
 74
0
 40
0
 40
0
 40
0
 40
0
 40
1
 40
1
 40
1
 40
1
 10
218.217762
 20
176.217670
 30
0.0
 10
218.217762
 20
175.819864
 30
0.0
 10
218.375814
 20
175.438298
 30
0.0
 10
218.657105
 20
175.157007
 30
0.0
  0
SPLINE
  5
23d
100
AcDbEntity
  8
Layer_1
 62
1
100
AcDbSpline
 70
8
 71
3
 72
8
 73
4
 74
0
 40
0
 40
0
 40
0
 40
0
 40
1
 40
1
 40
1
 40
1
 10
218.657105
 20
175.157007
 30
0.0
 10
218.938392
 20
174.875716
 30
0.0
 10
219.319961
 20
174.717666
 30
0.0
 10
219.717767
 20
174.717666
 30
0.0
  0
LWPOLYLINE
  5
23e
100
AcDbEntity
  8
Layer_1
 62
1
100
AcDbPolyline
 90
1
 70
1
 10
214.020350
 20
169.020251
 30
0.0
  0
SPLINE
  5
23f
100
AcDbEntity
  8
Layer_1
 62
1
100
AcDbSpline
 70
8
 71
3
 72
8
 73
4
 74
0
 40
0
 40
0
 40
0
 40
0
 40
1
 40
1
 40
1
 40
1
 10
225.415181
 20
180.415080
 30
0.0
 10
225.812988
 20
180.415080
 30
0.0
 10
226.194553
 20
180.573130
 30
0.0
 10
226.475844
 20
180.854421
 30
0.0
  0
SPLINE
  5
240
100
AcDbEntity
  8
Layer_1
 62
1
100
AcDbSpline
 70
8
 71
3
 72
8
 73
4
 74
0
 40
0
 40
0
 40
0
 40
0
 40
1
 40
1
 40
1
 40
1
 10
226.475844
 20
180.854421
 30
0.0
 10
226.757135
 20
181.135712
 30
0.0
 10
226.915186
 20
181.517278
 30
0.0
 10
226.915186
 20
181.915084
 30
0.0
  0
SPLINE
  5
241
100
AcDbEntity
  8
Layer_1
 62
1
100
AcDbSpline
 70
8
 71
3
 72
8
 73
4
 74
0
 40
0
 40
0
 40
0
 40
0
 40
1
 40
1
 40
1
 40
1
 10
226.915186
 20
181.915084
 30
0.0
 10
226.915186
 20
182.312889
 30
0.0
 10
226.757135
 20
182.694455
 30
0.0
 10
226.475844
 20
182.975746
 30
0.0
  0
SPLINE
  5
242
100
AcDbEntity
  8
Layer_1
 62
1
100
AcDbSpline
 70
8
 71
3
 72
8
 73
4
 74
0
 40
0
 40
0
 40
0
 40
0
 40
1
 40
1
 40
1
 40
1
 10
226.475844
 20
182.975746
 30
0.0
 10
226.194553
 20
183.257037
 30
0.0
 10
225.812988
 20
183.415087
 30
0.0
 10
225.415181
 20
183.415087
 30
0.0
  0
SPLINE
  5
243
100
AcDbEntity
  8
Layer_1
 62
1
100
AcDbSpline
 70
8
 71
3
 72
8
 73
4
 74
0
 40
0
 40
0
 40
0
 40
0
 40
1
 40
1
 40
1
 40
1
 10
225.415181
 20
183.415087
 30
0.0
 10
225.017375
 20
183.415087
 30
0.0
 10
224.635810
 20
183.257037
 30
0.0
 10
224.354519
 20
182.975746
 30
0.0
  0
SPLINE
  5
244
100
AcDbEntity
  8
Layer_1
 62
1
100
AcDbSpline
 70
8
 71
3
 72
8
 73
4
 74
0
 40
0
 40
0
 40
0
 40
0
 40
1
 40
1
 40
1
 40
1
 10
224.354519
 20
182.975746
 30
0.0
 10
224.073228
 20
182.694455
 30
0.0
 10
223.915180
 20
182.312889
 30
0.0
 10
223.915180
 20
181.915084
 30
0.0
  0
SPLINE
  5
245
100
AcDbEntity
  8
Layer_1
 62
1
100
AcDbSpline
 70
8
 71
3
 72
8
 73
4
 74
0
 40
0
 40
0
 40
0
 40
0
 40
1
 40
1
 40
1
 40
1
 10
223.915180
 20
181.915084
 30
0.0
 10
223.915180
 20
181.517278
 30
0.0
 10
224.073228
 20
181.135712
 30
0.0
 10
224.354519
 20
180.854421
 30
0.0
  0
SPLINE
  5
246
100
AcDbEntity
  8
Layer_1
 62
1
100
AcDbSpline
 70
8
 71
3
 72
8
 73
4
 74
0
 40
0
 40
0
 40
0
 40
0
 40
1
 40
1
 40
1
 40
1
 10
224.354519
 20
180.854421
 30
0.0
 10
224.635810
 20
180.573130
 30
0.0
 10
225.017375
 20
180.415080
 30
0.0
 10
225.415181
 20
180.415080
 30
0.0
  0
LWPOLYLINE
  5
247
100
AcDbEntity
  8
Layer_1
 62
1
100
AcDbPolyline
 90
1
 70
1
 10
219.717767
 20
174.717666
 30
0.0
  0
SPLINE
  5
248
100
AcDbEntity
  8
Layer_1
 62
1
100
AcDbSpline
 70
8
 71
3
 72
8
 73
4
 74
0
 40
0
 40
0
 40
0
 40
0
 40
1
 40
1
 40
1
 40
1
 10
231.112599
 20
186.112495
 30
0.0
 10
231.510406
 20
186.112495
 30
0.0
 10
231.891970
 20
186.270545
 30
0.0
 10
232.173261
 20
186.551836
 30
0.0
  0
SPLINE
  5
249
100
AcDbEntity
  8
Layer_1
 62
1
100
AcDbSpline
 70
8
 71
3
 72
8
 73
4
 74
0
 40
0
 40
0
 40
0
 40
0
 40
1
 40
1
 40
1
 40
1
 10
232.173261
 20
186.551836
 30
0.0
 10
232.454552
 20
186.833127
 30
0.0
 10
232.612600
 20
187.214693
 30
0.0
 10
232.612600
 20
187.612498
 30
0.0
  0
SPLINE
  5
24a
100
AcDbEntity
  8
Layer_1
 62
1
100
AcDbSpline
 70
8
 71
3
 72
8
 73
4
 74
0
 40
0
 40
0
 40
0
 40
0
 40
1
 40
1
 40
1
 40
1
 10
232.612600
 20
187.612498
 30
0.0
 10
232.612600
 20
188.010304
 30
0.0
 10
232.454552
 20
188.391870
 30
0.0
 10
232.173261
 20
188.673161
 30
0.0
  0
SPLINE
  5
24b
100
AcDbEntity
  8
Layer_1
 62
1
100
AcDbSpline
 70
8
 71
3
 72
8
 73
4
 74
0
 40
0
 40
0
 40
0
 40
0
 40
1
 40
1
 40
1
 40
1
 10
232.173261
 20
188.673161
 30
0.0
 10
231.891970
 20
188.954452
 30
0.0
 10
231.510406
 20
189.112502
 30
0.0
 10
231.112599
 20
189.112502
 30
0.0
  0
SPLINE
  5
24c
100
AcDbEntity
  8
Layer_1
 62
1
100
AcDbSpline
 70
8
 71
3
 72
8
 73
4
 74
0
 40
0
 40
0
 40
0
 40
0
 40
1
 40
1
 40
1
 40
1
 10
231.112599
 20
189.112502
 30
0.0
 10
230.714792
 20
189.112502
 30
0.0
 10
230.333228
 20
188.954452
 30
0.0
 10
230.051937
 20
188.673161
 30
0.0
  0
SPLINE
  5
24d
100
AcDbEntity
  8
Layer_1
 62
1
100
AcDbSpline
 70
8
 71
3
 72
8
 73
4
 74
0
 40
0
 40
0
 40
0
 40
0
 40
1
 40
1
 40
1
 40
1
 10
230.051937
 20
188.673161
 30
0.0
 10
229.770646
 20
188.391870
 30
0.0
 10
229.612594
 20
188.010304
 30
0.0
 10
229.612594
 20
187.612498
 30
0.0
  0
SPLINE
  5
24e
100
AcDbEntity
  8
Layer_1
 62
1
100
AcDbSpline
 70
8
 71
3
 72
8
 73
4
 74
0
 40
0
 40
0
 40
0
 40
0
 40
1
 40
1
 40
1
 40
1
 10
229.612594
 20
187.612498
 30
0.0
 10
229.612594
 20
187.214693
 30
0.0
 10
229.770646
 20
186.833127
 30
0.0
 10
230.051937
 20
186.551836
 30
0.0
  0
SPLINE
  5
24f
100
AcDbEntity
  8
Layer_1
 62
1
100
AcDbSpline
 70
8
 71
3
 72
8
 73
4
 74
0
 40
0
 40
0
 40
0
 40
0
 40
1
 40
1
 40
1
 40
1
 10
230.051937
 20
186.551836
 30
0.0
 10
230.333228
 20
186.270545
 30
0.0
 10
230.714792
 20
186.112495
 30
0.0
 10
231.112599
 20
186.112495
 30
0.0
  0
LWPOLYLINE
  5
250
100
AcDbEntity
  8
Layer_1
 62
1
100
AcDbPolyline
 90
1
 70
1
 10
225.415181
 20
180.415080
 30
0.0
  0
LWPOLYLINE
  5
251
100
AcDbEntity
  8
Layer_1
 62
1
100
AcDbPolyline
 90
1
 70
1
 10
231.112599
 20
186.112495
 30
0.0
  0
LWPOLYLINE
  5
252
100
AcDbEntity
  8
Layer_1
 62
3
100
AcDbPolyline
 90
5
 70
0
 10
62.994793
 20
190.505278
 30
0.0
 10
148.244228
 20
105.255843
 30
0.0
 10
148.755947
 20
105.255843
 30
0.0
 10
234.005379
 20
190.505278
 30
0.0
 10
234.005379
 20
190.505278
 30
0.0
  0
LWPOLYLINE
  5
253
100
AcDbEntity
  8
Layer_1
 62
1
100
AcDbPolyline
 90
4
 70
1
 10
64.387568
 20
186.112495
 30
0.0
 10
67.387574
 20
186.112495
 30
0.0
 10
67.387574
 20
189.112502
 30
0.0
 10
64.387568
 20
189.112502
 30
0.0
  0
LWPOLYLINE
  5
254
100
AcDbEntity
  8
Layer_1
 62
1
100
AcDbPolyline
 90
4
 70
1
 10
70.996567
 20
179.503494
 30
0.0
 10
73.996574
 20
179.503494
 30
0.0
 10
73.996574
 20
182.503501
 30
0.0
 10
70.996567
 20
182.503501
 30
0.0
  0
LWPOLYLINE
  5
255
100
AcDbEntity
  8
Layer_1
 62
1
100
AcDbPolyline
 90
4
 70
1
 10
77.605574
 20
172.894494
 30
0.0
 10
80.605580
 20
172.894494
 30
0.0
 10
80.605580
 20
175.894500
 30
0.0
 10
77.605574
 20
175.894500
 30
0.0
  0
LWPOLYLINE
  5
256
100
AcDbEntity
  8
Layer_1
 62
1
100
AcDbPolyline
 90
4
 70
1
 10
84.214573
 20
166.285492
 30
0.0
 10
87.214580
 20
166.285492
 30
0.0
 10
87.214580
 20
169.285499
 30
0.0
 10
84.214573
 20
169.285499
 30
0.0
  0
LWPOLYLINE
  5
257
100
AcDbEntity
  8
Layer_1
 62
1
100
AcDbPolyline
 90
4
 70
1
 10
90.823573
 20
159.676491
 30
0.0
 10
93.823579
 20
159.676491
 30
0.0
 10
93.823579
 20
162.676497
 30
0.0
 10
90.823573
 20
162.676497
 30
0.0
  0
LWPOLYLINE
  5
258
100
AcDbEntity
  8
Layer_1
 62
1
100
AcDbPolyline
 90
4
 70
1
 10
97.432572
 20
153.067489
 30
0.0
 10
100.432579
 20
153.067489
 30
0.0
 10
100.432579
 20
156.067495
 30
0.0
 10
97.432572
 20
156.067495
 30
0.0
  0
LWPOLYLINE
  5
259
100
AcDbEntity
  8
Layer_1
 62
1
100
AcDbPolyline
 90
4
 70
1
 10
104.041575
 20
146.458489
 30
0.0
 10
107.041582
 20
146.458489
 30
0.0
 10
107.041582
 20
149.458496
 30
0.0
 10
104.041575
 20
149.458496
 30
0.0
  0
LWPOLYLINE
  5
25a
100
AcDbEntity
  8
Layer_1
 62
1
100
AcDbPolyline
 90
4
 70
1
 10
110.650575
 20
139.849486
 30
0.0
 10
113.650581
 20
139.849486
 30
0.0
 10
113.650581
 20
142.849493
 30
0.0
 10
110.650575
 20
142.849493
 30
0.0
  0
LWPOLYLINE
  5
25b
100
AcDbEntity
  8
Layer_1
 62
1
100
AcDbPolyline
 90
4
 70
1
 10
117.259574
 20
133.240487
 30
0.0
 10
120.259581
 20
133.240487
 30
0.0
 10
120.259581
 20
136.240493
 30
0.0
 10
117.259574
 20
136.240493
 30
0.0
  0
LWPOLYLINE
  5
25c
100
AcDbEntity
  8
Layer_1
 62
1
100
AcDbPolyline
 90
4
 70
1
 10
123.868574
 20
126.631487
 30
0.0
 10
126.868580
 20
126.631487
 30
0.0
 10
126.868580
 20
129.631494
 30
0.0
 10
123.868574
 20
129.631494
 30
0.0
  0
LWPOLYLINE
  5
25d
100
AcDbEntity
  8
Layer_1
 62
1
100
AcDbPolyline
 90
4
 70
1
 10
130.477584
 20
120.022484
 30
0.0
 10
133.477590
 20
120.022484
 30
0.0
 10
133.477590
 20
123.022491
 30
0.0
 10
130.477584
 20
123.022491
 30
0.0
  0
LWPOLYLINE
  5
25e
100
AcDbEntity
  8
Layer_1
 62
1
100
AcDbPolyline
 90
4
 70
1
 10
137.086583
 20
113.413485
 30
0.0
 10
140.086590
 20
113.413485
 30
0.0
 10
140.086590
 20
116.413491
 30
0.0
 10
137.086583
 20
116.413491
 30
0.0
  0
LWPOLYLINE
  5
25f
100
AcDbEntity
  8
Layer_1
 62
1
100
AcDbPolyline
 90
4
 70
1
 10
143.695583
 20
106.804482
 30
0.0
 10
146.695589
 20
106.804482
 30
0.0
 10
146.695589
 20
109.804488
 30
0.0
 10
143.695583
 20
109.804488
 30
0.0
  0
LWPOLYLINE
  5
260
100
AcDbEntity
  8
Layer_1
 62
1
100
AcDbPolyline
 90
4
 70
1
 10
150.304586
 20
106.804482
 30
0.0
 10
153.304592
 20
106.804482
 30
0.0
 10
153.304592
 20
109.804488
 30
0.0
 10
150.304586
 20
109.804488
 30
0.0
  0
LWPOLYLINE
  5
261
100
AcDbEntity
  8
Layer_1
 62
1
100
AcDbPolyline
 90
4
 70
1
 10
156.913585
 20
113.413485
 30
0.0
 10
159.913592
 20
113.413485
 30
0.0
 10
159.913592
 20
116.413491
 30
0.0
 10
156.913585
 20
116.413491
 30
0.0
  0
LWPOLYLINE
  5
262
100
AcDbEntity
  8
Layer_1
 62
1
100
AcDbPolyline
 90
4
 70
1
 10
163.522585
 20
120.022484
 30
0.0
 10
166.522591
 20
120.022484
 30
0.0
 10
166.522591
 20
123.022491
 30
0.0
 10
163.522585
 20
123.022491
 30
0.0
  0
LWPOLYLINE
  5
263
100
AcDbEntity
  8
Layer_1
 62
1
100
AcDbPolyline
 90
4
 70
1
 10
170.131584
 20
126.631487
 30
0.0
 10
173.131591
 20
126.631487
 30
0.0
 10
173.131591
 20
129.631494
 30
0.0
 10
170.131584
 20
129.631494
 30
0.0
  0
LWPOLYLINE
  5
264
100
AcDbEntity
  8
Layer_1
 62
1
100
AcDbPolyline
 90
4
 70
1
 10
176.740584
 20
133.240487
 30
0.0
 10
179.740590
 20
133.240487
 30
0.0
 10
179.740590
 20
136.240493
 30
0.0
 10
176.740584
 20
136.240493
 30
0.0
  0
LWPOLYLINE
  5
265
100
AcDbEntity
  8
Layer_1
 62
1
100
AcDbPolyline
 90
4
 70
1
 10
183.349583
 20
139.849486
 30
0.0
 10
186.349590
 20
139.849486
 30
0.0
 10
186.349590
 20
142.849493
 30
0.0
 10
183.349583
 20
142.849493
 30
0.0
  0
LWPOLYLINE
  5
266
100
AcDbEntity
  8
Layer_1
 62
1
100
AcDbPolyline
 90
4
 70
1
 10
189.958597
 20
146.458489
 30
0.0
 10
192.958603
 20
146.458489
 30
0.0
 10
192.958603
 20
149.458496
 30
0.0
 10
189.958597
 20
149.458496
 30
0.0
  0
LWPOLYLINE
  5
267
100
AcDbEntity
  8
Layer_1
 62
1
100
AcDbPolyline
 90
4
 70
1
 10
196.567596
 20
153.067489
 30
0.0
 10
199.567603
 20
153.067489
 30
0.0
 10
199.567603
 20
156.067495
 30
0.0
 10
196.567596
 20
156.067495
 30
0.0
  0
LWPOLYLINE
  5
268
100
AcDbEntity
  8
Layer_1
 62
1
100
AcDbPolyline
 90
4
 70
1
 10
203.176596
 20
159.676491
 30
0.0
 10
206.176602
 20
159.676491
 30
0.0
 10
206.176602
 20
162.676497
 30
0.0
 10
203.176596
 20
162.676497
 30
0.0
  0
LWPOLYLINE
  5
269
100
AcDbEntity
  8
Layer_1
 62
1
100
AcDbPolyline
 90
4
 70
1
 10
209.785585
 20
166.285492
 30
0.0
 10
212.785591
 20
166.285492
 30
0.0
 10
212.785591
 20
169.285499
 30
0.0
 10
209.785585
 20
169.285499
 30
0.0
  0
LWPOLYLINE
  5
26a
100
AcDbEntity
  8
Layer_1
 62
1
100
AcDbPolyline
 90
4
 70
1
 10
216.394595
 20
172.894494
 30
0.0
 10
219.394601
 20
172.894494
 30
0.0
 10
219.394601
 20
175.894500
 30
0.0
 10
216.394595
 20
175.894500
 30
0.0
  0
LWPOLYLINE
  5
26b
100
AcDbEntity
  8
Layer_1
 62
1
100
AcDbPolyline
 90
4
 70
1
 10
223.003605
 20
179.503494
 30
0.0
 10
226.003611
 20
179.503494
 30
0.0
 10
226.003611
 20
182.503501
 30
0.0
 10
223.003605
 20
182.503501
 30
0.0
  0
LWPOLYLINE
  5
26c
100
AcDbEntity
  8
Layer_1
 62
1
100
AcDbPolyline
 90
4
 70
1
 10
229.612594
 20
186.112495
 30
0.0
 10
232.612600
 20
186.112495
 30
0.0
 10
232.612600
 20
189.112502
 30
0.0
 10
229.612594
 20
189.112502
 30
0.0
  0
LWPOLYLINE
  5
26d
100
AcDbEntity
  8
Layer_1
 62
7
100
AcDbPolyline
 90
2
 70
0
 10
20.826202
 20
104.999984
 30
0.0
 10
276.173970
 20
104.999984
 30
0.0
  0
LWPOLYLINE
  5
26e
100
AcDbEntity
  8
Layer_1
 62
7
100
AcDbPolyline
 90
2
 70
0
 10
148.500088
 20
22.387472
 30
0.0
 10
148.500088
 20
187.612498
 30
0.0
  0
LWPOLYLINE
  5
26f
100
AcDbEntity
  8
Layer_1
 62
7
100
AcDbPolyline
 90
2
 70
0
 10
150.753154
 20
22.387472
 30
0.0
 10
146.247018
 20
22.387472
 30
0.0
  0
LWPOLYLINE
  5
270
100
AcDbEntity
  8
Layer_1
 62
7
100
AcDbPolyline
 90
2
 70
0
 10
150.753154
 20
29.897700
 30
0.0
 10
146.247018
 20
29.897700
 30
0.0
  0
LWPOLYLINE
  5
271
100
AcDbEntity
  8
Layer_1
 62
7
100
AcDbPolyline
 90
2
 70
0
 10
150.753154
 20
37.407927
 30
0.0
 10
146.247018
 20
37.407927
 30
0.0
  0
LWPOLYLINE
  5
272
100
AcDbEntity
  8
Layer_1
 62
7
100
AcDbPolyline
 90
2
 70
0
 10
150.753154
 20
44.918158
 30
0.0
 10
146.247018
 20
44.918158
 30
0.0
  0
LWPOLYLINE
  5
273
100
AcDbEntity
  8
Layer_1
 62
7
100
AcDbPolyline
 90
2
 70
0
 10
150.753154
 20
52.428385
 30
0.0
 10
146.247018
 20
52.428385
 30
0.0
  0
LWPOLYLINE
  5
274
100
AcDbEntity
  8
Layer_1
 62
7
100
AcDbPolyline
 90
2
 70
0
 10
150.753154
 20
59.938612
 30
0.0
 10
146.247018
 20
59.938612
 30
0.0
  0
LWPOLYLINE
  5
275
100
AcDbEntity
  8
Layer_1
 62
7
100
AcDbPolyline
 90
2
 70
0
 10
150.753154
 20
67.448843
 30
0.0
 10
146.247018
 20
67.448843
 30
0.0
  0
LWPOLYLINE
  5
276
100
AcDbEntity
  8
Layer_1
 62
7
100
AcDbPolyline
 90
2
 70
0
 10
150.753154
 20
74.959071
 30
0.0
 10
146.247018
 20
74.959071
 30
0.0
  0
LWPOLYLINE
  5
277
100
AcDbEntity
  8
Layer_1
 62
7
100
AcDbPolyline
 90
2
 70
0
 10
150.753154
 20
82.469298
 30
0.0
 10
146.247018
 20
82.469298
 30
0.0
  0
LWPOLYLINE
  5
278
100
AcDbEntity
  8
Layer_1
 62
7
100
AcDbPolyline
 90
2
 70
0
 10
150.753154
 20
89.979529
 30
0.0
 10
146.247018
 20
89.979529
 30
0.0
  0
LWPOLYLINE
  5
279
100
AcDbEntity
  8
Layer_1
 62
7
100
AcDbPolyline
 90
2
 70
0
 10
150.753154
 20
97.489756
 30
0.0
 10
146.247018
 20
97.489756
 30
0.0
  0
LWPOLYLINE
  5
27a
100
AcDbEntity
  8
Layer_1
 62
7
100
AcDbPolyline
 90
2
 70
0
 10
150.753154
 20
104.999984
 30
0.0
 10
146.247018
 20
104.999984
 30
0.0
  0
LWPOLYLINE
  5
27b
100
AcDbEntity
  8
Layer_1
 62
7
100
AcDbPolyline
 90
2
 70
0
 10
150.753154
 20
112.510214
 30
0.0
 10
146.247018
 20
112.510214
 30
0.0
  0
LWPOLYLINE
  5
27c
100
AcDbEntity
  8
Layer_1
 62
7
100
AcDbPolyline
 90
2
 70
0
 10
150.753154
 20
120.020442
 30
0.0
 10
146.247018
 20
120.020442
 30
0.0
  0
LWPOLYLINE
  5
27d
100
AcDbEntity
  8
Layer_1
 62
7
100
AcDbPolyline
 90
2
 70
0
 10
150.753154
 20
127.530669
 30
0.0
 10
146.247018
 20
127.530669
 30
0.0
  0
LWPOLYLINE
  5
27e
100
AcDbEntity
  8
Layer_1
 62
7
100
AcDbPolyline
 90
2
 70
0
 10
150.753154
 20
135.040900
 30
0.0
 10
146.247018
 20
135.040900
 30
0.0
  0
LWPOLYLINE
  5
27f
100
AcDbEntity
  8
Layer_1
 62
7
100
AcDbPolyline
 90
2
 70
0
 10
150.753154
 20
142.551127
 30
0.0
 10
146.247018
 20
142.551127
 30
0.0
  0
LWPOLYLINE
  5
280
100
AcDbEntity
  8
Layer_1
 62
7
100
AcDbPolyline
 90
2
 70
0
 10
150.753154
 20
150.061355
 30
0.0
 10
146.247018
 20
150.061355
 30
0.0
  0
LWPOLYLINE
  5
281
100
AcDbEntity
  8
Layer_1
 62
7
100
AcDbPolyline
 90
2
 70
0
 10
150.753154
 20
157.571584
 30
0.0
 10
146.247018
 20
157.571584
 30
0.0
  0
LWPOLYLINE
  5
282
100
AcDbEntity
  8
Layer_1
 62
7
100
AcDbPolyline
 90
2
 70
0
 10
150.753154
 20
165.081813
 30
0.0
 10
146.247018
 20
165.081813
 30
0.0
  0
LWPOLYLINE
  5
283
100
AcDbEntity
  8
Layer_1
 62
7
100
AcDbPolyline
 90
2
 70
0
 10
150.753154
 20
172.592041
 30
0.0
 10
146.247018
 20
172.592041
 30
0.0
  0
LWPOLYLINE
  5
284
100
AcDbEntity
  8
Layer_1
 62
7
100
AcDbPolyline
 90
2
 70
0
 10
150.753154
 20
180.102270
 30
0.0
 10
146.247018
 20
180.102270
 30
0.0
  0
LWPOLYLINE
  5
285
100
AcDbEntity
  8
Layer_1
 62
7
100
AcDbPolyline
 90
2
 70
0
 10
150.753154
 20
187.612498
 30
0.0
 10
146.247018
 20
187.612498
 30
0.0
  0
LWPOLYLINE
  5
286
100
AcDbEntity
  8
Layer_1
 62
7
100
AcDbPolyline
 90
2
 70
0
 10
20.826202
 20
107.253053
 30
0.0
 10
20.826202
 20
102.746917
 30
0.0
  0
LWPOLYLINE
  5
287
100
AcDbEntity
  8
Layer_1
 62
7
100
AcDbPolyline
 90
2
 70
0
 10
28.336430
 20
107.253053
 30
0.0
 10
28.336430
 20
102.746917
 30
0.0
  0
LWPOLYLINE
  5
288
100
AcDbEntity
  8
Layer_1
 62
7
100
AcDbPolyline
 90
2
 70
0
 10
35.846659
 20
107.253053
 30
0.0
 10
35.846659
 20
102.746917
 30
0.0
  0
LWPOLYLINE
  5
289
100
AcDbEntity
  8
Layer_1
 62
7
100
AcDbPolyline
 90
2
 70
0
 10
43.356887
 20
107.253053
 30
0.0
 10
43.356887
 20
102.746917
 30
0.0
  0
LWPOLYLINE
  5
28a
100
AcDbEntity
  8
Layer_1
 62
7
100
AcDbPolyline
 90
2
 70
0
 10
50.867116
 20
107.253053
 30
0.0
 10
50.867116
 20
102.746917
 30
0.0
  0
LWPOLYLINE
  5
28b
100
AcDbEntity
  8
Layer_1
 62
7
100
AcDbPolyline
 90
2
 70
0
 10
58.377345
 20
107.253053
 30
0.0
 10
58.377345
 20
102.746917
 30
0.0
  0
LWPOLYLINE
  5
28c
100
AcDbEntity
  8
Layer_1
 62
7
100
AcDbPolyline
 90
2
 70
0
 10
65.887573
 20
107.253053
 30
0.0
 10
65.887573
 20
102.746917
 30
0.0
  0
LWPOLYLINE
  5
28d
100
AcDbEntity
  8
Layer_1
 62
7
100
AcDbPolyline
 90
2
 70
0
 10
73.397800
 20
107.253053
 30
0.0
 10
73.397800
 20
102.746917
 30
0.0
  0
LWPOLYLINE
  5
28e
100
AcDbEntity
  8
Layer_1
 62
7
100
AcDbPolyline
 90
2
 70
0
 10
80.908031
 20
107.253053
 30
0.0
 10
80.908031
 20
102.746917
 30
0.0
  0
LWPOLYLINE
  5
28f
100
AcDbEntity
  8
Layer_1
 62
7
100
AcDbPolyline
 90
2
 70
0
 10
88.418258
 20
107.253053
 30
0.0
 10
88.418258
 20
102.746917
 30
0.0
  0
LWPOLYLINE
  5
290
100
AcDbEntity
  8
Layer_1
 62
7
100
AcDbPolyline
 90
2
 70
0
 10
95.928486
 20
107.253053
 30
0.0
 10
95.928486
 20
102.746917
 30
0.0
  0
LWPOLYLINE
  5
291
100
AcDbEntity
  8
Layer_1
 62
7
100
AcDbPolyline
 90
2
 70
0
 10
103.438716
 20
107.253053
 30
0.0
 10
103.438716
 20
102.746917
 30
0.0
  0
LWPOLYLINE
  5
292
100
AcDbEntity
  8
Layer_1
 62
7
100
AcDbPolyline
 90
2
 70
0
 10
110.948944
 20
107.253053
 30
0.0
 10
110.948944
 20
102.746917
 30
0.0
  0
LWPOLYLINE
  5
293
100
AcDbEntity
  8
Layer_1
 62
7
100
AcDbPolyline
 90
2
 70
0
 10
118.459171
 20
107.253053
 30
0.0
 10
118.459171
 20
102.746917
 30
0.0
  0
LWPOLYLINE
  5
294
100
AcDbEntity
  8
Layer_1
 62
7
100
AcDbPolyline
 90
2
 70
0
 10
125.969402
 20
107.253053
 30
0.0
 10
125.969402
 20
102.746917
 30
0.0
  0
LWPOLYLINE
  5
295
100
AcDbEntity
  8
Layer_1
 62
7
100
AcDbPolyline
 90
2
 70
0
 10
133.479629
 20
107.253053
 30
0.0
 10
133.479629
 20
102.746917
 30
0.0
  0
LWPOLYLINE
  5
296
100
AcDbEntity
  8
Layer_1
 62
7
100
AcDbPolyline
 90
2
 70
0
 10
140.989857
 20
107.253053
 30
0.0
 10
140.989857
 20
102.746917
 30
0.0
  0
LWPOLYLINE
  5
297
100
AcDbEntity
  8
Layer_1
 62
7
100
AcDbPolyline
 90
2
 70
0
 10
148.500088
 20
107.253053
 30
0.0
 10
148.500088
 20
102.746917
 30
0.0
  0
LWPOLYLINE
  5
298
100
AcDbEntity
  8
Layer_1
 62
7
100
AcDbPolyline
 90
2
 70
0
 10
156.010315
 20
107.253053
 30
0.0
 10
156.010315
 20
102.746917
 30
0.0
  0
LWPOLYLINE
  5
299
100
AcDbEntity
  8
Layer_1
 62
7
100
AcDbPolyline
 90
2
 70
0
 10
163.520542
 20
107.253053
 30
0.0
 10
163.520542
 20
102.746917
 30
0.0
  0
LWPOLYLINE
  5
29a
100
AcDbEntity
  8
Layer_1
 62
7
100
AcDbPolyline
 90
2
 70
0
 10
171.030773
 20
107.253053
 30
0.0
 10
171.030773
 20
102.746917
 30
0.0
  0
LWPOLYLINE
  5
29b
100
AcDbEntity
  8
Layer_1
 62
7
100
AcDbPolyline
 90
2
 70
0
 10
178.541000
 20
107.253053
 30
0.0
 10
178.541000
 20
102.746917
 30
0.0
  0
LWPOLYLINE
  5
29c
100
AcDbEntity
  8
Layer_1
 62
7
100
AcDbPolyline
 90
2
 70
0
 10
186.051228
 20
107.253053
 30
0.0
 10
186.051228
 20
102.746917
 30
0.0
  0
LWPOLYLINE
  5
29d
100
AcDbEntity
  8
Layer_1
 62
7
100
AcDbPolyline
 90
2
 70
0
 10
193.561459
 20
107.253053
 30
0.0
 10
193.561459
 20
102.746917
 30
0.0
  0
LWPOLYLINE
  5
29e
100
AcDbEntity
  8
Layer_1
 62
7
100
AcDbPolyline
 90
2
 70
0
 10
201.071686
 20
107.253053
 30
0.0
 10
201.071686
 20
102.746917
 30
0.0
  0
LWPOLYLINE
  5
29f
100
AcDbEntity
  8
Layer_1
 62
7
100
AcDbPolyline
 90
2
 70
0
 10
208.581913
 20
107.253053
 30
0.0
 10
208.581913
 20
102.746917
 30
0.0
  0
LWPOLYLINE
  5
2a0
100
AcDbEntity
  8
Layer_1
 62
7
100
AcDbPolyline
 90
2
 70
0
 10
216.092144
 20
107.253053
 30
0.0
 10
216.092144
 20
102.746917
 30
0.0
  0
LWPOLYLINE
  5
2a1
100
AcDbEntity
  8
Layer_1
 62
7
100
AcDbPolyline
 90
2
 70
0
 10
223.602372
 20
107.253053
 30
0.0
 10
223.602372
 20
102.746917
 30
0.0
  0
LWPOLYLINE
  5
2a2
100
AcDbEntity
  8
Layer_1
 62
7
100
AcDbPolyline
 90
2
 70
0
 10
231.112599
 20
107.253053
 30
0.0
 10
231.112599
 20
102.746917
 30
0.0
  0
LWPOLYLINE
  5
2a3
100
AcDbEntity
  8
Layer_1
 62
7
100
AcDbPolyline
 90
2
 70
0
 10
238.622830
 20
107.253053
 30
0.0
 10
238.622830
 20
102.746917
 30
0.0
  0
LWPOLYLINE
  5
2a4
100
AcDbEntity
  8
Layer_1
 62
7
100
AcDbPolyline
 90
2
 70
0
 10
246.133057
 20
107.253053
 30
0.0
 10
246.133057
 20
102.746917
 30
0.0
  0
LWPOLYLINE
  5
2a5
100
AcDbEntity
  8
Layer_1
 62
7
100
AcDbPolyline
 90
2
 70
0
 10
253.643284
 20
107.253053
 30
0.0
 10
253.643284
 20
102.746917
 30
0.0
  0
LWPOLYLINE
  5
2a6
100
AcDbEntity
  8
Layer_1
 62
7
100
AcDbPolyline
 90
2
 70
0
 10
261.153515
 20
107.253053
 30
0.0
 10
261.153515
 20
102.746917
 30
0.0
  0
LWPOLYLINE
  5
2a7
100
AcDbEntity
  8
Layer_1
 62
7
100
AcDbPolyline
 90
2
 70
0
 10
268.663743
 20
107.253053
 30
0.0
 10
268.663743
 20
102.746917
 30
0.0
  0
LWPOLYLINE
  5
2a8
100
AcDbEntity
  8
Layer_1
 62
7
100
AcDbPolyline
 90
2
 70
0
 10
276.173970
 20
107.253053
 30
0.0
 10
276.173970
 20
102.746917
 30
0.0
  0
LWPOLYLINE
  5
2a9
100
AcDbEntity
  8
Layer_1
 62
7
100
AcDbPolyline
 90
2
 70
0
 10
20.826202
 20
22.387472
 30
0.0
 10
20.826202
 20
187.612498
 30
0.0
  0
LWPOLYLINE
  5
2aa
100
AcDbEntity
  8
Layer_1
 62
7
100
AcDbPolyline
 90
2
 70
0
 10
276.173970
 20
22.387472
 30
0.0
 10
276.173970
 20
187.612498
 30
0.0
  0
LWPOLYLINE
  5
2ab
100
AcDbEntity
  8
Layer_1
 62
7
100
AcDbPolyline
 90
2
 70
0
 10
20.826202
 20
22.387472
 30
0.0
 10
276.173970
 20
22.387472
 30
0.0
  0
LWPOLYLINE
  5
2ac
100
AcDbEntity
  8
Layer_1
 62
7
100
AcDbPolyline
 90
2
 70
0
 10
20.826202
 20
187.612498
 30
0.0
 10
276.173970
 20
187.612498
 30
0.0
  0
LWPOLYLINE
  5
2ad
100
AcDbEntity
  8
Layer_1
 62
7
100
AcDbPolyline
 90
3
 70
1
 10
8.434261
 20
100.000000
 30
0.0
 10
8.434261
 20
110.000000
 30
0.0
 10
5.157030
 20
105.000000
 30
0.0
  0
ENDSEC
  0
SECTION
  2
OBJECTS
  0
DICTIONARY
  5
C
330
0
100
AcDbDictionary
  3
ACAD_GROUP
350
D
  3
ACAD_MLINESTYLE
350
17
  0
DICTIONARY
  5
D
330
C
100
AcDbDictionary
  0
DICTIONARY
  5
1A
330
C
100
AcDbDictionary
  0
DICTIONARY
  5
17
330
C
100
AcDbDictionary
  3
STANDARD
350
18
  0
DICTIONARY
  5
19
330
C
100
AcDbDictionary
  0
ENDSEC
  0
EOF
