  0
SECTION
  2
HEADER
  9
$ACADVER
  1
AC1014
  9
$HANDSEED
  5
FFFF
  9
$INSUNITS
 70
     4
  9
$MEASUREMENT
 70
     1
  0
ENDSEC
  0
SECTION
  2
TABLES
  0
TABLE
  2
VPORT
  5
8
330
0
100
AcDbSymbolTable
 70
     4
  0
VPORT
  5
2E
330
8
100
AcDbSymbolTableRecord
100
AcDbViewportTableRecord
  2
*ACTIVE
 70
     0
 10
0.0
 20
0.0
 11
1.0
 21
1.0
 12
210.0
 22
148.5
 13
0.0
 23
0.0
 14
10.0
 24
10.0
 15
10.0
 25
10.0
 16
0.0
 26
0.0
 36
1.0
 17
0.0
 27
0.0
 37
0.0
 40
341.0
 41
1.24
 42
50.0
 43
0.0
 44
0.0
 50
0.0
 51
0.0
 71
     0
 72
   100
 73
     1
 74
     3
 75
     0
 76
     0
 77
     0
 78
     0
  0
ENDTAB
  0
TABLE
  2
LTYPE
  5
5
330
0
100
AcDbSymbolTable
 70
     1
  0
LTYPE
  5
14
330
5
100
AcDbSymbolTableRecord
100
AcDbLinetypeTableRecord
  2
BYBLOCK
 70
     0
  3

 72
    65
 73
     0
 40
0.0
  0
LTYPE
  5
15
330
5
100
AcDbSymbolTableRecord
100
AcDbLinetypeTableRecord
  2
BYLAYER
 70
     0
  3

 72
    65
 73
     0
 40
0.0
  0
LTYPE
  5
16
330
5
100
AcDbSymbolTableRecord
100
AcDbLinetypeTableRecord
  2
CONTINUOUS
 70
     0
  3
Solid line
 72
    65
 73
     0
 40
0.0
  0
ENDTAB
  0
TABLE
  2
LAYER
  5
2
100
AcDbSymbolTable
 70
2
  0
LAYER
  5
50
100
AcDbSymbolTableRecord
100
AcDbLayerTableRecord
  2
0
 70
0
  6
CONTINUOUS
  0
LAYER
  5
51
100
AcDbSymbolTableRecord
100
AcDbLayerTableRecord
  2
Layer_1
 70
0
  6
CONTINUOUS
  0
ENDTAB
  0
TABLE
  2
STYLE
  5
3
330
0
100
AcDbSymbolTable
 70
     1
  0
STYLE
  5
11
330
3
100
AcDbSymbolTableRecord
100
AcDbTextStyleTableRecord
  2
STANDARD
 70
     0
 40
0.0
 41
1.0
 50
0.0
 71
     0
 42
2.5
  3
txt
  4

  0
ENDTAB
  0
TABLE
  2
VIEW
  5
6
330
0
100
AcDbSymbolTable
 70
     0
  0
ENDTAB
  0
TABLE
  2
UCS
  5
7
330
0
100
AcDbSymbolTable
 70
     0
  0
ENDTAB
  0
TABLE
  2
APPID
  5
9
330
0
100
AcDbSymbolTable
 70
     2
  0
APPID
  5
12
330
9
100
AcDbSymbolTableRecord
100
AcDbRegAppTableRecord
  2
ACAD
 70
     0
  0
ENDTAB
  0
TABLE
  2
DIMSTYLE
  5
A
330
0
100
AcDbSymbolTable
 70
     1
  0
DIMSTYLE
105
27
330
A
100
AcDbSymbolTableRecord
100
AcDbDimStyleTableRecord
  2
ISO-25
 70
     0
  3

  4

  5

  6

  7

 40
1.0
 41
2.5
 42
0.625
 43
3.75
 44
1.25
 45
0.0
 46
0.0
 47
0.0
 48
0.0
140
2.5
141
2.5
142
0.0
143
0.03937007874016
144
1.0
145
0.0
146
1.0
147
0.625
 71
     0
 72
     0
 73
     0
 74
     0
 75
     0
 76
     0
 77
     1
 78
     8
170
     0
171
     3
172
     1
173
     0
174
     0
175
     0
176
     0
177
     0
178
     0
270
     2
271
     2
272
     2
273
     2
274
     3
340
11
275
     0
280
     0
281
     0
282
     0
283
     0
284
     8
285
     0
286
     0
287
     3
288
     0
  0
ENDTAB
  0
TABLE
  2
BLOCK_RECORD
  5
1
330
0
100
AcDbSymbolTable
 70
     1
  0
BLOCK_RECORD
  5
1F
330
1
100
AcDbSymbolTableRecord
100
AcDbBlockTableRecord
  2
*MODEL_SPACE
  0
BLOCK_RECORD
  5
1B
330
1
100
AcDbSymbolTableRecord
100
AcDbBlockTableRecord
  2
*PAPER_SPACE
  0
ENDTAB
  0
ENDSEC
  0
SECTION
  2
BLOCKS
  0
BLOCK
  5
20
330
1F
100
AcDbEntity
  8
0
100
AcDbBlockBegin
  2
*MODEL_SPACE
 70
     0
 10
0.0
 20
0.0
 30
0.0
  3
*MODEL_SPACE
  1

  0
ENDBLK
  5
21
330
1F
100
AcDbEntity
  8
0
100
AcDbBlockEnd
  0
BLOCK
  5
1C
330
1B
100
AcDbEntity
 67
     1
  8
0
100
AcDbBlockBegin
  2
*PAPER_SPACE
  1

  0
ENDBLK
  5
1D
330
1B
100
AcDbEntity
 67
     1
  8
0
100
AcDbBlockEnd
  0
ENDSEC
  0
SECTION
  2
ENTITIES
  0
LWPOLYLINE
  5
100
100
AcDbEntity
  8
Layer_1
 62
7
100
AcDbPolyline
 90
4
 70
1
 10
0.149734
 20
147.850258
 30
0.0
 10
209.850264
 20
147.850258
 30
0.0
 10
209.850264
 20
0.149738
 30
0.0
 10
0.149734
 20
0.149738
 30
0.0
  0
LWPOLYLINE
  5
101
100
AcDbEntity
  8
Layer_1
 62
7
100
AcDbPolyline
 90
4
 70
1
 10
5.149726
 20
143.850273
 30
0.0
 10
204.850276
 20
143.850273
 30
0.0
 10
204.850276
 20
4.149723
 30
0.0
 10
5.149726
 20
4.149723
 30
0.0
  0
LWPOLYLINE
  5
102
100
AcDbEntity
  8
Layer_1
 62
7
100
AcDbPolyline
 90
2
 70
0
 10
8.276797
 20
74.000000
 30
0.0
 10
201.701194
 20
74.000000
 30
0.0
  0
LWPOLYLINE
  5
103
100
AcDbEntity
  8
Layer_1
 62
7
100
AcDbPolyline
 90
2
 70
0
 10
105.000004
 20
140.780870
 30
0.0
 10
105.000004
 20
7.219132
 30
0.0
  0
LWPOLYLINE
  5
104
100
AcDbEntity
  8
Layer_1
 62
7
100
AcDbPolyline
 90
3
 70
1
 10
110.000004
 20
140.572762
 30
0.0
 10
100.000004
 20
140.572762
 30
0.0
 10
105.000004
 20
143.850000
 30
0.0
  0
LWPOLYLINE
  5
105
100
AcDbEntity
  8
Layer_1
 62
7
100
AcDbPolyline
 90
3
 70
1
 10
110.000004
 20
7.398102
 30
0.0
 10
100.000004
 20
7.398102
 30
0.0
 10
105.000004
 20
4.120872
 30
0.0
  0
LWPOLYLINE
  5
106
100
AcDbEntity
  8
Layer_1
 62
7
100
AcDbPolyline
 90
3
 70
1
 10
201.563024
 20
79.000000
 30
0.0
 10
201.563024
 20
69.000000
 30
0.0
 10
204.840254
 20
74.000000
 30
0.0
  0
LWPOLYLINE
  5
107
100
AcDbEntity
  8
Layer_1
 62
7
100
AcDbPolyline
 90
3
 70
1
 10
8.437810
 20
69.000000
 30
0.0
 10
8.437810
 20
79.000000
 30
0.0
 10
5.160580
 20
74.000000
 30
0.0
  0
LWPOLYLINE
  5
108
100
AcDbEntity
  8
Layer_1
 62
7
100
AcDbPolyline
 90
4
 70
1
 10
18.156324
 20
17.812159
 30
0.0
 10
191.843824
 20
17.812159
 30
0.0
 10
191.843824
 20
130.187842
 30
0.0
 10
18.156324
 20
130.187842
 30
0.0
  0
LWPOLYLINE
  5
109
100
AcDbEntity
  8
Layer_1
 62
7
100
AcDbPolyline
 90
4
 70
1
 10
20.696326
 20
20.352161
 30
0.0
 10
189.303823
 20
20.352161
 30
0.0
 10
189.303823
 20
127.647840
 30
0.0
 10
20.696326
 20
127.647840
 30
0.0
  0
LWPOLYLINE
  5
10a
100
AcDbEntity
  8
Layer_1
 62
1
100
AcDbPolyline
 90
2
 70
0
 10
20.696326
 20
20.352161
 30
0.0
 10
20.696326
 20
127.647840
 30
0.0
  0
LWPOLYLINE
  5
10b
100
AcDbEntity
  8
Layer_1
 62
1
100
AcDbPolyline
 90
2
 70
0
 10
28.360303
 20
20.352161
 30
0.0
 10
28.360303
 20
127.647840
 30
0.0
  0
LWPOLYLINE
  5
10c
100
AcDbEntity
  8
Layer_1
 62
1
100
AcDbPolyline
 90
2
 70
0
 10
36.024280
 20
20.352161
 30
0.0
 10
36.024280
 20
127.647840
 30
0.0
  0
LWPOLYLINE
  5
10d
100
AcDbEntity
  8
Layer_1
 62
1
100
AcDbPolyline
 90
2
 70
0
 10
43.688257
 20
20.352161
 30
0.0
 10
43.688257
 20
127.647840
 30
0.0
  0
LWPOLYLINE
  5
10e
100
AcDbEntity
  8
Layer_1
 62
1
100
AcDbPolyline
 90
2
 70
0
 10
51.352234
 20
20.352161
 30
0.0
 10
51.352234
 20
127.647840
 30
0.0
  0
LWPOLYLINE
  5
10f
100
AcDbEntity
  8
Layer_1
 62
1
100
AcDbPolyline
 90
2
 70
0
 10
59.016211
 20
20.352161
 30
0.0
 10
59.016211
 20
127.647840
 30
0.0
  0
LWPOLYLINE
  5
110
100
AcDbEntity
  8
Layer_1
 62
1
100
AcDbPolyline
 90
2
 70
0
 10
66.680186
 20
20.352161
 30
0.0
 10
66.680186
 20
127.647840
 30
0.0
  0
LWPOLYLINE
  5
111
100
AcDbEntity
  8
Layer_1
 62
1
100
AcDbPolyline
 90
2
 70
0
 10
74.344165
 20
20.352161
 30
0.0
 10
74.344165
 20
127.647840
 30
0.0
  0
LWPOLYLINE
  5
112
100
AcDbEntity
  8
Layer_1
 62
1
100
AcDbPolyline
 90
2
 70
0
 10
82.008144
 20
20.352161
 30
0.0
 10
82.008144
 20
127.647840
 30
0.0
  0
LWPOLYLINE
  5
113
100
AcDbEntity
  8
Layer_1
 62
1
100
AcDbPolyline
 90
2
 70
0
 10
89.672119
 20
20.352161
 30
0.0
 10
89.672119
 20
127.647840
 30
0.0
  0
LWPOLYLINE
  5
114
100
AcDbEntity
  8
Layer_1
 62
1
100
AcDbPolyline
 90
2
 70
0
 10
97.336097
 20
20.352161
 30
0.0
 10
97.336097
 20
127.647840
 30
0.0
  0
LWPOLYLINE
  5
115
100
AcDbEntity
  8
Layer_1
 62
1
100
AcDbPolyline
 90
2
 70
0
 10
105.000072
 20
20.352161
 30
0.0
 10
105.000072
 20
127.647840
 30
0.0
  0
LWPOLYLINE
  5
116
100
AcDbEntity
  8
Layer_1
 62
1
100
AcDbPolyline
 90
2
 70
0
 10
112.664051
 20
20.352161
 30
0.0
 10
112.664051
 20
127.647840
 30
0.0
  0
LWPOLYLINE
  5
117
100
AcDbEntity
  8
Layer_1
 62
1
100
AcDbPolyline
 90
2
 70
0
 10
120.328029
 20
20.352161
 30
0.0
 10
120.328029
 20
127.647840
 30
0.0
  0
LWPOLYLINE
  5
118
100
AcDbEntity
  8
Layer_1
 62
1
100
AcDbPolyline
 90
2
 70
0
 10
127.992005
 20
20.352161
 30
0.0
 10
127.992005
 20
127.647840
 30
0.0
  0
LWPOLYLINE
  5
119
100
AcDbEntity
  8
Layer_1
 62
1
100
AcDbPolyline
 90
2
 70
0
 10
135.655983
 20
20.352161
 30
0.0
 10
135.655983
 20
127.647840
 30
0.0
  0
LWPOLYLINE
  5
11a
100
AcDbEntity
  8
Layer_1
 62
1
100
AcDbPolyline
 90
2
 70
0
 10
143.319958
 20
20.352161
 30
0.0
 10
143.319958
 20
127.647840
 30
0.0
  0
LWPOLYLINE
  5
11b
100
AcDbEntity
  8
Layer_1
 62
1
100
AcDbPolyline
 90
2
 70
0
 10
150.983937
 20
20.352161
 30
0.0
 10
150.983937
 20
127.647840
 30
0.0
  0
LWPOLYLINE
  5
11c
100
AcDbEntity
  8
Layer_1
 62
1
100
AcDbPolyline
 90
2
 70
0
 10
158.647912
 20
20.352161
 30
0.0
 10
158.647912
 20
127.647840
 30
0.0
  0
LWPOLYLINE
  5
11d
100
AcDbEntity
  8
Layer_1
 62
1
100
AcDbPolyline
 90
2
 70
0
 10
166.311890
 20
20.352161
 30
0.0
 10
166.311890
 20
127.647840
 30
0.0
  0
LWPOLYLINE
  5
11e
100
AcDbEntity
  8
Layer_1
 62
1
100
AcDbPolyline
 90
2
 70
0
 10
173.975869
 20
20.352161
 30
0.0
 10
173.975869
 20
127.647840
 30
0.0
  0
LWPOLYLINE
  5
11f
100
AcDbEntity
  8
Layer_1
 62
1
100
AcDbPolyline
 90
2
 70
0
 10
181.639844
 20
20.352161
 30
0.0
 10
181.639844
 20
127.647840
 30
0.0
  0
LWPOLYLINE
  5
120
100
AcDbEntity
  8
Layer_1
 62
1
100
AcDbPolyline
 90
2
 70
0
 10
189.303823
 20
20.352161
 30
0.0
 10
189.303823
 20
127.647840
 30
0.0
  0
LWPOLYLINE
  5
121
100
AcDbEntity
  8
Layer_1
 62
1
100
AcDbPolyline
 90
2
 70
0
 10
20.696326
 20
20.352161
 30
0.0
 10
189.303823
 20
20.352161
 30
0.0
  0
LWPOLYLINE
  5
122
100
AcDbEntity
  8
Layer_1
 62
1
100
AcDbPolyline
 90
2
 70
0
 10
20.696326
 20
28.016136
 30
0.0
 10
189.303823
 20
28.016136
 30
0.0
  0
LWPOLYLINE
  5
123
100
AcDbEntity
  8
Layer_1
 62
1
100
AcDbPolyline
 90
2
 70
0
 10
20.696326
 20
35.680115
 30
0.0
 10
189.303823
 20
35.680115
 30
0.0
  0
LWPOLYLINE
  5
124
100
AcDbEntity
  8
Layer_1
 62
1
100
AcDbPolyline
 90
2
 70
0
 10
20.696326
 20
43.344093
 30
0.0
 10
189.303823
 20
43.344093
 30
0.0
  0
LWPOLYLINE
  5
125
100
AcDbEntity
  8
Layer_1
 62
1
100
AcDbPolyline
 90
2
 70
0
 10
20.696326
 20
51.008068
 30
0.0
 10
189.303823
 20
51.008068
 30
0.0
  0
LWPOLYLINE
  5
126
100
AcDbEntity
  8
Layer_1
 62
1
100
AcDbPolyline
 90
2
 70
0
 10
20.696326
 20
58.672047
 30
0.0
 10
189.303823
 20
58.672047
 30
0.0
  0
LWPOLYLINE
  5
127
100
AcDbEntity
  8
Layer_1
 62
1
100
AcDbPolyline
 90
2
 70
0
 10
20.696326
 20
66.336022
 30
0.0
 10
189.303823
 20
66.336022
 30
0.0
  0
LWPOLYLINE
  5
128
100
AcDbEntity
  8
Layer_1
 62
1
100
AcDbPolyline
 90
2
 70
0
 10
20.696326
 20
74.000001
 30
0.0
 10
189.303823
 20
74.000001
 30
0.0
  0
LWPOLYLINE
  5
129
100
AcDbEntity
  8
Layer_1
 62
1
100
AcDbPolyline
 90
2
 70
0
 10
20.696326
 20
81.663979
 30
0.0
 10
189.303823
 20
81.663979
 30
0.0
  0
LWPOLYLINE
  5
12a
100
AcDbEntity
  8
Layer_1
 62
1
100
AcDbPolyline
 90
2
 70
0
 10
20.696326
 20
89.327954
 30
0.0
 10
189.303823
 20
89.327954
 30
0.0
  0
LWPOLYLINE
  5
12b
100
AcDbEntity
  8
Layer_1
 62
1
100
AcDbPolyline
 90
2
 70
0
 10
20.696326
 20
96.991932
 30
0.0
 10
189.303823
 20
96.991932
 30
0.0
  0
LWPOLYLINE
  5
12c
100
AcDbEntity
  8
Layer_1
 62
1
100
AcDbPolyline
 90
2
 70
0
 10
20.696326
 20
104.655909
 30
0.0
 10
189.303823
 20
104.655909
 30
0.0
  0
LWPOLYLINE
  5
12d
100
AcDbEntity
  8
Layer_1
 62
1
100
AcDbPolyline
 90
2
 70
0
 10
20.696326
 20
112.319886
 30
0.0
 10
189.303823
 20
112.319886
 30
0.0
  0
LWPOLYLINE
  5
12e
100
AcDbEntity
  8
Layer_1
 62
1
100
AcDbPolyline
 90
2
 70
0
 10
20.696326
 20
119.983863
 30
0.0
 10
189.303823
 20
119.983863
 30
0.0
  0
LWPOLYLINE
  5
12f
100
AcDbEntity
  8
Layer_1
 62
1
100
AcDbPolyline
 90
2
 70
0
 10
20.696326
 20
127.647840
 30
0.0
 10
189.303823
 20
127.647840
 30
0.0
  0
SPLINE
  5
130
100
AcDbEntity
  8
Layer_1
 62
1
100
AcDbSpline
 70
8
 71
3
 72
8
 73
4
 74
0
 40
0
 40
0
 40
0
 40
0
 40
1
 40
1
 40
1
 40
1
 10
51.352233
 20
18.852160
 30
0.0
 10
51.750038
 20
18.852160
 30
0.0
 10
52.131604
 20
19.010211
 30
0.0
 10
52.412895
 20
19.291502
 30
0.0
  0
SPLINE
  5
131
100
AcDbEntity
  8
Layer_1
 62
1
100
AcDbSpline
 70
8
 71
3
 72
8
 73
4
 74
0
 40
0
 40
0
 40
0
 40
0
 40
1
 40
1
 40
1
 40
1
 10
52.412895
 20
19.291502
 30
0.0
 10
52.694186
 20
19.572793
 30
0.0
 10
52.852236
 20
19.954358
 30
0.0
 10
52.852236
 20
20.352165
 30
0.0
  0
SPLINE
  5
132
100
AcDbEntity
  8
Layer_1
 62
1
100
AcDbSpline
 70
8
 71
3
 72
8
 73
4
 74
0
 40
0
 40
0
 40
0
 40
0
 40
1
 40
1
 40
1
 40
1
 10
52.852236
 20
20.352165
 30
0.0
 10
52.852236
 20
20.749971
 30
0.0
 10
52.694186
 20
21.131536
 30
0.0
 10
52.412895
 20
21.412827
 30
0.0
  0
SPLINE
  5
133
100
AcDbEntity
  8
Layer_1
 62
1
100
AcDbSpline
 70
8
 71
3
 72
8
 73
4
 74
0
 40
0
 40
0
 40
0
 40
0
 40
1
 40
1
 40
1
 40
1
 10
52.412895
 20
21.412827
 30
0.0
 10
52.131604
 20
21.694118
 30
0.0
 10
51.750038
 20
21.852166
 30
0.0
 10
51.352233
 20
21.852166
 30
0.0
  0
SPLINE
  5
134
100
AcDbEntity
  8
Layer_1
 62
1
100
AcDbSpline
 70
8
 71
3
 72
8
 73
4
 74
0
 40
0
 40
0
 40
0
 40
0
 40
1
 40
1
 40
1
 40
1
 10
51.352233
 20
21.852166
 30
0.0
 10
50.954427
 20
21.852166
 30
0.0
 10
50.572861
 20
21.694118
 30
0.0
 10
50.291570
 20
21.412827
 30
0.0
  0
SPLINE
  5
135
100
AcDbEntity
  8
Layer_1
 62
1
100
AcDbSpline
 70
8
 71
3
 72
8
 73
4
 74
0
 40
0
 40
0
 40
0
 40
0
 40
1
 40
1
 40
1
 40
1
 10
50.291570
 20
21.412827
 30
0.0
 10
50.010279
 20
21.131536
 30
0.0
 10
49.852229
 20
20.749971
 30
0.0
 10
49.852229
 20
20.352165
 30
0.0
  0
SPLINE
  5
136
100
AcDbEntity
  8
Layer_1
 62
1
100
AcDbSpline
 70
8
 71
3
 72
8
 73
4
 74
0
 40
0
 40
0
 40
0
 40
0
 40
1
 40
1
 40
1
 40
1
 10
49.852229
 20
20.352165
 30
0.0
 10
49.852229
 20
19.954358
 30
0.0
 10
50.010279
 20
19.572793
 30
0.0
 10
50.291570
 20
19.291502
 30
0.0
  0
SPLINE
  5
137
100
AcDbEntity
  8
Layer_1
 62
1
100
AcDbSpline
 70
8
 71
3
 72
8
 73
4
 74
0
 40
0
 40
0
 40
0
 40
0
 40
1
 40
1
 40
1
 40
1
 10
50.291570
 20
19.291502
 30
0.0
 10
50.572861
 20
19.010211
 30
0.0
 10
50.954427
 20
18.852160
 30
0.0
 10
51.352233
 20
18.852160
 30
0.0
  0
LWPOLYLINE
  5
138
100
AcDbEntity
  8
Layer_1
 62
4
100
AcDbPolyline
 90
3
 70
0
 10
48.459454
 20
17.459381
 30
0.0
 10
161.540691
 20
130.540620
 30
0.0
 10
161.540691
 20
130.540620
 30
0.0
  0
SPLINE
  5
139
100
AcDbEntity
  8
Layer_1
 62
1
100
AcDbSpline
 70
8
 71
3
 72
8
 73
4
 74
0
 40
0
 40
0
 40
0
 40
0
 40
1
 40
1
 40
1
 40
1
 10
56.999376
 20
24.499299
 30
0.0
 10
57.397179
 20
24.499299
 30
0.0
 10
57.778747
 20
24.657351
 30
0.0
 10
58.060038
 20
24.938642
 30
0.0
  0
SPLINE
  5
13a
100
AcDbEntity
  8
Layer_1
 62
1
100
AcDbSpline
 70
8
 71
3
 72
8
 73
4
 74
0
 40
0
 40
0
 40
0
 40
0
 40
1
 40
1
 40
1
 40
1
 10
58.060038
 20
24.938642
 30
0.0
 10
58.341329
 20
25.219933
 30
0.0
 10
58.499378
 20
25.601498
 30
0.0
 10
58.499378
 20
25.999304
 30
0.0
  0
SPLINE
  5
13b
100
AcDbEntity
  8
Layer_1
 62
1
100
AcDbSpline
 70
8
 71
3
 72
8
 73
4
 74
0
 40
0
 40
0
 40
0
 40
0
 40
1
 40
1
 40
1
 40
1
 10
58.499378
 20
25.999304
 30
0.0
 10
58.499378
 20
26.397107
 30
0.0
 10
58.341329
 20
26.778676
 30
0.0
 10
58.060038
 20
27.059967
 30
0.0
  0
SPLINE
  5
13c
100
AcDbEntity
  8
Layer_1
 62
1
100
AcDbSpline
 70
8
 71
3
 72
8
 73
4
 74
0
 40
0
 40
0
 40
0
 40
0
 40
1
 40
1
 40
1
 40
1
 10
58.060038
 20
27.059967
 30
0.0
 10
57.778747
 20
27.341258
 30
0.0
 10
57.397179
 20
27.499306
 30
0.0
 10
56.999376
 20
27.499306
 30
0.0
  0
SPLINE
  5
13d
100
AcDbEntity
  8
Layer_1
 62
1
100
AcDbSpline
 70
8
 71
3
 72
8
 73
4
 74
0
 40
0
 40
0
 40
0
 40
0
 40
1
 40
1
 40
1
 40
1
 10
56.999376
 20
27.499306
 30
0.0
 10
56.601569
 20
27.499306
 30
0.0
 10
56.220005
 20
27.341258
 30
0.0
 10
55.938714
 20
27.059967
 30
0.0
  0
SPLINE
  5
13e
100
AcDbEntity
  8
Layer_1
 62
1
100
AcDbSpline
 70
8
 71
3
 72
8
 73
4
 74
0
 40
0
 40
0
 40
0
 40
0
 40
1
 40
1
 40
1
 40
1
 10
55.938714
 20
27.059967
 30
0.0
 10
55.657423
 20
26.778676
 30
0.0
 10
55.499371
 20
26.397107
 30
0.0
 10
55.499371
 20
25.999304
 30
0.0
  0
SPLINE
  5
13f
100
AcDbEntity
  8
Layer_1
 62
1
100
AcDbSpline
 70
8
 71
3
 72
8
 73
4
 74
0
 40
0
 40
0
 40
0
 40
0
 40
1
 40
1
 40
1
 40
1
 10
55.499371
 20
25.999304
 30
0.0
 10
55.499371
 20
25.601498
 30
0.0
 10
55.657423
 20
25.219933
 30
0.0
 10
55.938714
 20
24.938642
 30
0.0
  0
SPLINE
  5
140
100
AcDbEntity
  8
Layer_1
 62
1
100
AcDbSpline
 70
8
 71
3
 72
8
 73
4
 74
0
 40
0
 40
0
 40
0
 40
0
 40
1
 40
1
 40
1
 40
1
 10
55.938714
 20
24.938642
 30
0.0
 10
56.220005
 20
24.657351
 30
0.0
 10
56.601569
 20
24.499299
 30
0.0
 10
56.999376
 20
24.499299
 30
0.0
  0
LWPOLYLINE
  5
141
100
AcDbEntity
  8
Layer_1
 62
1
100
AcDbPolyline
 90
1
 70
1
 10
51.352233
 20
18.852160
 30
0.0
  0
SPLINE
  5
142
100
AcDbEntity
  8
Layer_1
 62
1
100
AcDbSpline
 70
8
 71
3
 72
8
 73
4
 74
0
 40
0
 40
0
 40
0
 40
0
 40
1
 40
1
 40
1
 40
1
 10
62.646516
 20
30.146439
 30
0.0
 10
63.044322
 20
30.146439
 30
0.0
 10
63.425887
 20
30.304491
 30
0.0
 10
63.707178
 20
30.585782
 30
0.0
  0
SPLINE
  5
143
100
AcDbEntity
  8
Layer_1
 62
1
100
AcDbSpline
 70
8
 71
3
 72
8
 73
4
 74
0
 40
0
 40
0
 40
0
 40
0
 40
1
 40
1
 40
1
 40
1
 10
63.707178
 20
30.585782
 30
0.0
 10
63.988469
 20
30.867073
 30
0.0
 10
64.146521
 20
31.248637
 30
0.0
 10
64.146521
 20
31.646444
 30
0.0
  0
SPLINE
  5
144
100
AcDbEntity
  8
Layer_1
 62
1
100
AcDbSpline
 70
8
 71
3
 72
8
 73
4
 74
0
 40
0
 40
0
 40
0
 40
0
 40
1
 40
1
 40
1
 40
1
 10
64.146521
 20
31.646444
 30
0.0
 10
64.146521
 20
32.044247
 30
0.0
 10
63.988469
 20
32.425815
 30
0.0
 10
63.707178
 20
32.707106
 30
0.0
  0
SPLINE
  5
145
100
AcDbEntity
  8
Layer_1
 62
1
100
AcDbSpline
 70
8
 71
3
 72
8
 73
4
 74
0
 40
0
 40
0
 40
0
 40
0
 40
1
 40
1
 40
1
 40
1
 10
63.707178
 20
32.707106
 30
0.0
 10
63.425887
 20
32.988397
 30
0.0
 10
63.044322
 20
33.146445
 30
0.0
 10
62.646516
 20
33.146445
 30
0.0
  0
SPLINE
  5
146
100
AcDbEntity
  8
Layer_1
 62
1
100
AcDbSpline
 70
8
 71
3
 72
8
 73
4
 74
0
 40
0
 40
0
 40
0
 40
0
 40
1
 40
1
 40
1
 40
1
 10
62.646516
 20
33.146445
 30
0.0
 10
62.248713
 20
33.146445
 30
0.0
 10
61.867145
 20
32.988397
 30
0.0
 10
61.585853
 20
32.707106
 30
0.0
  0
SPLINE
  5
147
100
AcDbEntity
  8
Layer_1
 62
1
100
AcDbSpline
 70
8
 71
3
 72
8
 73
4
 74
0
 40
0
 40
0
 40
0
 40
0
 40
1
 40
1
 40
1
 40
1
 10
61.585853
 20
32.707106
 30
0.0
 10
61.304562
 20
32.425815
 30
0.0
 10
61.146514
 20
32.044247
 30
0.0
 10
61.146514
 20
31.646444
 30
0.0
  0
SPLINE
  5
148
100
AcDbEntity
  8
Layer_1
 62
1
100
AcDbSpline
 70
8
 71
3
 72
8
 73
4
 74
0
 40
0
 40
0
 40
0
 40
0
 40
1
 40
1
 40
1
 40
1
 10
61.146514
 20
31.646444
 30
0.0
 10
61.146514
 20
31.248637
 30
0.0
 10
61.304562
 20
30.867073
 30
0.0
 10
61.585853
 20
30.585782
 30
0.0
  0
SPLINE
  5
149
100
AcDbEntity
  8
Layer_1
 62
1
100
AcDbSpline
 70
8
 71
3
 72
8
 73
4
 74
0
 40
0
 40
0
 40
0
 40
0
 40
1
 40
1
 40
1
 40
1
 10
61.585853
 20
30.585782
 30
0.0
 10
61.867145
 20
30.304491
 30
0.0
 10
62.248713
 20
30.146439
 30
0.0
 10
62.646516
 20
30.146439
 30
0.0
  0
LWPOLYLINE
  5
14a
100
AcDbEntity
  8
Layer_1
 62
1
100
AcDbPolyline
 90
1
 70
1
 10
56.999376
 20
24.499299
 30
0.0
  0
SPLINE
  5
14b
100
AcDbEntity
  8
Layer_1
 62
1
100
AcDbSpline
 70
8
 71
3
 72
8
 73
4
 74
0
 40
0
 40
0
 40
0
 40
0
 40
1
 40
1
 40
1
 40
1
 10
68.293659
 20
35.793579
 30
0.0
 10
68.691466
 20
35.793579
 30
0.0
 10
69.073030
 20
35.951630
 30
0.0
 10
69.354321
 20
36.232921
 30
0.0
  0
SPLINE
  5
14c
100
AcDbEntity
  8
Layer_1
 62
1
100
AcDbSpline
 70
8
 71
3
 72
8
 73
4
 74
0
 40
0
 40
0
 40
0
 40
0
 40
1
 40
1
 40
1
 40
1
 10
69.354321
 20
36.232921
 30
0.0
 10
69.635612
 20
36.514212
 30
0.0
 10
69.793664
 20
36.895777
 30
0.0
 10
69.793664
 20
37.293584
 30
0.0
  0
SPLINE
  5
14d
100
AcDbEntity
  8
Layer_1
 62
1
100
AcDbSpline
 70
8
 71
3
 72
8
 73
4
 74
0
 40
0
 40
0
 40
0
 40
0
 40
1
 40
1
 40
1
 40
1
 10
69.793664
 20
37.293584
 30
0.0
 10
69.793664
 20
37.691387
 30
0.0
 10
69.635612
 20
38.072955
 30
0.0
 10
69.354321
 20
38.354246
 30
0.0
  0
SPLINE
  5
14e
100
AcDbEntity
  8
Layer_1
 62
1
100
AcDbSpline
 70
8
 71
3
 72
8
 73
4
 74
0
 40
0
 40
0
 40
0
 40
0
 40
1
 40
1
 40
1
 40
1
 10
69.354321
 20
38.354246
 30
0.0
 10
69.073030
 20
38.635537
 30
0.0
 10
68.691466
 20
38.793585
 30
0.0
 10
68.293659
 20
38.793585
 30
0.0
  0
SPLINE
  5
14f
100
AcDbEntity
  8
Layer_1
 62
1
100
AcDbSpline
 70
8
 71
3
 72
8
 73
4
 74
0
 40
0
 40
0
 40
0
 40
0
 40
1
 40
1
 40
1
 40
1
 10
68.293659
 20
38.793585
 30
0.0
 10
67.895852
 20
38.793585
 30
0.0
 10
67.514288
 20
38.635537
 30
0.0
 10
67.232997
 20
38.354246
 30
0.0
  0
SPLINE
  5
150
100
AcDbEntity
  8
Layer_1
 62
1
100
AcDbSpline
 70
8
 71
3
 72
8
 73
4
 74
0
 40
0
 40
0
 40
0
 40
0
 40
1
 40
1
 40
1
 40
1
 10
67.232997
 20
38.354246
 30
0.0
 10
66.951706
 20
38.072955
 30
0.0
 10
66.793658
 20
37.691387
 30
0.0
 10
66.793658
 20
37.293584
 30
0.0
  0
SPLINE
  5
151
100
AcDbEntity
  8
Layer_1
 62
1
100
AcDbSpline
 70
8
 71
3
 72
8
 73
4
 74
0
 40
0
 40
0
 40
0
 40
0
 40
1
 40
1
 40
1
 40
1
 10
66.793658
 20
37.293584
 30
0.0
 10
66.793658
 20
36.895777
 30
0.0
 10
66.951706
 20
36.514212
 30
0.0
 10
67.232997
 20
36.232921
 30
0.0
  0
SPLINE
  5
152
100
AcDbEntity
  8
Layer_1
 62
1
100
AcDbSpline
 70
8
 71
3
 72
8
 73
4
 74
0
 40
0
 40
0
 40
0
 40
0
 40
1
 40
1
 40
1
 40
1
 10
67.232997
 20
36.232921
 30
0.0
 10
67.514288
 20
35.951630
 30
0.0
 10
67.895852
 20
35.793579
 30
0.0
 10
68.293659
 20
35.793579
 30
0.0
  0
LWPOLYLINE
  5
153
100
AcDbEntity
  8
Layer_1
 62
1
100
AcDbPolyline
 90
1
 70
1
 10
62.646516
 20
30.146439
 30
0.0
  0
SPLINE
  5
154
100
AcDbEntity
  8
Layer_1
 62
1
100
AcDbSpline
 70
8
 71
3
 72
8
 73
4
 74
0
 40
0
 40
0
 40
0
 40
0
 40
1
 40
1
 40
1
 40
1
 10
73.940799
 20
41.440718
 30
0.0
 10
74.338605
 20
41.440718
 30
0.0
 10
74.720170
 20
41.598770
 30
0.0
 10
75.001461
 20
41.880061
 30
0.0
  0
SPLINE
  5
155
100
AcDbEntity
  8
Layer_1
 62
1
100
AcDbSpline
 70
8
 71
3
 72
8
 73
4
 74
0
 40
0
 40
0
 40
0
 40
0
 40
1
 40
1
 40
1
 40
1
 10
75.001461
 20
41.880061
 30
0.0
 10
75.282752
 20
42.161349
 30
0.0
 10
75.440800
 20
42.542917
 30
0.0
 10
75.440800
 20
42.940723
 30
0.0
  0
SPLINE
  5
156
100
AcDbEntity
  8
Layer_1
 62
1
100
AcDbSpline
 70
8
 71
3
 72
8
 73
4
 74
0
 40
0
 40
0
 40
0
 40
0
 40
1
 40
1
 40
1
 40
1
 10
75.440800
 20
42.940723
 30
0.0
 10
75.440800
 20
43.338526
 30
0.0
 10
75.282752
 20
43.720095
 30
0.0
 10
75.001461
 20
44.001386
 30
0.0
  0
SPLINE
  5
157
100
AcDbEntity
  8
Layer_1
 62
1
100
AcDbSpline
 70
8
 71
3
 72
8
 73
4
 74
0
 40
0
 40
0
 40
0
 40
0
 40
1
 40
1
 40
1
 40
1
 10
75.001461
 20
44.001386
 30
0.0
 10
74.720170
 20
44.282677
 30
0.0
 10
74.338605
 20
44.440725
 30
0.0
 10
73.940799
 20
44.440725
 30
0.0
  0
SPLINE
  5
158
100
AcDbEntity
  8
Layer_1
 62
1
100
AcDbSpline
 70
8
 71
3
 72
8
 73
4
 74
0
 40
0
 40
0
 40
0
 40
0
 40
1
 40
1
 40
1
 40
1
 10
73.940799
 20
44.440725
 30
0.0
 10
73.542992
 20
44.440725
 30
0.0
 10
73.161427
 20
44.282677
 30
0.0
 10
72.880136
 20
44.001386
 30
0.0
  0
SPLINE
  5
159
100
AcDbEntity
  8
Layer_1
 62
1
100
AcDbSpline
 70
8
 71
3
 72
8
 73
4
 74
0
 40
0
 40
0
 40
0
 40
0
 40
1
 40
1
 40
1
 40
1
 10
72.880136
 20
44.001386
 30
0.0
 10
72.598845
 20
43.720095
 30
0.0
 10
72.440794
 20
43.338526
 30
0.0
 10
72.440794
 20
42.940723
 30
0.0
  0
SPLINE
  5
15a
100
AcDbEntity
  8
Layer_1
 62
1
100
AcDbSpline
 70
8
 71
3
 72
8
 73
4
 74
0
 40
0
 40
0
 40
0
 40
0
 40
1
 40
1
 40
1
 40
1
 10
72.440794
 20
42.940723
 30
0.0
 10
72.440794
 20
42.542917
 30
0.0
 10
72.598845
 20
42.161349
 30
0.0
 10
72.880136
 20
41.880061
 30
0.0
  0
SPLINE
  5
15b
100
AcDbEntity
  8
Layer_1
 62
1
100
AcDbSpline
 70
8
 71
3
 72
8
 73
4
 74
0
 40
0
 40
0
 40
0
 40
0
 40
1
 40
1
 40
1
 40
1
 10
72.880136
 20
41.880061
 30
0.0
 10
73.161427
 20
41.598770
 30
0.0
 10
73.542992
 20
41.440718
 30
0.0
 10
73.940799
 20
41.440718
 30
0.0
  0
LWPOLYLINE
  5
15c
100
AcDbEntity
  8
Layer_1
 62
1
100
AcDbPolyline
 90
1
 70
1
 10
68.293659
 20
35.793579
 30
0.0
  0
SPLINE
  5
15d
100
AcDbEntity
  8
Layer_1
 62
1
100
AcDbSpline
 70
8
 71
3
 72
8
 73
4
 74
0
 40
0
 40
0
 40
0
 40
0
 40
1
 40
1
 40
1
 40
1
 10
79.587938
 20
47.087865
 30
0.0
 10
79.985745
 20
47.087865
 30
0.0
 10
80.367310
 20
47.245913
 30
0.0
 10
80.648601
 20
47.527204
 30
0.0
  0
SPLINE
  5
15e
100
AcDbEntity
  8
Layer_1
 62
1
100
AcDbSpline
 70
8
 71
3
 72
8
 73
4
 74
0
 40
0
 40
0
 40
0
 40
0
 40
1
 40
1
 40
1
 40
1
 10
80.648601
 20
47.527204
 30
0.0
 10
80.929892
 20
47.808495
 30
0.0
 10
81.087940
 20
48.190060
 30
0.0
 10
81.087940
 20
48.587867
 30
0.0
  0
SPLINE
  5
15f
100
AcDbEntity
  8
Layer_1
 62
1
100
AcDbSpline
 70
8
 71
3
 72
8
 73
4
 74
0
 40
0
 40
0
 40
0
 40
0
 40
1
 40
1
 40
1
 40
1
 10
81.087940
 20
48.587867
 30
0.0
 10
81.087940
 20
48.985673
 30
0.0
 10
80.929892
 20
49.367238
 30
0.0
 10
80.648601
 20
49.648529
 30
0.0
  0
SPLINE
  5
160
100
AcDbEntity
  8
Layer_1
 62
1
100
AcDbSpline
 70
8
 71
3
 72
8
 73
4
 74
0
 40
0
 40
0
 40
0
 40
0
 40
1
 40
1
 40
1
 40
1
 10
80.648601
 20
49.648529
 30
0.0
 10
80.367310
 20
49.929820
 30
0.0
 10
79.985745
 20
50.087872
 30
0.0
 10
79.587938
 20
50.087872
 30
0.0
  0
SPLINE
  5
161
100
AcDbEntity
  8
Layer_1
 62
1
100
AcDbSpline
 70
8
 71
3
 72
8
 73
4
 74
0
 40
0
 40
0
 40
0
 40
0
 40
1
 40
1
 40
1
 40
1
 10
79.587938
 20
50.087872
 30
0.0
 10
79.190132
 20
50.087872
 30
0.0
 10
78.808567
 20
49.929820
 30
0.0
 10
78.527276
 20
49.648529
 30
0.0
  0
SPLINE
  5
162
100
AcDbEntity
  8
Layer_1
 62
1
100
AcDbSpline
 70
8
 71
3
 72
8
 73
4
 74
0
 40
0
 40
0
 40
0
 40
0
 40
1
 40
1
 40
1
 40
1
 10
78.527276
 20
49.648529
 30
0.0
 10
78.245985
 20
49.367238
 30
0.0
 10
78.087933
 20
48.985673
 30
0.0
 10
78.087933
 20
48.587867
 30
0.0
  0
SPLINE
  5
163
100
AcDbEntity
  8
Layer_1
 62
1
100
AcDbSpline
 70
8
 71
3
 72
8
 73
4
 74
0
 40
0
 40
0
 40
0
 40
0
 40
1
 40
1
 40
1
 40
1
 10
78.087933
 20
48.587867
 30
0.0
 10
78.087933
 20
48.190060
 30
0.0
 10
78.245985
 20
47.808495
 30
0.0
 10
78.527276
 20
47.527204
 30
0.0
  0
SPLINE
  5
164
100
AcDbEntity
  8
Layer_1
 62
1
100
AcDbSpline
 70
8
 71
3
 72
8
 73
4
 74
0
 40
0
 40
0
 40
0
 40
0
 40
1
 40
1
 40
1
 40
1
 10
78.527276
 20
47.527204
 30
0.0
 10
78.808567
 20
47.245913
 30
0.0
 10
79.190132
 20
47.087865
 30
0.0
 10
79.587938
 20
47.087865
 30
0.0
  0
LWPOLYLINE
  5
165
100
AcDbEntity
  8
Layer_1
 62
1
100
AcDbPolyline
 90
1
 70
1
 10
73.940799
 20
41.440718
 30
0.0
  0
SPLINE
  5
166
100
AcDbEntity
  8
Layer_1
 62
1
100
AcDbSpline
 70
8
 71
3
 72
8
 73
4
 74
0
 40
0
 40
0
 40
0
 40
0
 40
1
 40
1
 40
1
 40
1
 10
85.235078
 20
52.735001
 30
0.0
 10
85.632885
 20
52.735001
 30
0.0
 10
86.014449
 20
52.893053
 30
0.0
 10
86.295740
 20
53.174344
 30
0.0
  0
SPLINE
  5
167
100
AcDbEntity
  8
Layer_1
 62
1
100
AcDbSpline
 70
8
 71
3
 72
8
 73
4
 74
0
 40
0
 40
0
 40
0
 40
0
 40
1
 40
1
 40
1
 40
1
 10
86.295740
 20
53.174344
 30
0.0
 10
86.577031
 20
53.455635
 30
0.0
 10
86.735080
 20
53.837200
 30
0.0
 10
86.735080
 20
54.235006
 30
0.0
  0
SPLINE
  5
168
100
AcDbEntity
  8
Layer_1
 62
1
100
AcDbSpline
 70
8
 71
3
 72
8
 73
4
 74
0
 40
0
 40
0
 40
0
 40
0
 40
1
 40
1
 40
1
 40
1
 10
86.735080
 20
54.235006
 30
0.0
 10
86.735080
 20
54.632813
 30
0.0
 10
86.577031
 20
55.014378
 30
0.0
 10
86.295740
 20
55.295669
 30
0.0
  0
SPLINE
  5
169
100
AcDbEntity
  8
Layer_1
 62
1
100
AcDbSpline
 70
8
 71
3
 72
8
 73
4
 74
0
 40
0
 40
0
 40
0
 40
0
 40
1
 40
1
 40
1
 40
1
 10
86.295740
 20
55.295669
 30
0.0
 10
86.014449
 20
55.576960
 30
0.0
 10
85.632885
 20
55.735008
 30
0.0
 10
85.235078
 20
55.735008
 30
0.0
  0
SPLINE
  5
16a
100
AcDbEntity
  8
Layer_1
 62
1
100
AcDbSpline
 70
8
 71
3
 72
8
 73
4
 74
0
 40
0
 40
0
 40
0
 40
0
 40
1
 40
1
 40
1
 40
1
 10
85.235078
 20
55.735008
 30
0.0
 10
84.837272
 20
55.735008
 30
0.0
 10
84.455707
 20
55.576960
 30
0.0
 10
84.174416
 20
55.295669
 30
0.0
  0
SPLINE
  5
16b
100
AcDbEntity
  8
Layer_1
 62
1
100
AcDbSpline
 70
8
 71
3
 72
8
 73
4
 74
0
 40
0
 40
0
 40
0
 40
0
 40
1
 40
1
 40
1
 40
1
 10
84.174416
 20
55.295669
 30
0.0
 10
83.893125
 20
55.014378
 30
0.0
 10
83.735073
 20
54.632813
 30
0.0
 10
83.735073
 20
54.235006
 30
0.0
  0
SPLINE
  5
16c
100
AcDbEntity
  8
Layer_1
 62
1
100
AcDbSpline
 70
8
 71
3
 72
8
 73
4
 74
0
 40
0
 40
0
 40
0
 40
0
 40
1
 40
1
 40
1
 40
1
 10
83.735073
 20
54.235006
 30
0.0
 10
83.735073
 20
53.837200
 30
0.0
 10
83.893125
 20
53.455635
 30
0.0
 10
84.174416
 20
53.174344
 30
0.0
  0
SPLINE
  5
16d
100
AcDbEntity
  8
Layer_1
 62
1
100
AcDbSpline
 70
8
 71
3
 72
8
 73
4
 74
0
 40
0
 40
0
 40
0
 40
0
 40
1
 40
1
 40
1
 40
1
 10
84.174416
 20
53.174344
 30
0.0
 10
84.455707
 20
52.893053
 30
0.0
 10
84.837272
 20
52.735001
 30
0.0
 10
85.235078
 20
52.735001
 30
0.0
  0
LWPOLYLINE
  5
16e
100
AcDbEntity
  8
Layer_1
 62
1
100
AcDbPolyline
 90
1
 70
1
 10
79.587938
 20
47.087865
 30
0.0
  0
SPLINE
  5
16f
100
AcDbEntity
  8
Layer_1
 62
1
100
AcDbSpline
 70
8
 71
3
 72
8
 73
4
 74
0
 40
0
 40
0
 40
0
 40
0
 40
1
 40
1
 40
1
 40
1
 10
90.882221
 20
58.382141
 30
0.0
 10
91.280028
 20
58.382141
 30
0.0
 10
91.661593
 20
58.540193
 30
0.0
 10
91.942884
 20
58.821484
 30
0.0
  0
SPLINE
  5
170
100
AcDbEntity
  8
Layer_1
 62
1
100
AcDbSpline
 70
8
 71
3
 72
8
 73
4
 74
0
 40
0
 40
0
 40
0
 40
0
 40
1
 40
1
 40
1
 40
1
 10
91.942884
 20
58.821484
 30
0.0
 10
92.224175
 20
59.102775
 30
0.0
 10
92.382226
 20
59.484339
 30
0.0
 10
92.382226
 20
59.882146
 30
0.0
  0
SPLINE
  5
171
100
AcDbEntity
  8
Layer_1
 62
1
100
AcDbSpline
 70
8
 71
3
 72
8
 73
4
 74
0
 40
0
 40
0
 40
0
 40
0
 40
1
 40
1
 40
1
 40
1
 10
92.382226
 20
59.882146
 30
0.0
 10
92.382226
 20
60.279953
 30
0.0
 10
92.224175
 20
60.661517
 30
0.0
 10
91.942884
 20
60.942808
 30
0.0
  0
SPLINE
  5
172
100
AcDbEntity
  8
Layer_1
 62
1
100
AcDbSpline
 70
8
 71
3
 72
8
 73
4
 74
0
 40
0
 40
0
 40
0
 40
0
 40
1
 40
1
 40
1
 40
1
 10
91.942884
 20
60.942808
 30
0.0
 10
91.661593
 20
61.224099
 30
0.0
 10
91.280028
 20
61.382147
 30
0.0
 10
90.882221
 20
61.382147
 30
0.0
  0
SPLINE
  5
173
100
AcDbEntity
  8
Layer_1
 62
1
100
AcDbSpline
 70
8
 71
3
 72
8
 73
4
 74
0
 40
0
 40
0
 40
0
 40
0
 40
1
 40
1
 40
1
 40
1
 10
90.882221
 20
61.382147
 30
0.0
 10
90.484418
 20
61.382147
 30
0.0
 10
90.102850
 20
61.224099
 30
0.0
 10
89.821559
 20
60.942808
 30
0.0
  0
SPLINE
  5
174
100
AcDbEntity
  8
Layer_1
 62
1
100
AcDbSpline
 70
8
 71
3
 72
8
 73
4
 74
0
 40
0
 40
0
 40
0
 40
0
 40
1
 40
1
 40
1
 40
1
 10
89.821559
 20
60.942808
 30
0.0
 10
89.540268
 20
60.661517
 30
0.0
 10
89.382220
 20
60.279953
 30
0.0
 10
89.382220
 20
59.882146
 30
0.0
  0
SPLINE
  5
175
100
AcDbEntity
  8
Layer_1
 62
1
100
AcDbSpline
 70
8
 71
3
 72
8
 73
4
 74
0
 40
0
 40
0
 40
0
 40
0
 40
1
 40
1
 40
1
 40
1
 10
89.382220
 20
59.882146
 30
0.0
 10
89.382220
 20
59.484339
 30
0.0
 10
89.540268
 20
59.102775
 30
0.0
 10
89.821559
 20
58.821484
 30
0.0
  0
SPLINE
  5
176
100
AcDbEntity
  8
Layer_1
 62
1
100
AcDbSpline
 70
8
 71
3
 72
8
 73
4
 74
0
 40
0
 40
0
 40
0
 40
0
 40
1
 40
1
 40
1
 40
1
 10
89.821559
 20
58.821484
 30
0.0
 10
90.102850
 20
58.540193
 30
0.0
 10
90.484418
 20
58.382141
 30
0.0
 10
90.882221
 20
58.382141
 30
0.0
  0
LWPOLYLINE
  5
177
100
AcDbEntity
  8
Layer_1
 62
1
100
AcDbPolyline
 90
1
 70
1
 10
85.235078
 20
52.735001
 30
0.0
  0
SPLINE
  5
178
100
AcDbEntity
  8
Layer_1
 62
1
100
AcDbSpline
 70
8
 71
3
 72
8
 73
4
 74
0
 40
0
 40
0
 40
0
 40
0
 40
1
 40
1
 40
1
 40
1
 10
96.529361
 20
64.029288
 30
0.0
 10
96.927168
 20
64.029288
 30
0.0
 10
97.308732
 20
64.187336
 30
0.0
 10
97.590023
 20
64.468627
 30
0.0
  0
SPLINE
  5
179
100
AcDbEntity
  8
Layer_1
 62
1
100
AcDbSpline
 70
8
 71
3
 72
8
 73
4
 74
0
 40
0
 40
0
 40
0
 40
0
 40
1
 40
1
 40
1
 40
1
 10
97.590023
 20
64.468627
 30
0.0
 10
97.871314
 20
64.749918
 30
0.0
 10
98.029366
 20
65.131486
 30
0.0
 10
98.029366
 20
65.529289
 30
0.0
  0
SPLINE
  5
17a
100
AcDbEntity
  8
Layer_1
 62
1
100
AcDbSpline
 70
8
 71
3
 72
8
 73
4
 74
0
 40
0
 40
0
 40
0
 40
0
 40
1
 40
1
 40
1
 40
1
 10
98.029366
 20
65.529289
 30
0.0
 10
98.029366
 20
65.927096
 30
0.0
 10
97.871314
 20
66.308661
 30
0.0
 10
97.590023
 20
66.589952
 30
0.0
  0
SPLINE
  5
17b
100
AcDbEntity
  8
Layer_1
 62
1
100
AcDbSpline
 70
8
 71
3
 72
8
 73
4
 74
0
 40
0
 40
0
 40
0
 40
0
 40
1
 40
1
 40
1
 40
1
 10
97.590023
 20
66.589952
 30
0.0
 10
97.308732
 20
66.871243
 30
0.0
 10
96.927168
 20
67.029294
 30
0.0
 10
96.529361
 20
67.029294
 30
0.0
  0
SPLINE
  5
17c
100
AcDbEntity
  8
Layer_1
 62
1
100
AcDbSpline
 70
8
 71
3
 72
8
 73
4
 74
0
 40
0
 40
0
 40
0
 40
0
 40
1
 40
1
 40
1
 40
1
 10
96.529361
 20
67.029294
 30
0.0
 10
96.131558
 20
67.029294
 30
0.0
 10
95.749990
 20
66.871243
 30
0.0
 10
95.468699
 20
66.589952
 30
0.0
  0
SPLINE
  5
17d
100
AcDbEntity
  8
Layer_1
 62
1
100
AcDbSpline
 70
8
 71
3
 72
8
 73
4
 74
0
 40
0
 40
0
 40
0
 40
0
 40
1
 40
1
 40
1
 40
1
 10
95.468699
 20
66.589952
 30
0.0
 10
95.187408
 20
66.308661
 30
0.0
 10
95.029360
 20
65.927096
 30
0.0
 10
95.029360
 20
65.529289
 30
0.0
  0
SPLINE
  5
17e
100
AcDbEntity
  8
Layer_1
 62
1
100
AcDbSpline
 70
8
 71
3
 72
8
 73
4
 74
0
 40
0
 40
0
 40
0
 40
0
 40
1
 40
1
 40
1
 40
1
 10
95.029360
 20
65.529289
 30
0.0
 10
95.029360
 20
65.131486
 30
0.0
 10
95.187408
 20
64.749918
 30
0.0
 10
95.468699
 20
64.468627
 30
0.0
  0
SPLINE
  5
17f
100
AcDbEntity
  8
Layer_1
 62
1
100
AcDbSpline
 70
8
 71
3
 72
8
 73
4
 74
0
 40
0
 40
0
 40
0
 40
0
 40
1
 40
1
 40
1
 40
1
 10
95.468699
 20
64.468627
 30
0.0
 10
95.749990
 20
64.187336
 30
0.0
 10
96.131558
 20
64.029288
 30
0.0
 10
96.529361
 20
64.029288
 30
0.0
  0
LWPOLYLINE
  5
180
100
AcDbEntity
  8
Layer_1
 62
1
100
AcDbPolyline
 90
1
 70
1
 10
90.882221
 20
58.382141
 30
0.0
  0
SPLINE
  5
181
100
AcDbEntity
  8
Layer_1
 62
1
100
AcDbSpline
 70
8
 71
3
 72
8
 73
4
 74
0
 40
0
 40
0
 40
0
 40
0
 40
1
 40
1
 40
1
 40
1
 10
102.176501
 20
69.676427
 30
0.0
 10
102.574307
 20
69.676427
 30
0.0
 10
102.955872
 20
69.834476
 30
0.0
 10
103.237163
 20
70.115767
 30
0.0
  0
SPLINE
  5
182
100
AcDbEntity
  8
Layer_1
 62
1
100
AcDbSpline
 70
8
 71
3
 72
8
 73
4
 74
0
 40
0
 40
0
 40
0
 40
0
 40
1
 40
1
 40
1
 40
1
 10
103.237163
 20
70.115767
 30
0.0
 10
103.518454
 20
70.397058
 30
0.0
 10
103.676506
 20
70.778626
 30
0.0
 10
103.676506
 20
71.176429
 30
0.0
  0
SPLINE
  5
183
100
AcDbEntity
  8
Layer_1
 62
1
100
AcDbSpline
 70
8
 71
3
 72
8
 73
4
 74
0
 40
0
 40
0
 40
0
 40
0
 40
1
 40
1
 40
1
 40
1
 10
103.676506
 20
71.176429
 30
0.0
 10
103.676506
 20
71.574236
 30
0.0
 10
103.518454
 20
71.955800
 30
0.0
 10
103.237163
 20
72.237091
 30
0.0
  0
SPLINE
  5
184
100
AcDbEntity
  8
Layer_1
 62
1
100
AcDbSpline
 70
8
 71
3
 72
8
 73
4
 74
0
 40
0
 40
0
 40
0
 40
0
 40
1
 40
1
 40
1
 40
1
 10
103.237163
 20
72.237091
 30
0.0
 10
102.955872
 20
72.518382
 30
0.0
 10
102.574307
 20
72.676434
 30
0.0
 10
102.176501
 20
72.676434
 30
0.0
  0
SPLINE
  5
185
100
AcDbEntity
  8
Layer_1
 62
1
100
AcDbSpline
 70
8
 71
3
 72
8
 73
4
 74
0
 40
0
 40
0
 40
0
 40
0
 40
1
 40
1
 40
1
 40
1
 10
102.176501
 20
72.676434
 30
0.0
 10
101.778698
 20
72.676434
 30
0.0
 10
101.397129
 20
72.518382
 30
0.0
 10
101.115838
 20
72.237091
 30
0.0
  0
SPLINE
  5
186
100
AcDbEntity
  8
Layer_1
 62
1
100
AcDbSpline
 70
8
 71
3
 72
8
 73
4
 74
0
 40
0
 40
0
 40
0
 40
0
 40
1
 40
1
 40
1
 40
1
 10
101.115838
 20
72.237091
 30
0.0
 10
100.834547
 20
71.955800
 30
0.0
 10
100.676499
 20
71.574236
 30
0.0
 10
100.676499
 20
71.176429
 30
0.0
  0
SPLINE
  5
187
100
AcDbEntity
  8
Layer_1
 62
1
100
AcDbSpline
 70
8
 71
3
 72
8
 73
4
 74
0
 40
0
 40
0
 40
0
 40
0
 40
1
 40
1
 40
1
 40
1
 10
100.676499
 20
71.176429
 30
0.0
 10
100.676499
 20
70.778626
 30
0.0
 10
100.834547
 20
70.397058
 30
0.0
 10
101.115838
 20
70.115767
 30
0.0
  0
SPLINE
  5
188
100
AcDbEntity
  8
Layer_1
 62
1
100
AcDbSpline
 70
8
 71
3
 72
8
 73
4
 74
0
 40
0
 40
0
 40
0
 40
0
 40
1
 40
1
 40
1
 40
1
 10
101.115838
 20
70.115767
 30
0.0
 10
101.397129
 20
69.834476
 30
0.0
 10
101.778698
 20
69.676427
 30
0.0
 10
102.176501
 20
69.676427
 30
0.0
  0
LWPOLYLINE
  5
189
100
AcDbEntity
  8
Layer_1
 62
1
100
AcDbPolyline
 90
1
 70
1
 10
96.529361
 20
64.029288
 30
0.0
  0
SPLINE
  5
18a
100
AcDbEntity
  8
Layer_1
 62
1
100
AcDbSpline
 70
8
 71
3
 72
8
 73
4
 74
0
 40
0
 40
0
 40
0
 40
0
 40
1
 40
1
 40
1
 40
1
 10
107.823647
 20
75.323567
 30
0.0
 10
108.221451
 20
75.323567
 30
0.0
 10
108.603019
 20
75.481615
 30
0.0
 10
108.884310
 20
75.762906
 30
0.0
  0
SPLINE
  5
18b
100
AcDbEntity
  8
Layer_1
 62
1
100
AcDbSpline
 70
8
 71
3
 72
8
 73
4
 74
0
 40
0
 40
0
 40
0
 40
0
 40
1
 40
1
 40
1
 40
1
 10
108.884310
 20
75.762906
 30
0.0
 10
109.165601
 20
76.044197
 30
0.0
 10
109.323649
 20
76.425766
 30
0.0
 10
109.323649
 20
76.823569
 30
0.0
  0
SPLINE
  5
18c
100
AcDbEntity
  8
Layer_1
 62
1
100
AcDbSpline
 70
8
 71
3
 72
8
 73
4
 74
0
 40
0
 40
0
 40
0
 40
0
 40
1
 40
1
 40
1
 40
1
 10
109.323649
 20
76.823569
 30
0.0
 10
109.323649
 20
77.221375
 30
0.0
 10
109.165601
 20
77.602940
 30
0.0
 10
108.884310
 20
77.884231
 30
0.0
  0
SPLINE
  5
18d
100
AcDbEntity
  8
Layer_1
 62
1
100
AcDbSpline
 70
8
 71
3
 72
8
 73
4
 74
0
 40
0
 40
0
 40
0
 40
0
 40
1
 40
1
 40
1
 40
1
 10
108.884310
 20
77.884231
 30
0.0
 10
108.603019
 20
78.165522
 30
0.0
 10
108.221451
 20
78.323574
 30
0.0
 10
107.823647
 20
78.323574
 30
0.0
  0
SPLINE
  5
18e
100
AcDbEntity
  8
Layer_1
 62
1
100
AcDbSpline
 70
8
 71
3
 72
8
 73
4
 74
0
 40
0
 40
0
 40
0
 40
0
 40
1
 40
1
 40
1
 40
1
 10
107.823647
 20
78.323574
 30
0.0
 10
107.425841
 20
78.323574
 30
0.0
 10
107.044276
 20
78.165522
 30
0.0
 10
106.762985
 20
77.884231
 30
0.0
  0
SPLINE
  5
18f
100
AcDbEntity
  8
Layer_1
 62
1
100
AcDbSpline
 70
8
 71
3
 72
8
 73
4
 74
0
 40
0
 40
0
 40
0
 40
0
 40
1
 40
1
 40
1
 40
1
 10
106.762985
 20
77.884231
 30
0.0
 10
106.481694
 20
77.602940
 30
0.0
 10
106.323642
 20
77.221375
 30
0.0
 10
106.323642
 20
76.823569
 30
0.0
  0
SPLINE
  5
190
100
AcDbEntity
  8
Layer_1
 62
1
100
AcDbSpline
 70
8
 71
3
 72
8
 73
4
 74
0
 40
0
 40
0
 40
0
 40
0
 40
1
 40
1
 40
1
 40
1
 10
106.323642
 20
76.823569
 30
0.0
 10
106.323642
 20
76.425766
 30
0.0
 10
106.481694
 20
76.044197
 30
0.0
 10
106.762985
 20
75.762906
 30
0.0
  0
SPLINE
  5
191
100
AcDbEntity
  8
Layer_1
 62
1
100
AcDbSpline
 70
8
 71
3
 72
8
 73
4
 74
0
 40
0
 40
0
 40
0
 40
0
 40
1
 40
1
 40
1
 40
1
 10
106.762985
 20
75.762906
 30
0.0
 10
107.044276
 20
75.481615
 30
0.0
 10
107.425841
 20
75.323567
 30
0.0
 10
107.823647
 20
75.323567
 30
0.0
  0
LWPOLYLINE
  5
192
100
AcDbEntity
  8
Layer_1
 62
1
100
AcDbPolyline
 90
1
 70
1
 10
102.176501
 20
69.676427
 30
0.0
  0
SPLINE
  5
193
100
AcDbEntity
  8
Layer_1
 62
1
100
AcDbSpline
 70
8
 71
3
 72
8
 73
4
 74
0
 40
0
 40
0
 40
0
 40
0
 40
1
 40
1
 40
1
 40
1
 10
113.470787
 20
80.970710
 30
0.0
 10
113.868590
 20
80.970710
 30
0.0
 10
114.250158
 20
81.128762
 30
0.0
 10
114.531449
 20
81.410053
 30
0.0
  0
SPLINE
  5
194
100
AcDbEntity
  8
Layer_1
 62
1
100
AcDbSpline
 70
8
 71
3
 72
8
 73
4
 74
0
 40
0
 40
0
 40
0
 40
0
 40
1
 40
1
 40
1
 40
1
 10
114.531449
 20
81.410053
 30
0.0
 10
114.812741
 20
81.691344
 30
0.0
 10
114.970789
 20
82.072909
 30
0.0
 10
114.970789
 20
82.470715
 30
0.0
  0
SPLINE
  5
195
100
AcDbEntity
  8
Layer_1
 62
1
100
AcDbSpline
 70
8
 71
3
 72
8
 73
4
 74
0
 40
0
 40
0
 40
0
 40
0
 40
1
 40
1
 40
1
 40
1
 10
114.970789
 20
82.470715
 30
0.0
 10
114.970789
 20
82.868518
 30
0.0
 10
114.812741
 20
83.250087
 30
0.0
 10
114.531449
 20
83.531378
 30
0.0
  0
SPLINE
  5
196
100
AcDbEntity
  8
Layer_1
 62
1
100
AcDbSpline
 70
8
 71
3
 72
8
 73
4
 74
0
 40
0
 40
0
 40
0
 40
0
 40
1
 40
1
 40
1
 40
1
 10
114.531449
 20
83.531378
 30
0.0
 10
114.250158
 20
83.812669
 30
0.0
 10
113.868590
 20
83.970717
 30
0.0
 10
113.470787
 20
83.970717
 30
0.0
  0
SPLINE
  5
197
100
AcDbEntity
  8
Layer_1
 62
1
100
AcDbSpline
 70
8
 71
3
 72
8
 73
4
 74
0
 40
0
 40
0
 40
0
 40
0
 40
1
 40
1
 40
1
 40
1
 10
113.470787
 20
83.970717
 30
0.0
 10
113.072981
 20
83.970717
 30
0.0
 10
112.691416
 20
83.812669
 30
0.0
 10
112.410125
 20
83.531378
 30
0.0
  0
SPLINE
  5
198
100
AcDbEntity
  8
Layer_1
 62
1
100
AcDbSpline
 70
8
 71
3
 72
8
 73
4
 74
0
 40
0
 40
0
 40
0
 40
0
 40
1
 40
1
 40
1
 40
1
 10
112.410125
 20
83.531378
 30
0.0
 10
112.128834
 20
83.250087
 30
0.0
 10
111.970782
 20
82.868518
 30
0.0
 10
111.970782
 20
82.470715
 30
0.0
  0
SPLINE
  5
199
100
AcDbEntity
  8
Layer_1
 62
1
100
AcDbSpline
 70
8
 71
3
 72
8
 73
4
 74
0
 40
0
 40
0
 40
0
 40
0
 40
1
 40
1
 40
1
 40
1
 10
111.970782
 20
82.470715
 30
0.0
 10
111.970782
 20
82.072909
 30
0.0
 10
112.128834
 20
81.691344
 30
0.0
 10
112.410125
 20
81.410053
 30
0.0
  0
SPLINE
  5
19a
100
AcDbEntity
  8
Layer_1
 62
1
100
AcDbSpline
 70
8
 71
3
 72
8
 73
4
 74
0
 40
0
 40
0
 40
0
 40
0
 40
1
 40
1
 40
1
 40
1
 10
112.410125
 20
81.410053
 30
0.0
 10
112.691416
 20
81.128762
 30
0.0
 10
113.072981
 20
80.970710
 30
0.0
 10
113.470787
 20
80.970710
 30
0.0
  0
LWPOLYLINE
  5
19b
100
AcDbEntity
  8
Layer_1
 62
1
100
AcDbPolyline
 90
1
 70
1
 10
107.823647
 20
75.323567
 30
0.0
  0
SPLINE
  5
19c
100
AcDbEntity
  8
Layer_1
 62
1
100
AcDbSpline
 70
8
 71
3
 72
8
 73
4
 74
0
 40
0
 40
0
 40
0
 40
0
 40
1
 40
1
 40
1
 40
1
 10
119.117927
 20
86.617850
 30
0.0
 10
119.515730
 20
86.617850
 30
0.0
 10
119.897298
 20
86.775902
 30
0.0
 10
120.178589
 20
87.057193
 30
0.0
  0
SPLINE
  5
19d
100
AcDbEntity
  8
Layer_1
 62
1
100
AcDbSpline
 70
8
 71
3
 72
8
 73
4
 74
0
 40
0
 40
0
 40
0
 40
0
 40
1
 40
1
 40
1
 40
1
 10
120.178589
 20
87.057193
 30
0.0
 10
120.459880
 20
87.338484
 30
0.0
 10
120.617928
 20
87.720048
 30
0.0
 10
120.617928
 20
88.117855
 30
0.0
  0
SPLINE
  5
19e
100
AcDbEntity
  8
Layer_1
 62
1
100
AcDbSpline
 70
8
 71
3
 72
8
 73
4
 74
0
 40
0
 40
0
 40
0
 40
0
 40
1
 40
1
 40
1
 40
1
 10
120.617928
 20
88.117855
 30
0.0
 10
120.617928
 20
88.515658
 30
0.0
 10
120.459880
 20
88.897226
 30
0.0
 10
120.178589
 20
89.178517
 30
0.0
  0
SPLINE
  5
19f
100
AcDbEntity
  8
Layer_1
 62
1
100
AcDbSpline
 70
8
 71
3
 72
8
 73
4
 74
0
 40
0
 40
0
 40
0
 40
0
 40
1
 40
1
 40
1
 40
1
 10
120.178589
 20
89.178517
 30
0.0
 10
119.897298
 20
89.459808
 30
0.0
 10
119.515730
 20
89.617857
 30
0.0
 10
119.117927
 20
89.617857
 30
0.0
  0
SPLINE
  5
1a0
100
AcDbEntity
  8
Layer_1
 62
1
100
AcDbSpline
 70
8
 71
3
 72
8
 73
4
 74
0
 40
0
 40
0
 40
0
 40
0
 40
1
 40
1
 40
1
 40
1
 10
119.117927
 20
89.617857
 30
0.0
 10
118.720120
 20
89.617857
 30
0.0
 10
118.338552
 20
89.459808
 30
0.0
 10
118.057265
 20
89.178517
 30
0.0
  0
SPLINE
  5
1a1
100
AcDbEntity
  8
Layer_1
 62
1
100
AcDbSpline
 70
8
 71
3
 72
8
 73
4
 74
0
 40
0
 40
0
 40
0
 40
0
 40
1
 40
1
 40
1
 40
1
 10
118.057265
 20
89.178517
 30
0.0
 10
117.775973
 20
88.897226
 30
0.0
 10
117.617922
 20
88.515658
 30
0.0
 10
117.617922
 20
88.117855
 30
0.0
  0
SPLINE
  5
1a2
100
AcDbEntity
  8
Layer_1
 62
1
100
AcDbSpline
 70
8
 71
3
 72
8
 73
4
 74
0
 40
0
 40
0
 40
0
 40
0
 40
1
 40
1
 40
1
 40
1
 10
117.617922
 20
88.117855
 30
0.0
 10
117.617922
 20
87.720048
 30
0.0
 10
117.775973
 20
87.338484
 30
0.0
 10
118.057265
 20
87.057193
 30
0.0
  0
SPLINE
  5
1a3
100
AcDbEntity
  8
Layer_1
 62
1
100
AcDbSpline
 70
8
 71
3
 72
8
 73
4
 74
0
 40
0
 40
0
 40
0
 40
0
 40
1
 40
1
 40
1
 40
1
 10
118.057265
 20
87.057193
 30
0.0
 10
118.338552
 20
86.775902
 30
0.0
 10
118.720120
 20
86.617850
 30
0.0
 10
119.117927
 20
86.617850
 30
0.0
  0
LWPOLYLINE
  5
1a4
100
AcDbEntity
  8
Layer_1
 62
1
100
AcDbPolyline
 90
1
 70
1
 10
113.470787
 20
80.970710
 30
0.0
  0
SPLINE
  5
1a5
100
AcDbEntity
  8
Layer_1
 62
1
100
AcDbSpline
 70
8
 71
3
 72
8
 73
4
 74
0
 40
0
 40
0
 40
0
 40
0
 40
1
 40
1
 40
1
 40
1
 10
124.765063
 20
92.264993
 30
0.0
 10
125.162870
 20
92.264993
 30
0.0
 10
125.544438
 20
92.423041
 30
0.0
 10
125.825725
 20
92.704332
 30
0.0
  0
SPLINE
  5
1a6
100
AcDbEntity
  8
Layer_1
 62
1
100
AcDbSpline
 70
8
 71
3
 72
8
 73
4
 74
0
 40
0
 40
0
 40
0
 40
0
 40
1
 40
1
 40
1
 40
1
 10
125.825725
 20
92.704332
 30
0.0
 10
126.107016
 20
92.985623
 30
0.0
 10
126.265068
 20
93.367192
 30
0.0
 10
126.265068
 20
93.764995
 30
0.0
  0
SPLINE
  5
1a7
100
AcDbEntity
  8
Layer_1
 62
1
100
AcDbSpline
 70
8
 71
3
 72
8
 73
4
 74
0
 40
0
 40
0
 40
0
 40
0
 40
1
 40
1
 40
1
 40
1
 10
126.265068
 20
93.764995
 30
0.0
 10
126.265068
 20
94.162801
 30
0.0
 10
126.107016
 20
94.544366
 30
0.0
 10
125.825725
 20
94.825657
 30
0.0
  0
SPLINE
  5
1a8
100
AcDbEntity
  8
Layer_1
 62
1
100
AcDbSpline
 70
8
 71
3
 72
8
 73
4
 74
0
 40
0
 40
0
 40
0
 40
0
 40
1
 40
1
 40
1
 40
1
 10
125.825725
 20
94.825657
 30
0.0
 10
125.544438
 20
95.106950
 30
0.0
 10
125.162870
 20
95.264999
 30
0.0
 10
124.765063
 20
95.264999
 30
0.0
  0
SPLINE
  5
1a9
100
AcDbEntity
  8
Layer_1
 62
1
100
AcDbSpline
 70
8
 71
3
 72
8
 73
4
 74
0
 40
0
 40
0
 40
0
 40
0
 40
1
 40
1
 40
1
 40
1
 10
124.765063
 20
95.264999
 30
0.0
 10
124.367260
 20
95.264999
 30
0.0
 10
123.985692
 20
95.106950
 30
0.0
 10
123.704401
 20
94.825657
 30
0.0
  0
SPLINE
  5
1aa
100
AcDbEntity
  8
Layer_1
 62
1
100
AcDbSpline
 70
8
 71
3
 72
8
 73
4
 74
0
 40
0
 40
0
 40
0
 40
0
 40
1
 40
1
 40
1
 40
1
 10
123.704401
 20
94.825657
 30
0.0
 10
123.423110
 20
94.544366
 30
0.0
 10
123.265062
 20
94.162801
 30
0.0
 10
123.265062
 20
93.764995
 30
0.0
  0
SPLINE
  5
1ab
100
AcDbEntity
  8
Layer_1
 62
1
100
AcDbSpline
 70
8
 71
3
 72
8
 73
4
 74
0
 40
0
 40
0
 40
0
 40
0
 40
1
 40
1
 40
1
 40
1
 10
123.265062
 20
93.764995
 30
0.0
 10
123.265062
 20
93.367192
 30
0.0
 10
123.423110
 20
92.985623
 30
0.0
 10
123.704401
 20
92.704332
 30
0.0
  0
SPLINE
  5
1ac
100
AcDbEntity
  8
Layer_1
 62
1
100
AcDbSpline
 70
8
 71
3
 72
8
 73
4
 74
0
 40
0
 40
0
 40
0
 40
0
 40
1
 40
1
 40
1
 40
1
 10
123.704401
 20
92.704332
 30
0.0
 10
123.985692
 20
92.423041
 30
0.0
 10
124.367260
 20
92.264993
 30
0.0
 10
124.765063
 20
92.264993
 30
0.0
  0
LWPOLYLINE
  5
1ad
100
AcDbEntity
  8
Layer_1
 62
1
100
AcDbPolyline
 90
1
 70
1
 10
119.117927
 20
86.617850
 30
0.0
  0
SPLINE
  5
1ae
100
AcDbEntity
  8
Layer_1
 62
1
100
AcDbSpline
 70
8
 71
3
 72
8
 73
4
 74
0
 40
0
 40
0
 40
0
 40
0
 40
1
 40
1
 40
1
 40
1
 10
130.412203
 20
97.912132
 30
0.0
 10
130.810009
 20
97.912132
 30
0.0
 10
131.191578
 20
98.070182
 30
0.0
 10
131.472865
 20
98.351473
 30
0.0
  0
SPLINE
  5
1af
100
AcDbEntity
  8
Layer_1
 62
1
100
AcDbSpline
 70
8
 71
3
 72
8
 73
4
 74
0
 40
0
 40
0
 40
0
 40
0
 40
1
 40
1
 40
1
 40
1
 10
131.472865
 20
98.351473
 30
0.0
 10
131.754156
 20
98.632764
 30
0.0
 10
131.912208
 20
99.014330
 30
0.0
 10
131.912208
 20
99.412136
 30
0.0
  0
SPLINE
  5
1b0
100
AcDbEntity
  8
Layer_1
 62
1
100
AcDbSpline
 70
8
 71
3
 72
8
 73
4
 74
0
 40
0
 40
0
 40
0
 40
0
 40
1
 40
1
 40
1
 40
1
 10
131.912208
 20
99.412136
 30
0.0
 10
131.912208
 20
99.809941
 30
0.0
 10
131.754156
 20
100.191507
 30
0.0
 10
131.472865
 20
100.472798
 30
0.0
  0
SPLINE
  5
1b1
100
AcDbEntity
  8
Layer_1
 62
1
100
AcDbSpline
 70
8
 71
3
 72
8
 73
4
 74
0
 40
0
 40
0
 40
0
 40
0
 40
1
 40
1
 40
1
 40
1
 10
131.472865
 20
100.472798
 30
0.0
 10
131.191578
 20
100.754089
 30
0.0
 10
130.810009
 20
100.912139
 30
0.0
 10
130.412203
 20
100.912139
 30
0.0
  0
SPLINE
  5
1b2
100
AcDbEntity
  8
Layer_1
 62
1
100
AcDbSpline
 70
8
 71
3
 72
8
 73
4
 74
0
 40
0
 40
0
 40
0
 40
0
 40
1
 40
1
 40
1
 40
1
 10
130.412203
 20
100.912139
 30
0.0
 10
130.014400
 20
100.912139
 30
0.0
 10
129.632831
 20
100.754089
 30
0.0
 10
129.351540
 20
100.472798
 30
0.0
  0
SPLINE
  5
1b3
100
AcDbEntity
  8
Layer_1
 62
1
100
AcDbSpline
 70
8
 71
3
 72
8
 73
4
 74
0
 40
0
 40
0
 40
0
 40
0
 40
1
 40
1
 40
1
 40
1
 10
129.351540
 20
100.472798
 30
0.0
 10
129.070249
 20
100.191507
 30
0.0
 10
128.912201
 20
99.809941
 30
0.0
 10
128.912201
 20
99.412136
 30
0.0
  0
SPLINE
  5
1b4
100
AcDbEntity
  8
Layer_1
 62
1
100
AcDbSpline
 70
8
 71
3
 72
8
 73
4
 74
0
 40
0
 40
0
 40
0
 40
0
 40
1
 40
1
 40
1
 40
1
 10
128.912201
 20
99.412136
 30
0.0
 10
128.912201
 20
99.014330
 30
0.0
 10
129.070249
 20
98.632764
 30
0.0
 10
129.351540
 20
98.351473
 30
0.0
  0
SPLINE
  5
1b5
100
AcDbEntity
  8
Layer_1
 62
1
100
AcDbSpline
 70
8
 71
3
 72
8
 73
4
 74
0
 40
0
 40
0
 40
0
 40
0
 40
1
 40
1
 40
1
 40
1
 10
129.351540
 20
98.351473
 30
0.0
 10
129.632831
 20
98.070182
 30
0.0
 10
130.014400
 20
97.912132
 30
0.0
 10
130.412203
 20
97.912132
 30
0.0
  0
LWPOLYLINE
  5
1b6
100
AcDbEntity
  8
Layer_1
 62
1
100
AcDbPolyline
 90
1
 70
1
 10
124.765063
 20
92.264993
 30
0.0
  0
SPLINE
  5
1b7
100
AcDbEntity
  8
Layer_1
 62
1
100
AcDbSpline
 70
8
 71
3
 72
8
 73
4
 74
0
 40
0
 40
0
 40
0
 40
0
 40
1
 40
1
 40
1
 40
1
 10
136.059353
 20
103.559272
 30
0.0
 10
136.457160
 20
103.559272
 30
0.0
 10
136.838728
 20
103.717322
 30
0.0
 10
137.120015
 20
103.998613
 30
0.0
  0
SPLINE
  5
1b8
100
AcDbEntity
  8
Layer_1
 62
1
100
AcDbSpline
 70
8
 71
3
 72
8
 73
4
 74
0
 40
0
 40
0
 40
0
 40
0
 40
1
 40
1
 40
1
 40
1
 10
137.120015
 20
103.998613
 30
0.0
 10
137.401306
 20
104.279904
 30
0.0
 10
137.559358
 20
104.661470
 30
0.0
 10
137.559358
 20
105.059275
 30
0.0
  0
SPLINE
  5
1b9
100
AcDbEntity
  8
Layer_1
 62
1
100
AcDbSpline
 70
8
 71
3
 72
8
 73
4
 74
0
 40
0
 40
0
 40
0
 40
0
 40
1
 40
1
 40
1
 40
1
 10
137.559358
 20
105.059275
 30
0.0
 10
137.559358
 20
105.457081
 30
0.0
 10
137.401306
 20
105.838647
 30
0.0
 10
137.120015
 20
106.119938
 30
0.0
  0
SPLINE
  5
1ba
100
AcDbEntity
  8
Layer_1
 62
1
100
AcDbSpline
 70
8
 71
3
 72
8
 73
4
 74
0
 40
0
 40
0
 40
0
 40
0
 40
1
 40
1
 40
1
 40
1
 10
137.120015
 20
106.119938
 30
0.0
 10
136.838728
 20
106.401229
 30
0.0
 10
136.457160
 20
106.559278
 30
0.0
 10
136.059353
 20
106.559278
 30
0.0
  0
SPLINE
  5
1bb
100
AcDbEntity
  8
Layer_1
 62
1
100
AcDbSpline
 70
8
 71
3
 72
8
 73
4
 74
0
 40
0
 40
0
 40
0
 40
0
 40
1
 40
1
 40
1
 40
1
 10
136.059353
 20
106.559278
 30
0.0
 10
135.661550
 20
106.559278
 30
0.0
 10
135.279982
 20
106.401229
 30
0.0
 10
134.998691
 20
106.119938
 30
0.0
  0
SPLINE
  5
1bc
100
AcDbEntity
  8
Layer_1
 62
1
100
AcDbSpline
 70
8
 71
3
 72
8
 73
4
 74
0
 40
0
 40
0
 40
0
 40
0
 40
1
 40
1
 40
1
 40
1
 10
134.998691
 20
106.119938
 30
0.0
 10
134.717400
 20
105.838647
 30
0.0
 10
134.559352
 20
105.457081
 30
0.0
 10
134.559352
 20
105.059275
 30
0.0
  0
SPLINE
  5
1bd
100
AcDbEntity
  8
Layer_1
 62
1
100
AcDbSpline
 70
8
 71
3
 72
8
 73
4
 74
0
 40
0
 40
0
 40
0
 40
0
 40
1
 40
1
 40
1
 40
1
 10
134.559352
 20
105.059275
 30
0.0
 10
134.559352
 20
104.661470
 30
0.0
 10
134.717400
 20
104.279904
 30
0.0
 10
134.998691
 20
103.998613
 30
0.0
  0
SPLINE
  5
1be
100
AcDbEntity
  8
Layer_1
 62
1
100
AcDbSpline
 70
8
 71
3
 72
8
 73
4
 74
0
 40
0
 40
0
 40
0
 40
0
 40
1
 40
1
 40
1
 40
1
 10
134.998691
 20
103.998613
 30
0.0
 10
135.279982
 20
103.717322
 30
0.0
 10
135.661550
 20
103.559272
 30
0.0
 10
136.059353
 20
103.559272
 30
0.0
  0
LWPOLYLINE
  5
1bf
100
AcDbEntity
  8
Layer_1
 62
1
100
AcDbPolyline
 90
1
 70
1
 10
130.412203
 20
97.912132
 30
0.0
  0
SPLINE
  5
1c0
100
AcDbEntity
  8
Layer_1
 62
1
100
AcDbSpline
 70
8
 71
3
 72
8
 73
4
 74
0
 40
0
 40
0
 40
0
 40
0
 40
1
 40
1
 40
1
 40
1
 10
141.706493
 20
109.206414
 30
0.0
 10
142.104299
 20
109.206414
 30
0.0
 10
142.485864
 20
109.364464
 30
0.0
 10
142.767155
 20
109.645755
 30
0.0
  0
SPLINE
  5
1c1
100
AcDbEntity
  8
Layer_1
 62
1
100
AcDbSpline
 70
8
 71
3
 72
8
 73
4
 74
0
 40
0
 40
0
 40
0
 40
0
 40
1
 40
1
 40
1
 40
1
 10
142.767155
 20
109.645755
 30
0.0
 10
143.048446
 20
109.927046
 30
0.0
 10
143.206498
 20
110.308612
 30
0.0
 10
143.206498
 20
110.706417
 30
0.0
  0
SPLINE
  5
1c2
100
AcDbEntity
  8
Layer_1
 62
1
100
AcDbSpline
 70
8
 71
3
 72
8
 73
4
 74
0
 40
0
 40
0
 40
0
 40
0
 40
1
 40
1
 40
1
 40
1
 10
143.206498
 20
110.706417
 30
0.0
 10
143.206498
 20
111.104223
 30
0.0
 10
143.048446
 20
111.485789
 30
0.0
 10
142.767155
 20
111.767080
 30
0.0
  0
SPLINE
  5
1c3
100
AcDbEntity
  8
Layer_1
 62
1
100
AcDbSpline
 70
8
 71
3
 72
8
 73
4
 74
0
 40
0
 40
0
 40
0
 40
0
 40
1
 40
1
 40
1
 40
1
 10
142.767155
 20
111.767080
 30
0.0
 10
142.485864
 20
112.048371
 30
0.0
 10
142.104299
 20
112.206421
 30
0.0
 10
141.706493
 20
112.206421
 30
0.0
  0
SPLINE
  5
1c4
100
AcDbEntity
  8
Layer_1
 62
1
100
AcDbSpline
 70
8
 71
3
 72
8
 73
4
 74
0
 40
0
 40
0
 40
0
 40
0
 40
1
 40
1
 40
1
 40
1
 10
141.706493
 20
112.206421
 30
0.0
 10
141.308690
 20
112.206421
 30
0.0
 10
140.927121
 20
112.048371
 30
0.0
 10
140.645830
 20
111.767080
 30
0.0
  0
SPLINE
  5
1c5
100
AcDbEntity
  8
Layer_1
 62
1
100
AcDbSpline
 70
8
 71
3
 72
8
 73
4
 74
0
 40
0
 40
0
 40
0
 40
0
 40
1
 40
1
 40
1
 40
1
 10
140.645830
 20
111.767080
 30
0.0
 10
140.364539
 20
111.485789
 30
0.0
 10
140.206491
 20
111.104223
 30
0.0
 10
140.206491
 20
110.706417
 30
0.0
  0
SPLINE
  5
1c6
100
AcDbEntity
  8
Layer_1
 62
1
100
AcDbSpline
 70
8
 71
3
 72
8
 73
4
 74
0
 40
0
 40
0
 40
0
 40
0
 40
1
 40
1
 40
1
 40
1
 10
140.206491
 20
110.706417
 30
0.0
 10
140.206491
 20
110.308612
 30
0.0
 10
140.364539
 20
109.927046
 30
0.0
 10
140.645830
 20
109.645755
 30
0.0
  0
SPLINE
  5
1c7
100
AcDbEntity
  8
Layer_1
 62
1
100
AcDbSpline
 70
8
 71
3
 72
8
 73
4
 74
0
 40
0
 40
0
 40
0
 40
0
 40
1
 40
1
 40
1
 40
1
 10
140.645830
 20
109.645755
 30
0.0
 10
140.927121
 20
109.364464
 30
0.0
 10
141.308690
 20
109.206414
 30
0.0
 10
141.706493
 20
109.206414
 30
0.0
  0
LWPOLYLINE
  5
1c8
100
AcDbEntity
  8
Layer_1
 62
1
100
AcDbPolyline
 90
1
 70
1
 10
136.059353
 20
103.559272
 30
0.0
  0
SPLINE
  5
1c9
100
AcDbEntity
  8
Layer_1
 62
1
100
AcDbSpline
 70
8
 71
3
 72
8
 73
4
 74
0
 40
0
 40
0
 40
0
 40
0
 40
1
 40
1
 40
1
 40
1
 10
147.353632
 20
114.853555
 30
0.0
 10
147.751439
 20
114.853555
 30
0.0
 10
148.133004
 20
115.011605
 30
0.0
 10
148.414295
 20
115.292896
 30
0.0
  0
SPLINE
  5
1ca
100
AcDbEntity
  8
Layer_1
 62
1
100
AcDbSpline
 70
8
 71
3
 72
8
 73
4
 74
0
 40
0
 40
0
 40
0
 40
0
 40
1
 40
1
 40
1
 40
1
 10
148.414295
 20
115.292896
 30
0.0
 10
148.695586
 20
115.574187
 30
0.0
 10
148.853637
 20
115.955753
 30
0.0
 10
148.853637
 20
116.353558
 30
0.0
  0
SPLINE
  5
1cb
100
AcDbEntity
  8
Layer_1
 62
1
100
AcDbSpline
 70
8
 71
3
 72
8
 73
4
 74
0
 40
0
 40
0
 40
0
 40
0
 40
1
 40
1
 40
1
 40
1
 10
148.853637
 20
116.353558
 30
0.0
 10
148.853637
 20
116.751364
 30
0.0
 10
148.695586
 20
117.132930
 30
0.0
 10
148.414295
 20
117.414220
 30
0.0
  0
SPLINE
  5
1cc
100
AcDbEntity
  8
Layer_1
 62
1
100
AcDbSpline
 70
8
 71
3
 72
8
 73
4
 74
0
 40
0
 40
0
 40
0
 40
0
 40
1
 40
1
 40
1
 40
1
 10
148.414295
 20
117.414220
 30
0.0
 10
148.133004
 20
117.695512
 30
0.0
 10
147.751439
 20
117.853561
 30
0.0
 10
147.353632
 20
117.853561
 30
0.0
  0
SPLINE
  5
1cd
100
AcDbEntity
  8
Layer_1
 62
1
100
AcDbSpline
 70
8
 71
3
 72
8
 73
4
 74
0
 40
0
 40
0
 40
0
 40
0
 40
1
 40
1
 40
1
 40
1
 10
147.353632
 20
117.853561
 30
0.0
 10
146.955829
 20
117.853561
 30
0.0
 10
146.574261
 20
117.695512
 30
0.0
 10
146.292970
 20
117.414220
 30
0.0
  0
SPLINE
  5
1ce
100
AcDbEntity
  8
Layer_1
 62
1
100
AcDbSpline
 70
8
 71
3
 72
8
 73
4
 74
0
 40
0
 40
0
 40
0
 40
0
 40
1
 40
1
 40
1
 40
1
 10
146.292970
 20
117.414220
 30
0.0
 10
146.011679
 20
117.132930
 30
0.0
 10
145.853631
 20
116.751364
 30
0.0
 10
145.853631
 20
116.353558
 30
0.0
  0
SPLINE
  5
1cf
100
AcDbEntity
  8
Layer_1
 62
1
100
AcDbSpline
 70
8
 71
3
 72
8
 73
4
 74
0
 40
0
 40
0
 40
0
 40
0
 40
1
 40
1
 40
1
 40
1
 10
145.853631
 20
116.353558
 30
0.0
 10
145.853631
 20
115.955753
 30
0.0
 10
146.011679
 20
115.574187
 30
0.0
 10
146.292970
 20
115.292896
 30
0.0
  0
SPLINE
  5
1d0
100
AcDbEntity
  8
Layer_1
 62
1
100
AcDbSpline
 70
8
 71
3
 72
8
 73
4
 74
0
 40
0
 40
0
 40
0
 40
0
 40
1
 40
1
 40
1
 40
1
 10
146.292970
 20
115.292896
 30
0.0
 10
146.574261
 20
115.011605
 30
0.0
 10
146.955829
 20
114.853555
 30
0.0
 10
147.353632
 20
114.853555
 30
0.0
  0
LWPOLYLINE
  5
1d1
100
AcDbEntity
  8
Layer_1
 62
1
100
AcDbPolyline
 90
1
 70
1
 10
141.706493
 20
109.206414
 30
0.0
  0
SPLINE
  5
1d2
100
AcDbEntity
  8
Layer_1
 62
1
100
AcDbSpline
 70
8
 71
3
 72
8
 73
4
 74
0
 40
0
 40
0
 40
0
 40
0
 40
1
 40
1
 40
1
 40
1
 10
153.000772
 20
120.500696
 30
0.0
 10
153.398579
 20
120.500696
 30
0.0
 10
153.780143
 20
120.658745
 30
0.0
 10
154.061434
 20
120.940037
 30
0.0
  0
SPLINE
  5
1d3
100
AcDbEntity
  8
Layer_1
 62
1
100
AcDbSpline
 70
8
 71
3
 72
8
 73
4
 74
0
 40
0
 40
0
 40
0
 40
0
 40
1
 40
1
 40
1
 40
1
 10
154.061434
 20
120.940037
 30
0.0
 10
154.342725
 20
121.221327
 30
0.0
 10
154.500777
 20
121.602893
 30
0.0
 10
154.500777
 20
122.000699
 30
0.0
  0
SPLINE
  5
1d4
100
AcDbEntity
  8
Layer_1
 62
1
100
AcDbSpline
 70
8
 71
3
 72
8
 73
4
 74
0
 40
0
 40
0
 40
0
 40
0
 40
1
 40
1
 40
1
 40
1
 10
154.500777
 20
122.000699
 30
0.0
 10
154.500777
 20
122.398504
 30
0.0
 10
154.342725
 20
122.780071
 30
0.0
 10
154.061434
 20
123.061361
 30
0.0
  0
SPLINE
  5
1d5
100
AcDbEntity
  8
Layer_1
 62
1
100
AcDbSpline
 70
8
 71
3
 72
8
 73
4
 74
0
 40
0
 40
0
 40
0
 40
0
 40
1
 40
1
 40
1
 40
1
 10
154.061434
 20
123.061361
 30
0.0
 10
153.780143
 20
123.342652
 30
0.0
 10
153.398579
 20
123.500702
 30
0.0
 10
153.000772
 20
123.500702
 30
0.0
  0
SPLINE
  5
1d6
100
AcDbEntity
  8
Layer_1
 62
1
100
AcDbSpline
 70
8
 71
3
 72
8
 73
4
 74
0
 40
0
 40
0
 40
0
 40
0
 40
1
 40
1
 40
1
 40
1
 10
153.000772
 20
123.500702
 30
0.0
 10
152.602969
 20
123.500702
 30
0.0
 10
152.221401
 20
123.342652
 30
0.0
 10
151.940110
 20
123.061361
 30
0.0
  0
SPLINE
  5
1d7
100
AcDbEntity
  8
Layer_1
 62
1
100
AcDbSpline
 70
8
 71
3
 72
8
 73
4
 74
0
 40
0
 40
0
 40
0
 40
0
 40
1
 40
1
 40
1
 40
1
 10
151.940110
 20
123.061361
 30
0.0
 10
151.658819
 20
122.780071
 30
0.0
 10
151.500771
 20
122.398504
 30
0.0
 10
151.500771
 20
122.000699
 30
0.0
  0
SPLINE
  5
1d8
100
AcDbEntity
  8
Layer_1
 62
1
100
AcDbSpline
 70
8
 71
3
 72
8
 73
4
 74
0
 40
0
 40
0
 40
0
 40
0
 40
1
 40
1
 40
1
 40
1
 10
151.500771
 20
122.000699
 30
0.0
 10
151.500771
 20
121.602893
 30
0.0
 10
151.658819
 20
121.221327
 30
0.0
 10
151.940110
 20
120.940037
 30
0.0
  0
SPLINE
  5
1d9
100
AcDbEntity
  8
Layer_1
 62
1
100
AcDbSpline
 70
8
 71
3
 72
8
 73
4
 74
0
 40
0
 40
0
 40
0
 40
0
 40
1
 40
1
 40
1
 40
1
 10
151.940110
 20
120.940037
 30
0.0
 10
152.221401
 20
120.658745
 30
0.0
 10
152.602969
 20
120.500696
 30
0.0
 10
153.000772
 20
120.500696
 30
0.0
  0
LWPOLYLINE
  5
1da
100
AcDbEntity
  8
Layer_1
 62
1
100
AcDbPolyline
 90
1
 70
1
 10
147.353632
 20
114.853555
 30
0.0
  0
SPLINE
  5
1db
100
AcDbEntity
  8
Layer_1
 62
1
100
AcDbSpline
 70
8
 71
3
 72
8
 73
4
 74
0
 40
0
 40
0
 40
0
 40
0
 40
1
 40
1
 40
1
 40
1
 10
158.647912
 20
126.147837
 30
0.0
 10
159.045718
 20
126.147837
 30
0.0
 10
159.427283
 20
126.305887
 30
0.0
 10
159.708574
 20
126.587178
 30
0.0
  0
SPLINE
  5
1dc
100
AcDbEntity
  8
Layer_1
 62
1
100
AcDbSpline
 70
8
 71
3
 72
8
 73
4
 74
0
 40
0
 40
0
 40
0
 40
0
 40
1
 40
1
 40
1
 40
1
 10
159.708574
 20
126.587178
 30
0.0
 10
159.989865
 20
126.868468
 30
0.0
 10
160.147917
 20
127.250035
 30
0.0
 10
160.147917
 20
127.647840
 30
0.0
  0
SPLINE
  5
1dd
100
AcDbEntity
  8
Layer_1
 62
1
100
AcDbSpline
 70
8
 71
3
 72
8
 73
4
 74
0
 40
0
 40
0
 40
0
 40
0
 40
1
 40
1
 40
1
 40
1
 10
160.147917
 20
127.647840
 30
0.0
 10
160.147917
 20
128.045646
 30
0.0
 10
159.989865
 20
128.427212
 30
0.0
 10
159.708574
 20
128.708502
 30
0.0
  0
SPLINE
  5
1de
100
AcDbEntity
  8
Layer_1
 62
1
100
AcDbSpline
 70
8
 71
3
 72
8
 73
4
 74
0
 40
0
 40
0
 40
0
 40
0
 40
1
 40
1
 40
1
 40
1
 10
159.708574
 20
128.708502
 30
0.0
 10
159.427283
 20
128.989793
 30
0.0
 10
159.045718
 20
129.147843
 30
0.0
 10
158.647912
 20
129.147843
 30
0.0
  0
SPLINE
  5
1df
100
AcDbEntity
  8
Layer_1
 62
1
100
AcDbSpline
 70
8
 71
3
 72
8
 73
4
 74
0
 40
0
 40
0
 40
0
 40
0
 40
1
 40
1
 40
1
 40
1
 10
158.647912
 20
129.147843
 30
0.0
 10
158.250105
 20
129.147843
 30
0.0
 10
157.868541
 20
128.989793
 30
0.0
 10
157.587249
 20
128.708502
 30
0.0
  0
SPLINE
  5
1e0
100
AcDbEntity
  8
Layer_1
 62
1
100
AcDbSpline
 70
8
 71
3
 72
8
 73
4
 74
0
 40
0
 40
0
 40
0
 40
0
 40
1
 40
1
 40
1
 40
1
 10
157.587249
 20
128.708502
 30
0.0
 10
157.305958
 20
128.427212
 30
0.0
 10
157.147910
 20
128.045646
 30
0.0
 10
157.147910
 20
127.647840
 30
0.0
  0
SPLINE
  5
1e1
100
AcDbEntity
  8
Layer_1
 62
1
100
AcDbSpline
 70
8
 71
3
 72
8
 73
4
 74
0
 40
0
 40
0
 40
0
 40
0
 40
1
 40
1
 40
1
 40
1
 10
157.147910
 20
127.647840
 30
0.0
 10
157.147910
 20
127.250035
 30
0.0
 10
157.305958
 20
126.868468
 30
0.0
 10
157.587249
 20
126.587178
 30
0.0
  0
SPLINE
  5
1e2
100
AcDbEntity
  8
Layer_1
 62
1
100
AcDbSpline
 70
8
 71
3
 72
8
 73
4
 74
0
 40
0
 40
0
 40
0
 40
0
 40
1
 40
1
 40
1
 40
1
 10
157.587249
 20
126.587178
 30
0.0
 10
157.868541
 20
126.305887
 30
0.0
 10
158.250105
 20
126.147837
 30
0.0
 10
158.647912
 20
126.147837
 30
0.0
  0
LWPOLYLINE
  5
1e3
100
AcDbEntity
  8
Layer_1
 62
1
100
AcDbPolyline
 90
1
 70
1
 10
153.000772
 20
120.500696
 30
0.0
  0
LWPOLYLINE
  5
1e4
100
AcDbEntity
  8
Layer_1
 62
1
100
AcDbPolyline
 90
1
 70
1
 10
158.647912
 20
126.147837
 30
0.0
  0
LWPOLYLINE
  5
1e5
100
AcDbEntity
  8
Layer_1
 62
3
100
AcDbPolyline
 90
57
 70
0
 10
75.561574
 20
130.540620
 30
0.0
 10
77.124084
 20
124.696313
 30
0.0
 10
78.475647
 20
119.899483
 30
0.0
 10
79.827210
 20
115.341004
 30
0.0
 10
81.178773
 20
111.020878
 30
0.0
 10
82.530336
 20
106.939103
 30
0.0
 10
83.881899
 20
103.095680
 30
0.0
 10
85.233462
 20
99.490609
 30
0.0
 10
86.585025
 20
96.123890
 30
0.0
 10
87.936589
 20
92.995522
 30
0.0
 10
89.288152
 20
90.105505
 30
0.0
 10
90.301824
 20
88.094413
 30
0.0
 10
91.315496
 20
86.217394
 30
0.0
 10
92.329169
 20
84.474445
 30
0.0
 10
93.342841
 20
82.865569
 30
0.0
 10
94.356513
 20
81.390770
 30
0.0
 10
95.370185
 20
80.050041
 30
0.0
 10
96.383858
 20
78.843385
 30
0.0
 10
97.397530
 20
77.770802
 30
0.0
 10
98.411202
 20
76.832289
 30
0.0
 10
99.424875
 20
76.027853
 30
0.0
 10
100.438547
 20
75.357487
 30
0.0
 10
101.452219
 20
74.821197
 30
0.0
 10
102.128001
 20
74.538153
 30
0.0
 10
102.803782
 20
74.314700
 30
0.0
 10
103.479564
 20
74.150831
 30
0.0
 10
104.155345
 20
74.046553
 30
0.0
 10
104.831127
 20
74.001863
 30
0.0
 10
105.506908
 20
74.016750
 30
0.0
 10
106.182690
 20
74.091236
 30
0.0
 10
106.858472
 20
74.225309
 30
0.0
 10
107.534253
 20
74.418970
 30
0.0
 10
108.210035
 20
74.672219
 30
0.0
 10
108.885820
 20
74.985055
 30
0.0
 10
109.561598
 20
75.357480
 30
0.0
 10
110.575270
 20
76.027846
 30
0.0
 10
111.588942
 20
76.832282
 30
0.0
 10
112.602615
 20
77.770795
 30
0.0
 10
113.616290
 20
78.843378
 30
0.0
 10
114.629963
 20
80.050034
 30
0.0
 10
115.643635
 20
81.390763
 30
0.0
 10
116.657307
 20
82.865562
 30
0.0
 10
117.670976
 20
84.474438
 30
0.0
 10
118.684648
 20
86.217387
 30
0.0
 10
119.698321
 20
88.094406
 30
0.0
 10
120.711993
 20
90.105498
 30
0.0
 10
122.063556
 20
92.995515
 30
0.0
 10
123.415119
 20
96.123883
 30
0.0
 10
124.766682
 20
99.490602
 30
0.0
 10
126.118249
 20
103.095673
 30
0.0
 10
127.469808
 20
106.939096
 30
0.0
 10
128.821375
 20
111.020871
 30
0.0
 10
130.172938
 20
115.340997
 30
0.0
 10
131.524501
 20
119.899476
 30
0.0
 10
132.876064
 20
124.696306
 30
0.0
 10
134.438574
 20
130.540620
 30
0.0
 10
134.438574
 20
130.540620
 30
0.0
  0
LWPOLYLINE
  5
1e6
100
AcDbEntity
  8
Layer_1
 62
1
100
AcDbPolyline
 90
4
 70
1
 10
74.088821
 20
129.040616
 30
0.0
 10
77.088827
 20
129.040616
 30
0.0
 10
77.088827
 20
132.040623
 30
0.0
 10
74.088821
 20
132.040623
 30
0.0
  0
LWPOLYLINE
  5
1e7
100
AcDbEntity
  8
Layer_1
 62
1
100
AcDbPolyline
 90
4
 70
1
 10
75.398820
 20
124.018954
 30
0.0
 10
78.398826
 20
124.018954
 30
0.0
 10
78.398826
 20
127.018961
 30
0.0
 10
75.398820
 20
127.018961
 30
0.0
  0
LWPOLYLINE
  5
1e8
100
AcDbEntity
  8
Layer_1
 62
1
100
AcDbPolyline
 90
4
 70
1
 10
77.953479
 20
115.077648
 30
0.0
 10
80.953486
 20
115.077648
 30
0.0
 10
80.953486
 20
118.077654
 30
0.0
 10
77.953479
 20
118.077654
 30
0.0
  0
LWPOLYLINE
  5
1e9
100
AcDbEntity
  8
Layer_1
 62
1
100
AcDbPolyline
 90
4
 70
1
 10
80.508139
 20
106.987893
 30
0.0
 10
83.508145
 20
106.987893
 30
0.0
 10
83.508145
 20
109.987900
 30
0.0
 10
80.508139
 20
109.987900
 30
0.0
  0
LWPOLYLINE
  5
1ea
100
AcDbEntity
  8
Layer_1
 62
1
100
AcDbPolyline
 90
4
 70
1
 10
83.062795
 20
99.749694
 30
0.0
 10
86.062801
 20
99.749694
 30
0.0
 10
86.062801
 20
102.749700
 30
0.0
 10
83.062795
 20
102.749700
 30
0.0
  0
LWPOLYLINE
  5
1eb
100
AcDbEntity
  8
Layer_1
 62
1
100
AcDbPolyline
 90
4
 70
1
 10
85.617461
 20
93.363047
 30
0.0
 10
88.617468
 20
93.363047
 30
0.0
 10
88.617468
 20
96.363052
 30
0.0
 10
85.617461
 20
96.363052
 30
0.0
  0
LWPOLYLINE
  5
1ec
100
AcDbEntity
  8
Layer_1
 62
1
100
AcDbPolyline
 90
8
 70
1
 10
88.172117
 20
87.827953
 30
0.0
 10
91.172124
 20
87.827953
 30
0.0
 10
91.172124
 20
90.827959
 30
0.0
 10
88.172117
 20
90.827959
 30
0.0
 10
88.172117
 20
87.827953
 30
0.0
 10
91.172124
 20
87.827953
 30
0.0
 10
91.172124
 20
90.827959
 30
0.0
 10
88.172117
 20
90.827959
 30
0.0
  0
LWPOLYLINE
  5
1ed
100
AcDbEntity
  8
Layer_1
 62
1
100
AcDbPolyline
 90
4
 70
1
 10
93.281436
 20
79.312417
 30
0.0
 10
96.281443
 20
79.312417
 30
0.0
 10
96.281443
 20
82.312424
 30
0.0
 10
93.281436
 20
82.312424
 30
0.0
  0
LWPOLYLINE
  5
1ee
100
AcDbEntity
  8
Layer_1
 62
1
100
AcDbPolyline
 90
4
 70
1
 10
98.390752
 20
74.203102
 30
0.0
 10
101.390758
 20
74.203102
 30
0.0
 10
101.390758
 20
77.203108
 30
0.0
 10
98.390752
 20
77.203108
 30
0.0
  0
LWPOLYLINE
  5
1ef
100
AcDbEntity
  8
Layer_1
 62
1
100
AcDbPolyline
 90
4
 70
1
 10
103.500067
 20
72.499996
 30
0.0
 10
106.500074
 20
72.499996
 30
0.0
 10
106.500074
 20
75.500002
 30
0.0
 10
103.500067
 20
75.500002
 30
0.0
  0
LWPOLYLINE
  5
1f0
100
AcDbEntity
  8
Layer_1
 62
1
100
AcDbPolyline
 90
4
 70
1
 10
108.609390
 20
74.203102
 30
0.0
 10
111.609396
 20
74.203102
 30
0.0
 10
111.609396
 20
77.203108
 30
0.0
 10
108.609390
 20
77.203108
 30
0.0
  0
LWPOLYLINE
  5
1f1
100
AcDbEntity
  8
Layer_1
 62
1
100
AcDbPolyline
 90
4
 70
1
 10
113.718705
 20
79.312417
 30
0.0
 10
116.718712
 20
79.312417
 30
0.0
 10
116.718712
 20
82.312424
 30
0.0
 10
113.718705
 20
82.312424
 30
0.0
  0
LWPOLYLINE
  5
1f2
100
AcDbEntity
  8
Layer_1
 62
1
100
AcDbPolyline
 90
8
 70
1
 10
118.828024
 20
87.827953
 30
0.0
 10
121.828031
 20
87.827953
 30
0.0
 10
121.828031
 20
90.827959
 30
0.0
 10
118.828024
 20
90.827959
 30
0.0
 10
118.828024
 20
87.827953
 30
0.0
 10
121.828031
 20
87.827953
 30
0.0
 10
121.828031
 20
90.827959
 30
0.0
 10
118.828024
 20
90.827959
 30
0.0
  0
LWPOLYLINE
  5
1f3
100
AcDbEntity
  8
Layer_1
 62
1
100
AcDbPolyline
 90
4
 70
1
 10
121.382680
 20
93.363047
 30
0.0
 10
124.382687
 20
93.363047
 30
0.0
 10
124.382687
 20
96.363052
 30
0.0
 10
121.382680
 20
96.363052
 30
0.0
  0
LWPOLYLINE
  5
1f4
100
AcDbEntity
  8
Layer_1
 62
1
100
AcDbPolyline
 90
4
 70
1
 10
123.937340
 20
99.749694
 30
0.0
 10
126.937346
 20
99.749694
 30
0.0
 10
126.937346
 20
102.749700
 30
0.0
 10
123.937340
 20
102.749700
 30
0.0
  0
LWPOLYLINE
  5
1f5
100
AcDbEntity
  8
Layer_1
 62
1
100
AcDbPolyline
 90
4
 70
1
 10
126.492000
 20
106.987893
 30
0.0
 10
129.492006
 20
106.987893
 30
0.0
 10
129.492006
 20
109.987900
 30
0.0
 10
126.492000
 20
109.987900
 30
0.0
  0
LWPOLYLINE
  5
1f6
100
AcDbEntity
  8
Layer_1
 62
1
100
AcDbPolyline
 90
4
 70
1
 10
129.046656
 20
115.077648
 30
0.0
 10
132.046662
 20
115.077648
 30
0.0
 10
132.046662
 20
118.077654
 30
0.0
 10
129.046656
 20
118.077654
 30
0.0
  0
LWPOLYLINE
  5
1f7
100
AcDbEntity
  8
Layer_1
 62
1
100
AcDbPolyline
 90
4
 70
1
 10
131.601315
 20
124.018954
 30
0.0
 10
134.601322
 20
124.018954
 30
0.0
 10
134.601322
 20
127.018961
 30
0.0
 10
131.601315
 20
127.018961
 30
0.0
  0
LWPOLYLINE
  5
1f8
100
AcDbEntity
  8
Layer_1
 62
1
100
AcDbPolyline
 90
4
 70
1
 10
132.911314
 20
129.040616
 30
0.0
 10
135.911320
 20
129.040616
 30
0.0
 10
135.911320
 20
132.040623
 30
0.0
 10
132.911314
 20
132.040623
 30
0.0
  0
LWPOLYLINE
  5
1f9
100
AcDbEntity
  8
Layer_1
 62
6
100
AcDbPolyline
 90
59
 70
0
 10
81.317898
 20
17.459381
 30
0.0
 10
82.192445
 20
23.502260
 30
0.0
 10
83.206118
 20
29.940480
 30
0.0
 10
84.219790
 20
35.806808
 30
0.0
 10
85.233462
 20
41.127843
 30
0.0
 10
86.247135
 20
45.930185
 30
0.0
 10
87.260807
 20
50.240434
 30
0.0
 10
88.274479
 20
54.085189
 30
0.0
 10
89.288152
 20
57.491048
 30
0.0
 10
89.963933
 20
59.530931
 30
0.0
 10
90.639715
 20
61.395447
 30
0.0
 10
91.315496
 20
63.092489
 30
0.0
 10
91.991278
 20
64.629931
 30
0.0
 10
92.667059
 20
66.015657
 30
0.0
 10
93.342841
 20
67.257549
 30
0.0
 10
94.018622
 20
68.363487
 30
0.0
 10
94.694404
 20
69.341348
 30
0.0
 10
95.370185
 20
70.199022
 30
0.0
 10
96.045967
 20
70.944389
 30
0.0
 10
96.721748
 20
71.585323
 30
0.0
 10
97.397530
 20
72.129713
 30
0.0
 10
98.073312
 20
72.585438
 30
0.0
 10
98.749093
 20
72.960378
 30
0.0
 10
99.424875
 20
73.262416
 30
0.0
 10
100.100656
 20
73.499430
 30
0.0
 10
101.114328
 20
73.750280
 30
0.0
 10
102.128001
 20
73.899162
 30
0.0
 10
103.141673
 20
73.972681
 30
0.0
 10
104.831127
 20
73.999986
 30
0.0
 10
106.858472
 20
74.027327
 30
0.0
 10
107.872144
 20
74.100842
 30
0.0
 10
108.885820
 20
74.249729
 30
0.0
 10
109.899492
 20
74.500578
 30
0.0
 10
110.575270
 20
74.737592
 30
0.0
 10
111.251052
 20
75.039630
 30
0.0
 10
111.926837
 20
75.414570
 30
0.0
 10
112.602615
 20
75.870295
 30
0.0
 10
113.278396
 20
76.414685
 30
0.0
 10
113.954178
 20
77.055619
 30
0.0
 10
114.629963
 20
77.800982
 30
0.0
 10
115.305741
 20
78.658656
 30
0.0
 10
115.981522
 20
79.636522
 30
0.0
 10
116.657307
 20
80.742459
 30
0.0
 10
117.333085
 20
81.984351
 30
0.0
 10
118.008867
 20
83.370077
 30
0.0
 10
118.684648
 20
84.907519
 30
0.0
 10
119.360434
 20
86.604557
 30
0.0
 10
120.036212
 20
88.469077
 30
0.0
 10
120.711993
 20
90.508956
 30
0.0
 10
121.387778
 20
92.732078
 30
0.0
 10
122.063556
 20
95.146325
 30
0.0
 10
123.077228
 20
99.143289
 30
0.0
 10
124.090904
 20
103.614613
 30
0.0
 10
125.104577
 20
108.586897
 30
0.0
 10
126.118249
 20
114.086740
 30
0.0
 10
127.131921
 20
120.140743
 30
0.0
 10
128.145590
 20
126.775497
 30
0.0
 10
128.682250
 20
130.540620
 30
0.0
 10
128.682250
 20
130.540620
 30
0.0
  0
LWPOLYLINE
  5
1fa
100
AcDbEntity
  8
Layer_1
 62
1
100
AcDbPolyline
 90
3
 70
1
 10
82.008140
 20
24.018159
 30
0.0
 10
80.258135
 20
20.518150
 30
0.0
 10
83.758145
 20
20.518150
 30
0.0
  0
LWPOLYLINE
  5
1fb
100
AcDbEntity
  8
Layer_1
 62
1
100
AcDbPolyline
 90
3
 70
1
 10
83.540939
 20
33.690098
 30
0.0
 10
81.790938
 20
30.190092
 30
0.0
 10
85.290944
 20
30.190092
 30
0.0
  0
LWPOLYLINE
  5
1fc
100
AcDbEntity
  8
Layer_1
 62
1
100
AcDbPolyline
 90
3
 70
1
 10
85.073735
 20
42.074488
 30
0.0
 10
83.323730
 20
38.574478
 30
0.0
 10
86.823736
 20
38.574478
 30
0.0
  0
LWPOLYLINE
  5
1fd
100
AcDbEntity
  8
Layer_1
 62
1
100
AcDbPolyline
 90
3
 70
1
 10
86.606527
 20
49.263302
 30
0.0
 10
84.856523
 20
45.763293
 30
0.0
 10
88.356532
 20
45.763293
 30
0.0
  0
LWPOLYLINE
  5
1fe
100
AcDbEntity
  8
Layer_1
 62
1
100
AcDbPolyline
 90
3
 70
1
 10
88.139323
 20
55.348497
 30
0.0
 10
86.389318
 20
51.848488
 30
0.0
 10
89.889324
 20
51.848488
 30
0.0
  0
LWPOLYLINE
  5
1ff
100
AcDbEntity
  8
Layer_1
 62
1
100
AcDbPolyline
 90
6
 70
1
 10
89.672122
 20
60.422048
 30
0.0
 10
87.922118
 20
56.922042
 30
0.0
 10
91.422123
 20
56.922042
 30
0.0
 10
89.672122
 20
60.422048
 30
0.0
 10
87.922118
 20
56.922042
 30
0.0
 10
91.422123
 20
56.922042
 30
0.0
  0
LWPOLYLINE
  5
200
100
AcDbEntity
  8
Layer_1
 62
1
100
AcDbPolyline
 90
3
 70
1
 10
92.226778
 20
66.879656
 30
0.0
 10
90.476777
 20
63.379651
 30
0.0
 10
93.976783
 20
63.379651
 30
0.0
  0
LWPOLYLINE
  5
201
100
AcDbEntity
  8
Layer_1
 62
1
100
AcDbPolyline
 90
3
 70
1
 10
94.781438
 20
71.208391
 30
0.0
 10
93.031433
 20
67.708385
 30
0.0
 10
96.531442
 20
67.708385
 30
0.0
  0
LWPOLYLINE
  5
202
100
AcDbEntity
  8
Layer_1
 62
1
100
AcDbPolyline
 90
6
 70
1
 10
97.336097
 20
73.834008
 30
0.0
 10
95.586093
 20
70.333999
 30
0.0
 10
99.086098
 20
70.333999
 30
0.0
 10
97.336097
 20
73.834008
 30
0.0
 10
95.586093
 20
70.333999
 30
0.0
 10
99.086098
 20
70.333999
 30
0.0
  0
LWPOLYLINE
  5
203
100
AcDbEntity
  8
Layer_1
 62
1
100
AcDbPolyline
 90
3
 70
1
 10
105.000072
 20
75.750005
 30
0.0
 10
103.250068
 20
72.249996
 30
0.0
 10
106.750073
 20
72.249996
 30
0.0
  0
LWPOLYLINE
  5
204
100
AcDbEntity
  8
Layer_1
 62
1
100
AcDbPolyline
 90
6
 70
1
 10
112.664051
 20
77.665999
 30
0.0
 10
110.914046
 20
74.165993
 30
0.0
 10
114.414056
 20
74.165993
 30
0.0
 10
112.664051
 20
77.665999
 30
0.0
 10
110.914046
 20
74.165993
 30
0.0
 10
114.414056
 20
74.165993
 30
0.0
  0
LWPOLYLINE
  5
205
100
AcDbEntity
  8
Layer_1
 62
1
100
AcDbPolyline
 90
3
 70
1
 10
115.218710
 20
80.291623
 30
0.0
 10
113.468706
 20
76.791614
 30
0.0
 10
116.968715
 20
76.791614
 30
0.0
  0
LWPOLYLINE
  5
206
100
AcDbEntity
  8
Layer_1
 62
1
100
AcDbPolyline
 90
3
 70
1
 10
117.773370
 20
84.620350
 30
0.0
 10
116.023365
 20
81.120341
 30
0.0
 10
119.523371
 20
81.120341
 30
0.0
  0
LWPOLYLINE
  5
207
100
AcDbEntity
  8
Layer_1
 62
1
100
AcDbPolyline
 90
6
 70
1
 10
120.328026
 20
91.077959
 30
0.0
 10
118.578021
 20
87.577953
 30
0.0
 10
122.078031
 20
87.577953
 30
0.0
 10
120.328026
 20
91.077959
 30
0.0
 10
118.578021
 20
87.577953
 30
0.0
 10
122.078031
 20
87.577953
 30
0.0
  0
LWPOLYLINE
  5
208
100
AcDbEntity
  8
Layer_1
 62
1
100
AcDbPolyline
 90
3
 70
1
 10
121.860825
 20
96.151511
 30
0.0
 10
120.110824
 20
92.651504
 30
0.0
 10
123.610830
 20
92.651504
 30
0.0
  0
LWPOLYLINE
  5
209
100
AcDbEntity
  8
Layer_1
 62
1
100
AcDbPolyline
 90
3
 70
1
 10
123.393614
 20
102.236708
 30
0.0
 10
121.643609
 20
98.736701
 30
0.0
 10
125.143619
 20
98.736701
 30
0.0
  0
LWPOLYLINE
  5
20a
100
AcDbEntity
  8
Layer_1
 62
1
100
AcDbPolyline
 90
3
 70
1
 10
124.926413
 20
109.425520
 30
0.0
 10
123.176408
 20
105.925512
 30
0.0
 10
126.676418
 20
105.925512
 30
0.0
  0
LWPOLYLINE
  5
20b
100
AcDbEntity
  8
Layer_1
 62
1
100
AcDbPolyline
 90
3
 70
1
 10
126.459212
 20
117.809910
 30
0.0
 10
124.709211
 20
114.309903
 30
0.0
 10
128.209217
 20
114.309903
 30
0.0
  0
LWPOLYLINE
  5
20c
100
AcDbEntity
  8
Layer_1
 62
1
100
AcDbPolyline
 90
3
 70
1
 10
127.992001
 20
127.481850
 30
0.0
 10
126.241996
 20
123.981842
 30
0.0
 10
129.742006
 20
123.981842
 30
0.0
  0
LWPOLYLINE
  5
20d
100
AcDbEntity
  8
Layer_1
 62
7
100
AcDbPolyline
 90
2
 70
0
 10
20.696326
 20
74.000001
 30
0.0
 10
189.303823
 20
74.000001
 30
0.0
  0
LWPOLYLINE
  5
20e
100
AcDbEntity
  8
Layer_1
 62
7
100
AcDbPolyline
 90
2
 70
0
 10
105.000072
 20
20.352161
 30
0.0
 10
105.000072
 20
127.647840
 30
0.0
  0
LWPOLYLINE
  5
20f
100
AcDbEntity
  8
Layer_1
 62
7
100
AcDbPolyline
 90
2
 70
0
 10
111.131255
 20
20.352161
 30
0.0
 10
98.868893
 20
20.352161
 30
0.0
  0
LWPOLYLINE
  5
210
100
AcDbEntity
  8
Layer_1
 62
7
100
AcDbPolyline
 90
2
 70
0
 10
111.131255
 20
28.016136
 30
0.0
 10
98.868893
 20
28.016136
 30
0.0
  0
LWPOLYLINE
  5
211
100
AcDbEntity
  8
Layer_1
 62
7
100
AcDbPolyline
 90
2
 70
0
 10
111.131255
 20
35.680115
 30
0.0
 10
98.868893
 20
35.680115
 30
0.0
  0
LWPOLYLINE
  5
212
100
AcDbEntity
  8
Layer_1
 62
7
100
AcDbPolyline
 90
2
 70
0
 10
111.131255
 20
43.344093
 30
0.0
 10
98.868893
 20
43.344093
 30
0.0
  0
LWPOLYLINE
  5
213
100
AcDbEntity
  8
Layer_1
 62
7
100
AcDbPolyline
 90
2
 70
0
 10
111.131255
 20
51.008068
 30
0.0
 10
98.868893
 20
51.008068
 30
0.0
  0
LWPOLYLINE
  5
214
100
AcDbEntity
  8
Layer_1
 62
7
100
AcDbPolyline
 90
2
 70
0
 10
111.131255
 20
58.672047
 30
0.0
 10
98.868893
 20
58.672047
 30
0.0
  0
LWPOLYLINE
  5
215
100
AcDbEntity
  8
Layer_1
 62
7
100
AcDbPolyline
 90
2
 70
0
 10
111.131255
 20
66.336022
 30
0.0
 10
98.868893
 20
66.336022
 30
0.0
  0
LWPOLYLINE
  5
216
100
AcDbEntity
  8
Layer_1
 62
7
100
AcDbPolyline
 90
2
 70
0
 10
111.131255
 20
74.000001
 30
0.0
 10
98.868893
 20
74.000001
 30
0.0
  0
LWPOLYLINE
  5
217
100
AcDbEntity
  8
Layer_1
 62
7
100
AcDbPolyline
 90
2
 70
0
 10
111.131255
 20
81.663979
 30
0.0
 10
98.868893
 20
81.663979
 30
0.0
  0
LWPOLYLINE
  5
218
100
AcDbEntity
  8
Layer_1
 62
7
100
AcDbPolyline
 90
2
 70
0
 10
111.131255
 20
89.327954
 30
0.0
 10
98.868893
 20
89.327954
 30
0.0
  0
LWPOLYLINE
  5
219
100
AcDbEntity
  8
Layer_1
 62
7
100
AcDbPolyline
 90
2
 70
0
 10
111.131255
 20
96.991932
 30
0.0
 10
98.868893
 20
96.991932
 30
0.0
  0
LWPOLYLINE
  5
21a
100
AcDbEntity
  8
Layer_1
 62
7
100
AcDbPolyline
 90
2
 70
0
 10
111.131255
 20
104.655909
 30
0.0
 10
98.868893
 20
104.655909
 30
0.0
  0
LWPOLYLINE
  5
21b
100
AcDbEntity
  8
Layer_1
 62
7
100
AcDbPolyline
 90
2
 70
0
 10
111.131255
 20
112.319886
 30
0.0
 10
98.868893
 20
112.319886
 30
0.0
  0
LWPOLYLINE
  5
21c
100
AcDbEntity
  8
Layer_1
 62
7
100
AcDbPolyline
 90
2
 70
0
 10
111.131255
 20
119.983863
 30
0.0
 10
98.868893
 20
119.983863
 30
0.0
  0
LWPOLYLINE
  5
21d
100
AcDbEntity
  8
Layer_1
 62
7
100
AcDbPolyline
 90
2
 70
0
 10
111.131255
 20
127.647840
 30
0.0
 10
98.868893
 20
127.647840
 30
0.0
  0
LWPOLYLINE
  5
21e
100
AcDbEntity
  8
Layer_1
 62
7
100
AcDbPolyline
 90
2
 70
0
 10
20.696326
 20
80.131183
 30
0.0
 10
20.696326
 20
67.868818
 30
0.0
  0
LWPOLYLINE
  5
21f
100
AcDbEntity
  8
Layer_1
 62
7
100
AcDbPolyline
 90
2
 70
0
 10
28.360303
 20
80.131183
 30
0.0
 10
28.360303
 20
67.868818
 30
0.0
  0
LWPOLYLINE
  5
220
100
AcDbEntity
  8
Layer_1
 62
7
100
AcDbPolyline
 90
2
 70
0
 10
36.024280
 20
80.131183
 30
0.0
 10
36.024280
 20
67.868818
 30
0.0
  0
LWPOLYLINE
  5
221
100
AcDbEntity
  8
Layer_1
 62
7
100
AcDbPolyline
 90
2
 70
0
 10
43.688257
 20
80.131183
 30
0.0
 10
43.688257
 20
67.868818
 30
0.0
  0
LWPOLYLINE
  5
222
100
AcDbEntity
  8
Layer_1
 62
7
100
AcDbPolyline
 90
2
 70
0
 10
51.352234
 20
80.131183
 30
0.0
 10
51.352234
 20
67.868818
 30
0.0
  0
LWPOLYLINE
  5
223
100
AcDbEntity
  8
Layer_1
 62
7
100
AcDbPolyline
 90
2
 70
0
 10
59.016211
 20
80.131183
 30
0.0
 10
59.016211
 20
67.868818
 30
0.0
  0
LWPOLYLINE
  5
224
100
AcDbEntity
  8
Layer_1
 62
7
100
AcDbPolyline
 90
2
 70
0
 10
66.680186
 20
80.131183
 30
0.0
 10
66.680186
 20
67.868818
 30
0.0
  0
LWPOLYLINE
  5
225
100
AcDbEntity
  8
Layer_1
 62
7
100
AcDbPolyline
 90
2
 70
0
 10
74.344165
 20
80.131183
 30
0.0
 10
74.344165
 20
67.868818
 30
0.0
  0
LWPOLYLINE
  5
226
100
AcDbEntity
  8
Layer_1
 62
7
100
AcDbPolyline
 90
2
 70
0
 10
82.008144
 20
80.131183
 30
0.0
 10
82.008144
 20
67.868818
 30
0.0
  0
LWPOLYLINE
  5
227
100
AcDbEntity
  8
Layer_1
 62
7
100
AcDbPolyline
 90
2
 70
0
 10
89.672119
 20
80.131183
 30
0.0
 10
89.672119
 20
67.868818
 30
0.0
  0
LWPOLYLINE
  5
228
100
AcDbEntity
  8
Layer_1
 62
7
100
AcDbPolyline
 90
2
 70
0
 10
97.336097
 20
80.131183
 30
0.0
 10
97.336097
 20
67.868818
 30
0.0
  0
LWPOLYLINE
  5
229
100
AcDbEntity
  8
Layer_1
 62
7
100
AcDbPolyline
 90
2
 70
0
 10
105.000072
 20
80.131183
 30
0.0
 10
105.000072
 20
67.868818
 30
0.0
  0
LWPOLYLINE
  5
22a
100
AcDbEntity
  8
Layer_1
 62
7
100
AcDbPolyline
 90
2
 70
0
 10
112.664051
 20
80.131183
 30
0.0
 10
112.664051
 20
67.868818
 30
0.0
  0
LWPOLYLINE
  5
22b
100
AcDbEntity
  8
Layer_1
 62
7
100
AcDbPolyline
 90
2
 70
0
 10
120.328029
 20
80.131183
 30
0.0
 10
120.328029
 20
67.868818
 30
0.0
  0
LWPOLYLINE
  5
22c
100
AcDbEntity
  8
Layer_1
 62
7
100
AcDbPolyline
 90
2
 70
0
 10
127.992005
 20
80.131183
 30
0.0
 10
127.992005
 20
67.868818
 30
0.0
  0
LWPOLYLINE
  5
22d
100
AcDbEntity
  8
Layer_1
 62
7
100
AcDbPolyline
 90
2
 70
0
 10
135.655983
 20
80.131183
 30
0.0
 10
135.655983
 20
67.868818
 30
0.0
  0
LWPOLYLINE
  5
22e
100
AcDbEntity
  8
Layer_1
 62
7
100
AcDbPolyline
 90
2
 70
0
 10
143.319958
 20
80.131183
 30
0.0
 10
143.319958
 20
67.868818
 30
0.0
  0
LWPOLYLINE
  5
22f
100
AcDbEntity
  8
Layer_1
 62
7
100
AcDbPolyline
 90
2
 70
0
 10
150.983937
 20
80.131183
 30
0.0
 10
150.983937
 20
67.868818
 30
0.0
  0
LWPOLYLINE
  5
230
100
AcDbEntity
  8
Layer_1
 62
7
100
AcDbPolyline
 90
2
 70
0
 10
158.647912
 20
80.131183
 30
0.0
 10
158.647912
 20
67.868818
 30
0.0
  0
LWPOLYLINE
  5
231
100
AcDbEntity
  8
Layer_1
 62
7
100
AcDbPolyline
 90
2
 70
0
 10
166.311890
 20
80.131183
 30
0.0
 10
166.311890
 20
67.868818
 30
0.0
  0
LWPOLYLINE
  5
232
100
AcDbEntity
  8
Layer_1
 62
7
100
AcDbPolyline
 90
2
 70
0
 10
173.975869
 20
80.131183
 30
0.0
 10
173.975869
 20
67.868818
 30
0.0
  0
LWPOLYLINE
  5
233
100
AcDbEntity
  8
Layer_1
 62
7
100
AcDbPolyline
 90
2
 70
0
 10
181.639844
 20
80.131183
 30
0.0
 10
181.639844
 20
67.868818
 30
0.0
  0
LWPOLYLINE
  5
234
100
AcDbEntity
  8
Layer_1
 62
7
100
AcDbPolyline
 90
2
 70
0
 10
189.303823
 20
80.131183
 30
0.0
 10
189.303823
 20
67.868818
 30
0.0
  0
LWPOLYLINE
  5
235
100
AcDbEntity
  8
Layer_1
 62
7
100
AcDbPolyline
 90
2
 70
0
 10
20.696326
 20
20.352161
 30
0.0
 10
20.696326
 20
127.647840
 30
0.0
  0
LWPOLYLINE
  5
236
100
AcDbEntity
  8
Layer_1
 62
7
100
AcDbPolyline
 90
2
 70
0
 10
189.303823
 20
20.352161
 30
0.0
 10
189.303823
 20
127.647840
 30
0.0
  0
LWPOLYLINE
  5
237
100
AcDbEntity
  8
Layer_1
 62
7
100
AcDbPolyline
 90
2
 70
0
 10
20.696326
 20
20.352161
 30
0.0
 10
189.303823
 20
20.352161
 30
0.0
  0
LWPOLYLINE
  5
238
100
AcDbEntity
  8
Layer_1
 62
7
100
AcDbPolyline
 90
2
 70
0
 10
20.696326
 20
127.647840
 30
0.0
 10
189.303823
 20
127.647840
 30
0.0
  0
ENDSEC
  0
SECTION
  2
OBJECTS
  0
DICTIONARY
  5
C
330
0
100
AcDbDictionary
  3
ACAD_GROUP
350
D
  3
ACAD_MLINESTYLE
350
17
  0
DICTIONARY
  5
D
330
C
100
AcDbDictionary
  0
DICTIONARY
  5
1A
330
C
100
AcDbDictionary
  0
DICTIONARY
  5
17
330
C
100
AcDbDictionary
  3
STANDARD
350
18
  0
DICTIONARY
  5
19
330
C
100
AcDbDictionary
  0
ENDSEC
  0
EOF
