  0
SECTION
  2
HEADER
  9
$ACADVER
  1
AC1014
  9
$HANDSEED
  5
FFFF
  9
$INSUNITS
 70
     4
  9
$MEASUREMENT
 70
     1
  0
ENDSEC
  0
SECTION
  2
TABLES
  0
TABLE
  2
VPORT
  5
8
330
0
100
AcDbSymbolTable
 70
     4
  0
VPORT
  5
2E
330
8
100
AcDbSymbolTableRecord
100
AcDbViewportTableRecord
  2
*ACTIVE
 70
     0
 10
0.0
 20
0.0
 11
1.0
 21
1.0
 12
210.0
 22
148.5
 13
0.0
 23
0.0
 14
10.0
 24
10.0
 15
10.0
 25
10.0
 16
0.0
 26
0.0
 36
1.0
 17
0.0
 27
0.0
 37
0.0
 40
341.0
 41
1.24
 42
50.0
 43
0.0
 44
0.0
 50
0.0
 51
0.0
 71
     0
 72
   100
 73
     1
 74
     3
 75
     0
 76
     0
 77
     0
 78
     0
  0
ENDTAB
  0
TABLE
  2
LTYPE
  5
5
330
0
100
AcDbSymbolTable
 70
     1
  0
LTYPE
  5
14
330
5
100
AcDbSymbolTableRecord
100
AcDbLinetypeTableRecord
  2
BYBLOCK
 70
     0
  3

 72
    65
 73
     0
 40
0.0
  0
LTYPE
  5
15
330
5
100
AcDbSymbolTableRecord
100
AcDbLinetypeTableRecord
  2
BYLAYER
 70
     0
  3

 72
    65
 73
     0
 40
0.0
  0
LTYPE
  5
16
330
5
100
AcDbSymbolTableRecord
100
AcDbLinetypeTableRecord
  2
CONTINUOUS
 70
     0
  3
Solid line
 72
    65
 73
     0
 40
0.0
  0
ENDTAB
  0
TABLE
  2
LAYER
  5
2
100
AcDbSymbolTable
 70
2
  0
LAYER
  5
50
100
AcDbSymbolTableRecord
100
AcDbLayerTableRecord
  2
0
 70
0
  6
CONTINUOUS
  0
LAYER
  5
51
100
AcDbSymbolTableRecord
100
AcDbLayerTableRecord
  2
Layer_1
 70
0
  6
CONTINUOUS
  0
ENDTAB
  0
TABLE
  2
STYLE
  5
3
330
0
100
AcDbSymbolTable
 70
     1
  0
STYLE
  5
11
330
3
100
AcDbSymbolTableRecord
100
AcDbTextStyleTableRecord
  2
STANDARD
 70
     0
 40
0.0
 41
1.0
 50
0.0
 71
     0
 42
2.5
  3
txt
  4

  0
ENDTAB
  0
TABLE
  2
VIEW
  5
6
330
0
100
AcDbSymbolTable
 70
     0
  0
ENDTAB
  0
TABLE
  2
UCS
  5
7
330
0
100
AcDbSymbolTable
 70
     0
  0
ENDTAB
  0
TABLE
  2
APPID
  5
9
330
0
100
AcDbSymbolTable
 70
     2
  0
APPID
  5
12
330
9
100
AcDbSymbolTableRecord
100
AcDbRegAppTableRecord
  2
ACAD
 70
     0
  0
ENDTAB
  0
TABLE
  2
DIMSTYLE
  5
A
330
0
100
AcDbSymbolTable
 70
     1
  0
DIMSTYLE
105
27
330
A
100
AcDbSymbolTableRecord
100
AcDbDimStyleTableRecord
  2
ISO-25
 70
     0
  3

  4

  5

  6

  7

 40
1.0
 41
2.5
 42
0.625
 43
3.75
 44
1.25
 45
0.0
 46
0.0
 47
0.0
 48
0.0
140
2.5
141
2.5
142
0.0
143
0.03937007874016
144
1.0
145
0.0
146
1.0
147
0.625
 71
     0
 72
     0
 73
     0
 74
     0
 75
     0
 76
     0
 77
     1
 78
     8
170
     0
171
     3
172
     1
173
     0
174
     0
175
     0
176
     0
177
     0
178
     0
270
     2
271
     2
272
     2
273
     2
274
     3
340
11
275
     0
280
     0
281
     0
282
     0
283
     0
284
     8
285
     0
286
     0
287
     3
288
     0
  0
ENDTAB
  0
TABLE
  2
BLOCK_RECORD
  5
1
330
0
100
AcDbSymbolTable
 70
     1
  0
BLOCK_RECORD
  5
1F
330
1
100
AcDbSymbolTableRecord
100
AcDbBlockTableRecord
  2
*MODEL_SPACE
  0
BLOCK_RECORD
  5
1B
330
1
100
AcDbSymbolTableRecord
100
AcDbBlockTableRecord
  2
*PAPER_SPACE
  0
ENDTAB
  0
ENDSEC
  0
SECTION
  2
BLOCKS
  0
BLOCK
  5
20
330
1F
100
AcDbEntity
  8
0
100
AcDbBlockBegin
  2
*MODEL_SPACE
 70
     0
 10
0.0
 20
0.0
 30
0.0
  3
*MODEL_SPACE
  1

  0
ENDBLK
  5
21
330
1F
100
AcDbEntity
  8
0
100
AcDbBlockEnd
  0
BLOCK
  5
1C
330
1B
100
AcDbEntity
 67
     1
  8
0
100
AcDbBlockBegin
  2
*PAPER_SPACE
  1

  0
ENDBLK
  5
1D
330
1B
100
AcDbEntity
 67
     1
  8
0
100
AcDbBlockEnd
  0
ENDSEC
  0
SECTION
  2
ENTITIES
  0
LWPOLYLINE
  5
100
100
AcDbEntity
  8
Layer_1
 62
7
100
AcDbPolyline
 90
4
 70
1
 10
0.149734
 20
147.850258
 30
0.0
 10
209.850264
 20
147.850258
 30
0.0
 10
209.850264
 20
0.149738
 30
0.0
 10
0.149734
 20
0.149738
 30
0.0
  0
LWPOLYLINE
  5
101
100
AcDbEntity
  8
Layer_1
 62
7
100
AcDbPolyline
 90
4
 70
1
 10
5.149726
 20
143.850273
 30
0.0
 10
204.850276
 20
143.850273
 30
0.0
 10
204.850276
 20
4.149723
 30
0.0
 10
5.149726
 20
4.149723
 30
0.0
  0
LWPOLYLINE
  5
102
100
AcDbEntity
  8
Layer_1
 62
7
100
AcDbPolyline
 90
2
 70
0
 10
8.276797
 20
74.000000
 30
0.0
 10
201.701194
 20
74.000000
 30
0.0
  0
LWPOLYLINE
  5
103
100
AcDbEntity
  8
Layer_1
 62
7
100
AcDbPolyline
 90
2
 70
0
 10
105.000004
 20
140.780870
 30
0.0
 10
105.000004
 20
7.219132
 30
0.0
  0
LWPOLYLINE
  5
104
100
AcDbEntity
  8
Layer_1
 62
7
100
AcDbPolyline
 90
3
 70
1
 10
110.000004
 20
140.572762
 30
0.0
 10
100.000004
 20
140.572762
 30
0.0
 10
105.000004
 20
143.850000
 30
0.0
  0
LWPOLYLINE
  5
105
100
AcDbEntity
  8
Layer_1
 62
7
100
AcDbPolyline
 90
3
 70
1
 10
110.000004
 20
7.398102
 30
0.0
 10
100.000004
 20
7.398102
 30
0.0
 10
105.000004
 20
4.120872
 30
0.0
  0
LWPOLYLINE
  5
106
100
AcDbEntity
  8
Layer_1
 62
7
100
AcDbPolyline
 90
3
 70
1
 10
201.563024
 20
79.000000
 30
0.0
 10
201.563024
 20
69.000000
 30
0.0
 10
204.840254
 20
74.000000
 30
0.0
  0
LWPOLYLINE
  5
107
100
AcDbEntity
  8
Layer_1
 62
7
100
AcDbPolyline
 90
3
 70
1
 10
8.437810
 20
69.000000
 30
0.0
 10
8.437810
 20
79.000000
 30
0.0
 10
5.160580
 20
74.000000
 30
0.0
  0
LWPOLYLINE
  5
108
100
AcDbEntity
  8
Layer_1
 62
7
100
AcDbPolyline
 90
4
 70
1
 10
18.156324
 20
17.812159
 30
0.0
 10
191.843824
 20
17.812159
 30
0.0
 10
191.843824
 20
130.187842
 30
0.0
 10
18.156324
 20
130.187842
 30
0.0
  0
LWPOLYLINE
  5
109
100
AcDbEntity
  8
Layer_1
 62
7
100
AcDbPolyline
 90
4
 70
1
 10
20.696326
 20
20.352161
 30
0.0
 10
189.303823
 20
20.352161
 30
0.0
 10
189.303823
 20
127.647840
 30
0.0
 10
20.696326
 20
127.647840
 30
0.0
  0
LWPOLYLINE
  5
10a
100
AcDbEntity
  8
Layer_1
 62
1
100
AcDbPolyline
 90
2
 70
0
 10
20.696326
 20
20.352161
 30
0.0
 10
20.696326
 20
127.647840
 30
0.0
  0
LWPOLYLINE
  5
10b
100
AcDbEntity
  8
Layer_1
 62
1
100
AcDbPolyline
 90
2
 70
0
 10
28.360303
 20
20.352161
 30
0.0
 10
28.360303
 20
127.647840
 30
0.0
  0
LWPOLYLINE
  5
10c
100
AcDbEntity
  8
Layer_1
 62
1
100
AcDbPolyline
 90
2
 70
0
 10
36.024280
 20
20.352161
 30
0.0
 10
36.024280
 20
127.647840
 30
0.0
  0
LWPOLYLINE
  5
10d
100
AcDbEntity
  8
Layer_1
 62
1
100
AcDbPolyline
 90
2
 70
0
 10
43.688257
 20
20.352161
 30
0.0
 10
43.688257
 20
127.647840
 30
0.0
  0
LWPOLYLINE
  5
10e
100
AcDbEntity
  8
Layer_1
 62
1
100
AcDbPolyline
 90
2
 70
0
 10
51.352234
 20
20.352161
 30
0.0
 10
51.352234
 20
127.647840
 30
0.0
  0
LWPOLYLINE
  5
10f
100
AcDbEntity
  8
Layer_1
 62
1
100
AcDbPolyline
 90
2
 70
0
 10
59.016211
 20
20.352161
 30
0.0
 10
59.016211
 20
127.647840
 30
0.0
  0
LWPOLYLINE
  5
110
100
AcDbEntity
  8
Layer_1
 62
1
100
AcDbPolyline
 90
2
 70
0
 10
66.680186
 20
20.352161
 30
0.0
 10
66.680186
 20
127.647840
 30
0.0
  0
LWPOLYLINE
  5
111
100
AcDbEntity
  8
Layer_1
 62
1
100
AcDbPolyline
 90
2
 70
0
 10
74.344165
 20
20.352161
 30
0.0
 10
74.344165
 20
127.647840
 30
0.0
  0
LWPOLYLINE
  5
112
100
AcDbEntity
  8
Layer_1
 62
1
100
AcDbPolyline
 90
2
 70
0
 10
82.008144
 20
20.352161
 30
0.0
 10
82.008144
 20
127.647840
 30
0.0
  0
LWPOLYLINE
  5
113
100
AcDbEntity
  8
Layer_1
 62
1
100
AcDbPolyline
 90
2
 70
0
 10
89.672119
 20
20.352161
 30
0.0
 10
89.672119
 20
127.647840
 30
0.0
  0
LWPOLYLINE
  5
114
100
AcDbEntity
  8
Layer_1
 62
1
100
AcDbPolyline
 90
2
 70
0
 10
97.336097
 20
20.352161
 30
0.0
 10
97.336097
 20
127.647840
 30
0.0
  0
LWPOLYLINE
  5
115
100
AcDbEntity
  8
Layer_1
 62
1
100
AcDbPolyline
 90
2
 70
0
 10
105.000072
 20
20.352161
 30
0.0
 10
105.000072
 20
127.647840
 30
0.0
  0
LWPOLYLINE
  5
116
100
AcDbEntity
  8
Layer_1
 62
1
100
AcDbPolyline
 90
2
 70
0
 10
112.664051
 20
20.352161
 30
0.0
 10
112.664051
 20
127.647840
 30
0.0
  0
LWPOLYLINE
  5
117
100
AcDbEntity
  8
Layer_1
 62
1
100
AcDbPolyline
 90
2
 70
0
 10
120.328029
 20
20.352161
 30
0.0
 10
120.328029
 20
127.647840
 30
0.0
  0
LWPOLYLINE
  5
118
100
AcDbEntity
  8
Layer_1
 62
1
100
AcDbPolyline
 90
2
 70
0
 10
127.992005
 20
20.352161
 30
0.0
 10
127.992005
 20
127.647840
 30
0.0
  0
LWPOLYLINE
  5
119
100
AcDbEntity
  8
Layer_1
 62
1
100
AcDbPolyline
 90
2
 70
0
 10
135.655983
 20
20.352161
 30
0.0
 10
135.655983
 20
127.647840
 30
0.0
  0
LWPOLYLINE
  5
11a
100
AcDbEntity
  8
Layer_1
 62
1
100
AcDbPolyline
 90
2
 70
0
 10
143.319958
 20
20.352161
 30
0.0
 10
143.319958
 20
127.647840
 30
0.0
  0
LWPOLYLINE
  5
11b
100
AcDbEntity
  8
Layer_1
 62
1
100
AcDbPolyline
 90
2
 70
0
 10
150.983937
 20
20.352161
 30
0.0
 10
150.983937
 20
127.647840
 30
0.0
  0
LWPOLYLINE
  5
11c
100
AcDbEntity
  8
Layer_1
 62
1
100
AcDbPolyline
 90
2
 70
0
 10
158.647912
 20
20.352161
 30
0.0
 10
158.647912
 20
127.647840
 30
0.0
  0
LWPOLYLINE
  5
11d
100
AcDbEntity
  8
Layer_1
 62
1
100
AcDbPolyline
 90
2
 70
0
 10
166.311890
 20
20.352161
 30
0.0
 10
166.311890
 20
127.647840
 30
0.0
  0
LWPOLYLINE
  5
11e
100
AcDbEntity
  8
Layer_1
 62
1
100
AcDbPolyline
 90
2
 70
0
 10
173.975869
 20
20.352161
 30
0.0
 10
173.975869
 20
127.647840
 30
0.0
  0
LWPOLYLINE
  5
11f
100
AcDbEntity
  8
Layer_1
 62
1
100
AcDbPolyline
 90
2
 70
0
 10
181.639844
 20
20.352161
 30
0.0
 10
181.639844
 20
127.647840
 30
0.0
  0
LWPOLYLINE
  5
120
100
AcDbEntity
  8
Layer_1
 62
1
100
AcDbPolyline
 90
2
 70
0
 10
189.303823
 20
20.352161
 30
0.0
 10
189.303823
 20
127.647840
 30
0.0
  0
LWPOLYLINE
  5
121
100
AcDbEntity
  8
Layer_1
 62
1
100
AcDbPolyline
 90
2
 70
0
 10
20.696326
 20
20.352161
 30
0.0
 10
189.303823
 20
20.352161
 30
0.0
  0
LWPOLYLINE
  5
122
100
AcDbEntity
  8
Layer_1
 62
1
100
AcDbPolyline
 90
2
 70
0
 10
20.696326
 20
28.016136
 30
0.0
 10
189.303823
 20
28.016136
 30
0.0
  0
LWPOLYLINE
  5
123
100
AcDbEntity
  8
Layer_1
 62
1
100
AcDbPolyline
 90
2
 70
0
 10
20.696326
 20
35.680115
 30
0.0
 10
189.303823
 20
35.680115
 30
0.0
  0
LWPOLYLINE
  5
124
100
AcDbEntity
  8
Layer_1
 62
1
100
AcDbPolyline
 90
2
 70
0
 10
20.696326
 20
43.344093
 30
0.0
 10
189.303823
 20
43.344093
 30
0.0
  0
LWPOLYLINE
  5
125
100
AcDbEntity
  8
Layer_1
 62
1
100
AcDbPolyline
 90
2
 70
0
 10
20.696326
 20
51.008068
 30
0.0
 10
189.303823
 20
51.008068
 30
0.0
  0
LWPOLYLINE
  5
126
100
AcDbEntity
  8
Layer_1
 62
1
100
AcDbPolyline
 90
2
 70
0
 10
20.696326
 20
58.672047
 30
0.0
 10
189.303823
 20
58.672047
 30
0.0
  0
LWPOLYLINE
  5
127
100
AcDbEntity
  8
Layer_1
 62
1
100
AcDbPolyline
 90
2
 70
0
 10
20.696326
 20
66.336022
 30
0.0
 10
189.303823
 20
66.336022
 30
0.0
  0
LWPOLYLINE
  5
128
100
AcDbEntity
  8
Layer_1
 62
1
100
AcDbPolyline
 90
2
 70
0
 10
20.696326
 20
74.000001
 30
0.0
 10
189.303823
 20
74.000001
 30
0.0
  0
LWPOLYLINE
  5
129
100
AcDbEntity
  8
Layer_1
 62
1
100
AcDbPolyline
 90
2
 70
0
 10
20.696326
 20
81.663979
 30
0.0
 10
189.303823
 20
81.663979
 30
0.0
  0
LWPOLYLINE
  5
12a
100
AcDbEntity
  8
Layer_1
 62
1
100
AcDbPolyline
 90
2
 70
0
 10
20.696326
 20
89.327954
 30
0.0
 10
189.303823
 20
89.327954
 30
0.0
  0
LWPOLYLINE
  5
12b
100
AcDbEntity
  8
Layer_1
 62
1
100
AcDbPolyline
 90
2
 70
0
 10
20.696326
 20
96.991932
 30
0.0
 10
189.303823
 20
96.991932
 30
0.0
  0
LWPOLYLINE
  5
12c
100
AcDbEntity
  8
Layer_1
 62
1
100
AcDbPolyline
 90
2
 70
0
 10
20.696326
 20
104.655909
 30
0.0
 10
189.303823
 20
104.655909
 30
0.0
  0
LWPOLYLINE
  5
12d
100
AcDbEntity
  8
Layer_1
 62
1
100
AcDbPolyline
 90
2
 70
0
 10
20.696326
 20
112.319886
 30
0.0
 10
189.303823
 20
112.319886
 30
0.0
  0
LWPOLYLINE
  5
12e
100
AcDbEntity
  8
Layer_1
 62
1
100
AcDbPolyline
 90
2
 70
0
 10
20.696326
 20
119.983863
 30
0.0
 10
189.303823
 20
119.983863
 30
0.0
  0
LWPOLYLINE
  5
12f
100
AcDbEntity
  8
Layer_1
 62
1
100
AcDbPolyline
 90
2
 70
0
 10
20.696326
 20
127.647840
 30
0.0
 10
189.303823
 20
127.647840
 30
0.0
  0
SPLINE
  5
130
100
AcDbEntity
  8
Layer_1
 62
1
100
AcDbSpline
 70
8
 71
3
 72
8
 73
4
 74
0
 40
0
 40
0
 40
0
 40
0
 40
1
 40
1
 40
1
 40
1
 10
51.352233
 20
18.852160
 30
0.0
 10
51.750038
 20
18.852160
 30
0.0
 10
52.131604
 20
19.010211
 30
0.0
 10
52.412895
 20
19.291502
 30
0.0
  0
SPLINE
  5
131
100
AcDbEntity
  8
Layer_1
 62
1
100
AcDbSpline
 70
8
 71
3
 72
8
 73
4
 74
0
 40
0
 40
0
 40
0
 40
0
 40
1
 40
1
 40
1
 40
1
 10
52.412895
 20
19.291502
 30
0.0
 10
52.694186
 20
19.572793
 30
0.0
 10
52.852236
 20
19.954358
 30
0.0
 10
52.852236
 20
20.352165
 30
0.0
  0
SPLINE
  5
132
100
AcDbEntity
  8
Layer_1
 62
1
100
AcDbSpline
 70
8
 71
3
 72
8
 73
4
 74
0
 40
0
 40
0
 40
0
 40
0
 40
1
 40
1
 40
1
 40
1
 10
52.852236
 20
20.352165
 30
0.0
 10
52.852236
 20
20.749971
 30
0.0
 10
52.694186
 20
21.131536
 30
0.0
 10
52.412895
 20
21.412827
 30
0.0
  0
SPLINE
  5
133
100
AcDbEntity
  8
Layer_1
 62
1
100
AcDbSpline
 70
8
 71
3
 72
8
 73
4
 74
0
 40
0
 40
0
 40
0
 40
0
 40
1
 40
1
 40
1
 40
1
 10
52.412895
 20
21.412827
 30
0.0
 10
52.131604
 20
21.694118
 30
0.0
 10
51.750038
 20
21.852166
 30
0.0
 10
51.352233
 20
21.852166
 30
0.0
  0
SPLINE
  5
134
100
AcDbEntity
  8
Layer_1
 62
1
100
AcDbSpline
 70
8
 71
3
 72
8
 73
4
 74
0
 40
0
 40
0
 40
0
 40
0
 40
1
 40
1
 40
1
 40
1
 10
51.352233
 20
21.852166
 30
0.0
 10
50.954427
 20
21.852166
 30
0.0
 10
50.572861
 20
21.694118
 30
0.0
 10
50.291570
 20
21.412827
 30
0.0
  0
SPLINE
  5
135
100
AcDbEntity
  8
Layer_1
 62
1
100
AcDbSpline
 70
8
 71
3
 72
8
 73
4
 74
0
 40
0
 40
0
 40
0
 40
0
 40
1
 40
1
 40
1
 40
1
 10
50.291570
 20
21.412827
 30
0.0
 10
50.010279
 20
21.131536
 30
0.0
 10
49.852229
 20
20.749971
 30
0.0
 10
49.852229
 20
20.352165
 30
0.0
  0
SPLINE
  5
136
100
AcDbEntity
  8
Layer_1
 62
1
100
AcDbSpline
 70
8
 71
3
 72
8
 73
4
 74
0
 40
0
 40
0
 40
0
 40
0
 40
1
 40
1
 40
1
 40
1
 10
49.852229
 20
20.352165
 30
0.0
 10
49.852229
 20
19.954358
 30
0.0
 10
50.010279
 20
19.572793
 30
0.0
 10
50.291570
 20
19.291502
 30
0.0
  0
SPLINE
  5
137
100
AcDbEntity
  8
Layer_1
 62
1
100
AcDbSpline
 70
8
 71
3
 72
8
 73
4
 74
0
 40
0
 40
0
 40
0
 40
0
 40
1
 40
1
 40
1
 40
1
 10
50.291570
 20
19.291502
 30
0.0
 10
50.572861
 20
19.010211
 30
0.0
 10
50.954427
 20
18.852160
 30
0.0
 10
51.352233
 20
18.852160
 30
0.0
  0
LWPOLYLINE
  5
138
100
AcDbEntity
  8
Layer_1
 62
4
100
AcDbPolyline
 90
3
 70
0
 10
48.459454
 20
17.459381
 30
0.0
 10
161.540691
 20
130.540620
 30
0.0
 10
161.540691
 20
130.540620
 30
0.0
  0
SPLINE
  5
139
100
AcDbEntity
  8
Layer_1
 62
1
100
AcDbSpline
 70
8
 71
3
 72
8
 73
4
 74
0
 40
0
 40
0
 40
0
 40
0
 40
1
 40
1
 40
1
 40
1
 10
56.717016
 20
24.216943
 30
0.0
 10
57.114823
 20
24.216943
 30
0.0
 10
57.496387
 20
24.374991
 30
0.0
 10
57.777678
 20
24.656282
 30
0.0
  0
SPLINE
  5
13a
100
AcDbEntity
  8
Layer_1
 62
1
100
AcDbSpline
 70
8
 71
3
 72
8
 73
4
 74
0
 40
0
 40
0
 40
0
 40
0
 40
1
 40
1
 40
1
 40
1
 10
57.777678
 20
24.656282
 30
0.0
 10
58.058969
 20
24.937573
 30
0.0
 10
58.217021
 20
25.319141
 30
0.0
 10
58.217021
 20
25.716944
 30
0.0
  0
SPLINE
  5
13b
100
AcDbEntity
  8
Layer_1
 62
1
100
AcDbSpline
 70
8
 71
3
 72
8
 73
4
 74
0
 40
0
 40
0
 40
0
 40
0
 40
1
 40
1
 40
1
 40
1
 10
58.217021
 20
25.716944
 30
0.0
 10
58.217021
 20
26.114751
 30
0.0
 10
58.058969
 20
26.496316
 30
0.0
 10
57.777678
 20
26.777607
 30
0.0
  0
SPLINE
  5
13c
100
AcDbEntity
  8
Layer_1
 62
1
100
AcDbSpline
 70
8
 71
3
 72
8
 73
4
 74
0
 40
0
 40
0
 40
0
 40
0
 40
1
 40
1
 40
1
 40
1
 10
57.777678
 20
26.777607
 30
0.0
 10
57.496387
 20
27.058898
 30
0.0
 10
57.114823
 20
27.216949
 30
0.0
 10
56.717016
 20
27.216949
 30
0.0
  0
SPLINE
  5
13d
100
AcDbEntity
  8
Layer_1
 62
1
100
AcDbSpline
 70
8
 71
3
 72
8
 73
4
 74
0
 40
0
 40
0
 40
0
 40
0
 40
1
 40
1
 40
1
 40
1
 10
56.717016
 20
27.216949
 30
0.0
 10
56.319210
 20
27.216949
 30
0.0
 10
55.937645
 20
27.058898
 30
0.0
 10
55.656354
 20
26.777607
 30
0.0
  0
SPLINE
  5
13e
100
AcDbEntity
  8
Layer_1
 62
1
100
AcDbSpline
 70
8
 71
3
 72
8
 73
4
 74
0
 40
0
 40
0
 40
0
 40
0
 40
1
 40
1
 40
1
 40
1
 10
55.656354
 20
26.777607
 30
0.0
 10
55.375063
 20
26.496316
 30
0.0
 10
55.217015
 20
26.114751
 30
0.0
 10
55.217015
 20
25.716944
 30
0.0
  0
SPLINE
  5
13f
100
AcDbEntity
  8
Layer_1
 62
1
100
AcDbSpline
 70
8
 71
3
 72
8
 73
4
 74
0
 40
0
 40
0
 40
0
 40
0
 40
1
 40
1
 40
1
 40
1
 10
55.217015
 20
25.716944
 30
0.0
 10
55.217015
 20
25.319141
 30
0.0
 10
55.375063
 20
24.937573
 30
0.0
 10
55.656354
 20
24.656282
 30
0.0
  0
SPLINE
  5
140
100
AcDbEntity
  8
Layer_1
 62
1
100
AcDbSpline
 70
8
 71
3
 72
8
 73
4
 74
0
 40
0
 40
0
 40
0
 40
0
 40
1
 40
1
 40
1
 40
1
 10
55.656354
 20
24.656282
 30
0.0
 10
55.937645
 20
24.374991
 30
0.0
 10
56.319210
 20
24.216943
 30
0.0
 10
56.717016
 20
24.216943
 30
0.0
  0
LWPOLYLINE
  5
141
100
AcDbEntity
  8
Layer_1
 62
1
100
AcDbPolyline
 90
1
 70
1
 10
51.352233
 20
18.852160
 30
0.0
  0
SPLINE
  5
142
100
AcDbEntity
  8
Layer_1
 62
1
100
AcDbSpline
 70
8
 71
3
 72
8
 73
4
 74
0
 40
0
 40
0
 40
0
 40
0
 40
1
 40
1
 40
1
 40
1
 10
62.081799
 20
29.581723
 30
0.0
 10
62.479602
 20
29.581723
 30
0.0
 10
62.861171
 20
29.739774
 30
0.0
 10
63.142462
 20
30.021065
 30
0.0
  0
SPLINE
  5
143
100
AcDbEntity
  8
Layer_1
 62
1
100
AcDbSpline
 70
8
 71
3
 72
8
 73
4
 74
0
 40
0
 40
0
 40
0
 40
0
 40
1
 40
1
 40
1
 40
1
 10
63.142462
 20
30.021065
 30
0.0
 10
63.423753
 20
30.302356
 30
0.0
 10
63.581801
 20
30.683921
 30
0.0
 10
63.581801
 20
31.081728
 30
0.0
  0
SPLINE
  5
144
100
AcDbEntity
  8
Layer_1
 62
1
100
AcDbSpline
 70
8
 71
3
 72
8
 73
4
 74
0
 40
0
 40
0
 40
0
 40
0
 40
1
 40
1
 40
1
 40
1
 10
63.581801
 20
31.081728
 30
0.0
 10
63.581801
 20
31.479534
 30
0.0
 10
63.423753
 20
31.861099
 30
0.0
 10
63.142462
 20
32.142390
 30
0.0
  0
SPLINE
  5
145
100
AcDbEntity
  8
Layer_1
 62
1
100
AcDbSpline
 70
8
 71
3
 72
8
 73
4
 74
0
 40
0
 40
0
 40
0
 40
0
 40
1
 40
1
 40
1
 40
1
 10
63.142462
 20
32.142390
 30
0.0
 10
62.861171
 20
32.423681
 30
0.0
 10
62.479602
 20
32.581729
 30
0.0
 10
62.081799
 20
32.581729
 30
0.0
  0
SPLINE
  5
146
100
AcDbEntity
  8
Layer_1
 62
1
100
AcDbSpline
 70
8
 71
3
 72
8
 73
4
 74
0
 40
0
 40
0
 40
0
 40
0
 40
1
 40
1
 40
1
 40
1
 10
62.081799
 20
32.581729
 30
0.0
 10
61.683993
 20
32.581729
 30
0.0
 10
61.302428
 20
32.423681
 30
0.0
 10
61.021137
 20
32.142390
 30
0.0
  0
SPLINE
  5
147
100
AcDbEntity
  8
Layer_1
 62
1
100
AcDbSpline
 70
8
 71
3
 72
8
 73
4
 74
0
 40
0
 40
0
 40
0
 40
0
 40
1
 40
1
 40
1
 40
1
 10
61.021137
 20
32.142390
 30
0.0
 10
60.739846
 20
31.861099
 30
0.0
 10
60.581794
 20
31.479534
 30
0.0
 10
60.581794
 20
31.081728
 30
0.0
  0
SPLINE
  5
148
100
AcDbEntity
  8
Layer_1
 62
1
100
AcDbSpline
 70
8
 71
3
 72
8
 73
4
 74
0
 40
0
 40
0
 40
0
 40
0
 40
1
 40
1
 40
1
 40
1
 10
60.581794
 20
31.081728
 30
0.0
 10
60.581794
 20
30.683921
 30
0.0
 10
60.739846
 20
30.302356
 30
0.0
 10
61.021137
 20
30.021065
 30
0.0
  0
SPLINE
  5
149
100
AcDbEntity
  8
Layer_1
 62
1
100
AcDbSpline
 70
8
 71
3
 72
8
 73
4
 74
0
 40
0
 40
0
 40
0
 40
0
 40
1
 40
1
 40
1
 40
1
 10
61.021137
 20
30.021065
 30
0.0
 10
61.302428
 20
29.739774
 30
0.0
 10
61.683993
 20
29.581723
 30
0.0
 10
62.081799
 20
29.581723
 30
0.0
  0
LWPOLYLINE
  5
14a
100
AcDbEntity
  8
Layer_1
 62
1
100
AcDbPolyline
 90
1
 70
1
 10
56.717016
 20
24.216943
 30
0.0
  0
SPLINE
  5
14b
100
AcDbEntity
  8
Layer_1
 62
1
100
AcDbSpline
 70
8
 71
3
 72
8
 73
4
 74
0
 40
0
 40
0
 40
0
 40
0
 40
1
 40
1
 40
1
 40
1
 10
67.446586
 20
34.946506
 30
0.0
 10
67.844389
 20
34.946506
 30
0.0
 10
68.225957
 20
35.104554
 30
0.0
 10
68.507248
 20
35.385845
 30
0.0
  0
SPLINE
  5
14c
100
AcDbEntity
  8
Layer_1
 62
1
100
AcDbSpline
 70
8
 71
3
 72
8
 73
4
 74
0
 40
0
 40
0
 40
0
 40
0
 40
1
 40
1
 40
1
 40
1
 10
68.507248
 20
35.385845
 30
0.0
 10
68.788540
 20
35.667136
 30
0.0
 10
68.946588
 20
36.048704
 30
0.0
 10
68.946588
 20
36.446507
 30
0.0
  0
SPLINE
  5
14d
100
AcDbEntity
  8
Layer_1
 62
1
100
AcDbSpline
 70
8
 71
3
 72
8
 73
4
 74
0
 40
0
 40
0
 40
0
 40
0
 40
1
 40
1
 40
1
 40
1
 10
68.946588
 20
36.446507
 30
0.0
 10
68.946588
 20
36.844314
 30
0.0
 10
68.788540
 20
37.225879
 30
0.0
 10
68.507248
 20
37.507170
 30
0.0
  0
SPLINE
  5
14e
100
AcDbEntity
  8
Layer_1
 62
1
100
AcDbSpline
 70
8
 71
3
 72
8
 73
4
 74
0
 40
0
 40
0
 40
0
 40
0
 40
1
 40
1
 40
1
 40
1
 10
68.507248
 20
37.507170
 30
0.0
 10
68.225957
 20
37.788461
 30
0.0
 10
67.844389
 20
37.946512
 30
0.0
 10
67.446586
 20
37.946512
 30
0.0
  0
SPLINE
  5
14f
100
AcDbEntity
  8
Layer_1
 62
1
100
AcDbSpline
 70
8
 71
3
 72
8
 73
4
 74
0
 40
0
 40
0
 40
0
 40
0
 40
1
 40
1
 40
1
 40
1
 10
67.446586
 20
37.946512
 30
0.0
 10
67.048780
 20
37.946512
 30
0.0
 10
66.667215
 20
37.788461
 30
0.0
 10
66.385924
 20
37.507170
 30
0.0
  0
SPLINE
  5
150
100
AcDbEntity
  8
Layer_1
 62
1
100
AcDbSpline
 70
8
 71
3
 72
8
 73
4
 74
0
 40
0
 40
0
 40
0
 40
0
 40
1
 40
1
 40
1
 40
1
 10
66.385924
 20
37.507170
 30
0.0
 10
66.104633
 20
37.225879
 30
0.0
 10
65.946581
 20
36.844314
 30
0.0
 10
65.946581
 20
36.446507
 30
0.0
  0
SPLINE
  5
151
100
AcDbEntity
  8
Layer_1
 62
1
100
AcDbSpline
 70
8
 71
3
 72
8
 73
4
 74
0
 40
0
 40
0
 40
0
 40
0
 40
1
 40
1
 40
1
 40
1
 10
65.946581
 20
36.446507
 30
0.0
 10
65.946581
 20
36.048704
 30
0.0
 10
66.104633
 20
35.667136
 30
0.0
 10
66.385924
 20
35.385845
 30
0.0
  0
SPLINE
  5
152
100
AcDbEntity
  8
Layer_1
 62
1
100
AcDbSpline
 70
8
 71
3
 72
8
 73
4
 74
0
 40
0
 40
0
 40
0
 40
0
 40
1
 40
1
 40
1
 40
1
 10
66.385924
 20
35.385845
 30
0.0
 10
66.667215
 20
35.104554
 30
0.0
 10
67.048780
 20
34.946506
 30
0.0
 10
67.446586
 20
34.946506
 30
0.0
  0
LWPOLYLINE
  5
153
100
AcDbEntity
  8
Layer_1
 62
1
100
AcDbPolyline
 90
1
 70
1
 10
62.081799
 20
29.581723
 30
0.0
  0
SPLINE
  5
154
100
AcDbEntity
  8
Layer_1
 62
1
100
AcDbSpline
 70
8
 71
3
 72
8
 73
4
 74
0
 40
0
 40
0
 40
0
 40
0
 40
1
 40
1
 40
1
 40
1
 10
72.811373
 20
40.311293
 30
0.0
 10
73.209176
 20
40.311293
 30
0.0
 10
73.590744
 20
40.469341
 30
0.0
 10
73.872035
 20
40.750632
 30
0.0
  0
SPLINE
  5
155
100
AcDbEntity
  8
Layer_1
 62
1
100
AcDbSpline
 70
8
 71
3
 72
8
 73
4
 74
0
 40
0
 40
0
 40
0
 40
0
 40
1
 40
1
 40
1
 40
1
 10
73.872035
 20
40.750632
 30
0.0
 10
74.153326
 20
41.031923
 30
0.0
 10
74.311374
 20
41.413491
 30
0.0
 10
74.311374
 20
41.811294
 30
0.0
  0
SPLINE
  5
156
100
AcDbEntity
  8
Layer_1
 62
1
100
AcDbSpline
 70
8
 71
3
 72
8
 73
4
 74
0
 40
0
 40
0
 40
0
 40
0
 40
1
 40
1
 40
1
 40
1
 10
74.311374
 20
41.811294
 30
0.0
 10
74.311374
 20
42.209101
 30
0.0
 10
74.153326
 20
42.590665
 30
0.0
 10
73.872035
 20
42.871956
 30
0.0
  0
SPLINE
  5
157
100
AcDbEntity
  8
Layer_1
 62
1
100
AcDbSpline
 70
8
 71
3
 72
8
 73
4
 74
0
 40
0
 40
0
 40
0
 40
0
 40
1
 40
1
 40
1
 40
1
 10
73.872035
 20
42.871956
 30
0.0
 10
73.590744
 20
43.153247
 30
0.0
 10
73.209176
 20
43.311299
 30
0.0
 10
72.811373
 20
43.311299
 30
0.0
  0
SPLINE
  5
158
100
AcDbEntity
  8
Layer_1
 62
1
100
AcDbSpline
 70
8
 71
3
 72
8
 73
4
 74
0
 40
0
 40
0
 40
0
 40
0
 40
1
 40
1
 40
1
 40
1
 10
72.811373
 20
43.311299
 30
0.0
 10
72.413566
 20
43.311299
 30
0.0
 10
72.032002
 20
43.153247
 30
0.0
 10
71.750711
 20
42.871956
 30
0.0
  0
SPLINE
  5
159
100
AcDbEntity
  8
Layer_1
 62
1
100
AcDbSpline
 70
8
 71
3
 72
8
 73
4
 74
0
 40
0
 40
0
 40
0
 40
0
 40
1
 40
1
 40
1
 40
1
 10
71.750711
 20
42.871956
 30
0.0
 10
71.469419
 20
42.590665
 30
0.0
 10
71.311368
 20
42.209101
 30
0.0
 10
71.311368
 20
41.811294
 30
0.0
  0
SPLINE
  5
15a
100
AcDbEntity
  8
Layer_1
 62
1
100
AcDbSpline
 70
8
 71
3
 72
8
 73
4
 74
0
 40
0
 40
0
 40
0
 40
0
 40
1
 40
1
 40
1
 40
1
 10
71.311368
 20
41.811294
 30
0.0
 10
71.311368
 20
41.413491
 30
0.0
 10
71.469419
 20
41.031923
 30
0.0
 10
71.750711
 20
40.750632
 30
0.0
  0
SPLINE
  5
15b
100
AcDbEntity
  8
Layer_1
 62
1
100
AcDbSpline
 70
8
 71
3
 72
8
 73
4
 74
0
 40
0
 40
0
 40
0
 40
0
 40
1
 40
1
 40
1
 40
1
 10
71.750711
 20
40.750632
 30
0.0
 10
72.032002
 20
40.469341
 30
0.0
 10
72.413566
 20
40.311293
 30
0.0
 10
72.811373
 20
40.311293
 30
0.0
  0
LWPOLYLINE
  5
15c
100
AcDbEntity
  8
Layer_1
 62
1
100
AcDbPolyline
 90
1
 70
1
 10
67.446586
 20
34.946506
 30
0.0
  0
SPLINE
  5
15d
100
AcDbEntity
  8
Layer_1
 62
1
100
AcDbSpline
 70
8
 71
3
 72
8
 73
4
 74
0
 40
0
 40
0
 40
0
 40
0
 40
1
 40
1
 40
1
 40
1
 10
78.176153
 20
45.676079
 30
0.0
 10
78.573959
 20
45.676079
 30
0.0
 10
78.955524
 20
45.834127
 30
0.0
 10
79.236815
 20
46.115418
 30
0.0
  0
SPLINE
  5
15e
100
AcDbEntity
  8
Layer_1
 62
1
100
AcDbSpline
 70
8
 71
3
 72
8
 73
4
 74
0
 40
0
 40
0
 40
0
 40
0
 40
1
 40
1
 40
1
 40
1
 10
79.236815
 20
46.115418
 30
0.0
 10
79.518106
 20
46.396710
 30
0.0
 10
79.676158
 20
46.778278
 30
0.0
 10
79.676158
 20
47.176081
 30
0.0
  0
SPLINE
  5
15f
100
AcDbEntity
  8
Layer_1
 62
1
100
AcDbSpline
 70
8
 71
3
 72
8
 73
4
 74
0
 40
0
 40
0
 40
0
 40
0
 40
1
 40
1
 40
1
 40
1
 10
79.676158
 20
47.176081
 30
0.0
 10
79.676158
 20
47.573887
 30
0.0
 10
79.518106
 20
47.955452
 30
0.0
 10
79.236815
 20
48.236743
 30
0.0
  0
SPLINE
  5
160
100
AcDbEntity
  8
Layer_1
 62
1
100
AcDbSpline
 70
8
 71
3
 72
8
 73
4
 74
0
 40
0
 40
0
 40
0
 40
0
 40
1
 40
1
 40
1
 40
1
 10
79.236815
 20
48.236743
 30
0.0
 10
78.955524
 20
48.518034
 30
0.0
 10
78.573959
 20
48.676086
 30
0.0
 10
78.176153
 20
48.676086
 30
0.0
  0
SPLINE
  5
161
100
AcDbEntity
  8
Layer_1
 62
1
100
AcDbSpline
 70
8
 71
3
 72
8
 73
4
 74
0
 40
0
 40
0
 40
0
 40
0
 40
1
 40
1
 40
1
 40
1
 10
78.176153
 20
48.676086
 30
0.0
 10
77.778346
 20
48.676086
 30
0.0
 10
77.396781
 20
48.518034
 30
0.0
 10
77.115490
 20
48.236743
 30
0.0
  0
SPLINE
  5
162
100
AcDbEntity
  8
Layer_1
 62
1
100
AcDbSpline
 70
8
 71
3
 72
8
 73
4
 74
0
 40
0
 40
0
 40
0
 40
0
 40
1
 40
1
 40
1
 40
1
 10
77.115490
 20
48.236743
 30
0.0
 10
76.834199
 20
47.955452
 30
0.0
 10
76.676151
 20
47.573887
 30
0.0
 10
76.676151
 20
47.176081
 30
0.0
  0
SPLINE
  5
163
100
AcDbEntity
  8
Layer_1
 62
1
100
AcDbSpline
 70
8
 71
3
 72
8
 73
4
 74
0
 40
0
 40
0
 40
0
 40
0
 40
1
 40
1
 40
1
 40
1
 10
76.676151
 20
47.176081
 30
0.0
 10
76.676151
 20
46.778278
 30
0.0
 10
76.834199
 20
46.396710
 30
0.0
 10
77.115490
 20
46.115418
 30
0.0
  0
SPLINE
  5
164
100
AcDbEntity
  8
Layer_1
 62
1
100
AcDbSpline
 70
8
 71
3
 72
8
 73
4
 74
0
 40
0
 40
0
 40
0
 40
0
 40
1
 40
1
 40
1
 40
1
 10
77.115490
 20
46.115418
 30
0.0
 10
77.396781
 20
45.834127
 30
0.0
 10
77.778346
 20
45.676079
 30
0.0
 10
78.176153
 20
45.676079
 30
0.0
  0
LWPOLYLINE
  5
165
100
AcDbEntity
  8
Layer_1
 62
1
100
AcDbPolyline
 90
1
 70
1
 10
72.811373
 20
40.311293
 30
0.0
  0
SPLINE
  5
166
100
AcDbEntity
  8
Layer_1
 62
1
100
AcDbSpline
 70
8
 71
3
 72
8
 73
4
 74
0
 40
0
 40
0
 40
0
 40
0
 40
1
 40
1
 40
1
 40
1
 10
83.540939
 20
51.040859
 30
0.0
 10
83.938746
 20
51.040859
 30
0.0
 10
84.320311
 20
51.198911
 30
0.0
 10
84.601602
 20
51.480202
 30
0.0
  0
SPLINE
  5
167
100
AcDbEntity
  8
Layer_1
 62
1
100
AcDbSpline
 70
8
 71
3
 72
8
 73
4
 74
0
 40
0
 40
0
 40
0
 40
0
 40
1
 40
1
 40
1
 40
1
 10
84.601602
 20
51.480202
 30
0.0
 10
84.882893
 20
51.761493
 30
0.0
 10
85.040944
 20
52.143057
 30
0.0
 10
85.040944
 20
52.540864
 30
0.0
  0
SPLINE
  5
168
100
AcDbEntity
  8
Layer_1
 62
1
100
AcDbSpline
 70
8
 71
3
 72
8
 73
4
 74
0
 40
0
 40
0
 40
0
 40
0
 40
1
 40
1
 40
1
 40
1
 10
85.040944
 20
52.540864
 30
0.0
 10
85.040944
 20
52.938671
 30
0.0
 10
84.882893
 20
53.320235
 30
0.0
 10
84.601602
 20
53.601526
 30
0.0
  0
SPLINE
  5
169
100
AcDbEntity
  8
Layer_1
 62
1
100
AcDbSpline
 70
8
 71
3
 72
8
 73
4
 74
0
 40
0
 40
0
 40
0
 40
0
 40
1
 40
1
 40
1
 40
1
 10
84.601602
 20
53.601526
 30
0.0
 10
84.320311
 20
53.882817
 30
0.0
 10
83.938746
 20
54.040866
 30
0.0
 10
83.540939
 20
54.040866
 30
0.0
  0
SPLINE
  5
16a
100
AcDbEntity
  8
Layer_1
 62
1
100
AcDbSpline
 70
8
 71
3
 72
8
 73
4
 74
0
 40
0
 40
0
 40
0
 40
0
 40
1
 40
1
 40
1
 40
1
 10
83.540939
 20
54.040866
 30
0.0
 10
83.143136
 20
54.040866
 30
0.0
 10
82.761568
 20
53.882817
 30
0.0
 10
82.480277
 20
53.601526
 30
0.0
  0
SPLINE
  5
16b
100
AcDbEntity
  8
Layer_1
 62
1
100
AcDbSpline
 70
8
 71
3
 72
8
 73
4
 74
0
 40
0
 40
0
 40
0
 40
0
 40
1
 40
1
 40
1
 40
1
 10
82.480277
 20
53.601526
 30
0.0
 10
82.198986
 20
53.320235
 30
0.0
 10
82.040938
 20
52.938671
 30
0.0
 10
82.040938
 20
52.540864
 30
0.0
  0
SPLINE
  5
16c
100
AcDbEntity
  8
Layer_1
 62
1
100
AcDbSpline
 70
8
 71
3
 72
8
 73
4
 74
0
 40
0
 40
0
 40
0
 40
0
 40
1
 40
1
 40
1
 40
1
 10
82.040938
 20
52.540864
 30
0.0
 10
82.040938
 20
52.143057
 30
0.0
 10
82.198986
 20
51.761493
 30
0.0
 10
82.480277
 20
51.480202
 30
0.0
  0
SPLINE
  5
16d
100
AcDbEntity
  8
Layer_1
 62
1
100
AcDbSpline
 70
8
 71
3
 72
8
 73
4
 74
0
 40
0
 40
0
 40
0
 40
0
 40
1
 40
1
 40
1
 40
1
 10
82.480277
 20
51.480202
 30
0.0
 10
82.761568
 20
51.198911
 30
0.0
 10
83.143136
 20
51.040859
 30
0.0
 10
83.540939
 20
51.040859
 30
0.0
  0
LWPOLYLINE
  5
16e
100
AcDbEntity
  8
Layer_1
 62
1
100
AcDbPolyline
 90
1
 70
1
 10
78.176153
 20
45.676079
 30
0.0
  0
SPLINE
  5
16f
100
AcDbEntity
  8
Layer_1
 62
1
100
AcDbSpline
 70
8
 71
3
 72
8
 73
4
 74
0
 40
0
 40
0
 40
0
 40
0
 40
1
 40
1
 40
1
 40
1
 10
88.905723
 20
56.405646
 30
0.0
 10
89.303526
 20
56.405646
 30
0.0
 10
89.685094
 20
56.563697
 30
0.0
 10
89.966385
 20
56.844988
 30
0.0
  0
SPLINE
  5
170
100
AcDbEntity
  8
Layer_1
 62
1
100
AcDbSpline
 70
8
 71
3
 72
8
 73
4
 74
0
 40
0
 40
0
 40
0
 40
0
 40
1
 40
1
 40
1
 40
1
 10
89.966385
 20
56.844988
 30
0.0
 10
90.247676
 20
57.126280
 30
0.0
 10
90.405724
 20
57.507844
 30
0.0
 10
90.405724
 20
57.905651
 30
0.0
  0
SPLINE
  5
171
100
AcDbEntity
  8
Layer_1
 62
1
100
AcDbSpline
 70
8
 71
3
 72
8
 73
4
 74
0
 40
0
 40
0
 40
0
 40
0
 40
1
 40
1
 40
1
 40
1
 10
90.405724
 20
57.905651
 30
0.0
 10
90.405724
 20
58.303457
 30
0.0
 10
90.247676
 20
58.685022
 30
0.0
 10
89.966385
 20
58.966313
 30
0.0
  0
SPLINE
  5
172
100
AcDbEntity
  8
Layer_1
 62
1
100
AcDbSpline
 70
8
 71
3
 72
8
 73
4
 74
0
 40
0
 40
0
 40
0
 40
0
 40
1
 40
1
 40
1
 40
1
 10
89.966385
 20
58.966313
 30
0.0
 10
89.685094
 20
59.247604
 30
0.0
 10
89.303526
 20
59.405652
 30
0.0
 10
88.905723
 20
59.405652
 30
0.0
  0
SPLINE
  5
173
100
AcDbEntity
  8
Layer_1
 62
1
100
AcDbSpline
 70
8
 71
3
 72
8
 73
4
 74
0
 40
0
 40
0
 40
0
 40
0
 40
1
 40
1
 40
1
 40
1
 10
88.905723
 20
59.405652
 30
0.0
 10
88.507916
 20
59.405652
 30
0.0
 10
88.126351
 20
59.247604
 30
0.0
 10
87.845060
 20
58.966313
 30
0.0
  0
SPLINE
  5
174
100
AcDbEntity
  8
Layer_1
 62
1
100
AcDbSpline
 70
8
 71
3
 72
8
 73
4
 74
0
 40
0
 40
0
 40
0
 40
0
 40
1
 40
1
 40
1
 40
1
 10
87.845060
 20
58.966313
 30
0.0
 10
87.563769
 20
58.685022
 30
0.0
 10
87.405718
 20
58.303457
 30
0.0
 10
87.405718
 20
57.905651
 30
0.0
  0
SPLINE
  5
175
100
AcDbEntity
  8
Layer_1
 62
1
100
AcDbSpline
 70
8
 71
3
 72
8
 73
4
 74
0
 40
0
 40
0
 40
0
 40
0
 40
1
 40
1
 40
1
 40
1
 10
87.405718
 20
57.905651
 30
0.0
 10
87.405718
 20
57.507844
 30
0.0
 10
87.563769
 20
57.126280
 30
0.0
 10
87.845060
 20
56.844988
 30
0.0
  0
SPLINE
  5
176
100
AcDbEntity
  8
Layer_1
 62
1
100
AcDbSpline
 70
8
 71
3
 72
8
 73
4
 74
0
 40
0
 40
0
 40
0
 40
0
 40
1
 40
1
 40
1
 40
1
 10
87.845060
 20
56.844988
 30
0.0
 10
88.126351
 20
56.563697
 30
0.0
 10
88.507916
 20
56.405646
 30
0.0
 10
88.905723
 20
56.405646
 30
0.0
  0
LWPOLYLINE
  5
177
100
AcDbEntity
  8
Layer_1
 62
1
100
AcDbPolyline
 90
1
 70
1
 10
83.540939
 20
51.040859
 30
0.0
  0
SPLINE
  5
178
100
AcDbEntity
  8
Layer_1
 62
1
100
AcDbSpline
 70
8
 71
3
 72
8
 73
4
 74
0
 40
0
 40
0
 40
0
 40
0
 40
1
 40
1
 40
1
 40
1
 10
94.270509
 20
61.770429
 30
0.0
 10
94.668312
 20
61.770429
 30
0.0
 10
95.049881
 20
61.928477
 30
0.0
 10
95.331172
 20
62.209768
 30
0.0
  0
SPLINE
  5
179
100
AcDbEntity
  8
Layer_1
 62
1
100
AcDbSpline
 70
8
 71
3
 72
8
 73
4
 74
0
 40
0
 40
0
 40
0
 40
0
 40
1
 40
1
 40
1
 40
1
 10
95.331172
 20
62.209768
 30
0.0
 10
95.612463
 20
62.491059
 30
0.0
 10
95.770511
 20
62.872627
 30
0.0
 10
95.770511
 20
63.270431
 30
0.0
  0
SPLINE
  5
17a
100
AcDbEntity
  8
Layer_1
 62
1
100
AcDbSpline
 70
8
 71
3
 72
8
 73
4
 74
0
 40
0
 40
0
 40
0
 40
0
 40
1
 40
1
 40
1
 40
1
 10
95.770511
 20
63.270431
 30
0.0
 10
95.770511
 20
63.668237
 30
0.0
 10
95.612463
 20
64.049802
 30
0.0
 10
95.331172
 20
64.331093
 30
0.0
  0
SPLINE
  5
17b
100
AcDbEntity
  8
Layer_1
 62
1
100
AcDbSpline
 70
8
 71
3
 72
8
 73
4
 74
0
 40
0
 40
0
 40
0
 40
0
 40
1
 40
1
 40
1
 40
1
 10
95.331172
 20
64.331093
 30
0.0
 10
95.049881
 20
64.612384
 30
0.0
 10
94.668312
 20
64.770436
 30
0.0
 10
94.270509
 20
64.770436
 30
0.0
  0
SPLINE
  5
17c
100
AcDbEntity
  8
Layer_1
 62
1
100
AcDbSpline
 70
8
 71
3
 72
8
 73
4
 74
0
 40
0
 40
0
 40
0
 40
0
 40
1
 40
1
 40
1
 40
1
 10
94.270509
 20
64.770436
 30
0.0
 10
93.872703
 20
64.770436
 30
0.0
 10
93.491138
 20
64.612384
 30
0.0
 10
93.209847
 20
64.331093
 30
0.0
  0
SPLINE
  5
17d
100
AcDbEntity
  8
Layer_1
 62
1
100
AcDbSpline
 70
8
 71
3
 72
8
 73
4
 74
0
 40
0
 40
0
 40
0
 40
0
 40
1
 40
1
 40
1
 40
1
 10
93.209847
 20
64.331093
 30
0.0
 10
92.928556
 20
64.049802
 30
0.0
 10
92.770504
 20
63.668237
 30
0.0
 10
92.770504
 20
63.270431
 30
0.0
  0
SPLINE
  5
17e
100
AcDbEntity
  8
Layer_1
 62
1
100
AcDbSpline
 70
8
 71
3
 72
8
 73
4
 74
0
 40
0
 40
0
 40
0
 40
0
 40
1
 40
1
 40
1
 40
1
 10
92.770504
 20
63.270431
 30
0.0
 10
92.770504
 20
62.872627
 30
0.0
 10
92.928556
 20
62.491059
 30
0.0
 10
93.209847
 20
62.209768
 30
0.0
  0
SPLINE
  5
17f
100
AcDbEntity
  8
Layer_1
 62
1
100
AcDbSpline
 70
8
 71
3
 72
8
 73
4
 74
0
 40
0
 40
0
 40
0
 40
0
 40
1
 40
1
 40
1
 40
1
 10
93.209847
 20
62.209768
 30
0.0
 10
93.491138
 20
61.928477
 30
0.0
 10
93.872703
 20
61.770429
 30
0.0
 10
94.270509
 20
61.770429
 30
0.0
  0
LWPOLYLINE
  5
180
100
AcDbEntity
  8
Layer_1
 62
1
100
AcDbPolyline
 90
1
 70
1
 10
88.905723
 20
56.405646
 30
0.0
  0
SPLINE
  5
181
100
AcDbEntity
  8
Layer_1
 62
1
100
AcDbSpline
 70
8
 71
3
 72
8
 73
4
 74
0
 40
0
 40
0
 40
0
 40
0
 40
1
 40
1
 40
1
 40
1
 10
99.635289
 20
67.135216
 30
0.0
 10
100.033096
 20
67.135216
 30
0.0
 10
100.414660
 20
67.293264
 30
0.0
 10
100.695951
 20
67.574555
 30
0.0
  0
SPLINE
  5
182
100
AcDbEntity
  8
Layer_1
 62
1
100
AcDbSpline
 70
8
 71
3
 72
8
 73
4
 74
0
 40
0
 40
0
 40
0
 40
0
 40
1
 40
1
 40
1
 40
1
 10
100.695951
 20
67.574555
 30
0.0
 10
100.977242
 20
67.855846
 30
0.0
 10
101.135294
 20
68.237414
 30
0.0
 10
101.135294
 20
68.635217
 30
0.0
  0
SPLINE
  5
183
100
AcDbEntity
  8
Layer_1
 62
1
100
AcDbSpline
 70
8
 71
3
 72
8
 73
4
 74
0
 40
0
 40
0
 40
0
 40
0
 40
1
 40
1
 40
1
 40
1
 10
101.135294
 20
68.635217
 30
0.0
 10
101.135294
 20
69.033024
 30
0.0
 10
100.977242
 20
69.414589
 30
0.0
 10
100.695951
 20
69.695880
 30
0.0
  0
SPLINE
  5
184
100
AcDbEntity
  8
Layer_1
 62
1
100
AcDbSpline
 70
8
 71
3
 72
8
 73
4
 74
0
 40
0
 40
0
 40
0
 40
0
 40
1
 40
1
 40
1
 40
1
 10
100.695951
 20
69.695880
 30
0.0
 10
100.414660
 20
69.977171
 30
0.0
 10
100.033096
 20
70.135222
 30
0.0
 10
99.635289
 20
70.135222
 30
0.0
  0
SPLINE
  5
185
100
AcDbEntity
  8
Layer_1
 62
1
100
AcDbSpline
 70
8
 71
3
 72
8
 73
4
 74
0
 40
0
 40
0
 40
0
 40
0
 40
1
 40
1
 40
1
 40
1
 10
99.635289
 20
70.135222
 30
0.0
 10
99.237482
 20
70.135222
 30
0.0
 10
98.855918
 20
69.977171
 30
0.0
 10
98.574627
 20
69.695880
 30
0.0
  0
SPLINE
  5
186
100
AcDbEntity
  8
Layer_1
 62
1
100
AcDbSpline
 70
8
 71
3
 72
8
 73
4
 74
0
 40
0
 40
0
 40
0
 40
0
 40
1
 40
1
 40
1
 40
1
 10
98.574627
 20
69.695880
 30
0.0
 10
98.293336
 20
69.414589
 30
0.0
 10
98.135288
 20
69.033024
 30
0.0
 10
98.135288
 20
68.635217
 30
0.0
  0
SPLINE
  5
187
100
AcDbEntity
  8
Layer_1
 62
1
100
AcDbSpline
 70
8
 71
3
 72
8
 73
4
 74
0
 40
0
 40
0
 40
0
 40
0
 40
1
 40
1
 40
1
 40
1
 10
98.135288
 20
68.635217
 30
0.0
 10
98.135288
 20
68.237414
 30
0.0
 10
98.293336
 20
67.855846
 30
0.0
 10
98.574627
 20
67.574555
 30
0.0
  0
SPLINE
  5
188
100
AcDbEntity
  8
Layer_1
 62
1
100
AcDbSpline
 70
8
 71
3
 72
8
 73
4
 74
0
 40
0
 40
0
 40
0
 40
0
 40
1
 40
1
 40
1
 40
1
 10
98.574627
 20
67.574555
 30
0.0
 10
98.855918
 20
67.293264
 30
0.0
 10
99.237482
 20
67.135216
 30
0.0
 10
99.635289
 20
67.135216
 30
0.0
  0
LWPOLYLINE
  5
189
100
AcDbEntity
  8
Layer_1
 62
1
100
AcDbPolyline
 90
1
 70
1
 10
94.270509
 20
61.770429
 30
0.0
  0
SPLINE
  5
18a
100
AcDbEntity
  8
Layer_1
 62
1
100
AcDbSpline
 70
8
 71
3
 72
8
 73
4
 74
0
 40
0
 40
0
 40
0
 40
0
 40
1
 40
1
 40
1
 40
1
 10
105.000072
 20
72.499996
 30
0.0
 10
105.397875
 20
72.499996
 30
0.0
 10
105.779444
 20
72.658047
 30
0.0
 10
106.060735
 20
72.939338
 30
0.0
  0
SPLINE
  5
18b
100
AcDbEntity
  8
Layer_1
 62
1
100
AcDbSpline
 70
8
 71
3
 72
8
 73
4
 74
0
 40
0
 40
0
 40
0
 40
0
 40
1
 40
1
 40
1
 40
1
 10
106.060735
 20
72.939338
 30
0.0
 10
106.342026
 20
73.220629
 30
0.0
 10
106.500074
 20
73.602194
 30
0.0
 10
106.500074
 20
74.000001
 30
0.0
  0
SPLINE
  5
18c
100
AcDbEntity
  8
Layer_1
 62
1
100
AcDbSpline
 70
8
 71
3
 72
8
 73
4
 74
0
 40
0
 40
0
 40
0
 40
0
 40
1
 40
1
 40
1
 40
1
 10
106.500074
 20
74.000001
 30
0.0
 10
106.500074
 20
74.397807
 30
0.0
 10
106.342026
 20
74.779372
 30
0.0
 10
106.060735
 20
75.060663
 30
0.0
  0
SPLINE
  5
18d
100
AcDbEntity
  8
Layer_1
 62
1
100
AcDbSpline
 70
8
 71
3
 72
8
 73
4
 74
0
 40
0
 40
0
 40
0
 40
0
 40
1
 40
1
 40
1
 40
1
 10
106.060735
 20
75.060663
 30
0.0
 10
105.779444
 20
75.341954
 30
0.0
 10
105.397875
 20
75.500002
 30
0.0
 10
105.000072
 20
75.500002
 30
0.0
  0
SPLINE
  5
18e
100
AcDbEntity
  8
Layer_1
 62
1
100
AcDbSpline
 70
8
 71
3
 72
8
 73
4
 74
0
 40
0
 40
0
 40
0
 40
0
 40
1
 40
1
 40
1
 40
1
 10
105.000072
 20
75.500002
 30
0.0
 10
104.602266
 20
75.500002
 30
0.0
 10
104.220701
 20
75.341954
 30
0.0
 10
103.939410
 20
75.060663
 30
0.0
  0
SPLINE
  5
18f
100
AcDbEntity
  8
Layer_1
 62
1
100
AcDbSpline
 70
8
 71
3
 72
8
 73
4
 74
0
 40
0
 40
0
 40
0
 40
0
 40
1
 40
1
 40
1
 40
1
 10
103.939410
 20
75.060663
 30
0.0
 10
103.658119
 20
74.779372
 30
0.0
 10
103.500067
 20
74.397807
 30
0.0
 10
103.500067
 20
74.000001
 30
0.0
  0
SPLINE
  5
190
100
AcDbEntity
  8
Layer_1
 62
1
100
AcDbSpline
 70
8
 71
3
 72
8
 73
4
 74
0
 40
0
 40
0
 40
0
 40
0
 40
1
 40
1
 40
1
 40
1
 10
103.500067
 20
74.000001
 30
0.0
 10
103.500067
 20
73.602194
 30
0.0
 10
103.658119
 20
73.220629
 30
0.0
 10
103.939410
 20
72.939338
 30
0.0
  0
SPLINE
  5
191
100
AcDbEntity
  8
Layer_1
 62
1
100
AcDbSpline
 70
8
 71
3
 72
8
 73
4
 74
0
 40
0
 40
0
 40
0
 40
0
 40
1
 40
1
 40
1
 40
1
 10
103.939410
 20
72.939338
 30
0.0
 10
104.220701
 20
72.658047
 30
0.0
 10
104.602266
 20
72.499996
 30
0.0
 10
105.000072
 20
72.499996
 30
0.0
  0
LWPOLYLINE
  5
192
100
AcDbEntity
  8
Layer_1
 62
1
100
AcDbPolyline
 90
1
 70
1
 10
99.635289
 20
67.135216
 30
0.0
  0
SPLINE
  5
193
100
AcDbEntity
  8
Layer_1
 62
1
100
AcDbSpline
 70
8
 71
3
 72
8
 73
4
 74
0
 40
0
 40
0
 40
0
 40
0
 40
1
 40
1
 40
1
 40
1
 10
110.364859
 20
77.864782
 30
0.0
 10
110.762662
 20
77.864782
 30
0.0
 10
111.144230
 20
78.022834
 30
0.0
 10
111.425521
 20
78.304125
 30
0.0
  0
SPLINE
  5
194
100
AcDbEntity
  8
Layer_1
 62
1
100
AcDbSpline
 70
8
 71
3
 72
8
 73
4
 74
0
 40
0
 40
0
 40
0
 40
0
 40
1
 40
1
 40
1
 40
1
 10
111.425521
 20
78.304125
 30
0.0
 10
111.706812
 20
78.585416
 30
0.0
 10
111.864861
 20
78.966981
 30
0.0
 10
111.864861
 20
79.364787
 30
0.0
  0
SPLINE
  5
195
100
AcDbEntity
  8
Layer_1
 62
1
100
AcDbSpline
 70
8
 71
3
 72
8
 73
4
 74
0
 40
0
 40
0
 40
0
 40
0
 40
1
 40
1
 40
1
 40
1
 10
111.864861
 20
79.364787
 30
0.0
 10
111.864861
 20
79.762594
 30
0.0
 10
111.706812
 20
80.144159
 30
0.0
 10
111.425521
 20
80.425450
 30
0.0
  0
SPLINE
  5
196
100
AcDbEntity
  8
Layer_1
 62
1
100
AcDbSpline
 70
8
 71
3
 72
8
 73
4
 74
0
 40
0
 40
0
 40
0
 40
0
 40
1
 40
1
 40
1
 40
1
 10
111.425521
 20
80.425450
 30
0.0
 10
111.144230
 20
80.706741
 30
0.0
 10
110.762662
 20
80.864789
 30
0.0
 10
110.364859
 20
80.864789
 30
0.0
  0
SPLINE
  5
197
100
AcDbEntity
  8
Layer_1
 62
1
100
AcDbSpline
 70
8
 71
3
 72
8
 73
4
 74
0
 40
0
 40
0
 40
0
 40
0
 40
1
 40
1
 40
1
 40
1
 10
110.364859
 20
80.864789
 30
0.0
 10
109.967053
 20
80.864789
 30
0.0
 10
109.585488
 20
80.706741
 30
0.0
 10
109.304197
 20
80.425450
 30
0.0
  0
SPLINE
  5
198
100
AcDbEntity
  8
Layer_1
 62
1
100
AcDbSpline
 70
8
 71
3
 72
8
 73
4
 74
0
 40
0
 40
0
 40
0
 40
0
 40
1
 40
1
 40
1
 40
1
 10
109.304197
 20
80.425450
 30
0.0
 10
109.022906
 20
80.144159
 30
0.0
 10
108.864854
 20
79.762594
 30
0.0
 10
108.864854
 20
79.364787
 30
0.0
  0
SPLINE
  5
199
100
AcDbEntity
  8
Layer_1
 62
1
100
AcDbSpline
 70
8
 71
3
 72
8
 73
4
 74
0
 40
0
 40
0
 40
0
 40
0
 40
1
 40
1
 40
1
 40
1
 10
108.864854
 20
79.364787
 30
0.0
 10
108.864854
 20
78.966981
 30
0.0
 10
109.022906
 20
78.585416
 30
0.0
 10
109.304197
 20
78.304125
 30
0.0
  0
SPLINE
  5
19a
100
AcDbEntity
  8
Layer_1
 62
1
100
AcDbSpline
 70
8
 71
3
 72
8
 73
4
 74
0
 40
0
 40
0
 40
0
 40
0
 40
1
 40
1
 40
1
 40
1
 10
109.304197
 20
78.304125
 30
0.0
 10
109.585488
 20
78.022834
 30
0.0
 10
109.967053
 20
77.864782
 30
0.0
 10
110.364859
 20
77.864782
 30
0.0
  0
LWPOLYLINE
  5
19b
100
AcDbEntity
  8
Layer_1
 62
1
100
AcDbPolyline
 90
1
 70
1
 10
105.000072
 20
72.499996
 30
0.0
  0
SPLINE
  5
19c
100
AcDbEntity
  8
Layer_1
 62
1
100
AcDbSpline
 70
8
 71
3
 72
8
 73
4
 74
0
 40
0
 40
0
 40
0
 40
0
 40
1
 40
1
 40
1
 40
1
 10
115.729639
 20
83.229566
 30
0.0
 10
116.127445
 20
83.229566
 30
0.0
 10
116.509010
 20
83.387614
 30
0.0
 10
116.790301
 20
83.668905
 30
0.0
  0
SPLINE
  5
19d
100
AcDbEntity
  8
Layer_1
 62
1
100
AcDbSpline
 70
8
 71
3
 72
8
 73
4
 74
0
 40
0
 40
0
 40
0
 40
0
 40
1
 40
1
 40
1
 40
1
 10
116.790301
 20
83.668905
 30
0.0
 10
117.071592
 20
83.950196
 30
0.0
 10
117.229644
 20
84.331764
 30
0.0
 10
117.229644
 20
84.729567
 30
0.0
  0
SPLINE
  5
19e
100
AcDbEntity
  8
Layer_1
 62
1
100
AcDbSpline
 70
8
 71
3
 72
8
 73
4
 74
0
 40
0
 40
0
 40
0
 40
0
 40
1
 40
1
 40
1
 40
1
 10
117.229644
 20
84.729567
 30
0.0
 10
117.229644
 20
85.127374
 30
0.0
 10
117.071592
 20
85.508938
 30
0.0
 10
116.790301
 20
85.790229
 30
0.0
  0
SPLINE
  5
19f
100
AcDbEntity
  8
Layer_1
 62
1
100
AcDbSpline
 70
8
 71
3
 72
8
 73
4
 74
0
 40
0
 40
0
 40
0
 40
0
 40
1
 40
1
 40
1
 40
1
 10
116.790301
 20
85.790229
 30
0.0
 10
116.509010
 20
86.071520
 30
0.0
 10
116.127445
 20
86.229572
 30
0.0
 10
115.729639
 20
86.229572
 30
0.0
  0
SPLINE
  5
1a0
100
AcDbEntity
  8
Layer_1
 62
1
100
AcDbSpline
 70
8
 71
3
 72
8
 73
4
 74
0
 40
0
 40
0
 40
0
 40
0
 40
1
 40
1
 40
1
 40
1
 10
115.729639
 20
86.229572
 30
0.0
 10
115.331832
 20
86.229572
 30
0.0
 10
114.950268
 20
86.071520
 30
0.0
 10
114.668976
 20
85.790229
 30
0.0
  0
SPLINE
  5
1a1
100
AcDbEntity
  8
Layer_1
 62
1
100
AcDbSpline
 70
8
 71
3
 72
8
 73
4
 74
0
 40
0
 40
0
 40
0
 40
0
 40
1
 40
1
 40
1
 40
1
 10
114.668976
 20
85.790229
 30
0.0
 10
114.387685
 20
85.508938
 30
0.0
 10
114.229637
 20
85.127374
 30
0.0
 10
114.229637
 20
84.729567
 30
0.0
  0
SPLINE
  5
1a2
100
AcDbEntity
  8
Layer_1
 62
1
100
AcDbSpline
 70
8
 71
3
 72
8
 73
4
 74
0
 40
0
 40
0
 40
0
 40
0
 40
1
 40
1
 40
1
 40
1
 10
114.229637
 20
84.729567
 30
0.0
 10
114.229637
 20
84.331764
 30
0.0
 10
114.387685
 20
83.950196
 30
0.0
 10
114.668976
 20
83.668905
 30
0.0
  0
SPLINE
  5
1a3
100
AcDbEntity
  8
Layer_1
 62
1
100
AcDbSpline
 70
8
 71
3
 72
8
 73
4
 74
0
 40
0
 40
0
 40
0
 40
0
 40
1
 40
1
 40
1
 40
1
 10
114.668976
 20
83.668905
 30
0.0
 10
114.950268
 20
83.387614
 30
0.0
 10
115.331832
 20
83.229566
 30
0.0
 10
115.729639
 20
83.229566
 30
0.0
  0
LWPOLYLINE
  5
1a4
100
AcDbEntity
  8
Layer_1
 62
1
100
AcDbPolyline
 90
1
 70
1
 10
110.364859
 20
77.864782
 30
0.0
  0
SPLINE
  5
1a5
100
AcDbEntity
  8
Layer_1
 62
1
100
AcDbSpline
 70
8
 71
3
 72
8
 73
4
 74
0
 40
0
 40
0
 40
0
 40
0
 40
1
 40
1
 40
1
 40
1
 10
121.094422
 20
88.594352
 30
0.0
 10
121.492225
 20
88.594352
 30
0.0
 10
121.873793
 20
88.752400
 30
0.0
 10
122.155084
 20
89.033691
 30
0.0
  0
SPLINE
  5
1a6
100
AcDbEntity
  8
Layer_1
 62
1
100
AcDbSpline
 70
8
 71
3
 72
8
 73
4
 74
0
 40
0
 40
0
 40
0
 40
0
 40
1
 40
1
 40
1
 40
1
 10
122.155084
 20
89.033691
 30
0.0
 10
122.436375
 20
89.314983
 30
0.0
 10
122.594424
 20
89.696551
 30
0.0
 10
122.594424
 20
90.094354
 30
0.0
  0
SPLINE
  5
1a7
100
AcDbEntity
  8
Layer_1
 62
1
100
AcDbSpline
 70
8
 71
3
 72
8
 73
4
 74
0
 40
0
 40
0
 40
0
 40
0
 40
1
 40
1
 40
1
 40
1
 10
122.594424
 20
90.094354
 30
0.0
 10
122.594424
 20
90.492160
 30
0.0
 10
122.436375
 20
90.873725
 30
0.0
 10
122.155084
 20
91.155016
 30
0.0
  0
SPLINE
  5
1a8
100
AcDbEntity
  8
Layer_1
 62
1
100
AcDbSpline
 70
8
 71
3
 72
8
 73
4
 74
0
 40
0
 40
0
 40
0
 40
0
 40
1
 40
1
 40
1
 40
1
 10
122.155084
 20
91.155016
 30
0.0
 10
121.873793
 20
91.436307
 30
0.0
 10
121.492225
 20
91.594359
 30
0.0
 10
121.094422
 20
91.594359
 30
0.0
  0
SPLINE
  5
1a9
100
AcDbEntity
  8
Layer_1
 62
1
100
AcDbSpline
 70
8
 71
3
 72
8
 73
4
 74
0
 40
0
 40
0
 40
0
 40
0
 40
1
 40
1
 40
1
 40
1
 10
121.094422
 20
91.594359
 30
0.0
 10
120.696615
 20
91.594359
 30
0.0
 10
120.315051
 20
91.436307
 30
0.0
 10
120.033760
 20
91.155016
 30
0.0
  0
SPLINE
  5
1aa
100
AcDbEntity
  8
Layer_1
 62
1
100
AcDbSpline
 70
8
 71
3
 72
8
 73
4
 74
0
 40
0
 40
0
 40
0
 40
0
 40
1
 40
1
 40
1
 40
1
 10
120.033760
 20
91.155016
 30
0.0
 10
119.752469
 20
90.873725
 30
0.0
 10
119.594417
 20
90.492160
 30
0.0
 10
119.594417
 20
90.094354
 30
0.0
  0
SPLINE
  5
1ab
100
AcDbEntity
  8
Layer_1
 62
1
100
AcDbSpline
 70
8
 71
3
 72
8
 73
4
 74
0
 40
0
 40
0
 40
0
 40
0
 40
1
 40
1
 40
1
 40
1
 10
119.594417
 20
90.094354
 30
0.0
 10
119.594417
 20
89.696551
 30
0.0
 10
119.752469
 20
89.314983
 30
0.0
 10
120.033760
 20
89.033691
 30
0.0
  0
SPLINE
  5
1ac
100
AcDbEntity
  8
Layer_1
 62
1
100
AcDbSpline
 70
8
 71
3
 72
8
 73
4
 74
0
 40
0
 40
0
 40
0
 40
0
 40
1
 40
1
 40
1
 40
1
 10
120.033760
 20
89.033691
 30
0.0
 10
120.315051
 20
88.752400
 30
0.0
 10
120.696615
 20
88.594352
 30
0.0
 10
121.094422
 20
88.594352
 30
0.0
  0
LWPOLYLINE
  5
1ad
100
AcDbEntity
  8
Layer_1
 62
1
100
AcDbPolyline
 90
1
 70
1
 10
115.729639
 20
83.229566
 30
0.0
  0
SPLINE
  5
1ae
100
AcDbEntity
  8
Layer_1
 62
1
100
AcDbSpline
 70
8
 71
3
 72
8
 73
4
 74
0
 40
0
 40
0
 40
0
 40
0
 40
1
 40
1
 40
1
 40
1
 10
126.459212
 20
93.959132
 30
0.0
 10
126.857019
 20
93.959132
 30
0.0
 10
127.238584
 20
94.117184
 30
0.0
 10
127.519875
 20
94.398475
 30
0.0
  0
SPLINE
  5
1af
100
AcDbEntity
  8
Layer_1
 62
1
100
AcDbSpline
 70
8
 71
3
 72
8
 73
4
 74
0
 40
0
 40
0
 40
0
 40
0
 40
1
 40
1
 40
1
 40
1
 10
127.519875
 20
94.398475
 30
0.0
 10
127.801166
 20
94.679766
 30
0.0
 10
127.959217
 20
95.061331
 30
0.0
 10
127.959217
 20
95.459136
 30
0.0
  0
SPLINE
  5
1b0
100
AcDbEntity
  8
Layer_1
 62
1
100
AcDbSpline
 70
8
 71
3
 72
8
 73
4
 74
0
 40
0
 40
0
 40
0
 40
0
 40
1
 40
1
 40
1
 40
1
 10
127.959217
 20
95.459136
 30
0.0
 10
127.959217
 20
95.856942
 30
0.0
 10
127.801166
 20
96.238508
 30
0.0
 10
127.519875
 20
96.519799
 30
0.0
  0
SPLINE
  5
1b1
100
AcDbEntity
  8
Layer_1
 62
1
100
AcDbSpline
 70
8
 71
3
 72
8
 73
4
 74
0
 40
0
 40
0
 40
0
 40
0
 40
1
 40
1
 40
1
 40
1
 10
127.519875
 20
96.519799
 30
0.0
 10
127.238584
 20
96.801090
 30
0.0
 10
126.857019
 20
96.959140
 30
0.0
 10
126.459212
 20
96.959140
 30
0.0
  0
SPLINE
  5
1b2
100
AcDbEntity
  8
Layer_1
 62
1
100
AcDbSpline
 70
8
 71
3
 72
8
 73
4
 74
0
 40
0
 40
0
 40
0
 40
0
 40
1
 40
1
 40
1
 40
1
 10
126.459212
 20
96.959140
 30
0.0
 10
126.061409
 20
96.959140
 30
0.0
 10
125.679841
 20
96.801090
 30
0.0
 10
125.398550
 20
96.519799
 30
0.0
  0
SPLINE
  5
1b3
100
AcDbEntity
  8
Layer_1
 62
1
100
AcDbSpline
 70
8
 71
3
 72
8
 73
4
 74
0
 40
0
 40
0
 40
0
 40
0
 40
1
 40
1
 40
1
 40
1
 10
125.398550
 20
96.519799
 30
0.0
 10
125.117259
 20
96.238508
 30
0.0
 10
124.959211
 20
95.856942
 30
0.0
 10
124.959211
 20
95.459136
 30
0.0
  0
SPLINE
  5
1b4
100
AcDbEntity
  8
Layer_1
 62
1
100
AcDbSpline
 70
8
 71
3
 72
8
 73
4
 74
0
 40
0
 40
0
 40
0
 40
0
 40
1
 40
1
 40
1
 40
1
 10
124.959211
 20
95.459136
 30
0.0
 10
124.959211
 20
95.061331
 30
0.0
 10
125.117259
 20
94.679766
 30
0.0
 10
125.398550
 20
94.398475
 30
0.0
  0
SPLINE
  5
1b5
100
AcDbEntity
  8
Layer_1
 62
1
100
AcDbSpline
 70
8
 71
3
 72
8
 73
4
 74
0
 40
0
 40
0
 40
0
 40
0
 40
1
 40
1
 40
1
 40
1
 10
125.398550
 20
94.398475
 30
0.0
 10
125.679841
 20
94.117184
 30
0.0
 10
126.061409
 20
93.959132
 30
0.0
 10
126.459212
 20
93.959132
 30
0.0
  0
LWPOLYLINE
  5
1b6
100
AcDbEntity
  8
Layer_1
 62
1
100
AcDbPolyline
 90
1
 70
1
 10
121.094422
 20
88.594352
 30
0.0
  0
SPLINE
  5
1b7
100
AcDbEntity
  8
Layer_1
 62
1
100
AcDbSpline
 70
8
 71
3
 72
8
 73
4
 74
0
 40
0
 40
0
 40
0
 40
0
 40
1
 40
1
 40
1
 40
1
 10
131.823996
 20
99.323917
 30
0.0
 10
132.221799
 20
99.323917
 30
0.0
 10
132.603367
 20
99.481967
 30
0.0
 10
132.884658
 20
99.763258
 30
0.0
  0
SPLINE
  5
1b8
100
AcDbEntity
  8
Layer_1
 62
1
100
AcDbSpline
 70
8
 71
3
 72
8
 73
4
 74
0
 40
0
 40
0
 40
0
 40
0
 40
1
 40
1
 40
1
 40
1
 10
132.884658
 20
99.763258
 30
0.0
 10
133.165949
 20
100.044549
 30
0.0
 10
133.323997
 20
100.426115
 30
0.0
 10
133.323997
 20
100.823921
 30
0.0
  0
SPLINE
  5
1b9
100
AcDbEntity
  8
Layer_1
 62
1
100
AcDbSpline
 70
8
 71
3
 72
8
 73
4
 74
0
 40
0
 40
0
 40
0
 40
0
 40
1
 40
1
 40
1
 40
1
 10
133.323997
 20
100.823921
 30
0.0
 10
133.323997
 20
101.221726
 30
0.0
 10
133.165949
 20
101.603292
 30
0.0
 10
132.884658
 20
101.884583
 30
0.0
  0
SPLINE
  5
1ba
100
AcDbEntity
  8
Layer_1
 62
1
100
AcDbSpline
 70
8
 71
3
 72
8
 73
4
 74
0
 40
0
 40
0
 40
0
 40
0
 40
1
 40
1
 40
1
 40
1
 10
132.884658
 20
101.884583
 30
0.0
 10
132.603367
 20
102.165874
 30
0.0
 10
132.221799
 20
102.323924
 30
0.0
 10
131.823996
 20
102.323924
 30
0.0
  0
SPLINE
  5
1bb
100
AcDbEntity
  8
Layer_1
 62
1
100
AcDbSpline
 70
8
 71
3
 72
8
 73
4
 74
0
 40
0
 40
0
 40
0
 40
0
 40
1
 40
1
 40
1
 40
1
 10
131.823996
 20
102.323924
 30
0.0
 10
131.426189
 20
102.323924
 30
0.0
 10
131.044624
 20
102.165874
 30
0.0
 10
130.763333
 20
101.884583
 30
0.0
  0
SPLINE
  5
1bc
100
AcDbEntity
  8
Layer_1
 62
1
100
AcDbSpline
 70
8
 71
3
 72
8
 73
4
 74
0
 40
0
 40
0
 40
0
 40
0
 40
1
 40
1
 40
1
 40
1
 10
130.763333
 20
101.884583
 30
0.0
 10
130.482042
 20
101.603292
 30
0.0
 10
130.323991
 20
101.221726
 30
0.0
 10
130.323991
 20
100.823921
 30
0.0
  0
SPLINE
  5
1bd
100
AcDbEntity
  8
Layer_1
 62
1
100
AcDbSpline
 70
8
 71
3
 72
8
 73
4
 74
0
 40
0
 40
0
 40
0
 40
0
 40
1
 40
1
 40
1
 40
1
 10
130.323991
 20
100.823921
 30
0.0
 10
130.323991
 20
100.426115
 30
0.0
 10
130.482042
 20
100.044549
 30
0.0
 10
130.763333
 20
99.763258
 30
0.0
  0
SPLINE
  5
1be
100
AcDbEntity
  8
Layer_1
 62
1
100
AcDbSpline
 70
8
 71
3
 72
8
 73
4
 74
0
 40
0
 40
0
 40
0
 40
0
 40
1
 40
1
 40
1
 40
1
 10
130.763333
 20
99.763258
 30
0.0
 10
131.044624
 20
99.481967
 30
0.0
 10
131.426189
 20
99.323917
 30
0.0
 10
131.823996
 20
99.323917
 30
0.0
  0
LWPOLYLINE
  5
1bf
100
AcDbEntity
  8
Layer_1
 62
1
100
AcDbPolyline
 90
1
 70
1
 10
126.459212
 20
93.959132
 30
0.0
  0
SPLINE
  5
1c0
100
AcDbEntity
  8
Layer_1
 62
1
100
AcDbSpline
 70
8
 71
3
 72
8
 73
4
 74
0
 40
0
 40
0
 40
0
 40
0
 40
1
 40
1
 40
1
 40
1
 10
137.188775
 20
104.688701
 30
0.0
 10
137.586582
 20
104.688701
 30
0.0
 10
137.968147
 20
104.846751
 30
0.0
 10
138.249438
 20
105.128042
 30
0.0
  0
SPLINE
  5
1c1
100
AcDbEntity
  8
Layer_1
 62
1
100
AcDbSpline
 70
8
 71
3
 72
8
 73
4
 74
0
 40
0
 40
0
 40
0
 40
0
 40
1
 40
1
 40
1
 40
1
 10
138.249438
 20
105.128042
 30
0.0
 10
138.530729
 20
105.409333
 30
0.0
 10
138.688780
 20
105.790899
 30
0.0
 10
138.688780
 20
106.188705
 30
0.0
  0
SPLINE
  5
1c2
100
AcDbEntity
  8
Layer_1
 62
1
100
AcDbSpline
 70
8
 71
3
 72
8
 73
4
 74
0
 40
0
 40
0
 40
0
 40
0
 40
1
 40
1
 40
1
 40
1
 10
138.688780
 20
106.188705
 30
0.0
 10
138.688780
 20
106.586510
 30
0.0
 10
138.530729
 20
106.968076
 30
0.0
 10
138.249438
 20
107.249367
 30
0.0
  0
SPLINE
  5
1c3
100
AcDbEntity
  8
Layer_1
 62
1
100
AcDbSpline
 70
8
 71
3
 72
8
 73
4
 74
0
 40
0
 40
0
 40
0
 40
0
 40
1
 40
1
 40
1
 40
1
 10
138.249438
 20
107.249367
 30
0.0
 10
137.968147
 20
107.530658
 30
0.0
 10
137.586582
 20
107.688708
 30
0.0
 10
137.188775
 20
107.688708
 30
0.0
  0
SPLINE
  5
1c4
100
AcDbEntity
  8
Layer_1
 62
1
100
AcDbSpline
 70
8
 71
3
 72
8
 73
4
 74
0
 40
0
 40
0
 40
0
 40
0
 40
1
 40
1
 40
1
 40
1
 10
137.188775
 20
107.688708
 30
0.0
 10
136.790969
 20
107.688708
 30
0.0
 10
136.409404
 20
107.530658
 30
0.0
 10
136.128113
 20
107.249367
 30
0.0
  0
SPLINE
  5
1c5
100
AcDbEntity
  8
Layer_1
 62
1
100
AcDbSpline
 70
8
 71
3
 72
8
 73
4
 74
0
 40
0
 40
0
 40
0
 40
0
 40
1
 40
1
 40
1
 40
1
 10
136.128113
 20
107.249367
 30
0.0
 10
135.846822
 20
106.968076
 30
0.0
 10
135.688774
 20
106.586510
 30
0.0
 10
135.688774
 20
106.188705
 30
0.0
  0
SPLINE
  5
1c6
100
AcDbEntity
  8
Layer_1
 62
1
100
AcDbSpline
 70
8
 71
3
 72
8
 73
4
 74
0
 40
0
 40
0
 40
0
 40
0
 40
1
 40
1
 40
1
 40
1
 10
135.688774
 20
106.188705
 30
0.0
 10
135.688774
 20
105.790899
 30
0.0
 10
135.846822
 20
105.409333
 30
0.0
 10
136.128113
 20
105.128042
 30
0.0
  0
SPLINE
  5
1c7
100
AcDbEntity
  8
Layer_1
 62
1
100
AcDbSpline
 70
8
 71
3
 72
8
 73
4
 74
0
 40
0
 40
0
 40
0
 40
0
 40
1
 40
1
 40
1
 40
1
 10
136.128113
 20
105.128042
 30
0.0
 10
136.409404
 20
104.846751
 30
0.0
 10
136.790969
 20
104.688701
 30
0.0
 10
137.188775
 20
104.688701
 30
0.0
  0
LWPOLYLINE
  5
1c8
100
AcDbEntity
  8
Layer_1
 62
1
100
AcDbPolyline
 90
1
 70
1
 10
131.823996
 20
99.323917
 30
0.0
  0
SPLINE
  5
1c9
100
AcDbEntity
  8
Layer_1
 62
1
100
AcDbSpline
 70
8
 71
3
 72
8
 73
4
 74
0
 40
0
 40
0
 40
0
 40
0
 40
1
 40
1
 40
1
 40
1
 10
142.553559
 20
110.053486
 30
0.0
 10
142.951362
 20
110.053486
 30
0.0
 10
143.332930
 20
110.211535
 30
0.0
 10
143.614221
 20
110.492827
 30
0.0
  0
SPLINE
  5
1ca
100
AcDbEntity
  8
Layer_1
 62
1
100
AcDbSpline
 70
8
 71
3
 72
8
 73
4
 74
0
 40
0
 40
0
 40
0
 40
0
 40
1
 40
1
 40
1
 40
1
 10
143.614221
 20
110.492827
 30
0.0
 10
143.895512
 20
110.774117
 30
0.0
 10
144.053560
 20
111.155683
 30
0.0
 10
144.053560
 20
111.553489
 30
0.0
  0
SPLINE
  5
1cb
100
AcDbEntity
  8
Layer_1
 62
1
100
AcDbSpline
 70
8
 71
3
 72
8
 73
4
 74
0
 40
0
 40
0
 40
0
 40
0
 40
1
 40
1
 40
1
 40
1
 10
144.053560
 20
111.553489
 30
0.0
 10
144.053560
 20
111.951294
 30
0.0
 10
143.895512
 20
112.332860
 30
0.0
 10
143.614221
 20
112.614151
 30
0.0
  0
SPLINE
  5
1cc
100
AcDbEntity
  8
Layer_1
 62
1
100
AcDbSpline
 70
8
 71
3
 72
8
 73
4
 74
0
 40
0
 40
0
 40
0
 40
0
 40
1
 40
1
 40
1
 40
1
 10
143.614221
 20
112.614151
 30
0.0
 10
143.332930
 20
112.895442
 30
0.0
 10
142.951362
 20
113.053492
 30
0.0
 10
142.553559
 20
113.053492
 30
0.0
  0
SPLINE
  5
1cd
100
AcDbEntity
  8
Layer_1
 62
1
100
AcDbSpline
 70
8
 71
3
 72
8
 73
4
 74
0
 40
0
 40
0
 40
0
 40
0
 40
1
 40
1
 40
1
 40
1
 10
142.553559
 20
113.053492
 30
0.0
 10
142.155752
 20
113.053492
 30
0.0
 10
141.774187
 20
112.895442
 30
0.0
 10
141.492896
 20
112.614151
 30
0.0
  0
SPLINE
  5
1ce
100
AcDbEntity
  8
Layer_1
 62
1
100
AcDbSpline
 70
8
 71
3
 72
8
 73
4
 74
0
 40
0
 40
0
 40
0
 40
0
 40
1
 40
1
 40
1
 40
1
 10
141.492896
 20
112.614151
 30
0.0
 10
141.211605
 20
112.332860
 30
0.0
 10
141.053554
 20
111.951294
 30
0.0
 10
141.053554
 20
111.553489
 30
0.0
  0
SPLINE
  5
1cf
100
AcDbEntity
  8
Layer_1
 62
1
100
AcDbSpline
 70
8
 71
3
 72
8
 73
4
 74
0
 40
0
 40
0
 40
0
 40
0
 40
1
 40
1
 40
1
 40
1
 10
141.053554
 20
111.553489
 30
0.0
 10
141.053554
 20
111.155683
 30
0.0
 10
141.211605
 20
110.774117
 30
0.0
 10
141.492896
 20
110.492827
 30
0.0
  0
SPLINE
  5
1d0
100
AcDbEntity
  8
Layer_1
 62
1
100
AcDbSpline
 70
8
 71
3
 72
8
 73
4
 74
0
 40
0
 40
0
 40
0
 40
0
 40
1
 40
1
 40
1
 40
1
 10
141.492896
 20
110.492827
 30
0.0
 10
141.774187
 20
110.211535
 30
0.0
 10
142.155752
 20
110.053486
 30
0.0
 10
142.553559
 20
110.053486
 30
0.0
  0
LWPOLYLINE
  5
1d1
100
AcDbEntity
  8
Layer_1
 62
1
100
AcDbPolyline
 90
1
 70
1
 10
137.188775
 20
104.688701
 30
0.0
  0
SPLINE
  5
1d2
100
AcDbEntity
  8
Layer_1
 62
1
100
AcDbSpline
 70
8
 71
3
 72
8
 73
4
 74
0
 40
0
 40
0
 40
0
 40
0
 40
1
 40
1
 40
1
 40
1
 10
147.918349
 20
115.418268
 30
0.0
 10
148.316155
 20
115.418268
 30
0.0
 10
148.697720
 20
115.576318
 30
0.0
 10
148.979011
 20
115.857609
 30
0.0
  0
SPLINE
  5
1d3
100
AcDbEntity
  8
Layer_1
 62
1
100
AcDbSpline
 70
8
 71
3
 72
8
 73
4
 74
0
 40
0
 40
0
 40
0
 40
0
 40
1
 40
1
 40
1
 40
1
 10
148.979011
 20
115.857609
 30
0.0
 10
149.260302
 20
116.138900
 30
0.0
 10
149.418354
 20
116.520466
 30
0.0
 10
149.418354
 20
116.918271
 30
0.0
  0
SPLINE
  5
1d4
100
AcDbEntity
  8
Layer_1
 62
1
100
AcDbSpline
 70
8
 71
3
 72
8
 73
4
 74
0
 40
0
 40
0
 40
0
 40
0
 40
1
 40
1
 40
1
 40
1
 10
149.418354
 20
116.918271
 30
0.0
 10
149.418354
 20
117.316077
 30
0.0
 10
149.260302
 20
117.697643
 30
0.0
 10
148.979011
 20
117.978934
 30
0.0
  0
SPLINE
  5
1d5
100
AcDbEntity
  8
Layer_1
 62
1
100
AcDbSpline
 70
8
 71
3
 72
8
 73
4
 74
0
 40
0
 40
0
 40
0
 40
0
 40
1
 40
1
 40
1
 40
1
 10
148.979011
 20
117.978934
 30
0.0
 10
148.697720
 20
118.260225
 30
0.0
 10
148.316155
 20
118.418275
 30
0.0
 10
147.918349
 20
118.418275
 30
0.0
  0
SPLINE
  5
1d6
100
AcDbEntity
  8
Layer_1
 62
1
100
AcDbSpline
 70
8
 71
3
 72
8
 73
4
 74
0
 40
0
 40
0
 40
0
 40
0
 40
1
 40
1
 40
1
 40
1
 10
147.918349
 20
118.418275
 30
0.0
 10
147.520546
 20
118.418275
 30
0.0
 10
147.138978
 20
118.260225
 30
0.0
 10
146.857686
 20
117.978934
 30
0.0
  0
SPLINE
  5
1d7
100
AcDbEntity
  8
Layer_1
 62
1
100
AcDbSpline
 70
8
 71
3
 72
8
 73
4
 74
0
 40
0
 40
0
 40
0
 40
0
 40
1
 40
1
 40
1
 40
1
 10
146.857686
 20
117.978934
 30
0.0
 10
146.576395
 20
117.697643
 30
0.0
 10
146.418347
 20
117.316077
 30
0.0
 10
146.418347
 20
116.918271
 30
0.0
  0
SPLINE
  5
1d8
100
AcDbEntity
  8
Layer_1
 62
1
100
AcDbSpline
 70
8
 71
3
 72
8
 73
4
 74
0
 40
0
 40
0
 40
0
 40
0
 40
1
 40
1
 40
1
 40
1
 10
146.418347
 20
116.918271
 30
0.0
 10
146.418347
 20
116.520466
 30
0.0
 10
146.576395
 20
116.138900
 30
0.0
 10
146.857686
 20
115.857609
 30
0.0
  0
SPLINE
  5
1d9
100
AcDbEntity
  8
Layer_1
 62
1
100
AcDbSpline
 70
8
 71
3
 72
8
 73
4
 74
0
 40
0
 40
0
 40
0
 40
0
 40
1
 40
1
 40
1
 40
1
 10
146.857686
 20
115.857609
 30
0.0
 10
147.138978
 20
115.576318
 30
0.0
 10
147.520546
 20
115.418268
 30
0.0
 10
147.918349
 20
115.418268
 30
0.0
  0
LWPOLYLINE
  5
1da
100
AcDbEntity
  8
Layer_1
 62
1
100
AcDbPolyline
 90
1
 70
1
 10
142.553559
 20
110.053486
 30
0.0
  0
SPLINE
  5
1db
100
AcDbEntity
  8
Layer_1
 62
1
100
AcDbSpline
 70
8
 71
3
 72
8
 73
4
 74
0
 40
0
 40
0
 40
0
 40
0
 40
1
 40
1
 40
1
 40
1
 10
153.283132
 20
120.783053
 30
0.0
 10
153.680935
 20
120.783053
 30
0.0
 10
154.062503
 20
120.941103
 30
0.0
 10
154.343794
 20
121.222394
 30
0.0
  0
SPLINE
  5
1dc
100
AcDbEntity
  8
Layer_1
 62
1
100
AcDbSpline
 70
8
 71
3
 72
8
 73
4
 74
0
 40
0
 40
0
 40
0
 40
0
 40
1
 40
1
 40
1
 40
1
 10
154.343794
 20
121.222394
 30
0.0
 10
154.625085
 20
121.503685
 30
0.0
 10
154.783134
 20
121.885251
 30
0.0
 10
154.783134
 20
122.283056
 30
0.0
  0
SPLINE
  5
1dd
100
AcDbEntity
  8
Layer_1
 62
1
100
AcDbSpline
 70
8
 71
3
 72
8
 73
4
 74
0
 40
0
 40
0
 40
0
 40
0
 40
1
 40
1
 40
1
 40
1
 10
154.783134
 20
122.283056
 30
0.0
 10
154.783134
 20
122.680862
 30
0.0
 10
154.625085
 20
123.062428
 30
0.0
 10
154.343794
 20
123.343719
 30
0.0
  0
SPLINE
  5
1de
100
AcDbEntity
  8
Layer_1
 62
1
100
AcDbSpline
 70
8
 71
3
 72
8
 73
4
 74
0
 40
0
 40
0
 40
0
 40
0
 40
1
 40
1
 40
1
 40
1
 10
154.343794
 20
123.343719
 30
0.0
 10
154.062503
 20
123.625010
 30
0.0
 10
153.680935
 20
123.783060
 30
0.0
 10
153.283132
 20
123.783060
 30
0.0
  0
SPLINE
  5
1df
100
AcDbEntity
  8
Layer_1
 62
1
100
AcDbSpline
 70
8
 71
3
 72
8
 73
4
 74
0
 40
0
 40
0
 40
0
 40
0
 40
1
 40
1
 40
1
 40
1
 10
153.283132
 20
123.783060
 30
0.0
 10
152.885325
 20
123.783060
 30
0.0
 10
152.503761
 20
123.625010
 30
0.0
 10
152.222470
 20
123.343719
 30
0.0
  0
SPLINE
  5
1e0
100
AcDbEntity
  8
Layer_1
 62
1
100
AcDbSpline
 70
8
 71
3
 72
8
 73
4
 74
0
 40
0
 40
0
 40
0
 40
0
 40
1
 40
1
 40
1
 40
1
 10
152.222470
 20
123.343719
 30
0.0
 10
151.941179
 20
123.062428
 30
0.0
 10
151.783127
 20
122.680862
 30
0.0
 10
151.783127
 20
122.283056
 30
0.0
  0
SPLINE
  5
1e1
100
AcDbEntity
  8
Layer_1
 62
1
100
AcDbSpline
 70
8
 71
3
 72
8
 73
4
 74
0
 40
0
 40
0
 40
0
 40
0
 40
1
 40
1
 40
1
 40
1
 10
151.783127
 20
122.283056
 30
0.0
 10
151.783127
 20
121.885251
 30
0.0
 10
151.941179
 20
121.503685
 30
0.0
 10
152.222470
 20
121.222394
 30
0.0
  0
SPLINE
  5
1e2
100
AcDbEntity
  8
Layer_1
 62
1
100
AcDbSpline
 70
8
 71
3
 72
8
 73
4
 74
0
 40
0
 40
0
 40
0
 40
0
 40
1
 40
1
 40
1
 40
1
 10
152.222470
 20
121.222394
 30
0.0
 10
152.503761
 20
120.941103
 30
0.0
 10
152.885325
 20
120.783053
 30
0.0
 10
153.283132
 20
120.783053
 30
0.0
  0
LWPOLYLINE
  5
1e3
100
AcDbEntity
  8
Layer_1
 62
1
100
AcDbPolyline
 90
1
 70
1
 10
147.918349
 20
115.418268
 30
0.0
  0
SPLINE
  5
1e4
100
AcDbEntity
  8
Layer_1
 62
1
100
AcDbSpline
 70
8
 71
3
 72
8
 73
4
 74
0
 40
0
 40
0
 40
0
 40
0
 40
1
 40
1
 40
1
 40
1
 10
158.647912
 20
126.147837
 30
0.0
 10
159.045718
 20
126.147837
 30
0.0
 10
159.427283
 20
126.305887
 30
0.0
 10
159.708574
 20
126.587178
 30
0.0
  0
SPLINE
  5
1e5
100
AcDbEntity
  8
Layer_1
 62
1
100
AcDbSpline
 70
8
 71
3
 72
8
 73
4
 74
0
 40
0
 40
0
 40
0
 40
0
 40
1
 40
1
 40
1
 40
1
 10
159.708574
 20
126.587178
 30
0.0
 10
159.989865
 20
126.868468
 30
0.0
 10
160.147917
 20
127.250035
 30
0.0
 10
160.147917
 20
127.647840
 30
0.0
  0
SPLINE
  5
1e6
100
AcDbEntity
  8
Layer_1
 62
1
100
AcDbSpline
 70
8
 71
3
 72
8
 73
4
 74
0
 40
0
 40
0
 40
0
 40
0
 40
1
 40
1
 40
1
 40
1
 10
160.147917
 20
127.647840
 30
0.0
 10
160.147917
 20
128.045646
 30
0.0
 10
159.989865
 20
128.427212
 30
0.0
 10
159.708574
 20
128.708502
 30
0.0
  0
SPLINE
  5
1e7
100
AcDbEntity
  8
Layer_1
 62
1
100
AcDbSpline
 70
8
 71
3
 72
8
 73
4
 74
0
 40
0
 40
0
 40
0
 40
0
 40
1
 40
1
 40
1
 40
1
 10
159.708574
 20
128.708502
 30
0.0
 10
159.427283
 20
128.989793
 30
0.0
 10
159.045718
 20
129.147843
 30
0.0
 10
158.647912
 20
129.147843
 30
0.0
  0
SPLINE
  5
1e8
100
AcDbEntity
  8
Layer_1
 62
1
100
AcDbSpline
 70
8
 71
3
 72
8
 73
4
 74
0
 40
0
 40
0
 40
0
 40
0
 40
1
 40
1
 40
1
 40
1
 10
158.647912
 20
129.147843
 30
0.0
 10
158.250105
 20
129.147843
 30
0.0
 10
157.868541
 20
128.989793
 30
0.0
 10
157.587249
 20
128.708502
 30
0.0
  0
SPLINE
  5
1e9
100
AcDbEntity
  8
Layer_1
 62
1
100
AcDbSpline
 70
8
 71
3
 72
8
 73
4
 74
0
 40
0
 40
0
 40
0
 40
0
 40
1
 40
1
 40
1
 40
1
 10
157.587249
 20
128.708502
 30
0.0
 10
157.305958
 20
128.427212
 30
0.0
 10
157.147910
 20
128.045646
 30
0.0
 10
157.147910
 20
127.647840
 30
0.0
  0
SPLINE
  5
1ea
100
AcDbEntity
  8
Layer_1
 62
1
100
AcDbSpline
 70
8
 71
3
 72
8
 73
4
 74
0
 40
0
 40
0
 40
0
 40
0
 40
1
 40
1
 40
1
 40
1
 10
157.147910
 20
127.647840
 30
0.0
 10
157.147910
 20
127.250035
 30
0.0
 10
157.305958
 20
126.868468
 30
0.0
 10
157.587249
 20
126.587178
 30
0.0
  0
SPLINE
  5
1eb
100
AcDbEntity
  8
Layer_1
 62
1
100
AcDbSpline
 70
8
 71
3
 72
8
 73
4
 74
0
 40
0
 40
0
 40
0
 40
0
 40
1
 40
1
 40
1
 40
1
 10
157.587249
 20
126.587178
 30
0.0
 10
157.868541
 20
126.305887
 30
0.0
 10
158.250105
 20
126.147837
 30
0.0
 10
158.647912
 20
126.147837
 30
0.0
  0
LWPOLYLINE
  5
1ec
100
AcDbEntity
  8
Layer_1
 62
1
100
AcDbPolyline
 90
1
 70
1
 10
153.283132
 20
120.783053
 30
0.0
  0
LWPOLYLINE
  5
1ed
100
AcDbEntity
  8
Layer_1
 62
1
100
AcDbPolyline
 90
1
 70
1
 10
158.647912
 20
126.147837
 30
0.0
  0
LWPOLYLINE
  5
1ee
100
AcDbEntity
  8
Layer_1
 62
3
100
AcDbPolyline
 90
5
 70
0
 10
48.459454
 20
130.540620
 30
0.0
 10
104.831127
 20
74.168946
 30
0.0
 10
105.169018
 20
74.168946
 30
0.0
 10
161.540691
 20
130.540620
 30
0.0
 10
161.540691
 20
130.540620
 30
0.0
  0
LWPOLYLINE
  5
1ef
100
AcDbEntity
  8
Layer_1
 62
1
100
AcDbPolyline
 90
4
 70
1
 10
49.852229
 20
126.147837
 30
0.0
 10
52.852236
 20
126.147837
 30
0.0
 10
52.852236
 20
129.147843
 30
0.0
 10
49.852229
 20
129.147843
 30
0.0
  0
LWPOLYLINE
  5
1f0
100
AcDbEntity
  8
Layer_1
 62
1
100
AcDbPolyline
 90
4
 70
1
 10
56.163744
 20
119.836326
 30
0.0
 10
59.163750
 20
119.836326
 30
0.0
 10
59.163750
 20
122.836333
 30
0.0
 10
56.163744
 20
122.836333
 30
0.0
  0
LWPOLYLINE
  5
1f1
100
AcDbEntity
  8
Layer_1
 62
1
100
AcDbPolyline
 90
4
 70
1
 10
62.475253
 20
113.524816
 30
0.0
 10
65.475259
 20
113.524816
 30
0.0
 10
65.475259
 20
116.524822
 30
0.0
 10
62.475253
 20
116.524822
 30
0.0
  0
LWPOLYLINE
  5
1f2
100
AcDbEntity
  8
Layer_1
 62
1
100
AcDbPolyline
 90
4
 70
1
 10
68.786765
 20
107.213305
 30
0.0
 10
71.786772
 20
107.213305
 30
0.0
 10
71.786772
 20
110.213312
 30
0.0
 10
68.786765
 20
110.213312
 30
0.0
  0
LWPOLYLINE
  5
1f3
100
AcDbEntity
  8
Layer_1
 62
1
100
AcDbPolyline
 90
4
 70
1
 10
75.098274
 20
100.901794
 30
0.0
 10
78.098280
 20
100.901794
 30
0.0
 10
78.098280
 20
103.901800
 30
0.0
 10
75.098274
 20
103.901800
 30
0.0
  0
LWPOLYLINE
  5
1f4
100
AcDbEntity
  8
Layer_1
 62
1
100
AcDbPolyline
 90
4
 70
1
 10
81.409783
 20
94.590284
 30
0.0
 10
84.409789
 20
94.590284
 30
0.0
 10
84.409789
 20
97.590289
 30
0.0
 10
81.409783
 20
97.590289
 30
0.0
  0
LWPOLYLINE
  5
1f5
100
AcDbEntity
  8
Layer_1
 62
1
100
AcDbPolyline
 90
4
 70
1
 10
87.721295
 20
88.278771
 30
0.0
 10
90.721302
 20
88.278771
 30
0.0
 10
90.721302
 20
91.278778
 30
0.0
 10
87.721295
 20
91.278778
 30
0.0
  0
LWPOLYLINE
  5
1f6
100
AcDbEntity
  8
Layer_1
 62
1
100
AcDbPolyline
 90
4
 70
1
 10
94.032804
 20
81.967266
 30
0.0
 10
97.032810
 20
81.967266
 30
0.0
 10
97.032810
 20
84.967272
 30
0.0
 10
94.032804
 20
84.967272
 30
0.0
  0
LWPOLYLINE
  5
1f7
100
AcDbEntity
  8
Layer_1
 62
1
100
AcDbPolyline
 90
4
 70
1
 10
100.344316
 20
75.655753
 30
0.0
 10
103.344323
 20
75.655753
 30
0.0
 10
103.344323
 20
78.655760
 30
0.0
 10
100.344316
 20
78.655760
 30
0.0
  0
LWPOLYLINE
  5
1f8
100
AcDbEntity
  8
Layer_1
 62
1
100
AcDbPolyline
 90
4
 70
1
 10
106.655825
 20
75.655753
 30
0.0
 10
109.655832
 20
75.655753
 30
0.0
 10
109.655832
 20
78.655760
 30
0.0
 10
106.655825
 20
78.655760
 30
0.0
  0
LWPOLYLINE
  5
1f9
100
AcDbEntity
  8
Layer_1
 62
1
100
AcDbPolyline
 90
4
 70
1
 10
112.967341
 20
81.967266
 30
0.0
 10
115.967348
 20
81.967266
 30
0.0
 10
115.967348
 20
84.967272
 30
0.0
 10
112.967341
 20
84.967272
 30
0.0
  0
LWPOLYLINE
  5
1fa
100
AcDbEntity
  8
Layer_1
 62
1
100
AcDbPolyline
 90
4
 70
1
 10
119.278847
 20
88.278771
 30
0.0
 10
122.278853
 20
88.278771
 30
0.0
 10
122.278853
 20
91.278778
 30
0.0
 10
119.278847
 20
91.278778
 30
0.0
  0
LWPOLYLINE
  5
1fb
100
AcDbEntity
  8
Layer_1
 62
1
100
AcDbPolyline
 90
4
 70
1
 10
125.590362
 20
94.590284
 30
0.0
 10
128.590369
 20
94.590284
 30
0.0
 10
128.590369
 20
97.590289
 30
0.0
 10
125.590362
 20
97.590289
 30
0.0
  0
LWPOLYLINE
  5
1fc
100
AcDbEntity
  8
Layer_1
 62
1
100
AcDbPolyline
 90
4
 70
1
 10
131.901868
 20
100.901794
 30
0.0
 10
134.901874
 20
100.901794
 30
0.0
 10
134.901874
 20
103.901800
 30
0.0
 10
131.901868
 20
103.901800
 30
0.0
  0
LWPOLYLINE
  5
1fd
100
AcDbEntity
  8
Layer_1
 62
1
100
AcDbPolyline
 90
4
 70
1
 10
138.213384
 20
107.213305
 30
0.0
 10
141.213390
 20
107.213305
 30
0.0
 10
141.213390
 20
110.213312
 30
0.0
 10
138.213384
 20
110.213312
 30
0.0
  0
LWPOLYLINE
  5
1fe
100
AcDbEntity
  8
Layer_1
 62
1
100
AcDbPolyline
 90
4
 70
1
 10
144.524889
 20
113.524816
 30
0.0
 10
147.524896
 20
113.524816
 30
0.0
 10
147.524896
 20
116.524822
 30
0.0
 10
144.524889
 20
116.524822
 30
0.0
  0
LWPOLYLINE
  5
1ff
100
AcDbEntity
  8
Layer_1
 62
1
100
AcDbPolyline
 90
4
 70
1
 10
150.836405
 20
119.836326
 30
0.0
 10
153.836411
 20
119.836326
 30
0.0
 10
153.836411
 20
122.836333
 30
0.0
 10
150.836405
 20
122.836333
 30
0.0
  0
LWPOLYLINE
  5
200
100
AcDbEntity
  8
Layer_1
 62
1
100
AcDbPolyline
 90
4
 70
1
 10
157.147910
 20
126.147837
 30
0.0
 10
160.147917
 20
126.147837
 30
0.0
 10
160.147917
 20
129.147843
 30
0.0
 10
157.147910
 20
129.147843
 30
0.0
  0
LWPOLYLINE
  5
201
100
AcDbEntity
  8
Layer_1
 62
7
100
AcDbPolyline
 90
2
 70
0
 10
20.696326
 20
74.000001
 30
0.0
 10
189.303823
 20
74.000001
 30
0.0
  0
LWPOLYLINE
  5
202
100
AcDbEntity
  8
Layer_1
 62
7
100
AcDbPolyline
 90
2
 70
0
 10
105.000072
 20
20.352161
 30
0.0
 10
105.000072
 20
127.647840
 30
0.0
  0
LWPOLYLINE
  5
203
100
AcDbEntity
  8
Layer_1
 62
7
100
AcDbPolyline
 90
2
 70
0
 10
111.131255
 20
20.352161
 30
0.0
 10
98.868893
 20
20.352161
 30
0.0
  0
LWPOLYLINE
  5
204
100
AcDbEntity
  8
Layer_1
 62
7
100
AcDbPolyline
 90
2
 70
0
 10
111.131255
 20
28.016136
 30
0.0
 10
98.868893
 20
28.016136
 30
0.0
  0
LWPOLYLINE
  5
205
100
AcDbEntity
  8
Layer_1
 62
7
100
AcDbPolyline
 90
2
 70
0
 10
111.131255
 20
35.680115
 30
0.0
 10
98.868893
 20
35.680115
 30
0.0
  0
LWPOLYLINE
  5
206
100
AcDbEntity
  8
Layer_1
 62
7
100
AcDbPolyline
 90
2
 70
0
 10
111.131255
 20
43.344093
 30
0.0
 10
98.868893
 20
43.344093
 30
0.0
  0
LWPOLYLINE
  5
207
100
AcDbEntity
  8
Layer_1
 62
7
100
AcDbPolyline
 90
2
 70
0
 10
111.131255
 20
51.008068
 30
0.0
 10
98.868893
 20
51.008068
 30
0.0
  0
LWPOLYLINE
  5
208
100
AcDbEntity
  8
Layer_1
 62
7
100
AcDbPolyline
 90
2
 70
0
 10
111.131255
 20
58.672047
 30
0.0
 10
98.868893
 20
58.672047
 30
0.0
  0
LWPOLYLINE
  5
209
100
AcDbEntity
  8
Layer_1
 62
7
100
AcDbPolyline
 90
2
 70
0
 10
111.131255
 20
66.336022
 30
0.0
 10
98.868893
 20
66.336022
 30
0.0
  0
LWPOLYLINE
  5
20a
100
AcDbEntity
  8
Layer_1
 62
7
100
AcDbPolyline
 90
2
 70
0
 10
111.131255
 20
74.000001
 30
0.0
 10
98.868893
 20
74.000001
 30
0.0
  0
LWPOLYLINE
  5
20b
100
AcDbEntity
  8
Layer_1
 62
7
100
AcDbPolyline
 90
2
 70
0
 10
111.131255
 20
81.663979
 30
0.0
 10
98.868893
 20
81.663979
 30
0.0
  0
LWPOLYLINE
  5
20c
100
AcDbEntity
  8
Layer_1
 62
7
100
AcDbPolyline
 90
2
 70
0
 10
111.131255
 20
89.327954
 30
0.0
 10
98.868893
 20
89.327954
 30
0.0
  0
LWPOLYLINE
  5
20d
100
AcDbEntity
  8
Layer_1
 62
7
100
AcDbPolyline
 90
2
 70
0
 10
111.131255
 20
96.991932
 30
0.0
 10
98.868893
 20
96.991932
 30
0.0
  0
LWPOLYLINE
  5
20e
100
AcDbEntity
  8
Layer_1
 62
7
100
AcDbPolyline
 90
2
 70
0
 10
111.131255
 20
104.655909
 30
0.0
 10
98.868893
 20
104.655909
 30
0.0
  0
LWPOLYLINE
  5
20f
100
AcDbEntity
  8
Layer_1
 62
7
100
AcDbPolyline
 90
2
 70
0
 10
111.131255
 20
112.319886
 30
0.0
 10
98.868893
 20
112.319886
 30
0.0
  0
LWPOLYLINE
  5
210
100
AcDbEntity
  8
Layer_1
 62
7
100
AcDbPolyline
 90
2
 70
0
 10
111.131255
 20
119.983863
 30
0.0
 10
98.868893
 20
119.983863
 30
0.0
  0
LWPOLYLINE
  5
211
100
AcDbEntity
  8
Layer_1
 62
7
100
AcDbPolyline
 90
2
 70
0
 10
111.131255
 20
127.647840
 30
0.0
 10
98.868893
 20
127.647840
 30
0.0
  0
LWPOLYLINE
  5
212
100
AcDbEntity
  8
Layer_1
 62
7
100
AcDbPolyline
 90
2
 70
0
 10
20.696326
 20
80.131183
 30
0.0
 10
20.696326
 20
67.868818
 30
0.0
  0
LWPOLYLINE
  5
213
100
AcDbEntity
  8
Layer_1
 62
7
100
AcDbPolyline
 90
2
 70
0
 10
28.360303
 20
80.131183
 30
0.0
 10
28.360303
 20
67.868818
 30
0.0
  0
LWPOLYLINE
  5
214
100
AcDbEntity
  8
Layer_1
 62
7
100
AcDbPolyline
 90
2
 70
0
 10
36.024280
 20
80.131183
 30
0.0
 10
36.024280
 20
67.868818
 30
0.0
  0
LWPOLYLINE
  5
215
100
AcDbEntity
  8
Layer_1
 62
7
100
AcDbPolyline
 90
2
 70
0
 10
43.688257
 20
80.131183
 30
0.0
 10
43.688257
 20
67.868818
 30
0.0
  0
LWPOLYLINE
  5
216
100
AcDbEntity
  8
Layer_1
 62
7
100
AcDbPolyline
 90
2
 70
0
 10
51.352234
 20
80.131183
 30
0.0
 10
51.352234
 20
67.868818
 30
0.0
  0
LWPOLYLINE
  5
217
100
AcDbEntity
  8
Layer_1
 62
7
100
AcDbPolyline
 90
2
 70
0
 10
59.016211
 20
80.131183
 30
0.0
 10
59.016211
 20
67.868818
 30
0.0
  0
LWPOLYLINE
  5
218
100
AcDbEntity
  8
Layer_1
 62
7
100
AcDbPolyline
 90
2
 70
0
 10
66.680186
 20
80.131183
 30
0.0
 10
66.680186
 20
67.868818
 30
0.0
  0
LWPOLYLINE
  5
219
100
AcDbEntity
  8
Layer_1
 62
7
100
AcDbPolyline
 90
2
 70
0
 10
74.344165
 20
80.131183
 30
0.0
 10
74.344165
 20
67.868818
 30
0.0
  0
LWPOLYLINE
  5
21a
100
AcDbEntity
  8
Layer_1
 62
7
100
AcDbPolyline
 90
2
 70
0
 10
82.008144
 20
80.131183
 30
0.0
 10
82.008144
 20
67.868818
 30
0.0
  0
LWPOLYLINE
  5
21b
100
AcDbEntity
  8
Layer_1
 62
7
100
AcDbPolyline
 90
2
 70
0
 10
89.672119
 20
80.131183
 30
0.0
 10
89.672119
 20
67.868818
 30
0.0
  0
LWPOLYLINE
  5
21c
100
AcDbEntity
  8
Layer_1
 62
7
100
AcDbPolyline
 90
2
 70
0
 10
97.336097
 20
80.131183
 30
0.0
 10
97.336097
 20
67.868818
 30
0.0
  0
LWPOLYLINE
  5
21d
100
AcDbEntity
  8
Layer_1
 62
7
100
AcDbPolyline
 90
2
 70
0
 10
105.000072
 20
80.131183
 30
0.0
 10
105.000072
 20
67.868818
 30
0.0
  0
LWPOLYLINE
  5
21e
100
AcDbEntity
  8
Layer_1
 62
7
100
AcDbPolyline
 90
2
 70
0
 10
112.664051
 20
80.131183
 30
0.0
 10
112.664051
 20
67.868818
 30
0.0
  0
LWPOLYLINE
  5
21f
100
AcDbEntity
  8
Layer_1
 62
7
100
AcDbPolyline
 90
2
 70
0
 10
120.328029
 20
80.131183
 30
0.0
 10
120.328029
 20
67.868818
 30
0.0
  0
LWPOLYLINE
  5
220
100
AcDbEntity
  8
Layer_1
 62
7
100
AcDbPolyline
 90
2
 70
0
 10
127.992005
 20
80.131183
 30
0.0
 10
127.992005
 20
67.868818
 30
0.0
  0
LWPOLYLINE
  5
221
100
AcDbEntity
  8
Layer_1
 62
7
100
AcDbPolyline
 90
2
 70
0
 10
135.655983
 20
80.131183
 30
0.0
 10
135.655983
 20
67.868818
 30
0.0
  0
LWPOLYLINE
  5
222
100
AcDbEntity
  8
Layer_1
 62
7
100
AcDbPolyline
 90
2
 70
0
 10
143.319958
 20
80.131183
 30
0.0
 10
143.319958
 20
67.868818
 30
0.0
  0
LWPOLYLINE
  5
223
100
AcDbEntity
  8
Layer_1
 62
7
100
AcDbPolyline
 90
2
 70
0
 10
150.983937
 20
80.131183
 30
0.0
 10
150.983937
 20
67.868818
 30
0.0
  0
LWPOLYLINE
  5
224
100
AcDbEntity
  8
Layer_1
 62
7
100
AcDbPolyline
 90
2
 70
0
 10
158.647912
 20
80.131183
 30
0.0
 10
158.647912
 20
67.868818
 30
0.0
  0
LWPOLYLINE
  5
225
100
AcDbEntity
  8
Layer_1
 62
7
100
AcDbPolyline
 90
2
 70
0
 10
166.311890
 20
80.131183
 30
0.0
 10
166.311890
 20
67.868818
 30
0.0
  0
LWPOLYLINE
  5
226
100
AcDbEntity
  8
Layer_1
 62
7
100
AcDbPolyline
 90
2
 70
0
 10
173.975869
 20
80.131183
 30
0.0
 10
173.975869
 20
67.868818
 30
0.0
  0
LWPOLYLINE
  5
227
100
AcDbEntity
  8
Layer_1
 62
7
100
AcDbPolyline
 90
2
 70
0
 10
181.639844
 20
80.131183
 30
0.0
 10
181.639844
 20
67.868818
 30
0.0
  0
LWPOLYLINE
  5
228
100
AcDbEntity
  8
Layer_1
 62
7
100
AcDbPolyline
 90
2
 70
0
 10
189.303823
 20
80.131183
 30
0.0
 10
189.303823
 20
67.868818
 30
0.0
  0
LWPOLYLINE
  5
229
100
AcDbEntity
  8
Layer_1
 62
7
100
AcDbPolyline
 90
2
 70
0
 10
20.696326
 20
20.352161
 30
0.0
 10
20.696326
 20
127.647840
 30
0.0
  0
LWPOLYLINE
  5
22a
100
AcDbEntity
  8
Layer_1
 62
7
100
AcDbPolyline
 90
2
 70
0
 10
189.303823
 20
20.352161
 30
0.0
 10
189.303823
 20
127.647840
 30
0.0
  0
LWPOLYLINE
  5
22b
100
AcDbEntity
  8
Layer_1
 62
7
100
AcDbPolyline
 90
2
 70
0
 10
20.696326
 20
20.352161
 30
0.0
 10
189.303823
 20
20.352161
 30
0.0
  0
LWPOLYLINE
  5
22c
100
AcDbEntity
  8
Layer_1
 62
7
100
AcDbPolyline
 90
2
 70
0
 10
20.696326
 20
127.647840
 30
0.0
 10
189.303823
 20
127.647840
 30
0.0
  0
ENDSEC
  0
SECTION
  2
OBJECTS
  0
DICTIONARY
  5
C
330
0
100
AcDbDictionary
  3
ACAD_GROUP
350
D
  3
ACAD_MLINESTYLE
350
17
  0
DICTIONARY
  5
D
330
C
100
AcDbDictionary
  0
DICTIONARY
  5
1A
330
C
100
AcDbDictionary
  0
DICTIONARY
  5
17
330
C
100
AcDbDictionary
  3
STANDARD
350
18
  0
DICTIONARY
  5
19
330
C
100
AcDbDictionary
  0
ENDSEC
  0
EOF
