<?xml version="1.0" encoding="UTF-8" standalone="no"?>
<!-- Created with Inkscape (http://www.inkscape.org/) -->

<svg
   width="297mm"
   height="210mm"
   viewBox="0 0 297 210"
   version="1.1"
   id="svg1"
   xml:space="preserve"
   inkscape:version="1.4.2 (f4327f4, 2025-05-13)"
   sodipodi:docname="A4_Base_Graph.svg"
   xmlns:inkscape="http://www.inkscape.org/namespaces/inkscape"
   xmlns:sodipodi="http://sodipodi.sourceforge.net/DTD/sodipodi-0.dtd"
   xmlns="http://www.w3.org/2000/svg"
   xmlns:svg="http://www.w3.org/2000/svg"><sodipodi:namedview
     id="namedview1"
     pagecolor="#505050"
     bordercolor="#eeeeee"
     borderopacity="1"
     inkscape:showpageshadow="0"
     inkscape:pageopacity="0"
     inkscape:pagecheckerboard="0"
     inkscape:deskcolor="#505050"
     inkscape:document-units="mm"
     inkscape:zoom="0.71891835"
     inkscape:cx="302.53783"
     inkscape:cy="347.04915"
     inkscape:window-width="1920"
     inkscape:window-height="1009"
     inkscape:window-x="-8"
     inkscape:window-y="-8"
     inkscape:window-maximized="1"
     inkscape:current-layer="figure_1" /><defs
     id="defs1"><style
       type="text/css"
       id="style1">*{stroke-linejoin: round; stroke-linecap: butt}</style><path
       id="mc8f5b0624d"
       d="M 0,4.251975 C 1.127637,4.251975 2.209241,3.80396 3.0066,3.0066 3.80396,2.209241 4.251975,1.127637 4.251975,0 4.251975,-1.127637 3.80396,-2.209241 3.0066,-3.0066 2.209241,-3.80396 1.127637,-4.251975 0,-4.251975 c -1.127637,0 -2.209241,0.448015 -3.0066,1.245375 -0.79736,0.797359 -1.245375,1.878963 -1.245375,3.0066 0,1.127637 0.448015,2.209241 1.245375,3.0066 C -2.209241,3.80396 -1.127637,4.251975 0,4.251975 Z"
       style="stroke:#1f77b4;stroke-width:0.2" /><path
       id="m2c355d5ea0"
       d="m -4.251975,4.251975 h 8.50395 v -8.50395 h -8.50395 z"
       style="stroke:#ff7f0e;stroke-width:0.2;stroke-linejoin:miter" /><path
       id="md6e5e20634"
       d="M 0,-4.960637 -4.960637,4.960637 H 4.960637 Z"
       style="stroke:#2ca02c;stroke-width:0.2;stroke-linejoin:miter" /><clipPath
       id="p319746481f"><rect
         x="7.1999998"
         y="7.1999998"
         width="477.94223"
         height="307.24857"
         id="rect169" /></clipPath><style
       type="text/css"
       id="style1-82">*{stroke-linejoin: round; stroke-linecap: butt}</style><path
       id="mb97dae165b"
       d="M 0,4.251975 C 1.127637,4.251975 2.209241,3.80396 3.0066,3.0066 3.80396,2.209241 4.251975,1.127637 4.251975,0 4.251975,-1.127637 3.80396,-2.209241 3.0066,-3.0066 2.209241,-3.80396 1.127637,-4.251975 0,-4.251975 c -1.127637,0 -2.209241,0.448015 -3.0066,1.245375 -0.79736,0.797359 -1.245375,1.878963 -1.245375,3.0066 0,1.127637 0.448015,2.209241 1.245375,3.0066 C -2.209241,3.80396 -1.127637,4.251975 0,4.251975 Z"
       style="stroke:#1f77b4;stroke-width:0.2" /><path
       id="mb565273443"
       d="m -4.251975,4.251975 h 8.50395 v -8.50395 h -8.50395 z"
       style="stroke:#ff7f0e;stroke-width:0.2;stroke-linejoin:miter" /><path
       id="mfbbff67701"
       d="M 0,-4.960637 -4.960637,4.960637 H 4.960637 Z"
       style="stroke:#2ca02c;stroke-width:0.2;stroke-linejoin:miter" /><clipPath
       id="pf7ded196f5"><rect
         x="7.1999998"
         y="7.1999998"
         width="510.23621"
         height="510.23621"
         id="rect197" /></clipPath><style
       type="text/css"
       id="style1-4">*{stroke-linejoin: round; stroke-linecap: butt}</style><path
       id="mf02ec4879a"
       d="M 0,4.251975 C 1.127637,4.251975 2.209241,3.80396 3.0066,3.0066 3.80396,2.209241 4.251975,1.127637 4.251975,0 4.251975,-1.127637 3.80396,-2.209241 3.0066,-3.0066 2.209241,-3.80396 1.127637,-4.251975 0,-4.251975 c -1.127637,0 -2.209241,0.448015 -3.0066,1.245375 -0.79736,0.797359 -1.245375,1.878963 -1.245375,3.0066 0,1.127637 0.448015,2.209241 1.245375,3.0066 C -2.209241,3.80396 -1.127637,4.251975 0,4.251975 Z"
       style="stroke:#1f77b4;stroke-width:0.2" /><path
       id="m02fe916b24"
       d="m -4.251975,4.251975 h 8.50395 v -8.50395 h -8.50395 z"
       style="stroke:#ff7f0e;stroke-width:0.2;stroke-linejoin:miter" /><path
       id="m6856111c7f"
       d="M 0,-4.960637 -4.960637,4.960637 H 4.960637 Z"
       style="stroke:#2ca02c;stroke-width:0.2;stroke-linejoin:miter" /><clipPath
       id="pc3cde7ef2d"><rect
         x="7.1999998"
         y="7.1999998"
         width="551.48938"
         height="551.48938"
         id="rect197-5" /></clipPath><style
       type="text/css"
       id="style1-1">*{stroke-linejoin: round; stroke-linecap: butt}</style><path
       id="m8e98d0b9d8"
       d="M 0,4.251975 C 1.127637,4.251975 2.209241,3.80396 3.0066,3.0066 3.80396,2.209241 4.251975,1.127637 4.251975,0 4.251975,-1.127637 3.80396,-2.209241 3.0066,-3.0066 2.209241,-3.80396 1.127637,-4.251975 0,-4.251975 c -1.127637,0 -2.209241,0.448015 -3.0066,1.245375 -0.79736,0.797359 -1.245375,1.878963 -1.245375,3.0066 0,1.127637 0.448015,2.209241 1.245375,3.0066 C -2.209241,3.80396 -1.127637,4.251975 0,4.251975 Z"
       style="stroke:#1f77b4;stroke-width:0.2" /><path
       id="mc0d9045eeb"
       d="m -4.251975,4.251975 h 8.50395 v -8.50395 h -8.50395 z"
       style="stroke:#ff7f0e;stroke-width:0.2;stroke-linejoin:miter" /><path
       id="ma8255e391b"
       d="M 0,-4.960637 -4.960637,4.960637 H 4.960637 Z"
       style="stroke:#2ca02c;stroke-width:0.2;stroke-linejoin:miter" /><clipPath
       id="pe4f4aa670c"><rect
         x="7.1999998"
         y="7.1999998"
         width="553.84613"
         height="553.84613"
         id="rect197-7" /></clipPath><style
       type="text/css"
       id="style1-15">*{stroke-linejoin: round; stroke-linecap: butt}</style><path
       id="md1b1b1f54a"
       d="M 0,4.251975 C 1.127637,4.251975 2.209241,3.80396 3.0066,3.0066 3.80396,2.209241 4.251975,1.127637 4.251975,0 4.251975,-1.127637 3.80396,-2.209241 3.0066,-3.0066 2.209241,-3.80396 1.127637,-4.251975 0,-4.251975 c -1.127637,0 -2.209241,0.448015 -3.0066,1.245375 -0.79736,0.797359 -1.245375,1.878963 -1.245375,3.0066 0,1.127637 0.448015,2.209241 1.245375,3.0066 C -2.209241,3.80396 -1.127637,4.251975 0,4.251975 Z"
       style="stroke:#1f77b4;stroke-width:0.2" /><path
       id="mcddf8e0c75"
       d="m -4.251975,4.251975 h 8.50395 v -8.50395 h -8.50395 z"
       style="stroke:#ff7f0e;stroke-width:0.2;stroke-linejoin:miter" /><path
       id="mbe955bfe3c"
       d="M 0,-4.960637 -4.960637,4.960637 H 4.960637 Z"
       style="stroke:#2ca02c;stroke-width:0.2;stroke-linejoin:miter" /><clipPath
       id="p7152c2aa95"><rect
         x="7.1999998"
         y="7.1999998"
         width="552.66522"
         height="552.66522"
         id="rect197-2" /></clipPath><style
       type="text/css"
       id="style1-6">*{stroke-linejoin: round; stroke-linecap: butt}</style><path
       id="m2aa66b2d82"
       d="M 0,4.251975 C 1.127637,4.251975 2.209241,3.80396 3.0066,3.0066 3.80396,2.209241 4.251975,1.127637 4.251975,0 4.251975,-1.127637 3.80396,-2.209241 3.0066,-3.0066 2.209241,-3.80396 1.127637,-4.251975 0,-4.251975 c -1.127637,0 -2.209241,0.448015 -3.0066,1.245375 -0.79736,0.797359 -1.245375,1.878963 -1.245375,3.0066 0,1.127637 0.448015,2.209241 1.245375,3.0066 C -2.209241,3.80396 -1.127637,4.251975 0,4.251975 Z"
       style="stroke:#1f77b4;stroke-width:0.2" /><path
       id="m14d9e4124f"
       d="m -4.251975,4.251975 h 8.50395 v -8.50395 h -8.50395 z"
       style="stroke:#ff7f0e;stroke-width:0.2;stroke-linejoin:miter" /><path
       id="md6dafae4a9"
       d="M 0,-4.960637 -4.960637,4.960637 H 4.960637 Z"
       style="stroke:#2ca02c;stroke-width:0.2;stroke-linejoin:miter" /><clipPath
       id="p4031122b98"><rect
         x="7.1999998"
         y="7.1999998"
         width="552.42969"
         height="552.42969"
         id="rect197-1" /></clipPath><style
       type="text/css"
       id="style1-2">*{stroke-linejoin: round; stroke-linecap: butt}</style><path
       id="m0a5a9c04f4"
       d="M 0,4.251975 C 1.127637,4.251975 2.209241,3.80396 3.0066,3.0066 3.80396,2.209241 4.251975,1.127637 4.251975,0 4.251975,-1.127637 3.80396,-2.209241 3.0066,-3.0066 2.209241,-3.80396 1.127637,-4.251975 0,-4.251975 c -1.127637,0 -2.209241,0.448015 -3.0066,1.245375 -0.79736,0.797359 -1.245375,1.878963 -1.245375,3.0066 0,1.127637 0.448015,2.209241 1.245375,3.0066 C -2.209241,3.80396 -1.127637,4.251975 0,4.251975 Z"
       style="stroke:#1f77b4;stroke-width:0.2" /><path
       id="m9acab18628"
       d="m -4.251975,4.251975 h 8.50395 v -8.50395 h -8.50395 z"
       style="stroke:#ff7f0e;stroke-width:0.2;stroke-linejoin:miter" /><path
       id="mbbf24c3619"
       d="M 0,-4.960637 -4.960637,4.960637 H 4.960637 Z"
       style="stroke:#2ca02c;stroke-width:0.2;stroke-linejoin:miter" /><clipPath
       id="p101ff942c7"><rect
         x="7.1999998"
         y="7.1999998"
         width="552.54742"
         height="552.54742"
         id="rect197-3" /></clipPath><style
       type="text/css"
       id="style1-21">*{stroke-linejoin: round; stroke-linecap: butt}</style><path
       id="md46732aa3e"
       d="M 0,4.251975 C 1.127637,4.251975 2.209241,3.80396 3.0066,3.0066 3.80396,2.209241 4.251975,1.127637 4.251975,0 4.251975,-1.127637 3.80396,-2.209241 3.0066,-3.0066 2.209241,-3.80396 1.127637,-4.251975 0,-4.251975 c -1.127637,0 -2.209241,0.448015 -3.0066,1.245375 -0.79736,0.797359 -1.245375,1.878963 -1.245375,3.0066 0,1.127637 0.448015,2.209241 1.245375,3.0066 C -2.209241,3.80396 -1.127637,4.251975 0,4.251975 Z"
       style="stroke:#1f77b4;stroke-width:0.2" /><path
       id="mde8e51b6dd"
       d="m -4.251975,4.251975 h 8.50395 v -8.50395 h -8.50395 z"
       style="stroke:#ff7f0e;stroke-width:0.2;stroke-linejoin:miter" /><path
       id="m96080f9bff"
       d="M 0,-4.960637 -4.960637,4.960637 H 4.960637 Z"
       style="stroke:#2ca02c;stroke-width:0.2;stroke-linejoin:miter" /><clipPath
       id="pf8bb5439b7"><rect
         x="7.1999998"
         y="7.1999998"
         width="552.57098"
         height="552.57098"
         id="rect197-6" /></clipPath><style
       type="text/css"
       id="style1-5">*{stroke-linejoin: round; stroke-linecap: butt}</style><path
       id="m720d884123"
       d="M 0,4.251975 C 1.127637,4.251975 2.209241,3.80396 3.0066,3.0066 3.80396,2.209241 4.251975,1.127637 4.251975,0 4.251975,-1.127637 3.80396,-2.209241 3.0066,-3.0066 2.209241,-3.80396 1.127637,-4.251975 0,-4.251975 c -1.127637,0 -2.209241,0.448015 -3.0066,1.245375 -0.79736,0.797359 -1.245375,1.878963 -1.245375,3.0066 0,1.127637 0.448015,2.209241 1.245375,3.0066 C -2.209241,3.80396 -1.127637,4.251975 0,4.251975 Z"
       style="stroke:#1f77b4;stroke-width:0.2" /><path
       id="mbeceb3cea5"
       d="m -4.251975,4.251975 h 8.50395 v -8.50395 h -8.50395 z"
       style="stroke:#ff7f0e;stroke-width:0.2;stroke-linejoin:miter" /><path
       id="ma44c3d8df0"
       d="M 0,-4.960637 -4.960637,4.960637 H 4.960637 Z"
       style="stroke:#2ca02c;stroke-width:0.2;stroke-linejoin:miter" /><clipPath
       id="p8367a5cace"><rect
         x="7.1999998"
         y="7.1999998"
         width="552.52386"
         height="552.52386"
         id="rect197-76" /></clipPath><style
       type="text/css"
       id="style1-8">*{stroke-linejoin: round; stroke-linecap: butt}</style><path
       id="m11576f5f0e"
       d="M 0,4.251975 C 1.127637,4.251975 2.209241,3.80396 3.0066,3.0066 3.80396,2.209241 4.251975,1.127637 4.251975,0 4.251975,-1.127637 3.80396,-2.209241 3.0066,-3.0066 2.209241,-3.80396 1.127637,-4.251975 0,-4.251975 c -1.127637,0 -2.209241,0.448015 -3.0066,1.245375 -0.79736,0.797359 -1.245375,1.878963 -1.245375,3.0066 0,1.127637 0.448015,2.209241 1.245375,3.0066 C -2.209241,3.80396 -1.127637,4.251975 0,4.251975 Z"
       style="stroke:#1f77b4;stroke-width:0.2" /><path
       id="m594ab4c197"
       d="m -4.251975,4.251975 h 8.50395 v -8.50395 h -8.50395 z"
       style="stroke:#ff7f0e;stroke-width:0.2;stroke-linejoin:miter" /><path
       id="m72ada06c32"
       d="M 0,-4.960637 -4.960637,4.960637 H 4.960637 Z"
       style="stroke:#2ca02c;stroke-width:0.2;stroke-linejoin:miter" /><clipPath
       id="pbe377a04ff"><rect
         x="7.1999998"
         y="7.1999998"
         width="552.53564"
         height="552.53564"
         id="rect197-9" /></clipPath><style
       type="text/css"
       id="style1-3">*{stroke-linejoin: round; stroke-linecap: butt}</style><path
       id="m0ddc308857"
       d="M 0,4.251975 C 1.127637,4.251975 2.209241,3.80396 3.0066,3.0066 3.80396,2.209241 4.251975,1.127637 4.251975,0 4.251975,-1.127637 3.80396,-2.209241 3.0066,-3.0066 2.209241,-3.80396 1.127637,-4.251975 0,-4.251975 c -1.127637,0 -2.209241,0.448015 -3.0066,1.245375 -0.79736,0.797359 -1.245375,1.878963 -1.245375,3.0066 0,1.127637 0.448015,2.209241 1.245375,3.0066 C -2.209241,3.80396 -1.127637,4.251975 0,4.251975 Z"
       style="stroke:#1f77b4;stroke-width:0.2" /><path
       id="mba9cdedf1e"
       d="m -4.251975,4.251975 h 8.50395 v -8.50395 h -8.50395 z"
       style="stroke:#ff7f0e;stroke-width:0.2;stroke-linejoin:miter" /><path
       id="m8a03f30a95"
       d="M 0,-4.960637 -4.960637,4.960637 H 4.960637 Z"
       style="stroke:#2ca02c;stroke-width:0.2;stroke-linejoin:miter" /><clipPath
       id="p55cd0e1caf"><rect
         x="7.1999998"
         y="7.1999998"
         width="359.14734"
         height="359.14734"
         id="rect197-4" /></clipPath><style
       type="text/css"
       id="style1-13">*{stroke-linejoin: round; stroke-linecap: butt}</style><path
       id="m656fe76b6e"
       d="M 0,4.251975 C 1.127637,4.251975 2.209241,3.80396 3.0066,3.0066 3.80396,2.209241 4.251975,1.127637 4.251975,0 4.251975,-1.127637 3.80396,-2.209241 3.0066,-3.0066 2.209241,-3.80396 1.127637,-4.251975 0,-4.251975 c -1.127637,0 -2.209241,0.448015 -3.0066,1.245375 -0.79736,0.797359 -1.245375,1.878963 -1.245375,3.0066 0,1.127637 0.448015,2.209241 1.245375,3.0066 C -2.209241,3.80396 -1.127637,4.251975 0,4.251975 Z"
       style="stroke:#1f77b4;stroke-width:0.2" /><path
       id="mb167d81ba6"
       d="m -4.251975,4.251975 h 8.50395 v -8.50395 h -8.50395 z"
       style="stroke:#ff7f0e;stroke-width:0.2;stroke-linejoin:miter" /><path
       id="m5b36bd93bc"
       d="M 0,-4.960637 -4.960637,4.960637 H 4.960637 Z"
       style="stroke:#2ca02c;stroke-width:0.2;stroke-linejoin:miter" /><clipPath
       id="pe49cc6331e"><rect
         x="7.1999998"
         y="7.1999998"
         width="359.14734"
         height="359.14734"
         id="rect197-8" /></clipPath><style
       type="text/css"
       id="style1-9">*{stroke-linejoin: round; stroke-linecap: butt}</style><clipPath
       id="p49ead04eb2"><rect
         x="7.1999998"
         y="7.1999998"
         width="476.22046"
         height="306.14172"
         id="rect107" /></clipPath><style
       type="text/css"
       id="style1-60">*{stroke-linejoin: round; stroke-linecap: butt}</style><path
       id="mc8f5b0624d-4"
       d="M 0,4.251975 C 1.127637,4.251975 2.209241,3.80396 3.0066,3.0066 3.80396,2.209241 4.251975,1.127637 4.251975,0 4.251975,-1.127637 3.80396,-2.209241 3.0066,-3.0066 2.209241,-3.80396 1.127637,-4.251975 0,-4.251975 c -1.127637,0 -2.209241,0.448015 -3.0066,1.245375 -0.79736,0.797359 -1.245375,1.878963 -1.245375,3.0066 0,1.127637 0.448015,2.209241 1.245375,3.0066 C -2.209241,3.80396 -1.127637,4.251975 0,4.251975 Z"
       style="stroke:#1f77b4;stroke-width:0.2" /><path
       id="m2c355d5ea0-5"
       d="m -4.251975,4.251975 h 8.50395 v -8.50395 h -8.50395 z"
       style="stroke:#ff7f0e;stroke-width:0.2;stroke-linejoin:miter" /><path
       id="md6e5e20634-5"
       d="M 0,-4.960637 -4.960637,4.960637 H 4.960637 Z"
       style="stroke:#2ca02c;stroke-width:0.2;stroke-linejoin:miter" /><clipPath
       id="p319746481f-1"><rect
         x="7.1999998"
         y="7.1999998"
         width="477.94223"
         height="307.24857"
         id="rect169-7" /></clipPath><style
       type="text/css"
       id="style1-66">*{stroke-linejoin: round; stroke-linecap: butt}</style><clipPath
       id="p49ead04eb2-1"><rect
         x="7.1999998"
         y="7.1999998"
         width="476.22046"
         height="306.14172"
         id="rect107-6" /></clipPath><style
       type="text/css"
       id="style1-23">*{stroke-linejoin: round; stroke-linecap: butt}</style><path
       id="m8381544887"
       d="M 0,4.251975 C 1.127637,4.251975 2.209241,3.80396 3.0066,3.0066 3.80396,2.209241 4.251975,1.127637 4.251975,0 4.251975,-1.127637 3.80396,-2.209241 3.0066,-3.0066 2.209241,-3.80396 1.127637,-4.251975 0,-4.251975 c -1.127637,0 -2.209241,0.448015 -3.0066,1.245375 -0.79736,0.797359 -1.245375,1.878963 -1.245375,3.0066 0,1.127637 0.448015,2.209241 1.245375,3.0066 C -2.209241,3.80396 -1.127637,4.251975 0,4.251975 Z"
       style="stroke:#ff7f0e;stroke-width:0.2" /><path
       id="m80a67eaec0"
       d="m -4.251975,4.251975 h 8.50395 v -8.50395 h -8.50395 z"
       style="stroke:#d62728;stroke-width:0.2;stroke-linejoin:miter" /><path
       id="mcecf2d927b"
       d="M 0,-4.960637 -4.960637,4.960637 H 4.960637 Z"
       style="stroke:#8c564b;stroke-width:0.2;stroke-linejoin:miter" /><clipPath
       id="p05ece912d2"><rect
         x="7.1999998"
         y="7.1999998"
         width="477.94223"
         height="307.24857"
         id="rect170" /></clipPath><style
       type="text/css"
       id="style1-216">*{stroke-linejoin: round; stroke-linecap: butt}</style><path
       id="m40ddd1ba9f"
       d="M 0,4.251975 C 1.127637,4.251975 2.209241,3.80396 3.0066,3.0066 3.80396,2.209241 4.251975,1.127637 4.251975,0 4.251975,-1.127637 3.80396,-2.209241 3.0066,-3.0066 2.209241,-3.80396 1.127637,-4.251975 0,-4.251975 c -1.127637,0 -2.209241,0.448015 -3.0066,1.245375 -0.79736,0.797359 -1.245375,1.878963 -1.245375,3.0066 0,1.127637 0.448015,2.209241 1.245375,3.0066 C -2.209241,3.80396 -1.127637,4.251975 0,4.251975 Z"
       style="stroke:#ff7f0e;stroke-width:0.2" /><path
       id="m85c1b3f79b"
       d="m -4.251975,4.251975 h 8.50395 v -8.50395 h -8.50395 z"
       style="stroke:#d62728;stroke-width:0.2;stroke-linejoin:miter" /><path
       id="m404db551fa"
       d="M 0,-4.960637 -4.960637,4.960637 H 4.960637 Z"
       style="stroke:#8c564b;stroke-width:0.2;stroke-linejoin:miter" /><clipPath
       id="p275ca93af8"><rect
         x="7.1999998"
         y="7.1999998"
         width="477.94223"
         height="307.24857"
         id="rect194" /></clipPath><style
       type="text/css"
       id="style1-94">*{stroke-linejoin: round; stroke-linecap: butt}</style><path
       id="mda796b83bf"
       d="M 0,4.251975 C 1.127637,4.251975 2.209241,3.80396 3.0066,3.0066 3.80396,2.209241 4.251975,1.127637 4.251975,0 4.251975,-1.127637 3.80396,-2.209241 3.0066,-3.0066 2.209241,-3.80396 1.127637,-4.251975 0,-4.251975 c -1.127637,0 -2.209241,0.448015 -3.0066,1.245375 -0.79736,0.797359 -1.245375,1.878963 -1.245375,3.0066 0,1.127637 0.448015,2.209241 1.245375,3.0066 C -2.209241,3.80396 -1.127637,4.251975 0,4.251975 Z"
       style="stroke:#1f77b4;stroke-width:0.2" /><path
       id="m38e509ac0b"
       d="m -4.251975,4.251975 h 8.50395 v -8.50395 h -8.50395 z"
       style="stroke:#ff7f0e;stroke-width:0.2;stroke-linejoin:miter" /><path
       id="m487494f4b2"
       d="M 0,-4.960637 -4.960637,4.960637 H 4.960637 Z"
       style="stroke:#2ca02c;stroke-width:0.2;stroke-linejoin:miter" /><clipPath
       id="pda5e37d15c"><rect
         x="7.1999998"
         y="7.1999998"
         width="441.35434"
         height="280.86185"
         id="rect158" /></clipPath><style
       type="text/css"
       id="style1-19">*{stroke-linejoin: round; stroke-linecap: butt}</style><path
       id="ma0de0e2d28"
       d="M 0,4.251975 C 1.127637,4.251975 2.209241,3.80396 3.0066,3.0066 3.80396,2.209241 4.251975,1.127637 4.251975,0 4.251975,-1.127637 3.80396,-2.209241 3.0066,-3.0066 2.209241,-3.80396 1.127637,-4.251975 0,-4.251975 c -1.127637,0 -2.209241,0.448015 -3.0066,1.245375 -0.79736,0.797359 -1.245375,1.878963 -1.245375,3.0066 0,1.127637 0.448015,2.209241 1.245375,3.0066 C -2.209241,3.80396 -1.127637,4.251975 0,4.251975 Z"
       style="stroke:#1f77b4;stroke-width:0.2" /><path
       id="m60d482a847"
       d="m -4.251975,4.251975 h 8.50395 v -8.50395 h -8.50395 z"
       style="stroke:#ff7f0e;stroke-width:0.2;stroke-linejoin:miter" /><path
       id="mb6ebef877a"
       d="M 0,-4.960637 -4.960637,4.960637 H 4.960637 Z"
       style="stroke:#2ca02c;stroke-width:0.2;stroke-linejoin:miter" /><clipPath
       id="p7a3c4c8a1c"><rect
         x="7.1999998"
         y="7.1999998"
         width="441.35434"
         height="280.86185"
         id="rect158-5" /></clipPath><style
       type="text/css"
       id="style1-139">*{stroke-linejoin: round; stroke-linecap: butt}</style><path
       id="ma0de0e2d28-0"
       d="M 0,4.251975 C 1.127637,4.251975 2.209241,3.80396 3.0066,3.0066 3.80396,2.209241 4.251975,1.127637 4.251975,0 4.251975,-1.127637 3.80396,-2.209241 3.0066,-3.0066 2.209241,-3.80396 1.127637,-4.251975 0,-4.251975 c -1.127637,0 -2.209241,0.448015 -3.0066,1.245375 -0.79736,0.797359 -1.245375,1.878963 -1.245375,3.0066 0,1.127637 0.448015,2.209241 1.245375,3.0066 C -2.209241,3.80396 -1.127637,4.251975 0,4.251975 Z"
       style="stroke:#1f77b4;stroke-width:0.2" /><path
       id="m60d482a847-3"
       d="m -4.251975,4.251975 h 8.50395 v -8.50395 h -8.50395 z"
       style="stroke:#ff7f0e;stroke-width:0.2;stroke-linejoin:miter" /><path
       id="mb6ebef877a-7"
       d="M 0,-4.960637 -4.960637,4.960637 H 4.960637 Z"
       style="stroke:#2ca02c;stroke-width:0.2;stroke-linejoin:miter" /><clipPath
       id="p7a3c4c8a1c-8"><rect
         x="7.1999998"
         y="7.1999998"
         width="441.35434"
         height="280.86185"
         id="rect158-3" /></clipPath><style
       type="text/css"
       id="style1-69">*{stroke-linejoin: round; stroke-linecap: butt}</style><path
       id="mcd978c8bd2"
       d="M 0,4.251975 C 1.127637,4.251975 2.209241,3.80396 3.0066,3.0066 3.80396,2.209241 4.251975,1.127637 4.251975,0 4.251975,-1.127637 3.80396,-2.209241 3.0066,-3.0066 2.209241,-3.80396 1.127637,-4.251975 0,-4.251975 c -1.127637,0 -2.209241,0.448015 -3.0066,1.245375 -0.79736,0.797359 -1.245375,1.878963 -1.245375,3.0066 0,1.127637 0.448015,2.209241 1.245375,3.0066 C -2.209241,3.80396 -1.127637,4.251975 0,4.251975 Z"
       style="stroke:#1f77b4;stroke-width:0.2" /><path
       id="mc7bfe92d3d"
       d="m -4.251975,4.251975 h 8.50395 v -8.50395 h -8.50395 z"
       style="stroke:#ff7f0e;stroke-width:0.2;stroke-linejoin:miter" /><path
       id="m21099c72e6"
       d="M 0,-4.960637 -4.960637,4.960637 H 4.960637 Z"
       style="stroke:#2ca02c;stroke-width:0.2;stroke-linejoin:miter" /><clipPath
       id="p05bfce1e11"><rect
         x="7.1999998"
         y="7.1999998"
         width="441.35434"
         height="280.86185"
         id="rect158-6" /></clipPath><style
       type="text/css"
       id="style1-214">*{stroke-linejoin: round; stroke-linecap: butt}</style><path
       id="m24b4fa2327"
       d="M 0,4.251975 C 1.127637,4.251975 2.209241,3.80396 3.0066,3.0066 3.80396,2.209241 4.251975,1.127637 4.251975,0 4.251975,-1.127637 3.80396,-2.209241 3.0066,-3.0066 2.209241,-3.80396 1.127637,-4.251975 0,-4.251975 c -1.127637,0 -2.209241,0.448015 -3.0066,1.245375 -0.79736,0.797359 -1.245375,1.878963 -1.245375,3.0066 0,1.127637 0.448015,2.209241 1.245375,3.0066 C -2.209241,3.80396 -1.127637,4.251975 0,4.251975 Z"
       style="stroke:#1f77b4;stroke-width:0.2" /><path
       id="m4d86b07101"
       d="m -4.251975,4.251975 h 8.50395 v -8.50395 h -8.50395 z"
       style="stroke:#ff7f0e;stroke-width:0.2;stroke-linejoin:miter" /><path
       id="mf0dac16d8b"
       d="M 0,-4.960637 -4.960637,4.960637 H 4.960637 Z"
       style="stroke:#2ca02c;stroke-width:0.2;stroke-linejoin:miter" /><clipPath
       id="p8dc1074acd"><rect
         x="7.1999998"
         y="7.1999998"
         width="441.35434"
         height="280.86185"
         id="rect158-9" /></clipPath><style
       type="text/css"
       id="style1-0">*{stroke-linejoin: round; stroke-linecap: butt}</style><path
       id="m2179ac42ea"
       d="M 0,4.251975 C 1.127637,4.251975 2.209241,3.80396 3.0066,3.0066 3.80396,2.209241 4.251975,1.127637 4.251975,0 4.251975,-1.127637 3.80396,-2.209241 3.0066,-3.0066 2.209241,-3.80396 1.127637,-4.251975 0,-4.251975 c -1.127637,0 -2.209241,0.448015 -3.0066,1.245375 -0.79736,0.797359 -1.245375,1.878963 -1.245375,3.0066 0,1.127637 0.448015,2.209241 1.245375,3.0066 C -2.209241,3.80396 -1.127637,4.251975 0,4.251975 Z"
       style="stroke:#1f77b4;stroke-width:0.2" /><path
       id="mf003bf82d6"
       d="m -4.251975,4.251975 h 8.50395 v -8.50395 h -8.50395 z"
       style="stroke:#ff7f0e;stroke-width:0.2;stroke-linejoin:miter" /><path
       id="m91bb2486e4"
       d="M 0,-4.960637 -4.960637,4.960637 H 4.960637 Z"
       style="stroke:#2ca02c;stroke-width:0.2;stroke-linejoin:miter" /><clipPath
       id="pf120b53eea"><rect
         x="7.1999998"
         y="7.1999998"
         width="441.35434"
         height="280.86185"
         id="rect158-2" /></clipPath><style
       type="text/css"
       id="style1-35">*{stroke-linejoin: round; stroke-linecap: butt}</style><path
       id="mf94ec0f0cf"
       d="M 0,4.251975 C 1.127637,4.251975 2.209241,3.80396 3.0066,3.0066 3.80396,2.209241 4.251975,1.127637 4.251975,0 4.251975,-1.127637 3.80396,-2.209241 3.0066,-3.0066 2.209241,-3.80396 1.127637,-4.251975 0,-4.251975 c -1.127637,0 -2.209241,0.448015 -3.0066,1.245375 -0.79736,0.797359 -1.245375,1.878963 -1.245375,3.0066 0,1.127637 0.448015,2.209241 1.245375,3.0066 C -2.209241,3.80396 -1.127637,4.251975 0,4.251975 Z"
       style="stroke:#1f77b4;stroke-width:0.2" /><path
       id="m800280f2b4"
       d="m -4.251975,4.251975 h 8.50395 v -8.50395 h -8.50395 z"
       style="stroke:#ff7f0e;stroke-width:0.2;stroke-linejoin:miter" /><path
       id="m7ea930a68a"
       d="M 0,-4.960637 -4.960637,4.960637 H 4.960637 Z"
       style="stroke:#2ca02c;stroke-width:0.2;stroke-linejoin:miter" /><clipPath
       id="p12cbd15144"><rect
         x="7.1999998"
         y="7.1999998"
         width="441.35434"
         height="280.86185"
         id="rect158-7" /></clipPath><style
       type="text/css"
       id="style1-7">*{stroke-linejoin: round; stroke-linecap: butt}</style><path
       id="mf94ec0f0cf-2"
       d="M 0,4.251975 C 1.127637,4.251975 2.209241,3.80396 3.0066,3.0066 3.80396,2.209241 4.251975,1.127637 4.251975,0 4.251975,-1.127637 3.80396,-2.209241 3.0066,-3.0066 2.209241,-3.80396 1.127637,-4.251975 0,-4.251975 c -1.127637,0 -2.209241,0.448015 -3.0066,1.245375 -0.79736,0.797359 -1.245375,1.878963 -1.245375,3.0066 0,1.127637 0.448015,2.209241 1.245375,3.0066 C -2.209241,3.80396 -1.127637,4.251975 0,4.251975 Z"
       style="stroke:#1f77b4;stroke-width:0.2" /><path
       id="m800280f2b4-1"
       d="m -4.251975,4.251975 h 8.50395 v -8.50395 h -8.50395 z"
       style="stroke:#ff7f0e;stroke-width:0.2;stroke-linejoin:miter" /><path
       id="m7ea930a68a-0"
       d="M 0,-4.960637 -4.960637,4.960637 H 4.960637 Z"
       style="stroke:#2ca02c;stroke-width:0.2;stroke-linejoin:miter" /><clipPath
       id="p12cbd15144-2"><rect
         x="7.1999998"
         y="7.1999998"
         width="441.35434"
         height="280.86185"
         id="rect158-1" /></clipPath><style
       type="text/css"
       id="style1-42">*{stroke-linejoin: round; stroke-linecap: butt}</style><path
       id="m00eee14f92"
       d="M 0,4.251975 C 1.127637,4.251975 2.209241,3.80396 3.0066,3.0066 3.80396,2.209241 4.251975,1.127637 4.251975,0 4.251975,-1.127637 3.80396,-2.209241 3.0066,-3.0066 2.209241,-3.80396 1.127637,-4.251975 0,-4.251975 c -1.127637,0 -2.209241,0.448015 -3.0066,1.245375 -0.79736,0.797359 -1.245375,1.878963 -1.245375,3.0066 0,1.127637 0.448015,2.209241 1.245375,3.0066 C -2.209241,3.80396 -1.127637,4.251975 0,4.251975 Z"
       style="stroke:#1f77b4;stroke-width:0.2" /><path
       id="mfcb6406281"
       d="m -4.251975,4.251975 h 8.50395 v -8.50395 h -8.50395 z"
       style="stroke:#ff7f0e;stroke-width:0.2;stroke-linejoin:miter" /><path
       id="m60765c86ec"
       d="M 0,-4.960637 -4.960637,4.960637 H 4.960637 Z"
       style="stroke:#2ca02c;stroke-width:0.2;stroke-linejoin:miter" /><clipPath
       id="p8919c4a8e5"><rect
         x="7.1999998"
         y="7.1999998"
         width="441.35434"
         height="280.86185"
         id="rect158-36" /></clipPath><style
       type="text/css"
       id="style1-52">*{stroke-linejoin: round; stroke-linecap: butt}</style><path
       id="m7125a2b1e2"
       d="M 0,4.251975 C 1.127637,4.251975 2.209241,3.80396 3.0066,3.0066 3.80396,2.209241 4.251975,1.127637 4.251975,0 4.251975,-1.127637 3.80396,-2.209241 3.0066,-3.0066 2.209241,-3.80396 1.127637,-4.251975 0,-4.251975 c -1.127637,0 -2.209241,0.448015 -3.0066,1.245375 -0.79736,0.797359 -1.245375,1.878963 -1.245375,3.0066 0,1.127637 0.448015,2.209241 1.245375,3.0066 C -2.209241,3.80396 -1.127637,4.251975 0,4.251975 Z"
       style="stroke:#1f77b4;stroke-width:0.2" /><path
       id="m6953f3fd1a"
       d="m -4.251975,4.251975 h 8.50395 v -8.50395 h -8.50395 z"
       style="stroke:#ff7f0e;stroke-width:0.2;stroke-linejoin:miter" /><path
       id="m918708e3de"
       d="M 0,-4.960637 -4.960637,4.960637 H 4.960637 Z"
       style="stroke:#2ca02c;stroke-width:0.2;stroke-linejoin:miter" /><clipPath
       id="pb04f308834"><rect
         x="7.1999998"
         y="7.1999998"
         width="441.35434"
         height="280.86185"
         id="rect158-29" /></clipPath><style
       type="text/css"
       id="style1-84">*{stroke-linejoin: round; stroke-linecap: butt}</style><path
       id="m7125a2b1e2-4"
       d="M 0,4.251975 C 1.127637,4.251975 2.209241,3.80396 3.0066,3.0066 3.80396,2.209241 4.251975,1.127637 4.251975,0 4.251975,-1.127637 3.80396,-2.209241 3.0066,-3.0066 2.209241,-3.80396 1.127637,-4.251975 0,-4.251975 c -1.127637,0 -2.209241,0.448015 -3.0066,1.245375 -0.79736,0.797359 -1.245375,1.878963 -1.245375,3.0066 0,1.127637 0.448015,2.209241 1.245375,3.0066 C -2.209241,3.80396 -1.127637,4.251975 0,4.251975 Z"
       style="stroke:#1f77b4;stroke-width:0.2" /><path
       id="m6953f3fd1a-6"
       d="m -4.251975,4.251975 h 8.50395 v -8.50395 h -8.50395 z"
       style="stroke:#ff7f0e;stroke-width:0.2;stroke-linejoin:miter" /><path
       id="m918708e3de-0"
       d="M 0,-4.960637 -4.960637,4.960637 H 4.960637 Z"
       style="stroke:#2ca02c;stroke-width:0.2;stroke-linejoin:miter" /><clipPath
       id="pb04f308834-9"><rect
         x="7.1999998"
         y="7.1999998"
         width="441.35434"
         height="280.86185"
         id="rect158-0" /></clipPath><style
       type="text/css"
       id="style1-10">*{stroke-linejoin: round; stroke-linecap: butt}</style><path
       id="m708cd694b4"
       d="M 0,4.251975 C 1.127637,4.251975 2.209241,3.80396 3.0066,3.0066 3.80396,2.209241 4.251975,1.127637 4.251975,0 4.251975,-1.127637 3.80396,-2.209241 3.0066,-3.0066 2.209241,-3.80396 1.127637,-4.251975 0,-4.251975 c -1.127637,0 -2.209241,0.448015 -3.0066,1.245375 -0.79736,0.797359 -1.245375,1.878963 -1.245375,3.0066 0,1.127637 0.448015,2.209241 1.245375,3.0066 C -2.209241,3.80396 -1.127637,4.251975 0,4.251975 Z"
       style="stroke:#1f77b4;stroke-width:0.2" /><path
       id="mef782eece8"
       d="m -4.251975,4.251975 h 8.50395 v -8.50395 h -8.50395 z"
       style="stroke:#ff7f0e;stroke-width:0.2;stroke-linejoin:miter" /><path
       id="m756c65e7ee"
       d="M 0,-4.960637 -4.960637,4.960637 H 4.960637 Z"
       style="stroke:#2ca02c;stroke-width:0.2;stroke-linejoin:miter" /><clipPath
       id="p8d5b48b8fa"><rect
         x="7.1999998"
         y="7.1999998"
         width="441.35434"
         height="280.86185"
         id="rect158-50" /></clipPath><style
       type="text/css"
       id="style1-605">*{stroke-linejoin: round; stroke-linecap: butt}</style><path
       id="mc347a5698a"
       d="M 0,4.251975 C 1.127637,4.251975 2.209241,3.80396 3.0066,3.0066 3.80396,2.209241 4.251975,1.127637 4.251975,0 4.251975,-1.127637 3.80396,-2.209241 3.0066,-3.0066 2.209241,-3.80396 1.127637,-4.251975 0,-4.251975 c -1.127637,0 -2.209241,0.448015 -3.0066,1.245375 -0.79736,0.797359 -1.245375,1.878963 -1.245375,3.0066 0,1.127637 0.448015,2.209241 1.245375,3.0066 C -2.209241,3.80396 -1.127637,4.251975 0,4.251975 Z"
       style="stroke:#1f77b4;stroke-width:0.2" /><path
       id="m915ebba3ea"
       d="m -4.251975,4.251975 h 8.50395 v -8.50395 h -8.50395 z"
       style="stroke:#ff7f0e;stroke-width:0.2;stroke-linejoin:miter" /><path
       id="m89957097a3"
       d="M 0,-4.960637 -4.960637,4.960637 H 4.960637 Z"
       style="stroke:#2ca02c;stroke-width:0.2;stroke-linejoin:miter" /><clipPath
       id="p47baf1202e"><rect
         x="7.1999998"
         y="7.1999998"
         width="509.56363"
         height="324.26776"
         id="rect158-4" /></clipPath><style
       type="text/css"
       id="style1-70">*{stroke-linejoin: round; stroke-linecap: butt}</style><path
       id="ma7187d9567"
       d="M 0,4.251975 C 1.127637,4.251975 2.209241,3.80396 3.0066,3.0066 3.80396,2.209241 4.251975,1.127637 4.251975,0 4.251975,-1.127637 3.80396,-2.209241 3.0066,-3.0066 2.209241,-3.80396 1.127637,-4.251975 0,-4.251975 c -1.127637,0 -2.209241,0.448015 -3.0066,1.245375 -0.79736,0.797359 -1.245375,1.878963 -1.245375,3.0066 0,1.127637 0.448015,2.209241 1.245375,3.0066 C -2.209241,3.80396 -1.127637,4.251975 0,4.251975 Z"
       style="stroke:#1f77b4;stroke-width:0.2" /><path
       id="m4630b4fdf2"
       d="m -4.251975,4.251975 h 8.50395 v -8.50395 h -8.50395 z"
       style="stroke:#ff7f0e;stroke-width:0.2;stroke-linejoin:miter" /><path
       id="m897f1b6646"
       d="M 0,-4.960637 -4.960637,4.960637 H 4.960637 Z"
       style="stroke:#2ca02c;stroke-width:0.2;stroke-linejoin:miter" /><clipPath
       id="pbb26f9981d"><rect
         x="7.1999998"
         y="7.1999998"
         width="498.23999"
         height="317.06183"
         id="rect158-02" /></clipPath><style
       type="text/css"
       id="style1-51">*{stroke-linejoin: round; stroke-linecap: butt}</style><path
       id="ma8887dd763"
       d="M 0,4.251975 C 1.127637,4.251975 2.209241,3.80396 3.0066,3.0066 3.80396,2.209241 4.251975,1.127637 4.251975,0 4.251975,-1.127637 3.80396,-2.209241 3.0066,-3.0066 2.209241,-3.80396 1.127637,-4.251975 0,-4.251975 c -1.127637,0 -2.209241,0.448015 -3.0066,1.245375 -0.79736,0.797359 -1.245375,1.878963 -1.245375,3.0066 0,1.127637 0.448015,2.209241 1.245375,3.0066 C -2.209241,3.80396 -1.127637,4.251975 0,4.251975 Z"
       style="stroke:#1f77b4;stroke-width:0.2" /><path
       id="mb02e712331"
       d="m -4.251975,4.251975 h 8.50395 v -8.50395 h -8.50395 z"
       style="stroke:#ff7f0e;stroke-width:0.2;stroke-linejoin:miter" /><path
       id="m7ddbad6e98"
       d="M 0,-4.960637 -4.960637,4.960637 H 4.960637 Z"
       style="stroke:#2ca02c;stroke-width:0.2;stroke-linejoin:miter" /><clipPath
       id="pd4a759c681"><rect
         x="7.1999998"
         y="7.1999998"
         width="487.40869"
         height="310.16916"
         id="rect158-59" /></clipPath><style
       type="text/css"
       id="style1-49">*{stroke-linejoin: round; stroke-linecap: butt}</style><path
       id="m6cab0dcd96"
       d="M 0,4.251975 C 1.127637,4.251975 2.209241,3.80396 3.0066,3.0066 3.80396,2.209241 4.251975,1.127637 4.251975,0 4.251975,-1.127637 3.80396,-2.209241 3.0066,-3.0066 2.209241,-3.80396 1.127637,-4.251975 0,-4.251975 c -1.127637,0 -2.209241,0.448015 -3.0066,1.245375 -0.79736,0.797359 -1.245375,1.878963 -1.245375,3.0066 0,1.127637 0.448015,2.209241 1.245375,3.0066 C -2.209241,3.80396 -1.127637,4.251975 0,4.251975 Z"
       style="stroke:#1f77b4;stroke-width:0.2" /><path
       id="mee94fe4af0"
       d="m -4.251975,4.251975 h 8.50395 v -8.50395 h -8.50395 z"
       style="stroke:#ff7f0e;stroke-width:0.2;stroke-linejoin:miter" /><path
       id="m1a8dec1984"
       d="M 0,-4.960637 -4.960637,4.960637 H 4.960637 Z"
       style="stroke:#2ca02c;stroke-width:0.2;stroke-linejoin:miter" /><clipPath
       id="p5f42448278"><rect
         x="7.1999998"
         y="7.1999998"
         width="479.07693"
         height="304.86713"
         id="rect158-96" /></clipPath><style
       type="text/css"
       id="style1-427">*{stroke-linejoin: round; stroke-linecap: butt}</style><path
       id="m9ddaa97f05"
       d="M 0,4.251975 C 1.127637,4.251975 2.209241,3.80396 3.0066,3.0066 3.80396,2.209241 4.251975,1.127637 4.251975,0 4.251975,-1.127637 3.80396,-2.209241 3.0066,-3.0066 2.209241,-3.80396 1.127637,-4.251975 0,-4.251975 c -1.127637,0 -2.209241,0.448015 -3.0066,1.245375 -0.79736,0.797359 -1.245375,1.878963 -1.245375,3.0066 0,1.127637 0.448015,2.209241 1.245375,3.0066 C -2.209241,3.80396 -1.127637,4.251975 0,4.251975 Z"
       style="stroke:#1f77b4;stroke-width:0.2" /><path
       id="mbeaa870281"
       d="m -4.251975,4.251975 h 8.50395 v -8.50395 h -8.50395 z"
       style="stroke:#ff7f0e;stroke-width:0.2;stroke-linejoin:miter" /><path
       id="ma0baf39828"
       d="M 0,-4.960637 -4.960637,4.960637 H 4.960637 Z"
       style="stroke:#2ca02c;stroke-width:0.2;stroke-linejoin:miter" /><clipPath
       id="p16d74406f6"><rect
         x="7.1999998"
         y="7.1999998"
         width="477.94333"
         height="304.14575"
         id="rect158-63" /></clipPath><style
       type="text/css"
       id="style1-89">*{stroke-linejoin: round; stroke-linecap: butt}</style><path
       id="mff1c07108e"
       d="M 0,4.251975 C 1.127637,4.251975 2.209241,3.80396 3.0066,3.0066 3.80396,2.209241 4.251975,1.127637 4.251975,0 4.251975,-1.127637 3.80396,-2.209241 3.0066,-3.0066 2.209241,-3.80396 1.127637,-4.251975 0,-4.251975 c -1.127637,0 -2.209241,0.448015 -3.0066,1.245375 -0.79736,0.797359 -1.245375,1.878963 -1.245375,3.0066 0,1.127637 0.448015,2.209241 1.245375,3.0066 C -2.209241,3.80396 -1.127637,4.251975 0,4.251975 Z"
       style="stroke:#1f77b4;stroke-width:0.2" /><path
       id="m701dc7a592"
       d="m -4.251975,4.251975 h 8.50395 v -8.50395 h -8.50395 z"
       style="stroke:#ff7f0e;stroke-width:0.2;stroke-linejoin:miter" /><path
       id="m254598c9cc"
       d="M 0,-4.960637 -4.960637,4.960637 H 4.960637 Z"
       style="stroke:#2ca02c;stroke-width:0.2;stroke-linejoin:miter" /><clipPath
       id="paf22b0024c"><rect
         x="7.1999998"
         y="7.1999998"
         width="477.9422"
         height="304.14505"
         id="rect158-11" /></clipPath><style
       type="text/css"
       id="style1-25">*{stroke-linejoin: round; stroke-linecap: butt}</style><path
       id="mdf8e1a914d"
       d="M 0,4.251975 C 1.127637,4.251975 2.209241,3.80396 3.0066,3.0066 3.80396,2.209241 4.251975,1.127637 4.251975,0 4.251975,-1.127637 3.80396,-2.209241 3.0066,-3.0066 2.209241,-3.80396 1.127637,-4.251975 0,-4.251975 c -1.127637,0 -2.209241,0.448015 -3.0066,1.245375 -0.79736,0.797359 -1.245375,1.878963 -1.245375,3.0066 0,1.127637 0.448015,2.209241 1.245375,3.0066 C -2.209241,3.80396 -1.127637,4.251975 0,4.251975 Z"
       style="stroke:#ff7f0e;stroke-width:0.2" /><path
       id="m7b23196cb0"
       d="m -4.251975,4.251975 h 8.50395 v -8.50395 h -8.50395 z"
       style="stroke:#d62728;stroke-width:0.2;stroke-linejoin:miter" /><path
       id="m626d193d95"
       d="M 0,-4.960637 -4.960637,4.960637 H 4.960637 Z"
       style="stroke:#8c564b;stroke-width:0.2;stroke-linejoin:miter" /><clipPath
       id="p7f260f5a20"><rect
         x="7.1999998"
         y="7.1999998"
         width="477.9422"
         height="304.14505"
         id="rect147" /></clipPath><style
       type="text/css"
       id="style1-48">*{stroke-linejoin: round; stroke-linecap: butt}</style><path
       id="m7738d44fa7"
       d="M 0 4.251975  C 1.127637 4.251975 2.209241 3.80396 3.0066 3.0066  C 3.80396 2.209241 4.251975 1.127637 4.251975 0  C 4.251975 -1.127637 3.80396 -2.209241 3.0066 -3.0066  C 2.209241 -3.80396 1.127637 -4.251975 0 -4.251975  C -1.127637 -4.251975 -2.209241 -3.80396 -3.0066 -3.0066  C -3.80396 -2.209241 -4.251975 -1.127637 -4.251975 0  C -4.251975 1.127637 -3.80396 2.209241 -3.0066 3.0066  C -2.209241 3.80396 -1.127637 4.251975 0 4.251975  z "
       style="stroke: #ff7f0e; stroke-width: 0.2" /><path
       id="me930240ece"
       d="M -4.251975 4.251975  L 4.251975 4.251975  L 4.251975 -4.251975  L -4.251975 -4.251975  z "
       style="stroke: #d62728; stroke-width: 0.2; stroke-linejoin: miter" /><path
       id="ma4eff9f725"
       d="M 0 -4.960637  L -4.960637 4.960637  L 4.960637 4.960637  z "
       style="stroke: #8c564b; stroke-width: 0.2; stroke-linejoin: miter" /><clipPath
       id="p99749394b5"><rect
         x="7.2"
         y="7.2"
         width="676.854573"
         height="423.034108"
         id="rect179" /></clipPath><style
       type="text/css"
       id="style1-02">*{stroke-linejoin: round; stroke-linecap: butt}</style><path
       id="m3fad4f7fcf"
       d="M 0 4.251975  C 1.127637 4.251975 2.209241 3.80396 3.0066 3.0066  C 3.80396 2.209241 4.251975 1.127637 4.251975 0  C 4.251975 -1.127637 3.80396 -2.209241 3.0066 -3.0066  C 2.209241 -3.80396 1.127637 -4.251975 0 -4.251975  C -1.127637 -4.251975 -2.209241 -3.80396 -3.0066 -3.0066  C -3.80396 -2.209241 -4.251975 -1.127637 -4.251975 0  C -4.251975 1.127637 -3.80396 2.209241 -3.0066 3.0066  C -2.209241 3.80396 -1.127637 4.251975 0 4.251975  z "
       style="stroke: #ff7f0e; stroke-width: 0.2" /><path
       id="m6aa228c850"
       d="M -4.251975 4.251975  L 4.251975 4.251975  L 4.251975 -4.251975  L -4.251975 -4.251975  z "
       style="stroke: #d62728; stroke-width: 0.2; stroke-linejoin: miter" /><path
       id="m14d441395f"
       d="M 0 -4.960637  L -4.960637 4.960637  L 4.960637 4.960637  z "
       style="stroke: #8c564b; stroke-width: 0.2; stroke-linejoin: miter" /><clipPath
       id="p26f222ef94"><rect
         x="7.2"
         y="7.2"
         width="682.379916"
         height="426.487448"
         id="rect194-7" /></clipPath><style
       type="text/css"
       id="style1-840">*{stroke-linejoin: round; stroke-linecap: butt}</style><path
       id="m3fad4f7fcf-3"
       d="M 0 4.251975  C 1.127637 4.251975 2.209241 3.80396 3.0066 3.0066  C 3.80396 2.209241 4.251975 1.127637 4.251975 0  C 4.251975 -1.127637 3.80396 -2.209241 3.0066 -3.0066  C 2.209241 -3.80396 1.127637 -4.251975 0 -4.251975  C -1.127637 -4.251975 -2.209241 -3.80396 -3.0066 -3.0066  C -3.80396 -2.209241 -4.251975 -1.127637 -4.251975 0  C -4.251975 1.127637 -3.80396 2.209241 -3.0066 3.0066  C -2.209241 3.80396 -1.127637 4.251975 0 4.251975  z "
       style="stroke: #ff7f0e; stroke-width: 0.2" /><path
       id="m6aa228c850-5"
       d="M -4.251975 4.251975  L 4.251975 4.251975  L 4.251975 -4.251975  L -4.251975 -4.251975  z "
       style="stroke: #d62728; stroke-width: 0.2; stroke-linejoin: miter" /><path
       id="m14d441395f-8"
       d="M 0 -4.960637  L -4.960637 4.960637  L 4.960637 4.960637  z "
       style="stroke: #8c564b; stroke-width: 0.2; stroke-linejoin: miter" /><clipPath
       id="p26f222ef94-9"><rect
         x="7.2"
         y="7.2"
         width="682.379916"
         height="426.487448"
         id="rect194-3" /></clipPath><style
       type="text/css"
       id="style1-57">*{stroke-linejoin: round; stroke-linecap: butt}</style><path
       id="ma1107e8de0"
       d="M 0 4.251975  C 1.127637 4.251975 2.209241 3.80396 3.0066 3.0066  C 3.80396 2.209241 4.251975 1.127637 4.251975 0  C 4.251975 -1.127637 3.80396 -2.209241 3.0066 -3.0066  C 2.209241 -3.80396 1.127637 -4.251975 0 -4.251975  C -1.127637 -4.251975 -2.209241 -3.80396 -3.0066 -3.0066  C -3.80396 -2.209241 -4.251975 -1.127637 -4.251975 0  C -4.251975 1.127637 -3.80396 2.209241 -3.0066 3.0066  C -2.209241 3.80396 -1.127637 4.251975 0 4.251975  z "
       style="stroke: #ff7f0e; stroke-width: 0.2" /><path
       id="me574c784f8"
       d="M -4.251975 4.251975  L 4.251975 4.251975  L 4.251975 -4.251975  L -4.251975 -4.251975  z "
       style="stroke: #d62728; stroke-width: 0.2; stroke-linejoin: miter" /><path
       id="m2f86b30747"
       d="M 0 -4.960637  L -4.960637 4.960637  L 4.960637 4.960637  z "
       style="stroke: #8c564b; stroke-width: 0.2; stroke-linejoin: miter" /><clipPath
       id="p8fc666632b"><rect
         x="7.2"
         y="7.2"
         width="708.750874"
         height="458.603507"
         id="rect202" /></clipPath><style
       type="text/css"
       id="style1-64">*{stroke-linejoin: round; stroke-linecap: butt}</style><path
       id="m711f7939d1"
       d="M 0 4.251975  C 1.127637 4.251975 2.209241 3.80396 3.0066 3.0066  C 3.80396 2.209241 4.251975 1.127637 4.251975 0  C 4.251975 -1.127637 3.80396 -2.209241 3.0066 -3.0066  C 2.209241 -3.80396 1.127637 -4.251975 0 -4.251975  C -1.127637 -4.251975 -2.209241 -3.80396 -3.0066 -3.0066  C -3.80396 -2.209241 -4.251975 -1.127637 -4.251975 0  C -4.251975 1.127637 -3.80396 2.209241 -3.0066 3.0066  C -2.209241 3.80396 -1.127637 4.251975 0 4.251975  z "
       style="stroke: #ff7f0e; stroke-width: 0.2" /><path
       id="m62a3c1c7a9"
       d="M -4.251975 4.251975  L 4.251975 4.251975  L 4.251975 -4.251975  L -4.251975 -4.251975  z "
       style="stroke: #d62728; stroke-width: 0.2; stroke-linejoin: miter" /><path
       id="md16a986d77"
       d="M 0 -4.960637  L -4.960637 4.960637  L 4.960637 4.960637  z "
       style="stroke: #8c564b; stroke-width: 0.2; stroke-linejoin: miter" /><clipPath
       id="p48e0756f53"><rect
         x="7.2"
         y="7.2"
         width="745.921366"
         height="455.840835"
         id="rect206" /></clipPath><style
       type="text/css"
       id="style1-40">*{stroke-linejoin: round; stroke-linecap: butt}</style><path
       id="md372308fc6"
       d="M 0 4.251975  C 1.127637 4.251975 2.209241 3.80396 3.0066 3.0066  C 3.80396 2.209241 4.251975 1.127637 4.251975 0  C 4.251975 -1.127637 3.80396 -2.209241 3.0066 -3.0066  C 2.209241 -3.80396 1.127637 -4.251975 0 -4.251975  C -1.127637 -4.251975 -2.209241 -3.80396 -3.0066 -3.0066  C -3.80396 -2.209241 -4.251975 -1.127637 -4.251975 0  C -4.251975 1.127637 -3.80396 2.209241 -3.0066 3.0066  C -2.209241 3.80396 -1.127637 4.251975 0 4.251975  z "
       style="stroke: #ff7f0e; stroke-width: 0.2" /><path
       id="mbf7a6f7638"
       d="M -4.251975 4.251975  L 4.251975 4.251975  L 4.251975 -4.251975  L -4.251975 -4.251975  z "
       style="stroke: #d62728; stroke-width: 0.2; stroke-linejoin: miter" /><path
       id="m1c4afc6bb6"
       d="M 0 -4.960637  L -4.960637 4.960637  L 4.960637 4.960637  z "
       style="stroke: #8c564b; stroke-width: 0.2; stroke-linejoin: miter" /><clipPath
       id="p19116c37a1"><rect
         x="7.2"
         y="7.2"
         width="745.921366"
         height="455.840835"
         id="rect206-0" /></clipPath><style
       type="text/css"
       id="style1-78">*{stroke-linejoin: round; stroke-linecap: butt}</style><path
       id="me50d7b391b"
       d="M 0 4.251975  C 1.127637 4.251975 2.209241 3.80396 3.0066 3.0066  C 3.80396 2.209241 4.251975 1.127637 4.251975 0  C 4.251975 -1.127637 3.80396 -2.209241 3.0066 -3.0066  C 2.209241 -3.80396 1.127637 -4.251975 0 -4.251975  C -1.127637 -4.251975 -2.209241 -3.80396 -3.0066 -3.0066  C -3.80396 -2.209241 -4.251975 -1.127637 -4.251975 0  C -4.251975 1.127637 -3.80396 2.209241 -3.0066 3.0066  C -2.209241 3.80396 -1.127637 4.251975 0 4.251975  z "
       style="stroke: #ff7f0e; stroke-width: 0.2" /><path
       id="m6ed83f6db4"
       d="M -4.251975 4.251975  L 4.251975 4.251975  L 4.251975 -4.251975  L -4.251975 -4.251975  z "
       style="stroke: #d62728; stroke-width: 0.2; stroke-linejoin: miter" /><path
       id="ma63ccda979"
       d="M 0 -4.960637  L -4.960637 4.960637  L 4.960637 4.960637  z "
       style="stroke: #8c564b; stroke-width: 0.2; stroke-linejoin: miter" /><clipPath
       id="p73586635a1"><rect
         x="7.2"
         y="7.2"
         width="708.750874"
         height="458.603507"
         id="rect202-6" /></clipPath><style
       type="text/css"
       id="style1-22">*{stroke-linejoin: round; stroke-linecap: butt}</style><path
       id="m90de94806f"
       d="M 0 4.251975  C 1.127637 4.251975 2.209241 3.80396 3.0066 3.0066  C 3.80396 2.209241 4.251975 1.127637 4.251975 0  C 4.251975 -1.127637 3.80396 -2.209241 3.0066 -3.0066  C 2.209241 -3.80396 1.127637 -4.251975 0 -4.251975  C -1.127637 -4.251975 -2.209241 -3.80396 -3.0066 -3.0066  C -3.80396 -2.209241 -4.251975 -1.127637 -4.251975 0  C -4.251975 1.127637 -3.80396 2.209241 -3.0066 3.0066  C -2.209241 3.80396 -1.127637 4.251975 0 4.251975  z "
       style="stroke: #ff7f0e; stroke-width: 0.2" /><path
       id="m43ec625cee"
       d="M -4.251975 4.251975  L 4.251975 4.251975  L 4.251975 -4.251975  L -4.251975 -4.251975  z "
       style="stroke: #d62728; stroke-width: 0.2; stroke-linejoin: miter" /><path
       id="me45b8d9864"
       d="M 0 -4.960637  L -4.960637 4.960637  L 4.960637 4.960637  z "
       style="stroke: #8c564b; stroke-width: 0.2; stroke-linejoin: miter" /><clipPath
       id="p645b481ddb"><rect
         x="7.2"
         y="7.2"
         width="717.290041"
         height="464.12885"
         id="rect202-3" /></clipPath><style
       type="text/css"
       id="style1-37">*{stroke-linejoin: round; stroke-linecap: butt}</style><path
       id="mb31ab68594"
       d="M 0 4.251975  C 1.127637 4.251975 2.209241 3.80396 3.0066 3.0066  C 3.80396 2.209241 4.251975 1.127637 4.251975 0  C 4.251975 -1.127637 3.80396 -2.209241 3.0066 -3.0066  C 2.209241 -3.80396 1.127637 -4.251975 0 -4.251975  C -1.127637 -4.251975 -2.209241 -3.80396 -3.0066 -3.0066  C -3.80396 -2.209241 -4.251975 -1.127637 -4.251975 0  C -4.251975 1.127637 -3.80396 2.209241 -3.0066 3.0066  C -2.209241 3.80396 -1.127637 4.251975 0 4.251975  z "
       style="stroke: #ff7f0e; stroke-width: 0.2" /><path
       id="mb834f90ff4"
       d="M -4.251975 4.251975  L 4.251975 4.251975  L 4.251975 -4.251975  L -4.251975 -4.251975  z "
       style="stroke: #d62728; stroke-width: 0.2; stroke-linejoin: miter" /><path
       id="m475b84ab03"
       d="M 0 -4.960637  L -4.960637 4.960637  L 4.960637 4.960637  z "
       style="stroke: #8c564b; stroke-width: 0.2; stroke-linejoin: miter" /><clipPath
       id="p104f9ade9e"><rect
         x="7.2"
         y="7.2"
         width="721.559624"
         height="466.891522"
         id="rect202-9" /></clipPath><style
       type="text/css"
       id="style1-05">*{stroke-linejoin: round; stroke-linecap: butt}</style><path
       id="m9064d7a9ad"
       d="M 0 4.251975  C 1.127637 4.251975 2.209241 3.80396 3.0066 3.0066  C 3.80396 2.209241 4.251975 1.127637 4.251975 0  C 4.251975 -1.127637 3.80396 -2.209241 3.0066 -3.0066  C 2.209241 -3.80396 1.127637 -4.251975 0 -4.251975  C -1.127637 -4.251975 -2.209241 -3.80396 -3.0066 -3.0066  C -3.80396 -2.209241 -4.251975 -1.127637 -4.251975 0  C -4.251975 1.127637 -3.80396 2.209241 -3.0066 3.0066  C -2.209241 3.80396 -1.127637 4.251975 0 4.251975  z "
       style="stroke: #ff7f0e; stroke-width: 0.2" /><path
       id="mac07429753"
       d="M -4.251975 4.251975  L 4.251975 4.251975  L 4.251975 -4.251975  L -4.251975 -4.251975  z "
       style="stroke: #d62728; stroke-width: 0.2; stroke-linejoin: miter" /><path
       id="mb2c703da7b"
       d="M 0 -4.960637  L -4.960637 4.960637  L 4.960637 4.960637  z "
       style="stroke: #8c564b; stroke-width: 0.2; stroke-linejoin: miter" /><clipPath
       id="pae9cd21467"><rect
         x="7.2"
         y="7.2"
         width="715.531977"
         height="462.991279"
         id="rect202-0" /></clipPath><style
       type="text/css"
       id="style1-36">*{stroke-linejoin: round; stroke-linecap: butt}</style><path
       id="mb6e93783e5"
       d="M 0 4.251975  C 1.127637 4.251975 2.209241 3.80396 3.0066 3.0066  C 3.80396 2.209241 4.251975 1.127637 4.251975 0  C 4.251975 -1.127637 3.80396 -2.209241 3.0066 -3.0066  C 2.209241 -3.80396 1.127637 -4.251975 0 -4.251975  C -1.127637 -4.251975 -2.209241 -3.80396 -3.0066 -3.0066  C -3.80396 -2.209241 -4.251975 -1.127637 -4.251975 0  C -4.251975 1.127637 -3.80396 2.209241 -3.0066 3.0066  C -2.209241 3.80396 -1.127637 4.251975 0 4.251975  z "
       style="stroke: #ff7f0e; stroke-width: 0.2" /><path
       id="ma1a28691c6"
       d="M -4.251975 4.251975  L 4.251975 4.251975  L 4.251975 -4.251975  L -4.251975 -4.251975  z "
       style="stroke: #d62728; stroke-width: 0.2; stroke-linejoin: miter" /><path
       id="ma2260a0504"
       d="M 0 -4.960637  L -4.960637 4.960637  L 4.960637 4.960637  z "
       style="stroke: #8c564b; stroke-width: 0.2; stroke-linejoin: miter" /><clipPath
       id="p26728b52f4"><rect
         x="7.2"
         y="7.2"
         width="715.531977"
         height="462.991279"
         id="rect202-5" /></clipPath><style
       type="text/css"
       id="style1-96">*{stroke-linejoin: round; stroke-linecap: butt}</style><path
       id="mb6e93783e5-6"
       d="M 0 4.251975  C 1.127637 4.251975 2.209241 3.80396 3.0066 3.0066  C 3.80396 2.209241 4.251975 1.127637 4.251975 0  C 4.251975 -1.127637 3.80396 -2.209241 3.0066 -3.0066  C 2.209241 -3.80396 1.127637 -4.251975 0 -4.251975  C -1.127637 -4.251975 -2.209241 -3.80396 -3.0066 -3.0066  C -3.80396 -2.209241 -4.251975 -1.127637 -4.251975 0  C -4.251975 1.127637 -3.80396 2.209241 -3.0066 3.0066  C -2.209241 3.80396 -1.127637 4.251975 0 4.251975  z "
       style="stroke: #ff7f0e; stroke-width: 0.2" /><path
       id="ma1a28691c6-3"
       d="M -4.251975 4.251975  L 4.251975 4.251975  L 4.251975 -4.251975  L -4.251975 -4.251975  z "
       style="stroke: #d62728; stroke-width: 0.2; stroke-linejoin: miter" /><path
       id="ma2260a0504-3"
       d="M 0 -4.960637  L -4.960637 4.960637  L 4.960637 4.960637  z "
       style="stroke: #8c564b; stroke-width: 0.2; stroke-linejoin: miter" /><clipPath
       id="p26728b52f4-7"><rect
         x="7.2"
         y="7.2"
         width="715.531977"
         height="462.991279"
         id="rect202-05" /></clipPath><style
       type="text/css"
       id="style1-703">*{stroke-linejoin: round; stroke-linecap: butt}</style><path
       id="meeb7e4bb4f"
       d="M 0 4.251975  C 1.127637 4.251975 2.209241 3.80396 3.0066 3.0066  C 3.80396 2.209241 4.251975 1.127637 4.251975 0  C 4.251975 -1.127637 3.80396 -2.209241 3.0066 -3.0066  C 2.209241 -3.80396 1.127637 -4.251975 0 -4.251975  C -1.127637 -4.251975 -2.209241 -3.80396 -3.0066 -3.0066  C -3.80396 -2.209241 -4.251975 -1.127637 -4.251975 0  C -4.251975 1.127637 -3.80396 2.209241 -3.0066 3.0066  C -2.209241 3.80396 -1.127637 4.251975 0 4.251975  z "
       style="stroke: #ff7f0e; stroke-width: 0.2" /><path
       id="mb2813180cd"
       d="M -4.251975 4.251975  L 4.251975 4.251975  L 4.251975 -4.251975  L -4.251975 -4.251975  z "
       style="stroke: #d62728; stroke-width: 0.2; stroke-linejoin: miter" /><path
       id="m27d141a465"
       d="M 0 -4.960637  L -4.960637 4.960637  L 4.960637 4.960637  z "
       style="stroke: #8c564b; stroke-width: 0.2; stroke-linejoin: miter" /><clipPath
       id="pd38652714c"><rect
         x="7.2"
         y="7.2"
         width="715.531977"
         height="462.991279"
         id="rect202-37" /></clipPath><style
       type="text/css"
       id="style1-151">*{stroke-linejoin: round; stroke-linecap: butt}</style><path
       id="me055503012"
       d="M 0 4.251975  C 1.127637 4.251975 2.209241 3.80396 3.0066 3.0066  C 3.80396 2.209241 4.251975 1.127637 4.251975 0  C 4.251975 -1.127637 3.80396 -2.209241 3.0066 -3.0066  C 2.209241 -3.80396 1.127637 -4.251975 0 -4.251975  C -1.127637 -4.251975 -2.209241 -3.80396 -3.0066 -3.0066  C -3.80396 -2.209241 -4.251975 -1.127637 -4.251975 0  C -4.251975 1.127637 -3.80396 2.209241 -3.0066 3.0066  C -2.209241 3.80396 -1.127637 4.251975 0 4.251975  z "
       style="stroke: #ff7f0e; stroke-width: 0.2" /><path
       id="m92d4a2706c"
       d="M -4.251975 4.251975  L 4.251975 4.251975  L 4.251975 -4.251975  L -4.251975 -4.251975  z "
       style="stroke: #d62728; stroke-width: 0.2; stroke-linejoin: miter" /><path
       id="m79fec8d4ba"
       d="M 0 -4.960637  L -4.960637 4.960637  L 4.960637 4.960637  z "
       style="stroke: #8c564b; stroke-width: 0.2; stroke-linejoin: miter" /><clipPath
       id="p9821529d20"><rect
         x="7.2"
         y="7.2"
         width="715.531977"
         height="462.991279"
         id="rect202-7" /></clipPath><style
       type="text/css"
       id="style1-04">*{stroke-linejoin: round; stroke-linecap: butt}</style><path
       id="m363b503144"
       d="M 0 4.251975  C 1.127637 4.251975 2.209241 3.80396 3.0066 3.0066  C 3.80396 2.209241 4.251975 1.127637 4.251975 0  C 4.251975 -1.127637 3.80396 -2.209241 3.0066 -3.0066  C 2.209241 -3.80396 1.127637 -4.251975 0 -4.251975  C -1.127637 -4.251975 -2.209241 -3.80396 -3.0066 -3.0066  C -3.80396 -2.209241 -4.251975 -1.127637 -4.251975 0  C -4.251975 1.127637 -3.80396 2.209241 -3.0066 3.0066  C -2.209241 3.80396 -1.127637 4.251975 0 4.251975  z "
       style="stroke: #ff7f0e; stroke-width: 0.2" /><path
       id="me7ff13258a"
       d="M -4.251975 4.251975  L 4.251975 4.251975  L 4.251975 -4.251975  L -4.251975 -4.251975  z "
       style="stroke: #d62728; stroke-width: 0.2; stroke-linejoin: miter" /><path
       id="m10a20d3072"
       d="M 0 -4.960637  L -4.960637 4.960637  L 4.960637 4.960637  z "
       style="stroke: #8c564b; stroke-width: 0.2; stroke-linejoin: miter" /><clipPath
       id="p483d70d851"><rect
         x="7.2"
         y="7.2"
         width="715.531977"
         height="462.991279"
         id="rect202-64" /></clipPath><style
       type="text/css"
       id="style1-960">*{stroke-linejoin: round; stroke-linecap: butt}</style><path
       id="md82885a3b0"
       d="M 0 4.251975  C 1.127637 4.251975 2.209241 3.80396 3.0066 3.0066  C 3.80396 2.209241 4.251975 1.127637 4.251975 0  C 4.251975 -1.127637 3.80396 -2.209241 3.0066 -3.0066  C 2.209241 -3.80396 1.127637 -4.251975 0 -4.251975  C -1.127637 -4.251975 -2.209241 -3.80396 -3.0066 -3.0066  C -3.80396 -2.209241 -4.251975 -1.127637 -4.251975 0  C -4.251975 1.127637 -3.80396 2.209241 -3.0066 3.0066  C -2.209241 3.80396 -1.127637 4.251975 0 4.251975  z "
       style="stroke: #ff7f0e; stroke-width: 0.2" /><path
       id="mc74e2da4d7"
       d="M -4.251975 4.251975  L 4.251975 4.251975  L 4.251975 -4.251975  L -4.251975 -4.251975  z "
       style="stroke: #d62728; stroke-width: 0.2; stroke-linejoin: miter" /><path
       id="mf5402b0ea9"
       d="M 0 -4.960637  L -4.960637 4.960637  L 4.960637 4.960637  z "
       style="stroke: #8c564b; stroke-width: 0.2; stroke-linejoin: miter" /><clipPath
       id="p5172ab0e79"><rect
         x="7.2"
         y="7.2"
         width="723.819992"
         height="468.354113"
         id="rect202-73" /></clipPath><style
       type="text/css"
       id="style1-059">*{stroke-linejoin: round; stroke-linecap: butt}</style><path
       id="mf2581a5087"
       d="M 0 4.251975  C 1.127637 4.251975 2.209241 3.80396 3.0066 3.0066  C 3.80396 2.209241 4.251975 1.127637 4.251975 0  C 4.251975 -1.127637 3.80396 -2.209241 3.0066 -3.0066  C 2.209241 -3.80396 1.127637 -4.251975 0 -4.251975  C -1.127637 -4.251975 -2.209241 -3.80396 -3.0066 -3.0066  C -3.80396 -2.209241 -4.251975 -1.127637 -4.251975 0  C -4.251975 1.127637 -3.80396 2.209241 -3.0066 3.0066  C -2.209241 3.80396 -1.127637 4.251975 0 4.251975  z "
       style="stroke: #ff7f0e; stroke-width: 0.2" /><path
       id="m63f9ae1c7d"
       d="M -4.251975 4.251975  L 4.251975 4.251975  L 4.251975 -4.251975  L -4.251975 -4.251975  z "
       style="stroke: #d62728; stroke-width: 0.2; stroke-linejoin: miter" /><path
       id="m79020d4878"
       d="M 0 -4.960637  L -4.960637 4.960637  L 4.960637 4.960637  z "
       style="stroke: #8c564b; stroke-width: 0.2; stroke-linejoin: miter" /><clipPath
       id="p131af1e259"><rect
         x="7.2"
         y="7.2"
         width="723.819992"
         height="468.354113"
         id="rect202-1" /></clipPath><style
       type="text/css"
       id="style1-222">*{stroke-linejoin: round; stroke-linecap: butt}</style><path
       id="me3cde62c39"
       d="M 0 4.251975  C 1.127637 4.251975 2.209241 3.80396 3.0066 3.0066  C 3.80396 2.209241 4.251975 1.127637 4.251975 0  C 4.251975 -1.127637 3.80396 -2.209241 3.0066 -3.0066  C 2.209241 -3.80396 1.127637 -4.251975 0 -4.251975  C -1.127637 -4.251975 -2.209241 -3.80396 -3.0066 -3.0066  C -3.80396 -2.209241 -4.251975 -1.127637 -4.251975 0  C -4.251975 1.127637 -3.80396 2.209241 -3.0066 3.0066  C -2.209241 3.80396 -1.127637 4.251975 0 4.251975  z "
       style="stroke: #ff7f0e; stroke-width: 0.2" /><path
       id="m2e7f94b2b0"
       d="M -4.251975 4.251975  L 4.251975 4.251975  L 4.251975 -4.251975  L -4.251975 -4.251975  z "
       style="stroke: #d62728; stroke-width: 0.2; stroke-linejoin: miter" /><path
       id="m5a8bd48a64"
       d="M 0 -4.960637  L -4.960637 4.960637  L 4.960637 4.960637  z "
       style="stroke: #8c564b; stroke-width: 0.2; stroke-linejoin: miter" /><clipPath
       id="pee8571d59a"><rect
         x="7.2"
         y="7.2"
         width="718.294649"
         height="464.77889"
         id="rect202-8" /></clipPath><style
       type="text/css"
       id="style1-363">*{stroke-linejoin: round; stroke-linecap: butt}</style><path
       id="m7408b8ccdf"
       d="M 0 4.251975  C 1.127637 4.251975 2.209241 3.80396 3.0066 3.0066  C 3.80396 2.209241 4.251975 1.127637 4.251975 0  C 4.251975 -1.127637 3.80396 -2.209241 3.0066 -3.0066  C 2.209241 -3.80396 1.127637 -4.251975 0 -4.251975  C -1.127637 -4.251975 -2.209241 -3.80396 -3.0066 -3.0066  C -3.80396 -2.209241 -4.251975 -1.127637 -4.251975 0  C -4.251975 1.127637 -3.80396 2.209241 -3.0066 3.0066  C -2.209241 3.80396 -1.127637 4.251975 0 4.251975  z "
       style="stroke: #ff7f0e; stroke-width: 0.2" /><path
       id="m322bcaa9e6"
       d="M -4.251975 4.251975  L 4.251975 4.251975  L 4.251975 -4.251975  L -4.251975 -4.251975  z "
       style="stroke: #d62728; stroke-width: 0.2; stroke-linejoin: miter" /><path
       id="m1b4010bec0"
       d="M 0 -4.960637  L -4.960637 4.960637  L 4.960637 4.960637  z "
       style="stroke: #8c564b; stroke-width: 0.2; stroke-linejoin: miter" /><clipPath
       id="p074c09a9a0"><rect
         x="7.2"
         y="7.2"
         width="721.057321"
         height="466.566502"
         id="rect202-53" /></clipPath><style
       type="text/css"
       id="style1-259">*{stroke-linejoin: round; stroke-linecap: butt}</style><path
       id="m67c72da9b8"
       d="M 0 4.251975  C 1.127637 4.251975 2.209241 3.80396 3.0066 3.0066  C 3.80396 2.209241 4.251975 1.127637 4.251975 0  C 4.251975 -1.127637 3.80396 -2.209241 3.0066 -3.0066  C 2.209241 -3.80396 1.127637 -4.251975 0 -4.251975  C -1.127637 -4.251975 -2.209241 -3.80396 -3.0066 -3.0066  C -3.80396 -2.209241 -4.251975 -1.127637 -4.251975 0  C -4.251975 1.127637 -3.80396 2.209241 -3.0066 3.0066  C -2.209241 3.80396 -1.127637 4.251975 0 4.251975  z "
       style="stroke: #ff7f0e; stroke-width: 0.2" /><path
       id="m35b99cf420"
       d="M -4.251975 4.251975  L 4.251975 4.251975  L 4.251975 -4.251975  L -4.251975 -4.251975  z "
       style="stroke: #d62728; stroke-width: 0.2; stroke-linejoin: miter" /><path
       id="m36d2bba2a1"
       d="M 0 -4.960637  L -4.960637 4.960637  L 4.960637 4.960637  z "
       style="stroke: #8c564b; stroke-width: 0.2; stroke-linejoin: miter" /><clipPath
       id="p52b8f232a2"><rect
         x="7.2"
         y="7.2"
         width="721.057321"
         height="466.566502"
         id="rect202-69" /></clipPath><style
       type="text/css"
       id="style1-33">*{stroke-linejoin: round; stroke-linecap: butt}</style><path
       id="m67c72da9b8-9"
       d="M 0 4.251975  C 1.127637 4.251975 2.209241 3.80396 3.0066 3.0066  C 3.80396 2.209241 4.251975 1.127637 4.251975 0  C 4.251975 -1.127637 3.80396 -2.209241 3.0066 -3.0066  C 2.209241 -3.80396 1.127637 -4.251975 0 -4.251975  C -1.127637 -4.251975 -2.209241 -3.80396 -3.0066 -3.0066  C -3.80396 -2.209241 -4.251975 -1.127637 -4.251975 0  C -4.251975 1.127637 -3.80396 2.209241 -3.0066 3.0066  C -2.209241 3.80396 -1.127637 4.251975 0 4.251975  z "
       style="stroke: #ff7f0e; stroke-width: 0.2" /><path
       id="m35b99cf420-8"
       d="M -4.251975 4.251975  L 4.251975 4.251975  L 4.251975 -4.251975  L -4.251975 -4.251975  z "
       style="stroke: #d62728; stroke-width: 0.2; stroke-linejoin: miter" /><path
       id="m36d2bba2a1-5"
       d="M 0 -4.960637  L -4.960637 4.960637  L 4.960637 4.960637  z "
       style="stroke: #8c564b; stroke-width: 0.2; stroke-linejoin: miter" /><clipPath
       id="p52b8f232a2-9"><rect
         x="7.2"
         y="7.2"
         width="721.057321"
         height="466.566502"
         id="rect202-10" /></clipPath><style
       type="text/css"
       id="style1-01">*{stroke-linejoin: round; stroke-linecap: butt}</style><path
       id="m250b409822"
       d="M 0 4.251975  C 1.127637 4.251975 2.209241 3.80396 3.0066 3.0066  C 3.80396 2.209241 4.251975 1.127637 4.251975 0  C 4.251975 -1.127637 3.80396 -2.209241 3.0066 -3.0066  C 2.209241 -3.80396 1.127637 -4.251975 0 -4.251975  C -1.127637 -4.251975 -2.209241 -3.80396 -3.0066 -3.0066  C -3.80396 -2.209241 -4.251975 -1.127637 -4.251975 0  C -4.251975 1.127637 -3.80396 2.209241 -3.0066 3.0066  C -2.209241 3.80396 -1.127637 4.251975 0 4.251975  z "
       style="stroke: #ff7f0e; stroke-width: 0.2" /><path
       id="mf0b375f333"
       d="M -4.251975 4.251975  L 4.251975 4.251975  L 4.251975 -4.251975  L -4.251975 -4.251975  z "
       style="stroke: #d62728; stroke-width: 0.2; stroke-linejoin: miter" /><path
       id="m5d2225deba"
       d="M 0 -4.960637  L -4.960637 4.960637  L 4.960637 4.960637  z "
       style="stroke: #8c564b; stroke-width: 0.2; stroke-linejoin: miter" /><clipPath
       id="pffa5b59345"><rect
         x="7.2"
         y="7.2"
         width="723.819992"
         height="468.354113"
         id="rect202-19" /></clipPath><style
       type="text/css"
       id="style1-65">*{stroke-linejoin: round; stroke-linecap: butt}</style><path
       id="m24d6bc3171"
       d="M 0 4.251975  C 1.127637 4.251975 2.209241 3.80396 3.0066 3.0066  C 3.80396 2.209241 4.251975 1.127637 4.251975 0  C 4.251975 -1.127637 3.80396 -2.209241 3.0066 -3.0066  C 2.209241 -3.80396 1.127637 -4.251975 0 -4.251975  C -1.127637 -4.251975 -2.209241 -3.80396 -3.0066 -3.0066  C -3.80396 -2.209241 -4.251975 -1.127637 -4.251975 0  C -4.251975 1.127637 -3.80396 2.209241 -3.0066 3.0066  C -2.209241 3.80396 -1.127637 4.251975 0 4.251975  z "
       style="stroke: #ff7f0e; stroke-width: 0.2" /><path
       id="mc5bd7dda5d"
       d="M -4.251975 4.251975  L 4.251975 4.251975  L 4.251975 -4.251975  L -4.251975 -4.251975  z "
       style="stroke: #d62728; stroke-width: 0.2; stroke-linejoin: miter" /><path
       id="m3e2c194c30"
       d="M 0 -4.960637  L -4.960637 4.960637  L 4.960637 4.960637  z "
       style="stroke: #8c564b; stroke-width: 0.2; stroke-linejoin: miter" /><clipPath
       id="pf4c12ec92d"><rect
         x="7.2"
         y="7.2"
         width="721.559624"
         height="466.891522"
         id="rect202-91" /></clipPath><style
       type="text/css"
       id="style1-86">*{stroke-linejoin: round; stroke-linecap: butt}</style><path
       id="m5a9de45337"
       d="M 0 4.251975  C 1.127637 4.251975 2.209241 3.80396 3.0066 3.0066  C 3.80396 2.209241 4.251975 1.127637 4.251975 0  C 4.251975 -1.127637 3.80396 -2.209241 3.0066 -3.0066  C 2.209241 -3.80396 1.127637 -4.251975 0 -4.251975  C -1.127637 -4.251975 -2.209241 -3.80396 -3.0066 -3.0066  C -3.80396 -2.209241 -4.251975 -1.127637 -4.251975 0  C -4.251975 1.127637 -3.80396 2.209241 -3.0066 3.0066  C -2.209241 3.80396 -1.127637 4.251975 0 4.251975  z "
       style="stroke: #ff7f0e; stroke-width: 0.2" /><path
       id="me1bc72bb4f"
       d="M -4.251975 4.251975  L 4.251975 4.251975  L 4.251975 -4.251975  L -4.251975 -4.251975  z "
       style="stroke: #d62728; stroke-width: 0.2; stroke-linejoin: miter" /><path
       id="m47a487e02b"
       d="M 0 -4.960637  L -4.960637 4.960637  L 4.960637 4.960637  z "
       style="stroke: #8c564b; stroke-width: 0.2; stroke-linejoin: miter" /><clipPath
       id="p792c48d3ae"><rect
         x="7.2"
         y="7.2"
         width="723.819992"
         height="468.354113"
         id="rect223" /></clipPath><style
       type="text/css"
       id="style1-97">*{stroke-linejoin: round; stroke-linecap: butt}</style><path
       id="m5a9de45337-4"
       d="M 0 4.251975  C 1.127637 4.251975 2.209241 3.80396 3.0066 3.0066  C 3.80396 2.209241 4.251975 1.127637 4.251975 0  C 4.251975 -1.127637 3.80396 -2.209241 3.0066 -3.0066  C 2.209241 -3.80396 1.127637 -4.251975 0 -4.251975  C -1.127637 -4.251975 -2.209241 -3.80396 -3.0066 -3.0066  C -3.80396 -2.209241 -4.251975 -1.127637 -4.251975 0  C -4.251975 1.127637 -3.80396 2.209241 -3.0066 3.0066  C -2.209241 3.80396 -1.127637 4.251975 0 4.251975  z "
       style="stroke: #ff7f0e; stroke-width: 0.2" /><path
       id="me1bc72bb4f-5"
       d="M -4.251975 4.251975  L 4.251975 4.251975  L 4.251975 -4.251975  L -4.251975 -4.251975  z "
       style="stroke: #d62728; stroke-width: 0.2; stroke-linejoin: miter" /><path
       id="m47a487e02b-2"
       d="M 0 -4.960637  L -4.960637 4.960637  L 4.960637 4.960637  z "
       style="stroke: #8c564b; stroke-width: 0.2; stroke-linejoin: miter" /><clipPath
       id="p792c48d3ae-7"><rect
         x="7.2"
         y="7.2"
         width="723.819992"
         height="468.354113"
         id="rect223-3" /></clipPath><style
       type="text/css"
       id="style1-26">*{stroke-linejoin: round; stroke-linecap: butt}</style><path
       id="mcebeeac2a7"
       d="M 0 4.251975  C 1.127637 4.251975 2.209241 3.80396 3.0066 3.0066  C 3.80396 2.209241 4.251975 1.127637 4.251975 0  C 4.251975 -1.127637 3.80396 -2.209241 3.0066 -3.0066  C 2.209241 -3.80396 1.127637 -4.251975 0 -4.251975  C -1.127637 -4.251975 -2.209241 -3.80396 -3.0066 -3.0066  C -3.80396 -2.209241 -4.251975 -1.127637 -4.251975 0  C -4.251975 1.127637 -3.80396 2.209241 -3.0066 3.0066  C -2.209241 3.80396 -1.127637 4.251975 0 4.251975  z "
       style="stroke: #ff7f0e; stroke-width: 0.2" /><path
       id="mef32dd3aef"
       d="M -4.251975 4.251975  L 4.251975 4.251975  L 4.251975 -4.251975  L -4.251975 -4.251975  z "
       style="stroke: #d62728; stroke-width: 0.2; stroke-linejoin: miter" /><path
       id="md3dd35eede"
       d="M 0 -4.960637  L -4.960637 4.960637  L 4.960637 4.960637  z "
       style="stroke: #8c564b; stroke-width: 0.2; stroke-linejoin: miter" /><clipPath
       id="p0b5fee0ae6"><rect
         x="7.2"
         y="7.2"
         width="723.819992"
         height="468.354113"
         id="rect227" /></clipPath></defs><g
     inkscape:label="Layer 1"
     inkscape:groupmode="layer"
     id="layer1"><g
       inkscape:label="Layer 1"
       id="layer1-7"
       transform="matrix(1.4142203,0,0,1.4193811,-0.47522062,-0.06478331)"><rect
         style="fill:none;stroke:#000000;stroke-width:0.299442;stroke-miterlimit:4.1"
         id="rect1"
         width="209.71027"
         height="147.65236"
         x="0.4857538"
         y="0.19536644" /><rect
         style="fill:none;stroke:#000000;stroke-width:0.30262;stroke-miterlimit:4.1"
         id="rect2"
         width="202.63606"
         height="140.60387"
         x="4.0228558"
         y="3.7196126" /><path
         style="fill:#000000;stroke:#000000;stroke-width:0.300001;stroke-miterlimit:4.1"
         d="M 6.2114741,74.041542 H 204.50688"
         id="path9-1"
         sodipodi:nodetypes="cc" /><path
         style="fill:#000000;stroke:#000000;stroke-width:0.3;stroke-miterlimit:4.1"
         d="M 105.34088,5.8626946 V 142.17935"
         id="path10-5"
         sodipodi:nodetypes="cc" /><path
         style="fill:none;stroke:#000000;stroke-width:0.211745;stroke-linecap:butt;stroke-linejoin:round;stroke-miterlimit:4.1"
         d="m 108.8764,5.9755637 h -7.07103 l 3.53552,-2.3089206 z"
         id="path4-2-3" /><path
         style="fill:none;stroke:#000000;stroke-width:0.211745;stroke-linecap:butt;stroke-linejoin:round;stroke-miterlimit:4.1"
         d="m 108.87641,142.05538 h -7.07104 l 3.53552,2.30892 z"
         id="path6-7-6"
         sodipodi:nodetypes="cccc" /><path
         style="fill:none;stroke:#000000;stroke-width:0.211745;stroke-linecap:butt;stroke-linejoin:round;stroke-miterlimit:4.1"
         d="m 204.38373,70.498883 v 7.045325 l 2.31734,-3.522662 z"
         id="path7-6" /></g><g
       id="figure_1"
       transform="matrix(0.35277778,0,0,0.35277778,18.286195,19.847538)" /><path
       style="fill:none;stroke:#000000;stroke-width:0.3;stroke-linecap:butt;stroke-linejoin:round;stroke-miterlimit:4.1"
       d="m 8.4342607,110 v -10 l -3.277231,5 z"
       id="path8-1-9" /></g></svg>
