<?xml version="1.0" encoding="UTF-8" standalone="no"?>
<!-- Created with Inkscape (http://www.inkscape.org/) -->

<svg
   width="210mm"
   height="148mm"
   viewBox="0 0 210 148"
   version="1.1"
   id="svg1"
   xml:space="preserve"
   inkscape:version="1.4.2 (f4327f4, 2025-05-13)"
   sodipodi:docname="Old_Base_Graph.svg"
   xmlns:inkscape="http://www.inkscape.org/namespaces/inkscape"
   xmlns:sodipodi="http://sodipodi.sourceforge.net/DTD/sodipodi-0.dtd"
   xmlns="http://www.w3.org/2000/svg"
   xmlns:svg="http://www.w3.org/2000/svg"><sodipodi:namedview
     id="namedview1"
     pagecolor="#505050"
     bordercolor="#eeeeee"
     borderopacity="1"
     inkscape:showpageshadow="0"
     inkscape:pageopacity="0"
     inkscape:pagecheckerboard="0"
     inkscape:deskcolor="#505050"
     inkscape:document-units="mm"
     inkscape:zoom="1.0167041"
     inkscape:cx="444.08202"
     inkscape:cy="317.20144"
     inkscape:window-width="1920"
     inkscape:window-height="1009"
     inkscape:window-x="-8"
     inkscape:window-y="-8"
     inkscape:window-maximized="1"
     inkscape:current-layer="layer1" /><defs
     id="defs1"><style
       type="text/css"
       id="style1">*{stroke-linejoin: round; stroke-linecap: butt}</style><path
       id="mb97dae165b"
       d="M 0,4.251975 C 1.127637,4.251975 2.209241,3.80396 3.0066,3.0066 3.80396,2.209241 4.251975,1.127637 4.251975,0 4.251975,-1.127637 3.80396,-2.209241 3.0066,-3.0066 2.209241,-3.80396 1.127637,-4.251975 0,-4.251975 c -1.127637,0 -2.209241,0.448015 -3.0066,1.245375 -0.79736,0.797359 -1.245375,1.878963 -1.245375,3.0066 0,1.127637 0.448015,2.209241 1.245375,3.0066 C -2.209241,3.80396 -1.127637,4.251975 0,4.251975 Z"
       style="stroke:#1f77b4;stroke-width:0.2" /><path
       id="mb565273443"
       d="m -4.251975,4.251975 h 8.50395 v -8.50395 h -8.50395 z"
       style="stroke:#ff7f0e;stroke-width:0.2;stroke-linejoin:miter" /><path
       id="mfbbff67701"
       d="M 0,-4.960637 -4.960637,4.960637 H 4.960637 Z"
       style="stroke:#2ca02c;stroke-width:0.2;stroke-linejoin:miter" /><clipPath
       id="pf7ded196f5"><rect
         x="7.1999998"
         y="7.1999998"
         width="510.23621"
         height="510.23621"
         id="rect197" /></clipPath><style
       type="text/css"
       id="style1-4">*{stroke-linejoin: round; stroke-linecap: butt}</style><path
       id="mf02ec4879a"
       d="M 0,4.251975 C 1.127637,4.251975 2.209241,3.80396 3.0066,3.0066 3.80396,2.209241 4.251975,1.127637 4.251975,0 4.251975,-1.127637 3.80396,-2.209241 3.0066,-3.0066 2.209241,-3.80396 1.127637,-4.251975 0,-4.251975 c -1.127637,0 -2.209241,0.448015 -3.0066,1.245375 -0.79736,0.797359 -1.245375,1.878963 -1.245375,3.0066 0,1.127637 0.448015,2.209241 1.245375,3.0066 C -2.209241,3.80396 -1.127637,4.251975 0,4.251975 Z"
       style="stroke:#1f77b4;stroke-width:0.2" /><path
       id="m02fe916b24"
       d="m -4.251975,4.251975 h 8.50395 v -8.50395 h -8.50395 z"
       style="stroke:#ff7f0e;stroke-width:0.2;stroke-linejoin:miter" /><path
       id="m6856111c7f"
       d="M 0,-4.960637 -4.960637,4.960637 H 4.960637 Z"
       style="stroke:#2ca02c;stroke-width:0.2;stroke-linejoin:miter" /><clipPath
       id="pc3cde7ef2d"><rect
         x="7.1999998"
         y="7.1999998"
         width="551.48938"
         height="551.48938"
         id="rect197-5" /></clipPath><style
       type="text/css"
       id="style1-1">*{stroke-linejoin: round; stroke-linecap: butt}</style><path
       id="m8e98d0b9d8"
       d="M 0,4.251975 C 1.127637,4.251975 2.209241,3.80396 3.0066,3.0066 3.80396,2.209241 4.251975,1.127637 4.251975,0 4.251975,-1.127637 3.80396,-2.209241 3.0066,-3.0066 2.209241,-3.80396 1.127637,-4.251975 0,-4.251975 c -1.127637,0 -2.209241,0.448015 -3.0066,1.245375 -0.79736,0.797359 -1.245375,1.878963 -1.245375,3.0066 0,1.127637 0.448015,2.209241 1.245375,3.0066 C -2.209241,3.80396 -1.127637,4.251975 0,4.251975 Z"
       style="stroke:#1f77b4;stroke-width:0.2" /><path
       id="mc0d9045eeb"
       d="m -4.251975,4.251975 h 8.50395 v -8.50395 h -8.50395 z"
       style="stroke:#ff7f0e;stroke-width:0.2;stroke-linejoin:miter" /><path
       id="ma8255e391b"
       d="M 0,-4.960637 -4.960637,4.960637 H 4.960637 Z"
       style="stroke:#2ca02c;stroke-width:0.2;stroke-linejoin:miter" /><clipPath
       id="pe4f4aa670c"><rect
         x="7.1999998"
         y="7.1999998"
         width="553.84613"
         height="553.84613"
         id="rect197-7" /></clipPath><style
       type="text/css"
       id="style1-15">*{stroke-linejoin: round; stroke-linecap: butt}</style><path
       id="md1b1b1f54a"
       d="M 0,4.251975 C 1.127637,4.251975 2.209241,3.80396 3.0066,3.0066 3.80396,2.209241 4.251975,1.127637 4.251975,0 4.251975,-1.127637 3.80396,-2.209241 3.0066,-3.0066 2.209241,-3.80396 1.127637,-4.251975 0,-4.251975 c -1.127637,0 -2.209241,0.448015 -3.0066,1.245375 -0.79736,0.797359 -1.245375,1.878963 -1.245375,3.0066 0,1.127637 0.448015,2.209241 1.245375,3.0066 C -2.209241,3.80396 -1.127637,4.251975 0,4.251975 Z"
       style="stroke:#1f77b4;stroke-width:0.2" /><path
       id="mcddf8e0c75"
       d="m -4.251975,4.251975 h 8.50395 v -8.50395 h -8.50395 z"
       style="stroke:#ff7f0e;stroke-width:0.2;stroke-linejoin:miter" /><path
       id="mbe955bfe3c"
       d="M 0,-4.960637 -4.960637,4.960637 H 4.960637 Z"
       style="stroke:#2ca02c;stroke-width:0.2;stroke-linejoin:miter" /><clipPath
       id="p7152c2aa95"><rect
         x="7.1999998"
         y="7.1999998"
         width="552.66522"
         height="552.66522"
         id="rect197-2" /></clipPath><style
       type="text/css"
       id="style1-6">*{stroke-linejoin: round; stroke-linecap: butt}</style><path
       id="m2aa66b2d82"
       d="M 0,4.251975 C 1.127637,4.251975 2.209241,3.80396 3.0066,3.0066 3.80396,2.209241 4.251975,1.127637 4.251975,0 4.251975,-1.127637 3.80396,-2.209241 3.0066,-3.0066 2.209241,-3.80396 1.127637,-4.251975 0,-4.251975 c -1.127637,0 -2.209241,0.448015 -3.0066,1.245375 -0.79736,0.797359 -1.245375,1.878963 -1.245375,3.0066 0,1.127637 0.448015,2.209241 1.245375,3.0066 C -2.209241,3.80396 -1.127637,4.251975 0,4.251975 Z"
       style="stroke:#1f77b4;stroke-width:0.2" /><path
       id="m14d9e4124f"
       d="m -4.251975,4.251975 h 8.50395 v -8.50395 h -8.50395 z"
       style="stroke:#ff7f0e;stroke-width:0.2;stroke-linejoin:miter" /><path
       id="md6dafae4a9"
       d="M 0,-4.960637 -4.960637,4.960637 H 4.960637 Z"
       style="stroke:#2ca02c;stroke-width:0.2;stroke-linejoin:miter" /><clipPath
       id="p4031122b98"><rect
         x="7.1999998"
         y="7.1999998"
         width="552.42969"
         height="552.42969"
         id="rect197-1" /></clipPath><style
       type="text/css"
       id="style1-2">*{stroke-linejoin: round; stroke-linecap: butt}</style><path
       id="m0a5a9c04f4"
       d="M 0,4.251975 C 1.127637,4.251975 2.209241,3.80396 3.0066,3.0066 3.80396,2.209241 4.251975,1.127637 4.251975,0 4.251975,-1.127637 3.80396,-2.209241 3.0066,-3.0066 2.209241,-3.80396 1.127637,-4.251975 0,-4.251975 c -1.127637,0 -2.209241,0.448015 -3.0066,1.245375 -0.79736,0.797359 -1.245375,1.878963 -1.245375,3.0066 0,1.127637 0.448015,2.209241 1.245375,3.0066 C -2.209241,3.80396 -1.127637,4.251975 0,4.251975 Z"
       style="stroke:#1f77b4;stroke-width:0.2" /><path
       id="m9acab18628"
       d="m -4.251975,4.251975 h 8.50395 v -8.50395 h -8.50395 z"
       style="stroke:#ff7f0e;stroke-width:0.2;stroke-linejoin:miter" /><path
       id="mbbf24c3619"
       d="M 0,-4.960637 -4.960637,4.960637 H 4.960637 Z"
       style="stroke:#2ca02c;stroke-width:0.2;stroke-linejoin:miter" /><clipPath
       id="p101ff942c7"><rect
         x="7.1999998"
         y="7.1999998"
         width="552.54742"
         height="552.54742"
         id="rect197-3" /></clipPath><style
       type="text/css"
       id="style1-21">*{stroke-linejoin: round; stroke-linecap: butt}</style><path
       id="md46732aa3e"
       d="M 0,4.251975 C 1.127637,4.251975 2.209241,3.80396 3.0066,3.0066 3.80396,2.209241 4.251975,1.127637 4.251975,0 4.251975,-1.127637 3.80396,-2.209241 3.0066,-3.0066 2.209241,-3.80396 1.127637,-4.251975 0,-4.251975 c -1.127637,0 -2.209241,0.448015 -3.0066,1.245375 -0.79736,0.797359 -1.245375,1.878963 -1.245375,3.0066 0,1.127637 0.448015,2.209241 1.245375,3.0066 C -2.209241,3.80396 -1.127637,4.251975 0,4.251975 Z"
       style="stroke:#1f77b4;stroke-width:0.2" /><path
       id="mde8e51b6dd"
       d="m -4.251975,4.251975 h 8.50395 v -8.50395 h -8.50395 z"
       style="stroke:#ff7f0e;stroke-width:0.2;stroke-linejoin:miter" /><path
       id="m96080f9bff"
       d="M 0,-4.960637 -4.960637,4.960637 H 4.960637 Z"
       style="stroke:#2ca02c;stroke-width:0.2;stroke-linejoin:miter" /><clipPath
       id="pf8bb5439b7"><rect
         x="7.1999998"
         y="7.1999998"
         width="552.57098"
         height="552.57098"
         id="rect197-6" /></clipPath><style
       type="text/css"
       id="style1-5">*{stroke-linejoin: round; stroke-linecap: butt}</style><path
       id="m720d884123"
       d="M 0,4.251975 C 1.127637,4.251975 2.209241,3.80396 3.0066,3.0066 3.80396,2.209241 4.251975,1.127637 4.251975,0 4.251975,-1.127637 3.80396,-2.209241 3.0066,-3.0066 2.209241,-3.80396 1.127637,-4.251975 0,-4.251975 c -1.127637,0 -2.209241,0.448015 -3.0066,1.245375 -0.79736,0.797359 -1.245375,1.878963 -1.245375,3.0066 0,1.127637 0.448015,2.209241 1.245375,3.0066 C -2.209241,3.80396 -1.127637,4.251975 0,4.251975 Z"
       style="stroke:#1f77b4;stroke-width:0.2" /><path
       id="mbeceb3cea5"
       d="m -4.251975,4.251975 h 8.50395 v -8.50395 h -8.50395 z"
       style="stroke:#ff7f0e;stroke-width:0.2;stroke-linejoin:miter" /><path
       id="ma44c3d8df0"
       d="M 0,-4.960637 -4.960637,4.960637 H 4.960637 Z"
       style="stroke:#2ca02c;stroke-width:0.2;stroke-linejoin:miter" /><clipPath
       id="p8367a5cace"><rect
         x="7.1999998"
         y="7.1999998"
         width="552.52386"
         height="552.52386"
         id="rect197-76" /></clipPath><style
       type="text/css"
       id="style1-8">*{stroke-linejoin: round; stroke-linecap: butt}</style><path
       id="m11576f5f0e"
       d="M 0,4.251975 C 1.127637,4.251975 2.209241,3.80396 3.0066,3.0066 3.80396,2.209241 4.251975,1.127637 4.251975,0 4.251975,-1.127637 3.80396,-2.209241 3.0066,-3.0066 2.209241,-3.80396 1.127637,-4.251975 0,-4.251975 c -1.127637,0 -2.209241,0.448015 -3.0066,1.245375 -0.79736,0.797359 -1.245375,1.878963 -1.245375,3.0066 0,1.127637 0.448015,2.209241 1.245375,3.0066 C -2.209241,3.80396 -1.127637,4.251975 0,4.251975 Z"
       style="stroke:#1f77b4;stroke-width:0.2" /><path
       id="m594ab4c197"
       d="m -4.251975,4.251975 h 8.50395 v -8.50395 h -8.50395 z"
       style="stroke:#ff7f0e;stroke-width:0.2;stroke-linejoin:miter" /><path
       id="m72ada06c32"
       d="M 0,-4.960637 -4.960637,4.960637 H 4.960637 Z"
       style="stroke:#2ca02c;stroke-width:0.2;stroke-linejoin:miter" /><clipPath
       id="pbe377a04ff"><rect
         x="7.1999998"
         y="7.1999998"
         width="552.53564"
         height="552.53564"
         id="rect197-9" /></clipPath><style
       type="text/css"
       id="style1-3">*{stroke-linejoin: round; stroke-linecap: butt}</style><path
       id="m0ddc308857"
       d="M 0,4.251975 C 1.127637,4.251975 2.209241,3.80396 3.0066,3.0066 3.80396,2.209241 4.251975,1.127637 4.251975,0 4.251975,-1.127637 3.80396,-2.209241 3.0066,-3.0066 2.209241,-3.80396 1.127637,-4.251975 0,-4.251975 c -1.127637,0 -2.209241,0.448015 -3.0066,1.245375 -0.79736,0.797359 -1.245375,1.878963 -1.245375,3.0066 0,1.127637 0.448015,2.209241 1.245375,3.0066 C -2.209241,3.80396 -1.127637,4.251975 0,4.251975 Z"
       style="stroke:#1f77b4;stroke-width:0.2" /><path
       id="mba9cdedf1e"
       d="m -4.251975,4.251975 h 8.50395 v -8.50395 h -8.50395 z"
       style="stroke:#ff7f0e;stroke-width:0.2;stroke-linejoin:miter" /><path
       id="m8a03f30a95"
       d="M 0,-4.960637 -4.960637,4.960637 H 4.960637 Z"
       style="stroke:#2ca02c;stroke-width:0.2;stroke-linejoin:miter" /><clipPath
       id="p55cd0e1caf"><rect
         x="7.1999998"
         y="7.1999998"
         width="359.14734"
         height="359.14734"
         id="rect197-4" /></clipPath><style
       type="text/css"
       id="style1-13">*{stroke-linejoin: round; stroke-linecap: butt}</style><path
       id="m656fe76b6e"
       d="M 0,4.251975 C 1.127637,4.251975 2.209241,3.80396 3.0066,3.0066 3.80396,2.209241 4.251975,1.127637 4.251975,0 4.251975,-1.127637 3.80396,-2.209241 3.0066,-3.0066 2.209241,-3.80396 1.127637,-4.251975 0,-4.251975 c -1.127637,0 -2.209241,0.448015 -3.0066,1.245375 -0.79736,0.797359 -1.245375,1.878963 -1.245375,3.0066 0,1.127637 0.448015,2.209241 1.245375,3.0066 C -2.209241,3.80396 -1.127637,4.251975 0,4.251975 Z"
       style="stroke:#1f77b4;stroke-width:0.2" /><path
       id="mb167d81ba6"
       d="m -4.251975,4.251975 h 8.50395 v -8.50395 h -8.50395 z"
       style="stroke:#ff7f0e;stroke-width:0.2;stroke-linejoin:miter" /><path
       id="m5b36bd93bc"
       d="M 0,-4.960637 -4.960637,4.960637 H 4.960637 Z"
       style="stroke:#2ca02c;stroke-width:0.2;stroke-linejoin:miter" /><clipPath
       id="pe49cc6331e"><rect
         x="7.1999998"
         y="7.1999998"
         width="359.14734"
         height="359.14734"
         id="rect197-8" /></clipPath><style
       type="text/css"
       id="style1-9">*{stroke-linejoin: round; stroke-linecap: butt}</style><clipPath
       id="p49ead04eb2"><rect
         x="7.2"
         y="7.2"
         width="476.220472"
         height="306.141732"
         id="rect107" /></clipPath><style
       type="text/css"
       id="style1-60">*{stroke-linejoin: round; stroke-linecap: butt}</style><path
       id="mc8f5b0624d"
       d="M 0 4.251975  C 1.127637 4.251975 2.209241 3.80396 3.0066 3.0066  C 3.80396 2.209241 4.251975 1.127637 4.251975 0  C 4.251975 -1.127637 3.80396 -2.209241 3.0066 -3.0066  C 2.209241 -3.80396 1.127637 -4.251975 0 -4.251975  C -1.127637 -4.251975 -2.209241 -3.80396 -3.0066 -3.0066  C -3.80396 -2.209241 -4.251975 -1.127637 -4.251975 0  C -4.251975 1.127637 -3.80396 2.209241 -3.0066 3.0066  C -2.209241 3.80396 -1.127637 4.251975 0 4.251975  z "
       style="stroke: #1f77b4; stroke-width: 0.2" /><path
       id="m2c355d5ea0"
       d="M -4.251975 4.251975  L 4.251975 4.251975  L 4.251975 -4.251975  L -4.251975 -4.251975  z "
       style="stroke: #ff7f0e; stroke-width: 0.2; stroke-linejoin: miter" /><path
       id="md6e5e20634"
       d="M 0 -4.960637  L -4.960637 4.960637  L 4.960637 4.960637  z "
       style="stroke: #2ca02c; stroke-width: 0.2; stroke-linejoin: miter" /><clipPath
       id="p319746481f"><rect
         x="7.2"
         y="7.2"
         width="477.942219"
         height="307.248569"
         id="rect169" /></clipPath><style
       type="text/css"
       id="style1-66">*{stroke-linejoin: round; stroke-linecap: butt}</style><clipPath
       id="p49ead04eb2-1"><rect
         x="7.2"
         y="7.2"
         width="476.220472"
         height="306.141732"
         id="rect107-6" /></clipPath></defs><g
     inkscape:label="Layer 1"
     inkscape:groupmode="layer"
     id="layer1"><g
       inkscape:label="Layer 1"
       id="layer1-7"
       transform="translate(-0.34087554,-0.04154156)"><rect
         style="fill:none;stroke:#000000;stroke-width:0.299484;stroke-miterlimit:4.1"
         id="rect1"
         width="209.70053"
         height="147.70052"
         x="0.49061003"
         y="0.19128369" /><rect
         style="fill:none;stroke:#000000;stroke-width:0.299454;stroke-miterlimit:4.1"
         id="rect2"
         width="199.70055"
         height="139.70055"
         x="5.4906025"
         y="4.1912684" /><path
         style="fill:#000000;stroke:#000000;stroke-width:0.300001;stroke-miterlimit:4.1"
         d="M 8.778686,74.191518 H 202.20307"
         id="path9"
         sodipodi:nodetypes="cc" /><path
         style="fill:#000000;stroke:#000000;stroke-width:0.3;stroke-miterlimit:4.1"
         d="M 105.34088,7.2606712 V 140.82241"
         id="path10"
         sodipodi:nodetypes="cc" /><path
         style="fill:#000000;stroke:#000000;stroke-width:0.3;stroke-miterlimit:4.1"
         d="M 62.990873,19.191541 V 129.19154"
         id="path2"
         sodipodi:nodetypes="cc" /><path
         style="fill:#000000;stroke:#000000;stroke-width:0.3;stroke-miterlimit:4.1"
         d="M 147.99087,19.041844 V 129.34124"
         id="path3"
         sodipodi:nodetypes="cc" /><rect
         style="fill:none;stroke:#b3b3b3;stroke-width:0.3;stroke-miterlimit:4.1"
         id="rect4"
         width="170"
         height="55"
         x="20.490875"
         y="46.69154" /><path
         style="fill:none;stroke:#000000;stroke-width:0.3;stroke-miterlimit:4.1"
         d="m 110.49088,7.4687792 h -10 l 5,-3.277238 z"
         id="path4" /><path
         style="fill:none;stroke:#000000;stroke-width:0.3;stroke-miterlimit:4.1"
         d="m 110.49088,140.88496 h -10 l 5,3.27723 z"
         id="path6" /><path
         style="fill:none;stroke:#000000;stroke-width:0.3;stroke-miterlimit:4.1"
         d="m 202.20307,69.191518 v 10 l 3.27723,-5 z"
         id="path7" /><path
         style="fill:none;stroke:#000000;stroke-width:0.3;stroke-miterlimit:4.1"
         d="m 8.778686,79.191518 v -10 l -3.2772302,5 z"
         id="path8" /><rect
         style="fill:none;stroke:#000000;stroke-width:0.3;stroke-miterlimit:4.1"
         id="rect8"
         width="170.14999"
         height="110.1497"
         x="20.490875"
         y="19.191542" /></g></g></svg>
